<?xml version="1.0" encoding="UTF-8"?><svg id="Layer_1" xmlns="http://www.w3.org/2000/svg" xmlns:xlink="http://www.w3.org/1999/xlink" viewBox="0 0 300 302.95"><defs><style>.cls-1,.cls-2,.cls-3,.cls-4{fill:none;}.cls-5{font-size:17.57px;}.cls-5,.cls-6,.cls-7,.cls-8,.cls-9,.cls-10,.cls-11,.cls-12,.cls-13,.cls-14,.cls-15,.cls-16,.cls-17,.cls-18,.cls-19,.cls-20,.cls-21,.cls-22,.cls-23{font-family:Montserrat-Bold, Montserrat;}.cls-5,.cls-6,.cls-7,.cls-8,.cls-9,.cls-10,.cls-11,.cls-12,.cls-13,.cls-14,.cls-15,.cls-16,.cls-17,.cls-18,.cls-19,.cls-20,.cls-21,.cls-22,.cls-23,.cls-24,.cls-25,.cls-26,.cls-27{font-weight:700;}.cls-6{font-size:17.57px;}.cls-7{font-size:17.57px;}.cls-8{font-size:17.57px;}.cls-9{font-size:17.57px;}.cls-10{font-size:17.57px;}.cls-11{font-size:17.57px;}.cls-12{font-size:17.57px;}.cls-13{font-size:17.57px;}.cls-14{font-size:17.57px;}.cls-15{font-size:17.57px;}.cls-16{font-size:17.57px;}.cls-17{font-size:17.57px;}.cls-18{font-size:17.57px;}.cls-19{font-size:17.57px;}.cls-20{font-size:17.57px;}.cls-21{font-size:17.57px;}.cls-22{font-size:17.57px;}.cls-23{font-size:17.57px;}.cls-28{fill:#cf6f1b;}.cls-24{font-size:38.07px;}.cls-24,.cls-25,.cls-26,.cls-27{font-family:Montserrat-ExtraBold, Montserrat;}.cls-25{font-size:38.07px;}.cls-26{font-size:38.07px;}.cls-27{font-size:38.07px;}.cls-29{clip-path:url(#clippath-1);}.cls-30{clip-path:url(#clippath-3);}.cls-31{clip-path:url(#clippath-2);}.cls-2,.cls-3{stroke-linecap:round;}.cls-2,.cls-4{stroke:#fff;stroke-linejoin:round;stroke-width:8.05px;}.cls-3{stroke:#000;stroke-width:7.32px;}</style><clipPath id="clippath-1"><rect class="cls-1" y="2.95" width="300" height="300"/></clipPath><clipPath id="clippath-2"><rect class="cls-1" y="2.95" width="300" height="300"/></clipPath><clipPath id="clippath-3"><rect class="cls-1" y="2.95" width="300" height="300"/></clipPath></defs><g class="cls-29"><path class="cls-28" d="M150.2,262.96c60.76,0,110.01-49.27,110.01-110.02s-49.25-110.02-110.01-110.02-110.01,49.25-110.01,110.02,49.25,110.02,110.01,110.02"/><text class="cls-27" transform="translate(94.41 45.86) rotate(-22.22)"><tspan x="0" y="0">F</tspan></text><text class="cls-25" transform="translate(117.3 36.83) rotate(-10.85)"><tspan x="0" y="0">F</tspan></text><text class="cls-24" transform="translate(141.84 32.33) rotate(2.18)"><tspan x="0" y="0">R</tspan></text><text class="cls-26" transform="translate(171.14 33.33) rotate(17.99)"><tspan x="0" y="0">M</tspan></text><path class="cls-2" d="M112.46,130.5v-6.69M112.43,84.64l.02-6.79M99.99,113.61c0,5.63,5.58,10.2,12.46,10.2s12.47-4.57,12.47-10.2-5.58-10.2-12.47-10.2c-6.31,0-11.62-4.25-11.62-9.42s5.12-9.35,11.43-9.35,11.43,4.19,11.43,9.35"/></g><path class="cls-4" d="M112.8,194.04h24.03v-15.27h-24.03v15.27ZM136.83,194.04h24.03v-15.27h-24.03v15.27ZM160.86,194.04h24.03v-15.27h-24.03v15.27ZM184.88,194.04h-72.08v-15.27h72.08v15.27ZM108.19,143.22l-2.59,20.29h-8.07v52.8h102.62v-52.8h-7.64v-16.18l-21.19,16.18v-16.18l-21.19,16.18v-16.18l-21.19,16.18h-9.61l-2.59-20.29h-8.54Z"/><g class="cls-31"><path class="cls-2" d="M204.82,132.44l-16.91-16.91v-18.96M218.59,115.53h7.33M149.9,115.53h7.33M187.91,77.53v7.33M160.51,141.87c-6.57-6.83-10.61-16.11-10.61-26.34,0-20.99,17.02-38.01,38.01-38.01s38.01,17.02,38.01,38.01c0,15.1-8.8,28.14-21.55,34.27"/></g><text class="cls-9" transform="translate(21.05 186.4) rotate(73.43)"><tspan x="0" y="0">F</tspan></text><text class="cls-20" transform="translate(24.81 198.97) rotate(66.37)"><tspan x="0" y="0">O</tspan></text><text class="cls-22" transform="translate(31.46 213.76) rotate(60.79)"><tspan x="0" y="0">S</tspan></text><text class="cls-18" transform="translate(37.71 224.67) rotate(55.27)"><tspan x="0" y="0">S</tspan></text><text class="cls-13" transform="translate(44.68 234.45) rotate(51.15)"><tspan x="0" y="0">I</tspan></text><text class="cls-5" transform="translate(48.74 239.6) rotate(47.05)"><tspan x="0" y="0">L</tspan></text><text class="cls-21" transform="translate(56.2 247.47) rotate(44.32)"><tspan x="0" y="0"> </tspan></text><text class="cls-19" transform="translate(60.31 251.51) rotate(40.22)"><tspan x="0" y="0">F</tspan></text><text class="cls-18" transform="translate(69.99 259.56) rotate(34.73)"><tspan x="0" y="0">U</tspan></text><text class="cls-8" transform="translate(83.12 268.3) rotate(27.82)"><tspan x="0" y="0">E</tspan></text><text class="cls-11" transform="translate(94.84 274.36) rotate(22.22)"><tspan x="0" y="0">L</tspan></text><text class="cls-15" transform="translate(104.95 278.37) rotate(19.4)"><tspan x="0" y="0"> </tspan></text><text class="cls-23" transform="translate(110.45 280.32) rotate(15.14)"><tspan x="0" y="0">R</tspan></text><text class="cls-12" transform="translate(124.94 284.03) rotate(7.97)"><tspan x="0" y="0">E</tspan></text><text class="cls-18" transform="translate(137.51 285.72) rotate(3.63)"><tspan x="0" y="0">T</tspan></text><text class="cls-7" transform="translate(149.24 286.27) rotate(-.72)"><tspan x="0" y="0">I</tspan></text><text class="cls-17" transform="translate(155.9 286.28) rotate(-5.07)"><tspan x="0" y="0">R</tspan></text><text class="cls-14" transform="translate(170.22 284.86) rotate(-10.85)"><tspan x="0" y="0">E</tspan></text><text class="cls-10" transform="translate(183.8 282.23) rotate(-17.99)"><tspan x="0" y="0">M</tspan></text><text class="cls-14" transform="translate(201.54 276.12) rotate(-25.03)"><tspan x="0" y="0">E</tspan></text><text class="cls-17" transform="translate(214 270.29) rotate(-31.97)"><tspan x="0" y="0">N</tspan></text><text class="cls-9" transform="translate(227.13 261.95) rotate(-37.48)"><tspan x="0" y="0">T</tspan></text><text class="cls-16" transform="translate(236.3 254.77) rotate(-41.58)"><tspan x="0" y="0"> </tspan></text><text class="cls-21" transform="translate(240.72 251.05) rotate(-45.68)"><tspan x="0" y="0">M</tspan></text><text class="cls-6" transform="translate(253.89 237.02) rotate(-53.9)"><tspan x="0" y="0">O</tspan></text><text class="cls-22" transform="translate(263.59 223.35) rotate(-60.79)"><tspan x="0" y="0">D</tspan></text><text class="cls-11" transform="translate(271.4 208.84) rotate(-67.78)"><tspan x="0" y="0">E</tspan></text><text class="cls-9" transform="translate(276.33 196.57) rotate(-73.43)"><tspan x="0" y="0">L</tspan></text><g class="cls-30"><path class="cls-3" d="M81.75,45.68c-1.53.98-3.04,1.98-4.53,3.03"/><path class="cls-3" d="M77.22,48.71c-32.85,22.98-54.33,61.09-54.33,104.23,0,7.02.57,13.91,1.66,20.61"/><path class="cls-3" d="M275.35,174.14c1.16-6.89,1.76-13.97,1.76-21.19,0-44.67-23.03-83.95-57.87-106.63"/></g></svg>