<?xml version="1.0" encoding="UTF-8"?><svg id="Layer_1" xmlns="http://www.w3.org/2000/svg" viewBox="0 0 261.55 280.44"><defs><style>.cls-1{fill:#cf6f1b;}.cls-2,.cls-3{stroke-linecap:round;}.cls-2,.cls-3,.cls-4{fill:none;}.cls-2,.cls-4{stroke:#fff;stroke-linejoin:round;stroke-width:8.05px;}.cls-3{stroke:#000;stroke-width:7.32px;}</style></defs><path class="cls-1" d="M130.98,257.15c60.76,0,110.01-49.27,110.01-110.02s-49.25-110.02-110.01-110.02S20.97,86.37,20.97,147.14s49.25,110.02,110.01,110.02h0Z"/><path class="cls-2" d="M80.77,107.8c0,5.64,5.58,10.2,12.46,10.2s12.46-4.57,12.46-10.2-5.58-10.2-12.46-10.2c-6.31,0-11.62-4.25-11.62-9.42s5.12-9.35,11.43-9.35,11.43,4.19,11.43,9.35M93.21,78.83l.02-6.78M93.23,124.69v-6.69"/><path class="cls-4" d="M88.96,137.41l-2.59,20.29h-8.07v52.8h102.62v-52.8h-7.65v-16.18l-21.19,16.18v-16.18l-21.2,16.18v-6.9s0-9.29,0-9.29l-21.19,16.18h-9.61l-2.59-20.29h-8.54ZM165.66,188.23h-72.08v-15.27h72.08v15.27h0ZM141.63,188.23h24.03v-15.27h-24.03v15.27h0ZM117.6,188.23h24.03v-15.27h-24.03v15.27h0ZM93.58,188.23h24.03v-15.27h-24.03v15.27h0Z"/><path class="cls-2" d="M141.28,136.06c-6.57-6.83-10.61-16.11-10.61-26.34,0-20.99,17.02-38.01,38.01-38.01s38.01,17.02,38.01,38.01c0,15.1-8.8,28.14-21.55,34.27M168.68,71.71v7.33M130.68,109.72h7.33M199.36,109.72h7.33M185.59,126.63l-16.91-16.91v-18.96"/><path class="cls-3" d="M62.52,39.87c-1.53.98-3.05,1.98-4.53,3.03M57.99,42.9C25.14,65.89,3.66,104,3.66,147.14c0,7.02.57,13.91,1.66,20.61M256.13,168.32c1.16-6.89,1.76-13.97,1.76-21.19,0-44.67-23.03-83.95-57.87-106.63"/><path d="M14.49,188.03l2.19-.65-2.65-8.91-11.79,3.51.81,2.73,4.29-1.28,1.62,5.46,2.19-.65-1.62-5.46,3.12-.93,1.84,6.18h0ZM8.36,200.03c1.55,3.54,5.16,5.09,8.52,3.62,3.36-1.47,4.68-5.17,3.13-8.71-1.56-3.56-5.18-5.08-8.52-3.62-3.35,1.47-4.69,5.16-3.13,8.71h0ZM10.58,199.06c-.88-2.01-.08-4.17,2.06-5.1,2.14-.94,4.27-.06,5.15,1.95s.08,4.17-2.06,5.1c-2.14.94-4.27.06-5.15-1.95h0ZM14.73,212.85c1.71,3.07,4.08,3.7,5.87,2.69,3.94-2.2-.92-7.68,1.06-8.79.68-.38,1.55-.12,2.37,1.35.53.95.83,2.13.82,3.45l2.32-.29c.07-1.35-.38-2.91-1.13-4.26-1.71-3.05-4.05-3.67-5.87-2.65-3.99,2.23.88,7.7-1.13,8.82-.66.37-1.48.04-2.31-1.43-.72-1.29-1.01-2.89-.86-4.17l-2.34.2c-.2,1.36.25,3.36,1.2,5.06h0ZM21.45,223.5c2,2.89,4.41,3.29,6.1,2.12,3.71-2.57-1.65-7.56.21-8.85.64-.44,1.53-.27,2.49,1.12.62.89,1.03,2.04,1.15,3.35l2.28-.51c-.06-1.35-.66-2.86-1.54-4.13-1.99-2.87-4.38-3.27-6.1-2.08-3.75,2.6,1.62,7.58-.27,8.89-.62.43-1.47.19-2.43-1.2-.84-1.21-1.29-2.78-1.26-4.07l-2.31.43c-.07,1.38.57,3.32,1.68,4.92h0ZM26.37,229.77l1.78,2.21,9.58-7.71-1.78-2.21-9.58,7.71h0ZM30.51,234.85l6.14,6.6,1.7-1.58-4.2-4.51,7.3-6.8-1.94-2.08-9,8.38h0ZM55.76,244.99l1.47-1.74-7.1-6-7.94,9.39,2.17,1.84,2.89-3.42,4.35,3.68,1.47-1.74-4.35-3.67,2.1-2.48,4.92,4.16h0ZM56.33,257.86c2.87,1.99,5.72,1.53,7.78-1.45l3.92-5.66-2.31-1.6-3.86,5.57c-1.33,1.92-2.71,2.14-4.14,1.15-1.42-.98-1.7-2.36-.37-4.28l3.86-5.57-2.34-1.62-3.92,5.66c-2.06,2.97-1.5,5.8,1.37,7.79h0ZM68.75,262.47l1.33-2.52,5.05,2.66,1.03-1.96-5.05-2.66,1.25-2.36,5.72,3.02,1.06-2.02-8.22-4.34-5.74,10.88,8.42,4.44,1.06-2.02-5.92-3.12h0ZM76.96,269.1l8.34,3.41.88-2.15-5.71-2.33,3.77-9.24-2.63-1.08-4.65,11.39h0ZM103.14,277.73l-1.63-4.54c1.72-.24,2.98-1.31,3.46-3.09.72-2.66-.82-4.85-3.99-5.7l-5.14-1.39-3.21,11.87,2.75.74.9-3.31,2.39.65.14.04,1.39,3.93,2.95.8h0ZM102.19,269.35c-.35,1.29-1.41,1.84-3.09,1.39l-2.24-.61,1.12-4.14,2.24.61c1.68.45,2.32,1.45,1.97,2.75h0ZM110.28,276.55l.39-2.82,5.65.79.31-2.19-5.65-.79.37-2.65,6.4.9.32-2.26-9.2-1.29-1.7,12.18,9.43,1.32.32-2.26-6.63-.93h0ZM122.28,280.16l2.84.18.63-9.96,3.93.25.15-2.31-10.7-.68-.15,2.32,3.93.25-.63,9.96h0ZM131.47,280.44l2.85-.04-.15-12.3-2.85.04.15,12.3h0ZM148.98,279.37l-3.1-3.69c1.53-.82,2.34-2.25,2.18-4.09-.24-2.75-2.44-4.26-5.71-3.97l-5.3.47,1.09,12.25,2.83-.25-.3-3.41,2.47-.22h.14s2.67,3.19,2.67,3.19l3.04-.27h0ZM145.19,271.84c.12,1.33-.68,2.21-2.42,2.37l-2.31.21-.38-4.27,2.31-.2c1.73-.15,2.68.56,2.8,1.9h0ZM154.77,276l-.54-2.8,5.61-1.07-.42-2.17-5.61,1.07-.5-2.62,6.35-1.22-.43-2.24-9.13,1.75,2.31,12.08,9.35-1.79-.43-2.24-6.57,1.26h0ZM179.14,271.68l-3.83-11.69-2.22.72-1.95,8.67-6.74-5.85-2.24.73,3.8,11.7,2.54-.82-2.23-6.87,5.25,4.52,1.22-.4,1.57-6.9,2.29,7.01,2.54-.82h0ZM185.23,266.43l-1.21-2.58,5.17-2.42-.94-2-5.17,2.41-1.13-2.42,5.86-2.74-.96-2.07-8.42,3.93,5.2,11.14,8.63-4.03-.96-2.07-6.07,2.83h0ZM196.68,248.78l3.95,6.33-9.14-3.09-1.99,1.24,6.51,10.43,2.38-1.49-3.95-6.33,9.16,3.08,1.98-1.24-6.51-10.43-2.38,1.49h0ZM211.08,253.69l2.26-1.73-6.07-7.92,3.12-2.39-1.41-1.84-8.5,6.52,1.41,1.84,3.12-2.4,6.07,7.92h0ZM232.19,234.28l-8.82-8.57-1.63,1.67,2.3,8.58-8.68-2.05-1.64,1.68,8.8,8.59,1.86-1.91-5.17-5.04,6.75,1.56.89-.92-1.82-6.83,5.29,5.14,1.87-1.91h0ZM239.2,225.33c2.28-3.12,1.79-7.02-1.17-9.18-2.97-2.17-6.82-1.43-9.1,1.69-2.29,3.14-1.78,7.03,1.17,9.18,2.95,2.15,6.81,1.45,9.1-1.69h0ZM237.24,223.91c-1.3,1.77-3.56,2.17-5.45.79-1.89-1.38-2.21-3.65-.91-5.43,1.3-1.78,3.56-2.17,5.45-.79,1.89,1.38,2.21,3.65.91,5.43h0ZM245.07,216.26l2.73-4.88c1.96-3.51,1.19-7.1-2.06-8.92-3.25-1.82-6.71-.59-8.67,2.92l-2.73,4.88,10.73,6h0ZM244.42,212.63l-6.66-3.72,1.27-2.27c1.19-2.13,3.25-2.82,5.3-1.67,2.06,1.15,2.55,3.26,1.36,5.39l-1.27,2.27h0ZM251.68,198.19l-2.64-1.08,2.16-5.29-2.05-.84-2.16,5.29-2.47-1.01,2.45-5.98-2.11-.86-3.52,8.6,11.39,4.65,3.6-8.82-2.11-.86-2.53,6.2h0ZM257.52,189.36l2.57-8.64-2.22-.66-1.76,5.91-9.56-2.84-.81,2.73,11.79,3.51h0Z"/><path d="M89.12,11.86l-2.2-5.39-19.35,7.9,10.08,24.67,6.98-2.85-3.46-8.46,10.89-4.45-2.2-5.39-10.89,4.45-2.22-5.43,12.37-5.05h0ZM117.3,6.14l-1.1-5.72-20.52,3.93,5.01,26.17,7.4-1.42-1.72-8.97,11.55-2.21-1.1-5.72-11.55,2.21-1.1-5.76,13.12-2.51h0ZM141.75,27.25l8.07.31-5.43-8.59c3.37-1.47,5.38-4.29,5.53-8.21.23-6.09-4.19-10.03-11.46-10.3l-12.17-.46-1.01,26.63,7.53.29.27-7.08,4.11.16,4.56,7.26h0ZM142.31,10.48c-.09,2.43-1.71,3.82-4.83,3.7l-4.18-.16.3-7.8,4.18.16c3.12.12,4.62,1.62,4.53,4.1h0ZM183.92,37.91l8.16-25.37-5.9-1.92-13.44,11.81-4.16-17.52-5.9-1.92-8.23,25.34,6.63,2.15,4.24-13.07,3.05,12.68,3.19,1.03,10.07-8.82-4.29,13.46,6.59,2.14h0Z"/></svg>