<?xml version="1.0" encoding="UTF-8"?><svg id="Layer_1" xmlns="http://www.w3.org/2000/svg" viewBox="0 0 266.98 280.29"><defs><style>.cls-1{stroke:#000;stroke-width:7.32px;}.cls-1,.cls-2{fill:none;stroke-linecap:round;stroke-linejoin:round;}.cls-3{fill:#8ad032;}.cls-2{stroke:#fff;stroke-width:8.05px;}</style></defs><path class="cls-3" d="M133.49,256.93c60.76,0,110.01-49.27,110.01-110.02s-49.25-110.02-110.01-110.02S23.48,86.14,23.48,146.91s49.25,110.02,110.01,110.02h0Z"/><path class="cls-2" d="M201.18,116.8c5.47-17.69-4.44-36.46-22.13-41.92-17.69-5.47-36.46,4.44-41.93,22.12-5.47,17.69,4.44,36.46,22.13,41.92,17.69,5.47,36.46-4.44,41.93-22.12h0ZM156.4,148.15l2.84-9.18M163.21,150.24l-13.61-4.21-6.3,19.31-3.91,12.18c-1.16,3.76.64,7.59,4.39,8.75l.3.15c3.76,1.16,7.74-.94,8.91-4.7l2.23-6.76,7.98-24.73h0ZM193.02,212.31h-126.19v-115.19M176.86,212.11v-38.85M160.67,212.11v-17.68M144.47,212.11v-13.14M128.27,212.11v-21.49M112.07,212.11v-48.31M95.87,212.11v-35.37M79.68,212.11v-23.04M73.17,96.92h-12.68M193.02,218.68v-67.38"/><path class="cls-1" d="M44.85,55.38h0M221.72,55.38h0"/><path class="cls-2" d="M157.88,115.53c0,5.09,5.05,9.22,11.27,9.22s11.27-4.13,11.27-9.22-5.05-9.22-11.27-9.22c-5.71,0-10.51-3.84-10.51-8.51s4.63-8.46,10.33-8.46,10.33,3.79,10.33,8.46M169.13,89.33l.02-6.13M169.15,130.8v-6.05"/><path d="M34.33,73.48l1.78,1.43,5.48-6.8-9.58-7.71-1.68,2.08,3.49,2.81-3.36,4.17,1.78,1.43,3.36-4.17,2.53,2.04-3.8,4.72h0ZM25.01,69.4l-1.52,2.2,10.11,7.01,1.52-2.2-10.11-7.01h0ZM27.94,87.65l-6.43-3.8,9.35-1.15,1.13-1.9-10.58-6.26-1.34,2.27,6.43,3.8-9.36,1.16-1.12,1.89,10.58,6.26,1.34-2.27h0ZM10.48,95.23l-1.19,2.54,13.33.52,1.12-2.39-8.96-9.87-1.16,2.48,1.95,2.04-2.27,4.86-2.82-.19h0ZM17.16,92.24l3.49,3.65-5.04-.33,1.55-3.32h0ZM17.5,112.23l-7.1-2.31,8.88-3.16.68-2.1-11.7-3.8-.82,2.51,7.1,2.3-8.88,3.18-.68,2.09,11.7,3.8.82-2.51h0ZM2.59,120.43c-.43,1.97-.03,3.76,1.13,5.13l2.01-1.32c-.78-.96-1.05-2.02-.81-3.15.46-2.11,2.37-3.27,4.63-2.78,2.27.49,3.52,2.34,3.06,4.45-.25,1.13-.93,1.98-2.03,2.53l1.28,2.04c1.61-.77,2.72-2.23,3.14-4.18.77-3.52-1.26-6.7-4.88-7.49-3.62-.79-6.78,1.26-7.55,4.76h0ZM1.54,127.87l-.37,2.65,12.18,1.7.37-2.65-12.18-1.7h0ZM.18,142.79l-.18,2.8,12.6-4.38.17-2.64-11.95-5.92-.17,2.74,2.57,1.19-.34,5.36-2.69.85H.18ZM5.31,137.58l4.58,2.13-4.82,1.53.23-3.66h0ZM.14,148.34l.32,8.47,2.32-.09-.22-5.79,9.97-.38-.1-2.67-12.29.47H.14ZM2.64,172.77l.46,2.77,11.29-7.11-.43-2.61-12.98-3.07.45,2.71,2.77.58.88,5.3-2.43,1.44h0ZM6.46,166.52l4.94,1.04-4.35,2.58-.6-3.62h0ZM17.77,182.63l-7.21,1.95,5.71-7.5-.58-2.14-11.87,3.21.69,2.55,7.21-1.95-5.7,7.51.57,2.12,11.87-3.21-.69-2.55h0ZM11.52,200.9l1.06,2.6,9.43-9.44-1-2.45-13.33-.12,1.04,2.54,2.83-.05,2.03,4.97-2.05,1.94h0ZM13.87,193.97l5.05-.08-3.67,3.48-1.39-3.39h0ZM13.84,205.85l3.95,7.49,2.05-1.08-2.7-5.13,8.83-4.66-1.25-2.36-10.88,5.74h0ZM34.17,216.35l-1.39-2.23-6.27.27,3-5.51-1.5-2.41-4.34,7.98-3.73,2.32,1.42,2.27,3.7-2.31,9.11-.39h0ZM27.28,227.82c2.01,2.62,4.38,2.82,6.01,1.57,3.58-2.75-1.75-7.13.05-8.51.62-.47,1.49-.37,2.46.89.62.81,1.05,1.88,1.18,3.13l2.22-.66c-.08-1.29-.69-2.69-1.58-3.85-2-2.61-4.34-2.81-6-1.53-3.62,2.78,1.72,7.15-.11,8.55-.6.46-1.44.29-2.4-.97-.84-1.1-1.31-2.57-1.3-3.81l-2.25.58c-.05,1.33.62,3.14,1.73,4.6h0ZM31.86,233.17l1.73,2.04,9.39-7.94-1.73-2.04-9.39,7.94h0ZM38.5,240.73c2.31,2.36,4.68,2.28,6.15.85,3.23-3.15-2.59-6.87-.96-8.45.55-.54,1.44-.55,2.54.59.72.73,1.26,1.75,1.55,2.97l2.12-.92c-.23-1.27-1.01-2.59-2.02-3.63-2.3-2.35-4.65-2.27-6.14-.81-3.27,3.19,2.56,6.9.91,8.5-.54.53-1.39.46-2.5-.68-.97-.99-1.61-2.4-1.75-3.62l-2.17.85c.11,1.32.99,3.05,2.27,4.36h0ZM52.54,253.09c2.88,2.21,6.65,1.72,8.89-1.2,2.23-2.91,1.73-6.68-1.15-8.89-2.9-2.22-6.66-1.7-8.89,1.2-2.22,2.9-1.75,6.67,1.15,8.89h0ZM54.02,251.17c-1.64-1.26-1.9-3.47-.48-5.33,1.42-1.85,3.63-2.18,5.27-.92,1.64,1.26,1.9,3.47.48,5.33-1.42,1.85-3.63,2.18-5.27.92h0ZM73.33,254.71l1.21-1.94-7.41-4.62-6.51,10.43,2.27,1.42,2.37-3.8,4.54,2.83,1.21-1.93-4.54-2.83,1.72-2.76,5.14,3.21h0ZM78.24,265.74l1.21-2.58,4.86,2.27.94-2-4.86-2.27,1.13-2.42,5.51,2.57.97-2.07-7.91-3.7-5.2,11.14,8.11,3.79.96-2.07-5.7-2.66h0ZM86.37,271.67l7.99,2.82.77-2.19-5.47-1.93,3.32-9.41-2.52-.89-4.09,11.6h0ZM100.37,273.71l.68-2.76,5.21,1.27.52-2.15-5.21-1.27.63-2.59,5.9,1.44.54-2.22-8.49-2.07-2.92,11.95,8.7,2.12.54-2.22-6.11-1.49h0ZM114.93,279.14c2,.28,3.75-.26,5.03-1.51l-1.47-1.91c-.9.85-1.94,1.2-3.08,1.04-2.14-.3-3.44-2.11-3.12-4.41.32-2.3,2.07-3.68,4.21-3.39,1.15.16,2.04.78,2.68,1.83l1.93-1.43c-.88-1.54-2.43-2.54-4.41-2.82-3.57-.5-6.58,1.76-7.1,5.43-.51,3.67,1.77,6.67,5.32,7.17h0ZM124.69,279.92l2.67.17.63-9.96,3.69.23.15-2.32-10.05-.64-.15,2.32,3.69.23-.63,9.96h0ZM144.27,279.9l-2.74-3.85c1.48-.74,2.3-2.13,2.23-3.97-.11-2.76-2.1-4.39-5.19-4.27l-5,.19.47,12.29,2.67-.1-.13-3.42,2.33-.09h.13s2.36,3.33,2.36,3.33l2.87-.11h0ZM141.05,272.18c.05,1.33-.74,2.17-2.38,2.23l-2.18.08-.16-4.28,2.18-.08c1.63-.06,2.49.7,2.54,2.05h0ZM147.09,279.53l2.66-.3-1.4-12.22-2.66.3,1.4,12.22h0ZM158.88,278c1.98-.38,3.47-1.45,4.28-3.05l-2-1.33c-.58,1.1-1.44,1.76-2.58,1.98-2.12.41-3.94-.89-4.37-3.17-.44-2.28.77-4.15,2.89-4.56,1.14-.22,2.18.08,3.13.87l1.37-1.98c-1.33-1.18-3.12-1.62-5.08-1.24-3.54.68-5.66,3.79-4.97,7.43.7,3.64,3.82,5.74,7.34,5.07h0ZM174.68,273.94c3.14-1.02,4.12-3.19,3.49-5.14-1.4-4.29-7.3-.73-8-2.89-.24-.74.15-1.53,1.65-2.01.97-.32,2.12-.36,3.35-.07l.12-2.31c-1.24-.35-2.77-.25-4.15.2-3.13,1.01-4.1,3.16-3.45,5.15,1.41,4.35,7.32.77,8.03,2.96.23.72-.21,1.45-1.71,1.94-1.32.43-2.86.38-4.02-.04l-.2,2.32c1.23.49,3.17.47,4.92-.1h0ZM183.89,267.89l-1.14-2.61,4.92-2.15-.89-2.03-4.92,2.15-1.07-2.45,5.57-2.44-.92-2.09-8,3.5,4.93,11.27,8.2-3.59-.91-2.09-5.77,2.52h0ZM198.7,263.43c1.76-.98,2.84-2.47,3.1-4.24l-2.32-.63c-.21,1.22-.82,2.13-1.83,2.69-1.89,1.05-4.02.39-5.15-1.63-1.13-2.02-.58-4.19,1.31-5.24,1.01-.56,2.1-.61,3.24-.16l.68-2.31c-1.64-.69-3.47-.56-5.22.42-3.14,1.76-4.18,5.38-2.37,8.61,1.81,3.24,5.44,4.25,8.56,2.5h0ZM206.89,258.19l2.23-1.47-5.49-8.33,3.09-2.03-1.27-1.94-8.41,5.54,1.27,1.93,3.09-2.03,5.49,8.34h0ZM219.21,249.26c2.78-2.35,3.1-6.13.72-8.94-2.37-2.8-6.16-3.12-8.93-.77-2.79,2.36-3.08,6.15-.72,8.94,2.36,2.79,6.15,3.13,8.93.77h0ZM217.65,247.41c-1.58,1.33-3.8,1.11-5.3-.67-1.51-1.78-1.36-4.01.22-5.34,1.58-1.33,3.79-1.11,5.3.67s1.36,4.01-.22,5.34h0ZM233.49,235.29l-4.64-.91c.56-1.55.2-3.12-1.12-4.41-1.97-1.93-4.54-1.74-6.7.47l-3.5,3.58,8.8,8.59,1.87-1.91-2.45-2.39,1.63-1.67.09-.09,4.01.8,2.01-2.05h0ZM225.85,231.91c.96.93.96,2.09-.18,3.26l-1.52,1.56-3.07-3,1.52-1.56c1.14-1.17,2.29-1.21,3.25-.26h0ZM238.43,225.38l-2.3-1.68,3.16-4.34-1.79-1.3-3.16,4.34-2.16-1.58,3.58-4.91-1.84-1.35-5.15,7.06,9.93,7.25,5.27-7.23-1.84-1.34-3.71,5.08h0ZM251.15,209.84l-7.67.47-3.06-6.49-1.47,2.49,2.1,4.27-4.79.26-1.55,2.62,7.27-.42,3.21,6.86,1.56-2.64-2.28-4.53,5.09-.23,1.57-2.66h0ZM243.26,197.87l-2.12,4.53,11.14,5.2,1.13-2.42-3.07-1.43.99-2.11c1.31-2.8.58-5.27-1.9-6.43-2.5-1.17-4.86-.14-6.17,2.66h0ZM249.17,200.8l-.92,1.98-3.87-1.81.92-1.98c.69-1.48,1.76-1.9,2.98-1.32,1.21.57,1.58,1.65.89,3.13h0ZM260.44,187.8l.93-2.65-13.32.79-.88,2.49,9.89,8.95.91-2.59-2.15-1.84,1.78-5.06,2.83-.09h0ZM254.08,191.42l-3.83-3.29,5.05-.17-1.22,3.46h0ZM251.97,171.88l7.25,1.77-8.62,3.81-.52,2.15,11.95,2.91.63-2.57-7.25-1.77,8.62-3.83.52-2.13-11.95-2.92-.63,2.57h0ZM265.88,164.27c.46-3.27-1.06-5.1-3.1-5.39-4.47-.63-3.85,6.25-6.1,5.93-.77-.11-1.31-.8-1.09-2.37.14-1.01.61-2.07,1.4-3.04l-2.02-1.12c-.86.96-1.43,2.38-1.64,3.82-.46,3.25,1.05,5.07,3.12,5.36,4.52.63,3.89-6.24,6.17-5.92.75.11,1.22.82,1,2.39-.19,1.37-.92,2.74-1.8,3.6l2,1.2c.98-.9,1.81-2.65,2.06-4.46h0ZM266.44,156.61l.17-2.67-12.27-.78-.17,2.67,12.27.78h0ZM266.98,144.65c-.05-3.63-2.77-6.29-6.44-6.24-3.67.05-6.33,2.77-6.28,6.4.05,3.65,2.79,6.29,6.44,6.24,3.65-.05,6.33-2.75,6.28-6.4h0ZM264.55,144.68c.03,2.06-1.55,3.64-3.89,3.67-2.34.03-3.95-1.5-3.98-3.57-.03-2.06,1.55-3.64,3.89-3.67,2.34-.03,3.95,1.5,3.98,3.57h0ZM253.04,128.02l7.39-1.03-6.6,6.73.31,2.19,12.18-1.7-.37-2.62-7.39,1.04,6.6-6.74-.31-2.17-12.18,1.7.37,2.62h0ZM249.85,113.59l1.31,4.83,11.87-3.21-.7-2.58-3.27.88-.61-2.25c-.81-2.98-2.96-4.4-5.6-3.69-2.66.72-3.8,3.03-3,6.01h0ZM256.25,112.01l.57,2.1-4.12,1.12-.57-2.1c-.43-1.58.12-2.58,1.43-2.94,1.29-.35,2.27.24,2.7,1.82h0ZM259.19,102.37l-3.01-7.92-2.17.82,2.06,5.42-9.33,3.55.95,2.5,11.5-4.37h0ZM251.07,83.93l-1.25-2.51-8.71,10.1,1.18,2.37,13.3-.86-1.22-2.45-2.82.26-2.39-4.81,1.9-2.09h0ZM249.23,91.01l-5.03.45,3.4-3.74,1.63,3.28h0ZM233.51,78.77l6.24-4.1-3.07,8.91,1.22,1.85,10.27-6.76-1.45-2.21-6.24,4.1,3.07-8.92-1.21-1.83-10.27,6.76,1.45,2.21h0ZM237.64,63.38c-2.07-2.57-4.44-2.72-6.04-1.43-3.51,2.83,1.92,7.08.15,8.51-.6.49-1.48.41-2.48-.83-.64-.8-1.09-1.86-1.25-3.1l-2.2.71c.11,1.29.76,2.68,1.67,3.81,2.06,2.56,4.41,2.7,6.04,1.39,3.56-2.86-1.89-7.11-.1-8.55.59-.47,1.43-.32,2.43.91.87,1.08,1.37,2.54,1.39,3.77l2.24-.64c.02-1.33-.69-3.13-1.84-4.56h0Z"/><path d="M63.06,24.12l-3.32-4.79-16.83,11.67,15.18,21.9,6.07-4.21-5.2-7.51,9.47-6.57-3.32-4.79-9.47,6.57-3.34-4.82,10.76-7.46h0ZM76.95,40.75l6.61-3.29-11.86-23.86-6.61,3.29,11.86,23.86h0ZM95.44,4.84l4.38,13.5-15.35-9.95-5.78,1.88,8.23,25.34,6.88-2.23-4.38-13.5,15.35,9.95,5.78-1.88-8.23-25.34-6.88,2.23h0ZM122.92.41l-11.89,1.06,2.36,26.54,7.36-.65-.62-6.94,4.53-.4c7.1-.63,11.22-4.78,10.69-10.81-.54-6.07-5.33-9.42-12.43-8.79h0ZM123.69,14.14l-4.09.36-.69-7.77,4.09-.36c3.05-.27,4.7,1.04,4.92,3.5.22,2.43-1.18,4-4.23,4.27h0ZM137.05,26.54l19.77,1.76.53-5.95-12.41-1.1,1.83-20.59-7.36-.65-2.36,26.54h0ZM179.46,35.42l7.31,2.37-2.77-28.92-6.92-2.25-19.19,21.78,7.17,2.33,3.55-4.29,10.5,3.41.35,5.56h0ZM172.37,21.84l5.83-7.07.56,9.15-6.39-2.07h0ZM217.41,26.33l-7.81,11.86-1.82-18.2-5.08-3.34-14.65,22.26,6.04,3.98,7.81-11.86,1.82,18.2,5.08,3.34,14.65-22.26-6.05-3.98h0Z"/></svg>