<?xml version="1.0" encoding="UTF-8"?><svg id="Layer_1" xmlns="http://www.w3.org/2000/svg" xmlns:xlink="http://www.w3.org/1999/xlink" viewBox="0 0 351.08 303.33"><defs><style>.cls-1,.cls-2,.cls-3,.cls-4{fill:none;}.cls-2{stroke:#000;stroke-width:7.32px;}.cls-2,.cls-3,.cls-4{stroke-linecap:round;stroke-linejoin:round;}.cls-5{font-size:37.31px;}.cls-5,.cls-6,.cls-7,.cls-8,.cls-9{font-family:Montserrat-ExtraBold, Montserrat;}.cls-5,.cls-6,.cls-7,.cls-8,.cls-9,.cls-10,.cls-11,.cls-12,.cls-13,.cls-14,.cls-15,.cls-16,.cls-17,.cls-18,.cls-19,.cls-20,.cls-21,.cls-22,.cls-23,.cls-24,.cls-25,.cls-26,.cls-27,.cls-28,.cls-29,.cls-30,.cls-31,.cls-32,.cls-33{font-weight:700;}.cls-6{font-size:37.31px;}.cls-7{font-size:37.31px;}.cls-8{font-size:37.31px;}.cls-9{font-size:37.31px;}.cls-34{fill:#8ad032;}.cls-10{font-size:16.52px;}.cls-10,.cls-11,.cls-12,.cls-13,.cls-14,.cls-15,.cls-16,.cls-17,.cls-18,.cls-19,.cls-20,.cls-21,.cls-22,.cls-23,.cls-24,.cls-25,.cls-26,.cls-27,.cls-28,.cls-29,.cls-30,.cls-31,.cls-32,.cls-33{font-family:Montserrat-Bold, Montserrat;}.cls-11{font-size:16.52px;}.cls-12{font-size:16.52px;}.cls-13{font-size:16.52px;}.cls-14{font-size:16.52px;}.cls-15{font-size:16.52px;}.cls-16{font-size:16.52px;}.cls-17{font-size:16.52px;}.cls-18{font-size:16.52px;}.cls-19{font-size:16.52px;}.cls-20{font-size:16.52px;}.cls-21{font-size:16.52px;}.cls-22{font-size:16.52px;}.cls-23{font-size:16.52px;}.cls-24{font-size:16.52px;}.cls-25{font-size:16.52px;}.cls-26{font-size:16.52px;}.cls-27{font-size:16.52px;}.cls-28{font-size:16.52px;}.cls-29{font-size:16.52px;}.cls-30{font-size:16.52px;}.cls-31{font-size:16.52px;}.cls-32{font-size:16.52px;}.cls-33{font-size:16.52px;}.cls-35{clip-path:url(#clippath-1);}.cls-36{clip-path:url(#clippath-3);}.cls-37{clip-path:url(#clippath-4);}.cls-38{clip-path:url(#clippath-2);}.cls-3{stroke-width:5.5px;}.cls-3,.cls-4{stroke:#fff;}.cls-4{stroke-width:8.05px;}</style><clipPath id="clippath-1"><rect class="cls-1" y="3.33" width="300" height="300"/></clipPath><clipPath id="clippath-2"><rect class="cls-1" y="3.33" width="300" height="300"/></clipPath><clipPath id="clippath-3"><rect class="cls-1" y="3.33" width="300" height="300"/></clipPath><clipPath id="clippath-4"><rect class="cls-1" y="3.33" width="300" height="300"/></clipPath></defs><g class="cls-35"><path class="cls-3" d="M314.26,240.58v-12.9M334.39,240.58v-12.9M345.23,215.3h-41.82M318.13,203.68l-3.87,24.01M330.52,203.68l3.87,24.01M343.9,205.49l4.37,19.36c.33,1.45-.78,2.83-2.27,2.83h-43.36c-1.51,0-2.62-1.42-2.25-2.89l4.84-19.36c.26-1.03,1.19-1.76,2.25-1.76h34.15c1.09,0,2.03.75,2.27,1.81Z"/><path class="cls-34" d="M150.2,263.35c60.76,0,110.01-49.27,110.01-110.02s-49.25-110.02-110.01-110.02-110.01,49.25-110.01,110.02,49.25,110.02,110.01,110.02"/></g><text class="cls-7" transform="translate(72.67 60.81) rotate(-34.73) scale(1 1.02)"><tspan x="0" y="0">F</tspan></text><text class="cls-9" transform="translate(91.33 48.33) rotate(-26.42) scale(1 1.02)"><tspan x="0" y="0">I</tspan></text><g class="cls-38"><text class="cls-8" transform="translate(101.15 42.84) rotate(-17.99) scale(1 1.02)"><tspan x="0" y="0">N</tspan></text><text class="cls-5" transform="translate(127.5 34.66) rotate(-5.07) scale(1 1.02)"><tspan x="0" y="0">P</tspan></text><text class="cls-5" transform="translate(151.17 32.73) rotate(5.07) scale(1 1.02)"><tspan x="0" y="0">L</tspan></text><text class="cls-8" transform="translate(175.1 35) rotate(17.99) scale(1 1.02)"><tspan x="0" y="0">A</tspan></text></g><text class="cls-6" transform="translate(202.59 43.89) rotate(33.35) scale(1 1.02)"><tspan x="0" y="0">N</tspan></text><text class="cls-20" transform="translate(49.58 65.76) rotate(128.85) scale(1 1.06)"><tspan x="0" y="0">F</tspan></text><text class="cls-21" transform="translate(42.51 74.7) rotate(124.73) scale(1 1.06)"><tspan x="0" y="0">I</tspan></text><text class="cls-29" transform="translate(38.82 79.78) rotate(120.59) scale(1 1.06)"><tspan x="0" y="0">N</tspan></text><text class="cls-32" transform="translate(31.43 92.59) rotate(115.03) scale(1 1.06)"><tspan x="0" y="0">A</tspan></text><text class="cls-24" transform="translate(25.4 105.99) rotate(107.99) scale(1 1.06)"><tspan x="0" y="0">N</tspan></text><text class="cls-33" transform="translate(20.98 120.16) rotate(102.28) scale(1 1.06)"><tspan x="0" y="0">C</tspan></text><text class="cls-27" transform="translate(18.45 132.94) rotate(97.97) scale(1 1.06)"><tspan x="0" y="0">I</tspan></text><text class="cls-25" transform="translate(17.53 139.24) rotate(93.63) scale(1 1.06)"><tspan x="0" y="0">A</tspan></text><text class="cls-13" transform="translate(16.81 153.41) rotate(87.82) scale(1 1.06)"><tspan x="0" y="0">L</tspan></text><text class="cls-26" transform="translate(17.3 163.72) rotate(84.93) scale(1 1.06)"><tspan x="0" y="0"> </tspan></text><text class="cls-10" transform="translate(17.72 169.32) rotate(80.59) scale(1 1.06)"><tspan x="0" y="0">A</tspan></text><text class="cls-18" transform="translate(20.18 183.27) rotate(74.86) scale(1 1.06)"><tspan x="0" y="0">N</tspan></text><text class="cls-27" transform="translate(24.45 198.07) rotate(67.78) scale(1 1.06)"><tspan x="0" y="0">A</tspan></text><text class="cls-14" transform="translate(29.92 211.07) rotate(62.18) scale(1 1.06)"><tspan x="0" y="0">L</tspan></text><text class="cls-26" transform="translate(34.41 219.61) rotate(58.03) scale(1 1.06)"><tspan x="0" y="0">Y</tspan></text><text class="cls-12" transform="translate(41.02 230.02) rotate(52.52) scale(1 1.06)"><tspan x="0" y="0">S</tspan></text><text class="cls-23" transform="translate(47.69 238.55) rotate(49.78) scale(1 1.06)"><tspan x="0" y="0">I</tspan></text><text class="cls-17" transform="translate(51.75 243.31) rotate(45.68) scale(1 1.06)"><tspan x="0" y="0">S</tspan></text><text class="cls-29" transform="translate(59.81 251.34) rotate(41.58) scale(1 1.06)"><tspan x="0" y="0"> </tspan></text><text class="cls-12" transform="translate(63.85 255.11) rotate(37.48) scale(1 1.06)"><tspan x="0" y="0">O</tspan></text><text class="cls-26" transform="translate(76.17 264.28) rotate(31.97) scale(1 1.06)"><tspan x="0" y="0">F</tspan></text><text class="cls-14" transform="translate(85.94 270.18) rotate(27.82) scale(1 1.06)"><tspan x="0" y="0"> </tspan></text><text class="cls-32" transform="translate(90.34 272.53) rotate(25.03) scale(1 1.06)"><tspan x="0" y="0">E</tspan></text><text class="cls-19" transform="translate(101.79 277.64) rotate(19.4) scale(1 1.06)"><tspan x="0" y="0">L</tspan></text><text class="cls-22" transform="translate(112.63 281.41) rotate(13.71) scale(1 1.06)"><tspan x="0" y="0">E</tspan></text><text class="cls-27" transform="translate(124.84 284.4) rotate(7.97) scale(1 1.06)"><tspan x="0" y="0">C</tspan></text><text class="cls-25" transform="translate(137.65 286.11) rotate(3.63) scale(1 1.06)"><tspan x="0" y="0">T</tspan></text><text class="cls-13" transform="translate(149.38 286.77) rotate(-2.18) scale(1 1.06)"><tspan x="0" y="0">R</tspan></text><text class="cls-30" transform="translate(162.44 286.12) rotate(-6.52) scale(1 1.06)"><tspan x="0" y="0">I</tspan></text><text class="cls-16" transform="translate(168.78 285.53) rotate(-10.85) scale(1 1.06)"><tspan x="0" y="0">C</tspan></text><text class="cls-22" transform="translate(180.97 283.07) rotate(-13.71) scale(1 1.06)"><tspan x="0" y="0"> </tspan></text><text class="cls-24" transform="translate(186.41 281.76) rotate(-17.99) scale(1 1.06)"><tspan x="0" y="0">S</tspan></text><text class="cls-18" transform="translate(197.83 278.03) rotate(-23.63) scale(1 1.06)"><tspan x="0" y="0">E</tspan></text><text class="cls-24" transform="translate(209.29 273.04) rotate(-29.21) scale(1 1.06)"><tspan x="0" y="0">C</tspan></text><text class="cls-15" transform="translate(220.46 266.69) rotate(-33.35) scale(1 1.06)"><tspan x="0" y="0">T</tspan></text><text class="cls-23" transform="translate(230.47 260.03) rotate(-40.22) scale(1 1.06)"><tspan x="0" y="0">O</tspan></text><text class="cls-17" transform="translate(242.1 250.03) rotate(-45.68) scale(1 1.06)"><tspan x="0" y="0">R</tspan></text><text class="cls-23" transform="translate(251 240.58) rotate(-49.78) scale(1 1.06)"><tspan x="0" y="0"> </tspan></text><text class="cls-28" transform="translate(254.62 236.4) rotate(-53.9) scale(1 1.06)"><tspan x="0" y="0">E</tspan></text><text class="cls-29" transform="translate(261.9 226.38) rotate(-59.41) scale(1 1.06)"><tspan x="0" y="0">X</tspan></text><text class="cls-32" transform="translate(268.42 215.28) rotate(-64.97) scale(1 1.06)"><tspan x="0" y="0">P</tspan></text><text class="cls-19" transform="translate(273.84 203.67) rotate(-70.6) scale(1 1.06)"><tspan x="0" y="0">A</tspan></text><text class="cls-22" transform="translate(278.42 190.29) rotate(-76.29) scale(1 1.06)"><tspan x="0" y="0">N</tspan></text><text class="cls-27" transform="translate(281.67 175.79) rotate(-82.03) scale(1 1.06)"><tspan x="0" y="0">S</tspan></text><text class="cls-25" transform="translate(283.07 164.4) rotate(-86.37) scale(1 1.06)"><tspan x="0" y="0">I</tspan></text><text class="cls-14" transform="translate(283.57 158.06) rotate(-90.73) scale(1 1.06)"><tspan x="0" y="0">O</tspan></text><text class="cls-27" transform="translate(283.23 141.99) rotate(-97.97) scale(1 1.06)"><tspan x="0" y="0">N</tspan></text><text class="cls-33" transform="translate(281.1 127.87) rotate(-102.28) scale(1 1.06)"><tspan x="0" y="0"> </tspan></text><text class="cls-18" transform="translate(280.1 122.96) rotate(-105.14) scale(1 1.06)"><tspan x="0" y="0">P</tspan></text><text class="cls-11" transform="translate(276.4 110.08) rotate(-110.82) scale(1 1.06)"><tspan x="0" y="0">L</tspan></text><text class="cls-31" transform="translate(272.24 99.32) rotate(-116.42) scale(1 1.06)"><tspan x="0" y="0">A</tspan></text><text class="cls-15" transform="translate(265.63 86.23) rotate(-123.35) scale(1 1.06)"><tspan x="0" y="0">N</tspan></text><text class="cls-20" transform="translate(257.44 73.96) rotate(-128.85) scale(1 1.06)"><tspan x="0" y="0">S</tspan></text><g class="cls-36"><path class="cls-4" d="M179.92,156.67l-13.61-4.21-6.3,19.31-3.91,12.18c-1.16,3.76.64,7.59,4.4,8.75l.3.15c3.76,1.16,7.74-.94,8.91-4.7l2.23-6.76,7.98-24.73ZM173.12,154.58l2.84-9.18M217.9,123.23c5.47-17.69-4.44-36.46-22.13-41.92-17.69-5.47-36.46,4.44-41.93,22.12-5.47,17.69,4.44,36.46,22.13,41.93,17.69,5.47,36.46-4.44,41.93-22.12Z"/></g><polyline class="cls-4" points="209.74 218.73 83.54 218.73 83.54 103.54"/><path class="cls-4" d="M209.74,225.1v-67.38M89.88,103.34h-12.68M96.39,218.53v-23.04M112.59,218.53v-35.37M128.79,218.53v-48.31M144.99,218.53v-21.49M161.18,218.53v-13.14M177.38,218.53v-17.68M193.58,218.53v-38.85"/><line class="cls-2" x1="61.57" y1="61.8" x2="61.57" y2="61.8"/><line class="cls-2" x1="238.43" y1="61.8" x2="238.43" y2="61.8"/><g class="cls-37"><path class="cls-4" d="M185.87,137.22v-6.05M185.85,95.76l.02-6.13M174.6,121.95c0,5.09,5.05,9.22,11.27,9.22s11.27-4.13,11.27-9.22-5.05-9.22-11.27-9.22c-5.71,0-10.51-3.84-10.51-8.51s4.63-8.46,10.33-8.46,10.33,3.79,10.33,8.46"/></g></svg>