<?xml version="1.0" encoding="UTF-8"?><svg id="Layer_1" xmlns="http://www.w3.org/2000/svg" xmlns:xlink="http://www.w3.org/1999/xlink" viewBox="0 0 300 302.96"><defs><style>.cls-1,.cls-2,.cls-3{fill:none;}.cls-4{fill:#00792f;}.cls-5{font-size:17.57px;}.cls-5,.cls-6,.cls-7,.cls-8,.cls-9,.cls-10,.cls-11,.cls-12,.cls-13,.cls-14,.cls-15,.cls-16,.cls-17,.cls-18,.cls-19,.cls-20{font-family:Montserrat-Bold, Montserrat;}.cls-5,.cls-6,.cls-7,.cls-8,.cls-9,.cls-10,.cls-11,.cls-12,.cls-13,.cls-14,.cls-15,.cls-16,.cls-17,.cls-18,.cls-19,.cls-20,.cls-21,.cls-22,.cls-23,.cls-24,.cls-25,.cls-26{font-weight:700;}.cls-6{font-size:17.57px;}.cls-7{font-size:17.57px;}.cls-8{font-size:17.57px;}.cls-9{font-size:17.57px;}.cls-10{font-size:17.57px;}.cls-11{font-size:17.57px;}.cls-12{font-size:17.57px;}.cls-13{font-size:17.57px;}.cls-14{font-size:17.57px;}.cls-15{font-size:17.57px;}.cls-16{font-size:17.57px;}.cls-17{font-size:17.57px;}.cls-18{font-size:17.57px;}.cls-19{font-size:17.57px;}.cls-20{font-size:17.57px;}.cls-21{font-size:38.07px;}.cls-21,.cls-22,.cls-23,.cls-24,.cls-25,.cls-26{font-family:Montserrat-ExtraBold, Montserrat;}.cls-22{font-size:38.07px;}.cls-23{font-size:38.07px;}.cls-24{font-size:38.07px;}.cls-25{font-size:38.07px;}.cls-26{font-size:38.07px;}.cls-27{clip-path:url(#clippath-1);}.cls-28{clip-path:url(#clippath-2);}.cls-2{stroke:#fff;stroke-linejoin:round;stroke-width:8.05px;}.cls-2,.cls-3{stroke-linecap:round;}.cls-3{stroke:#000;stroke-width:7.32px;}</style><clipPath id="clippath-1"><rect class="cls-1" y="2.96" width="300" height="300"/></clipPath><clipPath id="clippath-2"><rect class="cls-1" y="2.96" width="300" height="300"/></clipPath></defs><text class="cls-9" transform="translate(29.4 209.7) rotate(62.18)"><tspan x="0" y="0">C</tspan></text><text class="cls-20" transform="translate(36.19 222.23) rotate(56.65)"><tspan x="0" y="0">L</tspan></text><text class="cls-10" transform="translate(42.58 231.68) rotate(52.52)"><tspan x="0" y="0">I</tspan></text><text class="cls-6" transform="translate(46.75 237.47) rotate(47.05)"><tspan x="0" y="0">M</tspan></text><text class="cls-17" transform="translate(59.66 250.97) rotate(40.22)"><tspan x="0" y="0">A</tspan></text><text class="cls-16" transform="translate(70.62 260) rotate(34.73)"><tspan x="0" y="0">T</tspan></text><text class="cls-20" transform="translate(80.74 266.87) rotate(29.21)"><tspan x="0" y="0">E</tspan></text><text class="cls-14" transform="translate(91.83 272.85) rotate(25.03)"><tspan x="0" y="0"> </tspan></text><text class="cls-12" transform="translate(97.06 275.4) rotate(20.82)"><tspan x="0" y="0">F</tspan></text><text class="cls-11" transform="translate(107.84 279.39) rotate(17.99)"><tspan x="0" y="0">I</tspan></text><text class="cls-19" transform="translate(114.69 281.68) rotate(12.28)"><tspan x="0" y="0">N</tspan></text><text class="cls-8" transform="translate(130.03 284.84) rotate(6.52)"><tspan x="0" y="0">A</tspan></text><text class="cls-7" transform="translate(145.49 286.33) rotate(-.72)"><tspan x="0" y="0">N</tspan></text><text class="cls-12" transform="translate(161.76 285.96) rotate(-7.97)"><tspan x="0" y="0">C</tspan></text><text class="cls-15" transform="translate(175.96 283.92) rotate(-13.71)"><tspan x="0" y="0">E</tspan></text><text class="cls-11" transform="translate(188.22 280.8) rotate(-17.99)"><tspan x="0" y="0"> </tspan></text><text class="cls-12" transform="translate(193.23 279.25) rotate(-20.82)"><tspan x="0" y="0">T</tspan></text><text class="cls-5" transform="translate(204.65 274.79) rotate(-26.42)"><tspan x="0" y="0">R</tspan></text><text class="cls-20" transform="translate(217.88 268.02) rotate(-33.35)"><tspan x="0" y="0">A</tspan></text><text class="cls-13" transform="translate(230.03 259.84) rotate(-38.85)"><tspan x="0" y="0">C</tspan></text><text class="cls-18" transform="translate(241.39 250.38) rotate(-45.68)"><tspan x="0" y="0">K</tspan></text><text class="cls-17" transform="translate(250.87 240.37) rotate(-49.78)"><tspan x="0" y="0">I</tspan></text><text class="cls-16" transform="translate(255.55 234.99) rotate(-55.27)"><tspan x="0" y="0">N</tspan></text><text class="cls-9" transform="translate(264.69 221.68) rotate(-62.18)"><tspan x="0" y="0">G</tspan></text><text class="cls-25" transform="translate(69.64 62.92) rotate(-36.1)"><tspan x="0" y="0">F</tspan></text><text class="cls-22" transform="translate(88.98 49.33) rotate(-27.82)"><tspan x="0" y="0">i</tspan></text><g class="cls-27"><text class="cls-26" transform="translate(99 43.52) rotate(-19.4)"><tspan x="0" y="0">n</tspan></text><text class="cls-23" transform="translate(124.54 34.89) rotate(-6.52)"><tspan x="0" y="0">T</tspan></text><text class="cls-21" transform="translate(147.84 32.57) rotate(2.18)"><tspan x="0" y="0">r</tspan></text><text class="cls-26" transform="translate(164.43 33.01) rotate(12.28)"><tspan x="0" y="0">a</tspan></text><text class="cls-24" transform="translate(188.23 38.36) rotate(23.63)"><tspan x="0" y="0">c</tspan></text></g><text class="cls-25" transform="translate(209.67 47.54) rotate(36.1)"><tspan x="0" y="0">k</tspan></text><g class="cls-28"><path class="cls-4" d="M150.2,262.98c60.76,0,110.01-49.27,110.01-110.02s-49.25-110.02-110.01-110.02-110.01,49.25-110.01,110.02,49.25,110.02,110.01,110.02"/><path class="cls-2" d="M123.08,147.18c0,7.71-6.25,13.96-13.96,13.96s-13.96-6.25-13.96-13.96,6.25-13.96,13.96-13.96,13.96,6.25,13.96,13.96ZM142.79,143.92c0,18.6-33.67,70.92-33.67,70.92,0,0-33.67-52.33-33.67-70.92s15.08-33.67,33.67-33.67,33.67,15.08,33.67,33.67ZM129.84,207c2.81,2.23,4.46,4.93,4.46,7.85,0,7.63-11.27,13.81-25.17,13.81s-25.17-6.18-25.17-13.81c0-2.61,1.32-5.06,3.62-7.14"/><path class="cls-2" d="M205.09,142.56v-8.29M205.06,85.68l.03-8.41M189.63,121.61c0,6.99,6.92,12.65,15.46,12.65s15.46-5.66,15.46-12.65-6.92-12.65-15.46-12.65c-7.83,0-14.41-5.27-14.41-11.68s6.35-11.6,14.17-11.6,14.17,5.19,14.17,11.6"/><path class="cls-2" d="M152.92,169.25h0c0,8.74,7.15,15.89,15.89,15.89h10.52M183.83,153.36h-15.02c-8.74,0-15.89,7.15-15.89,15.89M203.71,201.03h0c0-8.74-7.15-15.89-15.89-15.89h-10.31M135.44,216.92h52.38c8.74,0,15.89-7.15,15.89-15.89M216.66,145.16c5.02,1.95,8.29,5.16,8.29,8.8,0,5.95-8.79,10.78-19.64,10.78s-19.64-4.82-19.64-10.78c0-3.53,3.09-6.66,7.86-8.62"/><path class="cls-3" d="M57.46,65.8c-21.43,22.77-34.57,53.42-34.57,87.16,0,15.14,2.65,29.67,7.51,43.14"/><path class="cls-3" d="M269.87,195.35c4.69-13.27,7.24-27.53,7.24-42.39,0-33.64-13.06-64.22-34.39-86.95"/></g></svg>