<?xml version="1.0" encoding="UTF-8"?><svg id="Layer_1" xmlns="http://www.w3.org/2000/svg" viewBox="0 0 261.55 280.69"><defs><style>.cls-1{fill:#00792f;}.cls-2{stroke:#fff;stroke-linejoin:round;stroke-width:8.05px;}.cls-2,.cls-3{fill:none;stroke-linecap:round;}.cls-3{stroke:#000;stroke-width:7.32px;}</style></defs><path class="cls-1" d="M130.98,257.28c60.76,0,110.01-49.27,110.01-110.02s-49.25-110.02-110.01-110.02S20.97,86.5,20.97,147.27s49.25,110.02,110.01,110.02h0Z"/><path class="cls-2" d="M110.61,201.31c2.81,2.23,4.45,4.93,4.45,7.85,0,7.63-11.27,13.81-25.17,13.81s-25.17-6.18-25.17-13.81c0-2.61,1.32-5.06,3.62-7.14M123.57,138.23c0,18.59-33.67,70.92-33.67,70.92,0,0-33.67-52.33-33.67-70.92s15.07-33.67,33.67-33.67,33.67,15.07,33.67,33.67h0ZM103.86,141.48c0,7.71-6.25,13.96-13.96,13.96s-13.96-6.25-13.96-13.96,6.25-13.96,13.96-13.96,13.96,6.25,13.96,13.96h0ZM170.4,115.92c0,6.99,6.92,12.65,15.46,12.65s15.46-5.66,15.46-12.65-6.92-12.65-15.46-12.65c-7.83,0-14.41-5.27-14.41-11.68s6.35-11.6,14.17-11.6,14.17,5.19,14.17,11.6M185.83,79.98l.03-8.41M185.86,136.86v-8.3M197.43,139.47c5.02,1.95,8.29,5.16,8.29,8.8,0,5.95-8.79,10.78-19.64,10.78s-19.64-4.82-19.64-10.78c0-3.53,3.09-6.66,7.86-8.62M116.21,211.23h52.38c8.74,0,15.89-7.15,15.89-15.89M184.49,195.34h0c0-8.74-7.15-15.89-15.89-15.89h-10.31M164.6,147.66h-15.02c-8.74,0-15.89,7.15-15.89,15.89M133.69,163.55h0c0,8.74,7.15,15.89,15.89,15.89h10.52"/><path class="cls-3" d="M38.23,60.11C16.8,82.88,3.66,113.53,3.66,147.27c0,15.14,2.65,29.67,7.51,43.14M250.64,189.66c4.69-13.27,7.24-27.53,7.24-42.39,0-33.64-13.06-64.22-34.39-86.95"/><path d="M57.19,26.52l-3.43-4.71-16.88,12.31,15.7,21.53,6.09-4.44-5.38-7.38,9.5-6.93-3.43-4.71-9.5,6.93-3.45-4.74,10.8-7.87h0ZM64.31,20.6c2.36-1.24,3.12-3.54,2.06-5.56-1.01-1.92-3.29-2.48-5.65-1.24-2.36,1.24-3.12,3.54-2.11,5.46,1.01,1.92,3.34,2.58,5.7,1.34h0ZM71.8,42.55l6.4-3.38-9.63-18.25-6.4,3.38,9.63,18.25h0ZM87.67,12.81c-2.44.86-4.34,2.46-5.31,4.62l-.75-2.12-6.5,2.29,6.85,19.46,6.82-2.4-3.31-9.41c-1.14-3.23.07-5.19,2.26-5.96,1.97-.7,3.61.06,4.6,2.86l3.53,10.02,6.82-2.4-3.92-11.13c-2.12-6.03-6.53-7.43-11.09-5.82h0ZM113.6,28.26l7.49-.86-2.35-20.54,8.09-.93-.68-5.94-23.71,2.71.68,5.94,8.13-.93,2.35,20.54h0ZM138.5,9.09l.09-2.47-6.88-.26-.78,20.62,7.23.27.36-9.47c.14-3.61,2.21-5.02,5.14-4.91.53.02.99.08,1.63.18l.25-6.5c-3.04-.12-5.47.74-7.03,2.55h0ZM160.53,9.19c-3.16-.69-6.76-.61-9.4.41l1.34,5.32c1.61-.78,3.91-.98,5.85-.56,2.79.61,3.91,2.06,3.58,4.13l-4.02-.87c-6.25-1.36-9.47.35-10.28,4.07-.76,3.5,1.33,6.79,6.16,7.85,2.94.64,5.17.07,6.59-1.64l-.57,2.6,6.58,1.43,2.44-11.2c1.39-6.4-1.73-10.12-8.28-11.54h0ZM156.71,25.5c-1.67-.36-2.45-1.43-2.19-2.62.27-1.23,1.26-1.87,3.53-1.37l3.05.66-.38,1.75c-.91,1.48-2.44,1.92-4.01,1.58h0ZM180.65,38.14c4.29,1.88,8.41,1.39,11.13-1.32l-3.98-4.86c-1.68,1.38-3.35,1.57-4.88.9-2.3-1.01-3.41-3.4-2.13-6.33,1.25-2.86,3.77-3.67,6.07-2.66,1.54.67,2.52,2.02,2.65,4.19l6.27-.37c.14-3.84-2.3-7.2-6.59-9.07-6.35-2.78-12.62-.7-15.1,4.99-2.52,5.75.21,11.77,6.56,14.54h0ZM204.56,52.14l7.07,5.16-.55-15.01,12.12-2.09-6.92-5.05-10.21,1.46,8.73-11.96-5.84-4.26-16.64,22.82,5.84,4.26,2.98-4.09,3-.5.41,9.25h0Z"/><path d="M13.41,210.59c1,1.89,2.51,3.1,4.31,3.47l.64-2.4c-1.24-.28-2.16-.97-2.73-2.05-1.07-2.04-.41-4.24,1.65-5.32,2.05-1.08,4.24-.39,5.32,1.64.57,1.09.62,2.23.17,3.41l2.34.83c.7-1.68.56-3.61-.43-5.49-1.79-3.39-5.46-4.66-8.74-2.93-3.28,1.73-4.3,5.48-2.52,8.86h0ZM17.77,217.75l4.95,7.53,1.94-1.27-3.39-5.15,8.34-5.49-1.56-2.38-10.27,6.76h0ZM24.24,227.14l1.73,2.26,9.76-7.48-1.73-2.26-9.76,7.48h0ZM37.96,242.98l8.98-8.4-1.59-1.71-8.68,1.89,2.46-8.57-1.6-1.72-9,8.38,1.82,1.95,5.28-4.92-1.88,6.67.87.94,6.91-1.49-5.39,5.04,1.82,1.96h0ZM48.57,252.15l2.28,1.93,3.74-12.94-2.15-1.82-12.12,5.85,2.23,1.88,2.53-1.31,4.36,3.69-.87,2.72h0ZM47.17,244.69l4.53-2.34-1.55,4.85-2.98-2.52h0ZM54.68,256.59l2.34,1.62,5.69-8.2,3.23,2.24,1.32-1.9-8.81-6.11-1.32,1.9,3.23,2.24-5.69,8.2h0ZM66.37,261.27l1.39-2.49,4.98,2.79,1.08-1.93-4.98-2.79,1.3-2.33,5.64,3.15,1.11-1.99-8.11-4.53-6,10.73,8.31,4.65,1.11-1.99-5.84-3.27h0ZM91.44,264.16l.81-2.14-8.69-3.3-4.37,11.5,2.66,1.01,1.59-4.19,5.32,2.02.81-2.14-5.32-2.02,1.15-3.04,6.03,2.29h0ZM90,274.14l2.71.88,3.8-11.7-2.71-.88-3.8,11.7h0ZM107.78,266.07l-1.59,7.3-4.39-8.6-2.3-.5-2.62,12.02,2.75.6,1.59-7.3,4.4,8.6,2.28.5,2.62-12.02-2.75-.6h0ZM121.38,280.35l2.97.34-4.07-12.84-2.79-.32-6.84,11.6,2.9.33,1.38-2.49,5.67.65.78,2.74h0ZM116.08,274.91l2.47-4.46,1.4,4.9-3.88-.44h0ZM136.03,268.21l.09,7.47-6.21-7.39-2.35.03.16,12.3,2.81-.04-.09-7.47,6.23,7.39,2.34-.03-.16-12.3-2.81.04h0ZM149.84,279.45c2.12-.3,3.77-1.31,4.72-2.88l-2.04-1.42c-.68,1.07-1.64,1.7-2.86,1.87-2.28.32-4.12-1.05-4.44-3.35-.32-2.3,1.07-4.12,3.35-4.44,1.22-.17,2.31.17,3.26,1l1.58-1.92c-1.34-1.23-3.21-1.75-5.31-1.46-3.79.53-6.24,3.55-5.73,7.22.51,3.67,3.7,5.9,7.48,5.38h0ZM160.35,274.98l-.67-2.77,5.55-1.35-.52-2.15-5.55,1.35-.63-2.59,6.28-1.53-.54-2.22-9.03,2.2,2.92,11.95,9.25-2.26-.54-2.22-6.5,1.59h0ZM177.75,272.12l2.66-1.01-3.55-9.33,3.68-1.4-.82-2.17-10.02,3.81.82,2.17,3.68-1.4,3.55,9.33h0ZM196.48,263.59l-4.23-2.31c1.13-1.32,1.36-2.95.54-4.6-1.23-2.47-3.82-3.08-6.77-1.62l-4.77,2.37,5.47,11.01,2.55-1.27-1.52-3.07,2.22-1.1.13-.06,3.65,2.01,2.74-1.36h0ZM190.22,257.96c.59,1.2.17,2.31-1.39,3.09l-2.08,1.03-1.91-3.84,2.08-1.03c1.56-.77,2.7-.46,3.3.76h0ZM207.55,256.46l2.49-1.64-11.35-7.25-2.35,1.55,2.18,13.28,2.43-1.6-.54-2.8,4.77-3.14,2.36,1.6h0ZM200,255.69l-.96-5,4.22,2.86-3.26,2.14h0ZM216.65,249.7c1.67-1.34,2.57-3.06,2.58-4.89l-2.48-.17c-.04,1.27-.54,2.3-1.49,3.08-1.79,1.44-4.08,1.21-5.53-.6-1.46-1.81-1.2-4.09.6-5.53.96-.77,2.07-1.04,3.31-.82l.37-2.46c-1.79-.37-3.65.14-5.31,1.48-2.98,2.4-3.54,6.25-1.21,9.14,2.33,2.89,6.2,3.17,9.17.78h0ZM229.06,237.62l2.32-2.38-8.64-.9-.36-7.48-2.21,2.26.3,7.91-4.11-4.01-1.98,2.02,8.8,8.59,1.97-2.02-2.22-2.17-.08-2.38,6.21.56h0ZM232.58,233.55l1.84-2.17-9.39-7.94-1.84,2.17,9.39,7.94h0ZM231.87,214.13l6.13,4.25-9.62.77-1.34,1.93,10.11,7.01,1.6-2.31-6.14-4.25,9.63-.79,1.33-1.92-10.11-7.01-1.6,2.31h0ZM247.6,206.06c0,.82-.21,1.52-.57,2.2-1.1,2.08-3.31,2.77-5.34,1.69-2.07-1.09-2.72-3.28-1.6-5.4.58-1.1,1.45-1.82,2.71-2.17l-.64-2.4c-1.79.41-3.27,1.65-4.28,3.56-1.83,3.47-.81,7.22,2.47,8.95,3.28,1.73,6.95.45,8.76-2.97.82-1.55,1.21-3.45.94-5.12l-4.41-2.33-1.21,2.3,3.19,1.68h0Z"/></svg>