<?xml version="1.0" encoding="UTF-8"?><svg id="Layer_1" xmlns="http://www.w3.org/2000/svg" xmlns:xlink="http://www.w3.org/1999/xlink" viewBox="0 0 300 303.37"><defs><style>.cls-1,.cls-2,.cls-3,.cls-4{fill:none;}.cls-5{font-size:17.57px;}.cls-5,.cls-6,.cls-7,.cls-8,.cls-9,.cls-10,.cls-11,.cls-12,.cls-13,.cls-14,.cls-15,.cls-16,.cls-17,.cls-18,.cls-19,.cls-20,.cls-21,.cls-22,.cls-23,.cls-24{font-family:Montserrat-Bold, Montserrat;}.cls-5,.cls-6,.cls-7,.cls-8,.cls-9,.cls-10,.cls-11,.cls-12,.cls-13,.cls-14,.cls-15,.cls-16,.cls-17,.cls-18,.cls-19,.cls-20,.cls-21,.cls-22,.cls-23,.cls-24,.cls-25,.cls-26,.cls-27{font-weight:700;}.cls-6{font-size:17.57px;}.cls-7{font-size:17.57px;}.cls-8{font-size:17.57px;}.cls-9{font-size:17.57px;}.cls-10{font-size:17.57px;}.cls-11{font-size:17.57px;}.cls-12{font-size:17.57px;}.cls-13{font-size:17.57px;}.cls-14{font-size:17.57px;}.cls-15{font-size:17.57px;}.cls-16{font-size:17.57px;}.cls-17{font-size:17.57px;}.cls-18{font-size:17.57px;}.cls-19{font-size:17.57px;}.cls-20{font-size:17.57px;}.cls-21{font-size:17.57px;}.cls-22{font-size:17.57px;}.cls-23{font-size:17.57px;}.cls-24{font-size:17.57px;}.cls-28{fill:#000082;}.cls-25{font-size:38.07px;}.cls-25,.cls-26,.cls-27{font-family:Montserrat-ExtraBold, Montserrat;}.cls-26{font-size:38.07px;}.cls-27{font-size:38.07px;}.cls-29{clip-path:url(#clippath-1);}.cls-2{stroke-width:.73px;}.cls-2,.cls-4{stroke:#fff;stroke-miterlimit:10;}.cls-30{fill:#fff;}.cls-3{stroke:#000;stroke-linecap:round;stroke-width:7.32px;}.cls-4{stroke-width:2.2px;}</style><clipPath id="clippath-1"><rect class="cls-1" y="3.37" width="300" height="300"/></clipPath></defs><text class="cls-24" transform="translate(23.4 111.55) rotate(105.14)"><tspan x="0" y="0">M</tspan></text><text class="cls-9" transform="translate(18.66 130.38) rotate(96.52)"><tspan x="0" y="0">O</tspan></text><text class="cls-8" transform="translate(16.81 147.19) rotate(89.28)"><tspan x="0" y="0">D</tspan></text><text class="cls-9" transform="translate(17.15 163.18) rotate(83.48)"><tspan x="0" y="0">E</tspan></text><text class="cls-22" transform="translate(18.76 176.34) rotate(77.72)"><tspan x="0" y="0">L</tspan></text><text class="cls-24" transform="translate(21.17 186.97) rotate(74.86)"><tspan x="0" y="0"> </tspan></text><text class="cls-16" transform="translate(22.66 192.6) rotate(70.6)"><tspan x="0" y="0">F</tspan></text><text class="cls-15" transform="translate(26.88 204.39) rotate(64.97)"><tspan x="0" y="0">O</tspan></text><text class="cls-17" transform="translate(34.29 219.44) rotate(58.03)"><tspan x="0" y="0">R</tspan></text><text class="cls-7" transform="translate(41.77 230.93) rotate(53.9)"><tspan x="0" y="0"> </tspan></text><text class="cls-19" transform="translate(45.16 235.6) rotate(49.78)"><tspan x="0" y="0">T</tspan></text><text class="cls-21" transform="translate(53.1 244.87) rotate(44.32)"><tspan x="0" y="0">H</tspan></text><text class="cls-11" transform="translate(64.83 255.9) rotate(37.48)"><tspan x="0" y="0">E</tspan></text><text class="cls-23" transform="translate(74.92 263.43) rotate(33.35)"><tspan x="0" y="0"> </tspan></text><text class="cls-23" transform="translate(79.69 266.7) rotate(29.21)"><tspan x="0" y="0">A</tspan></text><text class="cls-12" transform="translate(93.22 274.13) rotate(22.22)"><tspan x="0" y="0">N</tspan></text><text class="cls-24" transform="translate(108.27 280.15) rotate(15.14)"><tspan x="0" y="0">A</tspan></text><text class="cls-15" transform="translate(122.14 283.75) rotate(10.85)"><tspan x="0" y="0">L</tspan></text><text class="cls-17" transform="translate(132.79 285.66) rotate(5.07)"><tspan x="0" y="0">Y</tspan></text><text class="cls-8" transform="translate(145.84 286.74) rotate(-.72)"><tspan x="0" y="0">S</tspan></text><text class="cls-18" transform="translate(157.35 286.5) rotate(-3.63)"><tspan x="0" y="0">I</tspan></text><text class="cls-13" transform="translate(163.99 286.06) rotate(-7.97)"><tspan x="0" y="0">S</tspan></text><text class="cls-22" transform="translate(175.93 284.22) rotate(-12.28)"><tspan x="0" y="0"> </tspan></text><text class="cls-11" transform="translate(181.67 283.12) rotate(-16.57)"><tspan x="0" y="0">O</tspan></text><text class="cls-20" transform="translate(197.74 278.11) rotate(-23.63)"><tspan x="0" y="0">F</tspan></text><text class="cls-5" transform="translate(208.22 273.43) rotate(-26.42)"><tspan x="0" y="0"> </tspan></text><text class="cls-14" transform="translate(213.43 270.88) rotate(-30.59)"><tspan x="0" y="0">E</tspan></text><text class="cls-11" transform="translate(225.21 263.85) rotate(-37.48)"><tspan x="0" y="0">N</tspan></text><text class="cls-6" transform="translate(237.46 254.27) rotate(-42.95)"><tspan x="0" y="0">E</tspan></text><text class="cls-19" transform="translate(247.42 244.86) rotate(-49.78)"><tspan x="0" y="0">R</tspan></text><text class="cls-18" transform="translate(256.58 233.92) rotate(-55.27)"><tspan x="0" y="0">G</tspan></text><text class="cls-10" transform="translate(265.23 221.07) rotate(-62.18)"><tspan x="0" y="0">Y</tspan></text><text class="cls-20" transform="translate(271.06 209.78) rotate(-66.37)"><tspan x="0" y="0"> </tspan></text><text class="cls-16" transform="translate(273.55 204.52) rotate(-70.6)"><tspan x="0" y="0">D</tspan></text><text class="cls-16" transform="translate(278.65 189.41) rotate(-76.29)"><tspan x="0" y="0">E</tspan></text><text class="cls-9" transform="translate(281.8 175.93) rotate(-83.48)"><tspan x="0" y="0">M</tspan></text><text class="cls-8" transform="translate(283.56 157.16) rotate(-90.72)"><tspan x="0" y="0">A</tspan></text><text class="cls-13" transform="translate(283.17 141.63) rotate(-97.97)"><tspan x="0" y="0">N</tspan></text><text class="cls-24" transform="translate(280.8 125.56) rotate(-105.14)"><tspan x="0" y="0">D</tspan></text><g class="cls-29"><path class="cls-28" d="M150,263.39c60.76,0,110.01-49.27,110.01-110.02s-49.25-110.02-110.01-110.02-110.01,49.25-110.01,110.02,49.25,110.02,110.01,110.02"/><text class="cls-27" transform="translate(89.62 48.16) rotate(-22.22)"><tspan x="0" y="0">M</tspan></text><text class="cls-25" transform="translate(124.81 34.92) rotate(-5.07)"><tspan x="0" y="0">A</tspan></text><text class="cls-26" transform="translate(155.13 32.7) rotate(7.97)"><tspan x="0" y="0">E</tspan></text><text class="cls-27" transform="translate(181.27 36.26) rotate(22.22)"><tspan x="0" y="0">D</tspan></text><path class="cls-30" d="M223.73,217.31c0-.06,0-.12,0-.18,0-.07-.03-.13-.04-.2-.02-.1-.03-.2-.06-.3-.01-.05-.02-.11-.03-.16-.02-.06-.05-.13-.07-.19-.04-.1-.07-.2-.12-.29-.02-.05-.04-.11-.07-.15-.03-.06-.07-.11-.1-.17-.05-.09-.11-.18-.17-.26-.04-.05-.07-.11-.11-.15,0-.01-.02-.02-.02-.04-.03-.04-.07-.07-.11-.1-.07-.08-.15-.15-.23-.23-.04-.03-.06-.07-.1-.11l-18.79-15.73c-1.48-1.24-3.68-1.04-4.92.44-1.24,1.48-1.04,3.68.43,4.92l11.41,9.55h-120.96v-120.57l9.55,11.41c.69.83,1.69,1.25,2.68,1.25.79,0,1.59-.27,2.24-.81,1.48-1.24,1.68-3.44.44-4.92l-15.73-18.79s-.07-.07-.11-.1c-.07-.08-.15-.15-.23-.23-.04-.04-.07-.07-.1-.11,0,0-.02-.02-.04-.02-.05-.04-.1-.07-.15-.11-.08-.06-.17-.12-.26-.17-.06-.04-.11-.08-.17-.11-.05-.03-.1-.04-.15-.07-.09-.04-.19-.08-.28-.11-.07-.02-.13-.06-.21-.08-.05-.02-.1-.02-.15-.04-.1-.02-.19-.04-.29-.05-.07-.01-.14-.03-.22-.04-.06,0-.12,0-.19,0-.05,0-.09-.02-.14-.02s-.09.01-.14.01c-.07,0-.13,0-.19,0-.07,0-.14.03-.21.04-.1.02-.19.03-.28.06-.06.01-.11.02-.17.04-.07.02-.14.05-.2.08-.09.04-.18.07-.27.11-.05.03-.11.04-.16.07-.06.03-.11.07-.17.11-.09.05-.17.11-.26.17-.05.04-.1.07-.15.11,0,0-.02.01-.03.02-.04.03-.07.07-.11.11-.08.07-.15.15-.22.23-.04.04-.07.06-.11.11l-15.73,18.79c-1.24,1.48-1.04,3.68.44,4.92.66.55,1.45.81,2.24.81,1,0,1.99-.43,2.68-1.25l9.55-11.41v124.07c0,1.93,1.57,3.49,3.49,3.49h124.46l-11.41,9.55c-1.48,1.24-1.68,3.44-.44,4.92.69.83,1.68,1.25,2.68,1.25.79,0,1.59-.27,2.24-.82l18.79-15.73s.07-.07.1-.11c.08-.07.16-.15.24-.24.03-.04.07-.06.1-.09,0-.01.02-.02.02-.04.04-.05.07-.1.11-.15.06-.08.12-.17.17-.26.04-.06.07-.11.1-.17.03-.05.04-.1.07-.15.04-.1.08-.19.11-.29.02-.06.05-.12.07-.19.02-.05.02-.11.04-.16.03-.1.04-.2.06-.3.01-.07.03-.13.04-.2,0-.06,0-.12,0-.18,0-.05.02-.1.02-.15s-.02-.1-.02-.15"/><path class="cls-2" d="M223.73,217.31c0-.06,0-.12,0-.18,0-.07-.03-.13-.04-.2-.02-.1-.03-.2-.06-.3-.01-.05-.02-.11-.03-.16-.02-.06-.05-.13-.07-.19-.04-.1-.07-.2-.12-.29-.02-.05-.04-.11-.07-.15-.03-.06-.07-.11-.1-.17-.05-.09-.11-.18-.17-.26-.04-.05-.07-.11-.11-.15,0-.01-.02-.02-.02-.04-.03-.04-.07-.07-.11-.1-.07-.08-.15-.15-.23-.23-.04-.03-.06-.07-.1-.11l-18.79-15.73c-1.48-1.24-3.68-1.04-4.92.44-1.24,1.48-1.04,3.68.43,4.92l11.41,9.55h-120.96v-120.57l9.55,11.41c.69.83,1.69,1.25,2.68,1.25.79,0,1.59-.27,2.24-.81,1.48-1.24,1.68-3.44.44-4.92l-15.73-18.79s-.07-.07-.11-.1c-.07-.08-.15-.15-.23-.23-.04-.04-.07-.07-.1-.11,0,0-.02-.02-.04-.02-.05-.04-.1-.07-.15-.11-.08-.06-.17-.12-.26-.17-.06-.04-.11-.08-.17-.11-.05-.03-.1-.04-.15-.07-.09-.04-.19-.08-.28-.11-.07-.02-.13-.06-.21-.08-.05-.02-.1-.02-.15-.04-.1-.02-.19-.04-.29-.05-.07-.01-.14-.03-.22-.04-.06,0-.12,0-.19,0-.05,0-.09-.02-.14-.02s-.09.01-.14.01c-.07,0-.13,0-.19,0-.07,0-.14.03-.21.04-.1.02-.19.03-.28.06-.06.01-.11.02-.17.04-.07.02-.14.05-.2.08-.09.04-.18.07-.27.11-.05.03-.11.04-.16.07-.06.03-.11.07-.17.11-.09.05-.17.11-.26.17-.05.04-.1.07-.15.11,0,0-.02.01-.03.02-.04.03-.07.07-.11.11-.08.07-.15.15-.22.23-.04.04-.07.06-.11.11l-15.73,18.79c-1.24,1.48-1.04,3.68.44,4.92.66.55,1.45.81,2.24.81,1,0,1.99-.43,2.68-1.25l9.55-11.41v124.07c0,1.93,1.57,3.49,3.49,3.49h124.46l-11.41,9.55c-1.48,1.24-1.68,3.44-.44,4.92.69.83,1.68,1.25,2.68,1.25.79,0,1.59-.27,2.24-.82l18.79-15.73s.07-.07.1-.11c.08-.07.16-.15.24-.24.03-.04.07-.06.1-.09,0-.01.02-.02.02-.04.04-.05.07-.1.11-.15.06-.08.12-.17.17-.26.04-.06.07-.11.1-.17.03-.05.04-.1.07-.15.04-.1.08-.19.11-.29.02-.06.05-.12.07-.19.02-.05.02-.11.04-.16.03-.1.04-.2.06-.3.01-.07.03-.13.04-.2,0-.06,0-.12,0-.18,0-.05.02-.1.02-.15s-.02-.1-.02-.15Z"/><path class="cls-3" d="M266.89,103.33c-9.47-22.09-25.02-40.95-44.55-54.5"/><path class="cls-3" d="M78.03,48.58c-19.46,13.39-35,32.06-44.56,53.94"/><path class="cls-30" d="M101.35,205.18c57.79,0,96.16-37.25,96.16-83.04,0-1.63-1.32-2.95-2.95-2.95s-2.95,1.32-2.95,2.95c0,42.53-35.71,77.13-90.25,77.13-1.63,0-2.95,1.32-2.95,2.95s1.32,2.95,2.95,2.95"/><path class="cls-4" d="M101.35,205.18c57.79,0,96.16-37.25,96.16-83.04,0-1.63-1.32-2.95-2.95-2.95s-2.95,1.32-2.95,2.95c0,42.53-35.71,77.13-90.25,77.13-1.63,0-2.95,1.32-2.95,2.95s1.32,2.95,2.95,2.95Z"/></g></svg>