<?xml version="1.0" encoding="UTF-8"?><svg id="Layer_1" xmlns="http://www.w3.org/2000/svg" viewBox="0 0 266.73 280.2"><defs><style>.cls-1{fill:#000082;}.cls-2{stroke-width:2.2px;}.cls-2,.cls-3{stroke:#fff;stroke-linejoin:round;}.cls-2,.cls-3,.cls-4{fill:none;stroke-linecap:round;}.cls-3{stroke-width:.73px;}.cls-5{fill:#fff;}.cls-4{stroke:#000;stroke-width:7.32px;}</style></defs><path class="cls-1" d="M133.17,256.71c60.76,0,110.01-49.27,110.01-110.02s-49.25-110.02-110.01-110.02S23.16,85.93,23.16,146.69s49.25,110.02,110.01,110.02h0Z"/><path class="cls-5" d="M206.9,210.63c0-.06,0-.12,0-.18,0-.07-.03-.13-.04-.2-.02-.1-.03-.2-.06-.3-.01-.05-.02-.11-.03-.16-.02-.07-.05-.13-.07-.19-.04-.1-.07-.2-.12-.29-.02-.05-.04-.11-.07-.15-.03-.06-.07-.11-.1-.17-.05-.09-.11-.18-.17-.26-.04-.05-.07-.1-.11-.15,0-.01-.02-.02-.02-.04-.03-.04-.07-.07-.11-.1-.07-.08-.15-.16-.23-.23-.04-.04-.06-.07-.1-.11l-18.79-15.73c-1.48-1.24-3.68-1.05-4.92.44-1.24,1.48-1.04,3.68.43,4.92l11.41,9.55h-120.96v-120.57l9.55,11.41c.69.83,1.68,1.25,2.68,1.25.79,0,1.59-.27,2.24-.81,1.48-1.24,1.68-3.44.44-4.92l-15.73-18.79s-.07-.07-.11-.1c-.07-.08-.15-.15-.23-.23-.04-.04-.07-.07-.1-.11-.01,0-.02-.02-.04-.02-.05-.04-.1-.07-.15-.11-.08-.06-.17-.12-.26-.17-.06-.03-.11-.08-.17-.11-.05-.03-.1-.04-.15-.07-.09-.04-.19-.08-.28-.11-.07-.02-.13-.06-.2-.08-.05-.02-.1-.02-.15-.03-.1-.02-.19-.04-.29-.06-.07-.01-.14-.03-.22-.04-.06,0-.12,0-.19,0-.05,0-.09-.02-.14-.02s-.09.01-.14.01c-.07,0-.13,0-.2,0-.07,0-.14.03-.21.04-.1.02-.19.03-.28.06-.06.01-.11.02-.17.04-.07.02-.13.05-.2.08-.09.03-.18.07-.27.11-.05.02-.11.04-.16.07-.06.03-.11.07-.17.11-.09.05-.17.11-.26.17-.05.04-.1.07-.15.11-.01,0-.02.01-.03.02-.04.03-.07.07-.1.11-.08.07-.15.15-.23.23-.03.04-.07.06-.11.1l-15.73,18.79c-1.24,1.48-1.04,3.68.44,4.92.66.55,1.45.81,2.24.81,1,0,1.99-.43,2.68-1.25l9.55-11.41v124.07c0,1.93,1.57,3.5,3.5,3.5h124.46l-11.41,9.55c-1.48,1.24-1.67,3.44-.44,4.92.69.83,1.68,1.25,2.68,1.25.79,0,1.59-.27,2.24-.82l18.79-15.73s.07-.07.1-.11c.08-.07.16-.15.24-.24.03-.04.07-.06.1-.09,0-.01.02-.02.02-.04.04-.05.07-.1.11-.15.06-.08.12-.17.17-.26.03-.05.07-.11.1-.17.03-.05.05-.1.07-.15.04-.1.08-.19.12-.29.02-.06.05-.12.07-.19.02-.05.02-.11.04-.16.03-.1.04-.2.06-.3,0-.07.03-.13.04-.2,0-.06,0-.12,0-.18,0-.05.02-.1.02-.15s-.02-.1-.02-.15h0Z"/><path class="cls-3" d="M206.9,210.63c0-.06,0-.12,0-.18,0-.07-.03-.13-.04-.2-.02-.1-.03-.2-.06-.3-.01-.05-.02-.11-.03-.16-.02-.07-.05-.13-.07-.19-.04-.1-.07-.2-.12-.29-.02-.05-.04-.11-.07-.15-.03-.06-.07-.11-.1-.17-.05-.09-.11-.18-.17-.26-.04-.05-.07-.1-.11-.15,0-.01-.02-.02-.02-.04-.03-.04-.07-.07-.11-.1-.07-.08-.15-.16-.23-.23-.04-.04-.06-.07-.1-.11l-18.79-15.73c-1.48-1.24-3.68-1.05-4.92.44-1.24,1.48-1.04,3.68.43,4.92l11.41,9.55h-120.96v-120.57l9.55,11.41c.69.83,1.68,1.25,2.68,1.25.79,0,1.59-.27,2.24-.81,1.48-1.24,1.68-3.44.44-4.92l-15.73-18.79s-.07-.07-.11-.1c-.07-.08-.15-.15-.23-.23-.04-.04-.07-.07-.1-.11-.01,0-.02-.02-.04-.02-.05-.04-.1-.07-.15-.11-.08-.06-.17-.12-.26-.17-.06-.03-.11-.08-.17-.11-.05-.03-.1-.04-.15-.07-.09-.04-.19-.08-.28-.11-.07-.02-.13-.06-.2-.08-.05-.02-.1-.02-.15-.03-.1-.02-.19-.04-.29-.06-.07-.01-.14-.03-.22-.04-.06,0-.12,0-.19,0-.05,0-.09-.02-.14-.02s-.09.01-.14.01c-.07,0-.13,0-.2,0-.07,0-.14.03-.21.04-.1.02-.19.03-.28.06-.06.01-.11.02-.17.04-.07.02-.13.05-.2.08-.09.03-.18.07-.27.11-.05.02-.11.04-.16.07-.06.03-.11.07-.17.11-.09.05-.17.11-.26.17-.05.04-.1.07-.15.11-.01,0-.02.01-.03.02-.04.03-.07.07-.1.11-.08.07-.15.15-.23.23-.03.04-.07.06-.11.1l-15.73,18.79c-1.24,1.48-1.04,3.68.44,4.92.66.55,1.45.81,2.24.81,1,0,1.99-.43,2.68-1.25l9.55-11.41v124.07c0,1.93,1.57,3.5,3.5,3.5h124.46l-11.41,9.55c-1.48,1.24-1.67,3.44-.44,4.92.69.83,1.68,1.25,2.68,1.25.79,0,1.59-.27,2.24-.82l18.79-15.73s.07-.07.1-.11c.08-.07.16-.15.24-.24.03-.04.07-.06.1-.09,0-.01.02-.02.02-.04.04-.05.07-.1.11-.15.06-.08.12-.17.17-.26.03-.05.07-.11.1-.17.03-.05.05-.1.07-.15.04-.1.08-.19.12-.29.02-.06.05-.12.07-.19.02-.05.02-.11.04-.16.03-.1.04-.2.06-.3,0-.07.03-.13.04-.2,0-.06,0-.12,0-.18,0-.05.02-.1.02-.15s-.02-.1-.02-.15h0Z"/><path class="cls-4" d="M250.05,96.64c-9.47-22.09-25.02-40.95-44.55-54.5M61.19,41.89c-19.45,13.39-35,32.06-44.56,53.94"/><path class="cls-5" d="M84.52,198.5c57.79,0,96.16-37.25,96.16-83.04,0-1.63-1.32-2.95-2.95-2.95s-2.95,1.32-2.95,2.95c0,42.53-35.71,77.13-90.25,77.13-1.63,0-2.95,1.32-2.95,2.95s1.32,2.95,2.95,2.95h0Z"/><path class="cls-2" d="M84.52,198.5c57.79,0,96.16-37.25,96.16-83.04,0-1.63-1.32-2.95-2.95-2.95s-2.95,1.32-2.95,2.95c0,42.53-35.71,77.13-90.25,77.13-1.63,0-2.95,1.32-2.95,2.95s1.32,2.95,2.95,2.95h0Z"/><path d="M103.94,28.75l-10.15-24.64-5.74,2.35-2.64,17.69-14.49-10.69-5.74,2.35,10.08,24.67,6.45-2.63-5.2-12.72,10.51,7.71,3.1-1.27,1.99-13.23,5.41,13.04,6.41-2.62h0ZM130.5,26.24l7.81-.69L124.2.05l-7.39.66-9.36,27.58,7.66-.68,1.63-5.34,11.22-1,2.54,4.97h0ZM118.44,16.54l2.66-8.8,4.17,8.19-6.82.61h0ZM149.13,21.66l.68-4.83,11.72,1.64.78-5.58-11.72-1.64.62-4.45,13.31,1.86.81-5.77-20.7-2.9-3.69,26.39,21.19,2.96.81-5.77-13.8-1.93h0ZM166.9,30.59l11.66,4.77c8.18,3.34,15.72.87,18.82-6.7,3.09-7.58-.56-14.62-8.74-17.96l-11.66-4.77-10.08,24.67h0ZM176.16,27.88l5.53-13.53,4.4,1.8c4.19,1.71,5.99,5.37,4.25,9.63-1.74,4.26-5.58,5.61-9.78,3.9l-4.4-1.8h0Z"/><path d="M2.57,119.65l11.88,3.18.61-2.26-6.19-6.37,8.58-2.45.61-2.27-11.87-3.21-.7,2.58,6.97,1.89-6.66,1.93-.33,1.24,4.92,5.08-7.13-1.91-.7,2.58h0ZM.77,131.03c-.44,3.84,1.91,6.99,5.55,7.41,3.65.42,6.64-2.12,7.08-5.96.44-3.86-1.92-6.99-5.55-7.41-3.63-.41-6.64,2.1-7.08,5.96h0ZM3.18,131.31c.25-2.18,2.03-3.64,4.35-3.38,2.32.26,3.72,2.09,3.47,4.27-.25,2.18-2.03,3.64-4.35,3.38-2.32-.26-3.72-2.09-3.47-4.27h0ZM0,141.96l.07,5.59c.05,4.02,2.51,6.75,6.23,6.7,3.72-.05,6.11-2.84,6.06-6.86l-.07-5.59-12.3.16h0ZM2.37,144.78l7.62-.1.03,2.6c.03,2.44-1.41,4.06-3.76,4.09-2.35.03-3.83-1.55-3.86-3.99l-.03-2.6h0ZM3.07,160.49l2.83-.32.65,5.67,2.2-.25-.65-5.67,2.65-.3.73,6.42,2.27-.26-1.06-9.23-12.22,1.4,1.08,9.46,2.27-.26-.76-6.65h0ZM2.23,171.08l1.92,8.81,2.27-.49-1.31-6.03,9.75-2.12-.61-2.78-12.02,2.62h0ZM18.85,192.73l2.15-.76-3.09-8.77-11.6,4.09.95,2.68,4.23-1.49,1.89,5.37,2.15-.76-1.89-5.37,3.07-1.08,2.14,6.08h0ZM12.99,204.51c1.64,3.5,5.28,4.96,8.61,3.41,3.33-1.55,4.55-5.28,2.92-8.79-1.64-3.52-5.3-4.95-8.61-3.41-3.31,1.55-4.56,5.27-2.92,8.79h0ZM15.19,203.49c-.93-1.99-.18-4.16,1.94-5.15,2.12-.99,4.27-.17,5.2,1.82.93,1.99.18,4.16-1.94,5.15-2.12.99-4.27.17-5.2-1.82h0ZM23.99,223.23l1.89-4.43c1.43.99,3.07,1.07,4.63.09,2.34-1.46,2.7-4.1.96-6.89l-2.82-4.51-10.43,6.51,1.51,2.41,2.91-1.81,1.31,2.1.07.12-1.65,3.83,1.62,2.59h0ZM28.99,216.45c-1.13.71-2.28.39-3.21-1.09l-1.23-1.97,3.64-2.27,1.23,1.97c.92,1.48.72,2.64-.43,3.36h0ZM30.91,231.97l1.84,2.17,7.62-6.44,2.54,3.01,1.77-1.5-6.92-8.18-1.77,1.5,2.54,3.01-7.62,6.44h0ZM51.94,236.3l-3.39,3.47-4-3.9,3.39-3.47-2.03-1.99-8.59,8.8,2.03,1.99,3.52-3.61,4,3.91-3.52,3.61,2.03,1.99,8.59-8.8-2.03-1.99h0ZM52.79,250.01l1.73-2.26,4.53,3.47,1.35-1.75-4.53-3.47,1.63-2.12,5.13,3.93,1.39-1.81-7.37-5.65-7.48,9.76,7.56,5.79,1.39-1.81-5.31-4.07h0ZM72.15,265.21l2.61,1.46,1.2-13.42-2.45-1.37-10.78,8.06,2.55,1.42,2.24-1.77,4.98,2.79-.34,2.83h0ZM69.36,258.15l4-3.16-.6,5.06-3.4-1.9h0ZM90.23,259.81l-2.83,6.91-2.83-9.22-2.18-.89-4.65,11.38,2.6,1.06,2.82-6.91,2.85,9.23,2.16.88,4.65-11.39-2.6-1.06h0ZM101.71,276.25l2.88.78-2.1-13.31-2.71-.73-8.5,10.44,2.82.76,1.74-2.26,5.51,1.49.36,2.83h0ZM97.29,270.08l3.11-4.04.65,5.05-3.76-1.02h0ZM106.74,277.33l8.85,1.7.44-2.28-6.06-1.16,1.88-9.8-2.79-.54-2.31,12.08h0ZM129.13,267.8l-2.78-.25-3.76,5.15-2.79-5.73-3.01-.27,4.04,8.3-.39,4.38,2.84.25.39-4.34,5.46-7.49h0ZM134.51,280.2c3.51-.04,5.19-1.82,5.17-3.88-.06-4.51-7.19-2.86-7.22-5.13,0-.77.63-1.41,2.32-1.43,1.09-.01,2.27.29,3.42.92l.85-2.17c-1.15-.71-2.74-1.05-4.28-1.03-3.5.04-5.16,1.8-5.13,3.89.06,4.57,7.19,2.9,7.22,5.2,0,.76-.67,1.33-2.36,1.35-1.48.02-3.03-.49-4.07-1.23l-.94,2.15c1.1.83,3.07,1.39,5.03,1.36h0ZM141.97,279.72l2.84-.18-.78-12.27-2.84.18.78,12.27h0ZM152.63,278.82c3.48-.49,4.92-2.46,4.64-4.5-.62-4.47-7.49-1.93-7.8-4.18-.11-.77.45-1.48,2.12-1.72,1.08-.15,2.29,0,3.51.48l.57-2.26c-1.23-.55-2.85-.7-4.38-.49-3.46.48-4.89,2.44-4.6,4.51.63,4.52,7.49,1.97,7.81,4.25.11.75-.5,1.4-2.17,1.63-1.46.21-3.07-.1-4.2-.71l-.66,2.26c1.2.68,3.23.99,5.16.72h0ZM172.01,274.52c3.71-1.1,5.68-4.49,4.64-8.01-1.05-3.52-4.56-5.28-8.26-4.18-3.72,1.11-5.68,4.51-4.64,8.02,1.04,3.5,4.54,5.28,8.26,4.18h0ZM171.31,272.2c-2.1.63-4.14-.43-4.81-2.67-.67-2.24.46-4.24,2.57-4.87,2.1-.63,4.14.43,4.81,2.67.67,2.24-.46,4.24-2.57,4.87h0ZM186.74,257.94l-.92-2.09-8.52,3.72,4.93,11.27,2.61-1.14-1.8-4.1,5.22-2.28-.92-2.09-5.22,2.28-1.3-2.98,5.91-2.58h0ZM199.12,260.04l-1.45-2.45,4.92-2.91-1.12-1.9-4.92,2.91-1.36-2.3,5.57-3.29-1.16-1.96-8,4.73,6.26,10.58,8.2-4.85-1.16-1.96-5.76,3.41h0ZM208.78,241.36l4.54,5.92-9.4-2.2-1.87,1.43,7.48,9.76,2.23-1.71-4.54-5.92,9.41,2.19,1.85-1.42-7.48-9.76-2.23,1.71h0ZM222.21,242.99l-1.94-2.08,4.18-3.89-1.51-1.62-4.18,3.89-1.82-1.96,4.73-4.41-1.55-1.67-6.8,6.33,8.38,9,6.97-6.49-1.55-1.67-4.9,4.56h0ZM238.56,228.74l-4.8-.45c.51-1.66.08-3.25-1.33-4.44-2.11-1.78-4.73-1.31-6.86,1.2l-3.44,4.06,9.39,7.94,1.84-2.17-2.62-2.21,1.6-1.89.09-.11,4.15.4,1.97-2.33h0ZM230.57,226.06c1.02.86,1.07,2.05-.05,3.38l-1.5,1.77-3.28-2.77,1.5-1.77c1.12-1.33,2.3-1.49,3.33-.61h0ZM243.06,217.64c-.09.81-.39,1.48-.83,2.12-1.34,1.93-3.62,2.35-5.51,1.04-1.92-1.33-2.3-3.59-.94-5.55.71-1.02,1.66-1.63,2.95-1.82l-.34-2.46c-1.82.19-3.45,1.24-4.68,3.02-2.23,3.22-1.67,7.07,1.37,9.18,3.05,2.11,6.85,1.29,9.05-1.89,1-1.45,1.61-3.29,1.55-4.98l-4.1-2.84-1.48,2.14,2.96,2.05h0ZM243.18,197.91l-1.3,2.47,3.3,5.45-6.36.35-1.41,2.67,9.21-.52,3.88,2.05,1.33-2.51-3.85-2.03-4.79-7.93h0ZM257.2,196.46l1.86-5.27c1.34-3.8-.03-7.2-3.55-8.44-3.51-1.24-6.72.56-8.05,4.35l-1.86,5.27,11.6,4.09h0ZM255.94,193l-7.19-2.53.86-2.45c.81-2.3,2.72-3.33,4.94-2.54,2.22.78,3.06,2.77,2.25,5.08l-.86,2.45h0ZM260.61,178.02l-2.77-.67,1.35-5.55-2.15-.52-1.35,5.55-2.6-.63,1.53-6.28-2.22-.54-2.2,9.03,11.95,2.92,2.26-9.25-2.22-.54-1.59,6.5h0ZM266.71,154.02l-12.22-1.36-.27,2.32,7.08,5.37-8.12,3.7-.27,2.34,12.22,1.4.3-2.65-7.17-.82,6.29-2.91.14-1.27-5.63-4.29,7.33.82.3-2.65h0ZM266.59,139.83l-.04-2.99-12.23,5.65.04,2.81,12.37,5.33-.04-2.92-2.65-1.06-.07-5.71,2.62-1.12h0ZM261.87,145.77l-4.73-1.89,4.68-2.01.05,3.9h0ZM252.78,126.82l7.39-1.04-6.55,7.09.33,2.33,12.18-1.71-.39-2.78-7.39,1.04,6.55-7.11-.32-2.31-12.18,1.7.39,2.78h0ZM263.58,117.46l-1.46-5.39c-1.05-3.88-4.11-5.91-7.71-4.94-3.6.97-5.21,4.27-4.16,8.15l1.46,5.39,11.87-3.21h0ZM260.58,115.32l-7.36,1.99-.68-2.51c-.64-2.36.35-4.28,2.62-4.9,2.27-.62,4.1.55,4.73,2.9l.68,2.51h0Z"/></svg>