<?xml version="1.0" encoding="UTF-8"?><svg id="Layer_1" xmlns="http://www.w3.org/2000/svg" xmlns:xlink="http://www.w3.org/1999/xlink" viewBox="0 0 300 303.34"><defs><style>.cls-1,.cls-2,.cls-3,.cls-4,.cls-5{fill:none;}.cls-2{stroke:#000;stroke-width:7.32px;}.cls-2,.cls-3,.cls-4{stroke-linecap:round;}.cls-2,.cls-3,.cls-5{stroke-linejoin:round;}.cls-6{font-size:17.57px;}.cls-6,.cls-7,.cls-8,.cls-9,.cls-10,.cls-11,.cls-12,.cls-13,.cls-14,.cls-15,.cls-16,.cls-17,.cls-18,.cls-19,.cls-20,.cls-21,.cls-22,.cls-23,.cls-24,.cls-25,.cls-26{font-family:Montserrat-Bold, Montserrat;}.cls-6,.cls-7,.cls-8,.cls-9,.cls-10,.cls-11,.cls-12,.cls-13,.cls-14,.cls-15,.cls-16,.cls-17,.cls-18,.cls-19,.cls-20,.cls-21,.cls-22,.cls-23,.cls-24,.cls-25,.cls-26,.cls-27,.cls-28,.cls-29,.cls-30,.cls-31,.cls-32{font-weight:700;}.cls-7{font-size:17.57px;}.cls-8{font-size:17.57px;}.cls-9{font-size:17.57px;}.cls-10{font-size:17.57px;}.cls-11{font-size:17.57px;}.cls-12{font-size:17.57px;}.cls-13{font-size:17.57px;}.cls-14{font-size:17.57px;}.cls-15{font-size:17.57px;}.cls-16{font-size:17.57px;}.cls-17{font-size:17.57px;}.cls-18{font-size:17.57px;}.cls-19{font-size:17.57px;}.cls-20{font-size:17.57px;}.cls-21{font-size:17.57px;}.cls-22{font-size:17.57px;}.cls-23{font-size:17.57px;}.cls-24{font-size:17.57px;}.cls-25{font-size:17.57px;}.cls-26{font-size:17.57px;}.cls-33{fill:#00b04e;}.cls-27{font-size:38.07px;}.cls-27,.cls-28,.cls-29,.cls-30,.cls-31,.cls-32{font-family:Montserrat-ExtraBold, Montserrat;}.cls-28{font-size:38.07px;}.cls-29{font-size:38.07px;}.cls-30{font-size:38.07px;}.cls-31{font-size:38.07px;}.cls-32{font-size:38.07px;}.cls-34{clip-path:url(#clippath-1);}.cls-35{clip-path:url(#clippath-3);}.cls-36{clip-path:url(#clippath-4);}.cls-37{clip-path:url(#clippath-2);}.cls-38{clip-path:url(#clippath-7);}.cls-39{clip-path:url(#clippath-6);}.cls-40{clip-path:url(#clippath-5);}.cls-3,.cls-4,.cls-5{stroke:#fff;stroke-width:8.05px;}.cls-4{stroke-miterlimit:10;}</style><clipPath id="clippath-1"><rect class="cls-1" y="3.34" width="300" height="300"/></clipPath><clipPath id="clippath-2"><rect class="cls-1" y="3.34" width="300" height="300"/></clipPath><clipPath id="clippath-3"><path class="cls-1" d="M173.54,215.2v-28.99,28.99Z"/></clipPath><clipPath id="clippath-4"><path class="cls-1" d="M158.66,219.59v-19.14,19.14Z"/></clipPath><clipPath id="clippath-5"><path class="cls-1" d="M143.78,221.05v-8.2,8.2Z"/></clipPath><clipPath id="clippath-6"><rect class="cls-1" y="3.34" width="300" height="300"/></clipPath><clipPath id="clippath-7"><rect class="cls-1" y="3.34" width="300" height="300"/></clipPath></defs><g class="cls-34"><path class="cls-33" d="M150.2,263.35c60.76,0,110.01-49.27,110.01-110.02s-49.25-110.02-110.01-110.02-110.01,49.25-110.01,110.02,49.25,110.02,110.01,110.02"/><text class="cls-32" transform="translate(83.04 52) rotate(-25.03)"><tspan x="0" y="0">M</tspan></text><text class="cls-27" transform="translate(116.55 37.79) rotate(-13.71)"><tspan x="0" y="0">I</tspan></text><text class="cls-29" transform="translate(128.96 34.23) rotate(-3.63)"><tspan x="0" y="0">N</tspan></text><text class="cls-28" transform="translate(159.32 32.98) rotate(9.41)"><tspan x="0" y="0">F</tspan></text><text class="cls-31" transform="translate(182.58 37.43) rotate(17.99)"><tspan x="0" y="0">i</tspan></text><text class="cls-30" transform="translate(194.04 40.53) rotate(27.82)"><tspan x="0" y="0">n</tspan></text></g><text class="cls-10" transform="translate(20.13 122.82) rotate(99.41)"><tspan x="0" y="0">M</tspan></text><text class="cls-21" transform="translate(17.26 141.45) rotate(92.18)"><tspan x="0" y="0">O</tspan></text><text class="cls-19" transform="translate(16.82 158.35) rotate(84.93)"><tspan x="0" y="0">D</tspan></text><text class="cls-16" transform="translate(18.46 174.25) rotate(79.15)"><tspan x="0" y="0">E</tspan></text><text class="cls-11" transform="translate(21.17 187.2) rotate(73.43)"><tspan x="0" y="0">L</tspan></text><text class="cls-13" transform="translate(24.59 198.14) rotate(69.18)"><tspan x="0" y="0"> </tspan></text><text class="cls-22" transform="translate(26.42 203.05) rotate(66.37)"><tspan x="0" y="0">F</tspan></text><text class="cls-15" transform="translate(31.77 214.98) rotate(59.41)"><tspan x="0" y="0">O</tspan></text><text class="cls-11" transform="translate(40.46 229.3) rotate(52.52)"><tspan x="0" y="0">R</tspan></text><text class="cls-18" transform="translate(48.94 240.07) rotate(48.42)"><tspan x="0" y="0"> </tspan></text><text class="cls-23" transform="translate(52.39 243.97) rotate(45.68)"><tspan x="0" y="0">I</tspan></text><text class="cls-18" transform="translate(56.88 248.75) rotate(41.58)"><tspan x="0" y="0">N</tspan></text><text class="cls-20" transform="translate(69.06 259.3) rotate(34.73)"><tspan x="0" y="0">F</tspan></text><text class="cls-25" transform="translate(79.3 266.44) rotate(29.21)"><tspan x="0" y="0">O</tspan></text><text class="cls-12" transform="translate(94.07 274.44) rotate(22.22)"><tspan x="0" y="0">R</tspan></text><text class="cls-26" transform="translate(107.91 280.02) rotate(15.14)"><tspan x="0" y="0">M</tspan></text><text class="cls-13" transform="translate(126.17 284.59) rotate(7.97)"><tspan x="0" y="0">E</tspan></text><text class="cls-21" transform="translate(139.33 286.33) rotate(2.18)"><tspan x="0" y="0">D</tspan></text><text class="cls-20" transform="translate(155.31 286.59) rotate(-3.63)"><tspan x="0" y="0"> </tspan></text><text class="cls-13" transform="translate(161.19 286.42) rotate(-7.97)"><tspan x="0" y="0">N</tspan></text><text class="cls-17" transform="translate(176.67 284.12) rotate(-13.71)"><tspan x="0" y="0">A</tspan></text><text class="cls-17" transform="translate(190.49 280.51) rotate(-19.4)"><tspan x="0" y="0">T</tspan></text><text class="cls-22" transform="translate(201.46 276.45) rotate(-23.63)"><tspan x="0" y="0">I</tspan></text><text class="cls-25" transform="translate(208.09 273.72) rotate(-29.21)"><tspan x="0" y="0">O</tspan></text><text class="cls-8" transform="translate(222.69 265.47) rotate(-36.1)"><tspan x="0" y="0">N</tspan></text><text class="cls-7" transform="translate(235.66 255.91) rotate(-42.95)"><tspan x="0" y="0">A</tspan></text><text class="cls-18" transform="translate(246.43 245.75) rotate(-48.42)"><tspan x="0" y="0">L</tspan></text><text class="cls-14" transform="translate(253.54 237.56) rotate(-51.15)"><tspan x="0" y="0"> </tspan></text><text class="cls-20" transform="translate(257.15 233.06) rotate(-55.27)"><tspan x="0" y="0">F</tspan></text><text class="cls-15" transform="translate(263.85 223.07) rotate(-59.41)"><tspan x="0" y="0">I</tspan></text><text class="cls-6" transform="translate(267.24 217.42) rotate(-63.58)"><tspan x="0" y="0">N</tspan></text><text class="cls-17" transform="translate(274.14 202.8) rotate(-70.6)"><tspan x="0" y="0">A</tspan></text><text class="cls-24" transform="translate(279.08 188.12) rotate(-77.72)"><tspan x="0" y="0">N</tspan></text><text class="cls-19" transform="translate(282.36 172.19) rotate(-84.93)"><tspan x="0" y="0">C</tspan></text><text class="cls-9" transform="translate(283.45 158.47) rotate(-89.28)"><tspan x="0" y="0">I</tspan></text><text class="cls-20" transform="translate(283.68 151.81) rotate(-93.63)"><tspan x="0" y="0">N</tspan></text><text class="cls-16" transform="translate(282.54 135.58) rotate(-100.85)"><tspan x="0" y="0">G</tspan></text><g class="cls-37"><path class="cls-2" d="M30.69,109.39c-.55,1.5-1.07,3-1.57,4.52"/><path class="cls-2" d="M72.08,52.89c-18.61,14.47-33.1,33.98-41.4,56.5"/><path class="cls-2" d="M270.71,113.4c-7.89-23.88-22.67-44.61-41.98-59.88"/><path class="cls-3" d="M94.88,226c19.31-6.75,39.5-16.03,74.12-50.91,32.66-32.88,52.31-66.84,56.75-82.94"/><polyline class="cls-3" points="212.31 100.43 225.75 92.15 233.06 106.18"/></g><line class="cls-3" x1="203.31" y1="196.16" x2="203.31" y2="152.24"/><line class="cls-3" x1="188.43" y1="211.24" x2="188.43" y2="170.36"/><g class="cls-35"><line class="cls-3" x1="168.17" y1="224.44" x2="168.17" y2="171.55"/></g><line class="cls-3" x1="173.54" y1="215.2" x2="173.54" y2="186.21"/><g class="cls-36"><line class="cls-3" x1="170.4" y1="224" x2="170.4" y2="171.11"/></g><line class="cls-3" x1="158.66" y1="219.59" x2="158.66" y2="200.44"/><g class="cls-40"><line class="cls-3" x1="156.42" y1="236.41" x2="156.42" y2="183.52"/></g><line class="cls-3" x1="143.78" y1="221.05" x2="143.78" y2="212.85"/><g class="cls-39"><path class="cls-3" d="M149.81,175.99v-5.34M149.79,139.37l.02-5.42M139.85,162.5c0,4.5,4.46,8.15,9.95,8.15s9.95-3.65,9.95-8.15-4.46-8.15-9.95-8.15c-5.04,0-9.28-3.4-9.28-7.52s4.09-7.47,9.13-7.47,9.12,3.34,9.12,7.47"/><path class="cls-5" d="M98.9,197.97c12.54-7.01,30.77-11.42,51.06-11.42,2.03,0,4.04.04,6.02.13M201.02,112.2c-12.54,7.01-30.77,11.42-51.06,11.42s-38.53-4.41-51.07-11.42M131.09,206.63c-6-12.56-9.78-30.99-9.78-51.55,0-37.83,12.83-68.51,28.66-68.51s28.66,30.67,28.66,68.51c0,2.91-.08,5.78-.22,8.6M117.19,215.25c-21.29-11.62-35.73-34.21-35.73-60.17,0-37.83,30.67-68.51,68.5-68.51,26.73,0,49.88,15.31,61.17,37.63"/></g><line class="cls-4" x1="171.01" y1="155.08" x2="185.31" y2="155.08"/><line class="cls-3" x1="81.46" y1="155.08" x2="129.02" y2="155.08"/><g class="cls-38"><path class="cls-3" d="M149.94,223.48c-6.77,0-13.3-.98-19.48-2.81"/><path class="cls-3" d="M215.56,135.24c1.88,6.25,2.88,12.87,2.88,19.73,0,37.84-30.67,68.51-68.51,68.51"/><path class="cls-3" d="M182.71,94.81c15.3,8.35,27.07,22.38,32.48,39.24"/><path class="cls-3" d="M215.19,134.05c2.11,6.6,3.26,13.63,3.26,20.93,0,37.83-30.67,68.51-68.51,68.51"/></g></svg>