<?xml version="1.0" encoding="UTF-8"?><svg id="Layer_1" xmlns="http://www.w3.org/2000/svg" xmlns:xlink="http://www.w3.org/1999/xlink" viewBox="0 0 266.82 280.73"><defs><style>.cls-1,.cls-2,.cls-3,.cls-4,.cls-5{fill:none;}.cls-2{stroke:#000;stroke-width:7.32px;}.cls-2,.cls-3,.cls-4{stroke-linecap:round;}.cls-2,.cls-3,.cls-5{stroke-linejoin:round;}.cls-6{fill:#00b04e;}.cls-7{clip-path:url(#clippath-1);}.cls-8{clip-path:url(#clippath-2);}.cls-3,.cls-4,.cls-5{stroke:#fff;stroke-width:8.05px;}.cls-4{stroke-miterlimit:10;}.cls-9{clip-path:url(#clippath);}</style><clipPath id="clippath"><line class="cls-1" x1="156.78" y1="209.33" x2="156.78" y2="180.34"/></clipPath><clipPath id="clippath-1"><line class="cls-1" x1="141.9" y1="213.72" x2="141.9" y2="194.57"/></clipPath><clipPath id="clippath-2"><line class="cls-1" x1="127.02" y1="215.18" x2="127.02" y2="206.98"/></clipPath></defs><path class="cls-6" d="M133.44,257.48c60.76,0,110.01-49.27,110.01-110.02s-49.25-110.02-110.01-110.02S23.43,86.7,23.43,147.47s49.25,110.02,110.01,110.02h0Z"/><path class="cls-2" d="M13.93,103.51c-.55,1.5-1.07,3-1.56,4.52M55.32,47.01c-18.61,14.47-33.1,33.98-41.4,56.5M253.95,107.53c-7.89-23.88-22.67-44.61-41.98-59.88"/><path class="cls-3" d="M78.11,220.12c19.31-6.75,39.5-16.03,74.12-50.91,32.66-32.88,52.31-66.84,56.75-82.94M195.55,94.56l13.44-8.28,7.31,14.03"/><path class="cls-3" d="M186.55,190.29v-43.93M171.66,205.37v-40.89"/><g class="cls-9"><line class="cls-3" x1="151.41" y1="218.57" x2="151.41" y2="165.68"/></g><line class="cls-3" x1="156.78" y1="209.33" x2="156.78" y2="180.34"/><g class="cls-7"><line class="cls-3" x1="153.64" y1="218.13" x2="153.64" y2="165.24"/></g><line class="cls-3" x1="141.9" y1="213.72" x2="141.9" y2="194.57"/><g class="cls-8"><line class="cls-3" x1="139.66" y1="230.54" x2="139.66" y2="177.65"/></g><path class="cls-3" d="M127.02,215.18v-8.2M123.09,156.63c0,4.5,4.46,8.15,9.95,8.15s9.95-3.65,9.95-8.15-4.46-8.15-9.95-8.15c-5.04,0-9.28-3.39-9.28-7.52s4.09-7.47,9.13-7.47,9.12,3.34,9.12,7.47M133.03,133.49l.02-5.42M133.05,170.12v-5.34"/><path class="cls-5" d="M100.43,209.38c-21.29-11.62-35.73-34.21-35.73-60.17,0-37.83,30.67-68.51,68.51-68.51,26.73,0,49.88,15.3,61.17,37.63M114.33,200.76c-6-12.56-9.78-31-9.78-51.55,0-37.83,12.83-68.51,28.66-68.51s28.66,30.67,28.66,68.51c0,2.91-.08,5.78-.22,8.6M184.26,106.32c-12.54,7.01-30.77,11.42-51.06,11.42s-38.53-4.41-51.07-11.42M82.14,192.1c12.54-7.01,30.77-11.42,51.06-11.42,2.03,0,4.04.04,6.02.13"/><line class="cls-4" x1="154.25" y1="149.21" x2="168.55" y2="149.21"/><line class="cls-3" x1="64.7" y1="149.21" x2="112.26" y2="149.21"/><path class="cls-3" d="M133.18,217.61c-6.77,0-13.3-.98-19.48-2.81M198.8,129.37c1.88,6.25,2.88,12.87,2.88,19.73,0,37.83-30.67,68.51-68.5,68.51M165.95,88.93c15.3,8.35,27.07,22.38,32.48,39.24M198.43,128.18c2.11,6.6,3.25,13.63,3.25,20.93,0,37.83-30.67,68.51-68.5,68.51"/><path d="M.86,132.06l12.14,1.98.38-2.31-6.8-5.72,8.29-3.29.38-2.32-12.13-2.01-.44,2.63,7.12,1.18-6.43,2.59-.21,1.26,5.41,4.56-7.28-1.19-.44,2.64h0ZM0,142.97c-.15,3.86,2.43,6.83,6.1,6.97,3.67.14,6.46-2.62,6.61-6.48.15-3.88-2.45-6.83-6.1-6.96-3.65-.14-6.46,2.6-6.61,6.48H0ZM2.43,143.06c.08-2.19,1.74-3.78,4.08-3.7,2.33.09,3.87,1.8,3.79,3.99-.08,2.19-1.74,3.78-4.08,3.7s-3.87-1.8-3.79-3.99h0ZM.19,153.93l.49,5.57c.36,4.01,3.01,6.54,6.72,6.21,3.71-.33,5.88-3.29,5.53-7.3l-.49-5.57-12.25,1.09H.19ZM2.77,156.55l7.6-.67.23,2.59c.22,2.43-1.1,4.15-3.44,4.36-2.35.21-3.94-1.26-4.15-3.69l-.23-2.59h0ZM4.75,172.15l2.8-.54,1.07,5.61,2.17-.42-1.07-5.61,2.62-.5,1.22,6.35,2.24-.43-1.75-9.13-12.08,2.31,1.79,9.35,2.24-.43-1.26-6.57h0ZM4.83,182.72l2.57,8.64,2.22-.66-1.76-5.91,9.57-2.85-.81-2.73-11.79,3.51h0ZM23.15,203.01l2.09-.91-3.72-8.52-11.27,4.93,1.14,2.61,4.1-1.8,2.28,5.22,2.09-.92-2.28-5.21,2.98-1.3,2.58,5.91h0ZM18.6,215.59c1.97,3.33,5.74,4.42,8.9,2.56,3.16-1.87,4.02-5.7,2.05-9.03-1.98-3.34-5.75-4.42-8.9-2.56-3.15,1.86-4.03,5.69-2.05,9.03h0ZM20.69,214.36c-1.12-1.89-.58-4.13,1.43-5.32,2.01-1.19,4.23-.58,5.35,1.31,1.12,1.89.58,4.13-1.43,5.32-2.01,1.19-4.23.58-5.35-1.31h0ZM31.22,233.23l1.46-4.59c1.52.85,3.15.77,4.62-.36,2.19-1.68,2.29-4.35.29-6.95l-3.24-4.22-9.76,7.48,1.73,2.26,2.72-2.08,1.51,1.97.09.11-1.28,3.97,1.86,2.42h0ZM35.54,225.99c-1.06.81-2.24.61-3.3-.77l-1.41-1.84,3.4-2.61,1.41,1.84c1.06,1.38.97,2.56-.11,3.38h0ZM36.65,239.14l1.99,2.04,8.8-8.59-1.99-2.04-8.8,8.59h0ZM55.71,240.26l-4.96,5.58.38-9.64-1.76-1.56-8.16,9.2,2.1,1.86,4.96-5.58-.37,9.65,1.75,1.55,8.16-9.2-2.1-1.86h0ZM66.84,251.32l1.3-1.88-7.64-5.29-7.01,10.1,2.34,1.62,2.55-3.68,4.68,3.24,1.3-1.88-4.68-3.24,1.85-2.67,5.3,3.67h0ZM68.9,264.37c3.37,1.89,7.18.94,8.98-2.27,1.79-3.21.61-6.95-2.77-8.83-3.39-1.9-7.19-.92-8.98,2.27-1.78,3.19-.62,6.94,2.77,8.83h0ZM70.09,262.25c-1.92-1.07-2.58-3.27-1.44-5.32,1.14-2.04,3.36-2.63,5.28-1.56,1.92,1.07,2.58,3.27,1.44,5.31-1.14,2.04-3.36,2.63-5.28,1.56h0ZM88.74,273.23l-1.06-4.7c1.74-.03,3.11-.93,3.81-2.64,1.04-2.55-.21-4.91-3.26-6.15l-4.93-2.01-4.65,11.39,2.63,1.08,1.3-3.17,2.29.94.13.05.9,4.07,2.83,1.16h0ZM88.83,264.8c-.5,1.24-1.62,1.65-3.23.99l-2.15-.88,1.62-3.97,2.15.88c1.61.66,2.12,1.72,1.61,2.98h0ZM105.94,278.15l3.18-11.88-2.25-.61-6.37,6.19-2.45-8.58-2.27-.62-3.21,11.87,2.58.7,1.89-6.97,1.93,6.66,1.24.34,5.08-4.92-1.91,7.13,2.58.7h0ZM113.97,277.05l.39-2.82,5.65.79.31-2.19-5.65-.79.37-2.65,6.4.9.32-2.26-9.21-1.29-1.7,12.18,9.43,1.32.32-2.26-6.63-.93h0ZM124.02,280.51l5.58.21c4.02.15,6.87-2.17,7.01-5.89.14-3.72-2.52-6.25-6.54-6.4l-5.58-.21-.47,12.29h0ZM126.96,278.28l.29-7.62,2.6.1c2.44.09,3.98,1.61,3.89,3.96-.09,2.35-1.74,3.75-4.18,3.66l-2.6-.1h0ZM152.55,266.99l1.03,7.4-7.09-6.55-2.33.33,1.7,12.18,2.78-.39-1.03-7.39,7.11,6.55,2.31-.32-1.7-12.18-2.78.39h0ZM170.26,275.72l2.9-.71-8.26-10.64-2.73.67-2.41,13.25,2.83-.69.43-2.82,5.55-1.35,1.68,2.3h0ZM163.4,272.46l.78-5.04,3.01,4.11-3.79.93h0ZM177.51,273.31l2.68-.95-3.32-9.41,3.71-1.31-.77-2.19-10.11,3.56.77,2.19,3.71-1.31,3.32,9.41h0ZM186.03,269.99l2.61-1.14-4.93-11.27-2.61,1.14,4.93,11.27h0ZM197.9,264.41c3.38-1.89,4.56-5.63,2.77-8.83-1.79-3.21-5.6-4.15-8.98-2.27-3.39,1.9-4.55,5.64-2.77,8.83,1.78,3.19,5.58,4.16,8.98,2.27h0ZM196.72,262.3c-1.92,1.07-4.14.48-5.28-1.56-1.14-2.04-.48-4.24,1.44-5.31,1.92-1.07,4.14-.48,5.28,1.56,1.14,2.04.48,4.24-1.44,5.31h0ZM206.7,243.81l4.4,6.03-9.34-2.43-1.9,1.39,7.24,9.93,2.27-1.66-4.4-6.03,9.35,2.42,1.89-1.38-7.25-9.93-2.27,1.66h0ZM226.69,242.78l2.19-2.04-12.4-5.25-2.06,1.92,4.37,12.74,2.13-1.99-1-2.67,4.18-3.89,2.59,1.19h0ZM219.12,243.28l-1.78-4.77,4.64,2.12-2.86,2.66h0ZM230.63,238.78l5.98-6.74-1.73-1.54-4.09,4.61-7.46-6.62-1.89,2.13,9.2,8.16h0ZM238.29,212.64l-1.88-1.3-5.29,7.64,10.11,7.01,1.62-2.34-3.68-2.55,3.24-4.68-1.88-1.3-3.24,4.68-2.67-1.85,3.67-5.3h0ZM247.84,215.94l1.45-2.45-10.58-6.26-1.45,2.45,10.58,6.26h0ZM243.88,197.18l6.69,3.32-9.41,2.15-1.05,2.11,11.01,5.47,1.25-2.51-6.68-3.32,9.42-2.17,1.04-2.09-11.01-5.47-1.25,2.52h0ZM260.92,186.88l.99-2.82-13.43,1.1-.93,2.65,9.78,9.26.97-2.75-2.12-1.9,1.9-5.39,2.85-.15h0ZM254.44,190.83l-3.79-3.4,5.09-.27-1.3,3.68h0ZM252.41,169.93l7.3,1.59-8.6,4.39-.5,2.3,12.02,2.62.6-2.75-7.3-1.59,8.6-4.4.5-2.28-12.02-2.62-.6,2.75h0ZM266.46,159.02c.19-2.13-.42-3.97-1.74-5.25l-1.84,1.67c.89.91,1.29,1.98,1.18,3.21-.2,2.29-1.96,3.78-4.27,3.57-2.31-.2-3.78-1.97-3.57-4.27.11-1.23.69-2.21,1.71-2.95l-1.52-1.97c-1.5,1.03-2.43,2.73-2.62,4.85-.34,3.82,2.05,6.88,5.74,7.21,3.69.33,6.59-2.27,6.92-6.07h0ZM266.71,151.14l.04-2.85-12.3-.16-.04,2.85,12.3.16h0ZM254.01,136.8l7.45-.47-7.07,6.57.15,2.35,12.27-.78-.18-2.81-7.45.47,7.06-6.59-.15-2.33-12.27.78.18,2.81h0ZM261.25,120.63c.52.63.79,1.31.93,2.07.44,2.31-.85,4.22-3.11,4.66-2.3.44-4.17-.86-4.62-3.21-.23-1.22,0-2.33.77-3.38l-2-1.48c-1.14,1.43-1.53,3.33-1.12,5.46.74,3.85,3.88,6.15,7.52,5.45,3.64-.7,5.71-3.99,4.98-7.79-.33-1.73-1.22-3.45-2.47-4.59l-4.9.94.49,2.55,3.54-.68h0Z"/><path d="M96.78,31.9l-11.34-24.11-5.62,2.62-1.77,17.8-14.99-9.97-5.62,2.62,11.27,24.14,6.31-2.95-5.81-12.45,10.88,7.19,3.04-1.42,1.35-13.32,6.04,12.76,6.28-2.93h0ZM102.38,31.29l7.32-1.79-6.32-25.89-7.32,1.79,6.32,25.89h0ZM131.1.47l.9,14.17-12.64-13.43-6.19.39,1.69,26.59,7.37-.47-.9-14.17,12.64,13.43,6.19-.39-1.68-26.59-7.37.47h0ZM169.21,10.43l.95-5.75-20.62-3.42-4.35,26.29,7.44,1.23,1.49-9.01,11.6,1.92.95-5.75-11.6-1.92.96-5.78,13.18,2.18h0ZM178.54,11.6c2.54.82,4.72-.23,5.42-2.4.67-2.06-.51-4.09-3.05-4.91-2.54-.82-4.72.23-5.39,2.29-.67,2.06.48,4.2,3.01,5.02h0ZM168.02,32.28l6.88,2.23,6.37-19.62-6.88-2.23-6.37,19.62h0ZM201.01,23.47c-2.29-1.21-4.75-1.52-7-.77l1.05-1.99-6.09-3.22-9.63,18.25,6.4,3.38,4.65-8.82c1.6-3.03,3.86-3.47,5.91-2.39,1.85.98,2.41,2.69,1.02,5.32l-4.96,9.39,6.4,3.38,5.51-10.44c2.98-5.66,1.01-9.84-3.26-12.09h0Z"/></svg>