<?xml version="1.0" encoding="UTF-8"?><svg id="Layer_1" xmlns="http://www.w3.org/2000/svg" xmlns:xlink="http://www.w3.org/1999/xlink" viewBox="0 0 300 302.75"><defs><style>.cls-1,.cls-2,.cls-3,.cls-4{fill:none;}.cls-2{stroke:#000;stroke-width:7.32px;}.cls-2,.cls-3{stroke-linejoin:round;}.cls-2,.cls-3,.cls-4{stroke-linecap:round;}.cls-5{fill:#ffa36d;}.cls-6{font-size:17.57px;}.cls-6,.cls-7,.cls-8,.cls-9,.cls-10,.cls-11,.cls-12,.cls-13,.cls-14,.cls-15,.cls-16,.cls-17,.cls-18,.cls-19,.cls-20,.cls-21,.cls-22,.cls-23,.cls-24{font-family:Montserrat-Bold, Montserrat;}.cls-6,.cls-7,.cls-8,.cls-9,.cls-10,.cls-11,.cls-12,.cls-13,.cls-14,.cls-15,.cls-16,.cls-17,.cls-18,.cls-19,.cls-20,.cls-21,.cls-22,.cls-23,.cls-24,.cls-25,.cls-26,.cls-27,.cls-28,.cls-29{font-weight:700;}.cls-7{font-size:17.57px;}.cls-8{font-size:17.57px;}.cls-9{font-size:17.57px;}.cls-10{font-size:17.57px;}.cls-11{font-size:17.57px;}.cls-12{font-size:17.57px;}.cls-13{font-size:17.57px;}.cls-14{font-size:17.57px;}.cls-15{font-size:17.57px;}.cls-16{font-size:17.57px;}.cls-17{font-size:17.57px;}.cls-18{font-size:17.57px;}.cls-19{font-size:17.57px;}.cls-20{font-size:17.57px;}.cls-21{font-size:17.57px;}.cls-22{font-size:17.57px;}.cls-23{font-size:17.57px;}.cls-24{font-size:17.57px;}.cls-25{font-size:38.07px;}.cls-25,.cls-26,.cls-27,.cls-28,.cls-29{font-family:Montserrat-ExtraBold, Montserrat;}.cls-26{font-size:38.07px;}.cls-27{font-size:38.07px;}.cls-28{font-size:38.07px;}.cls-29{font-size:38.07px;}.cls-30{clip-path:url(#clippath-1);}.cls-31{clip-path:url(#clippath-3);}.cls-32{clip-path:url(#clippath-4);}.cls-33{clip-path:url(#clippath-2);}.cls-34{clip-path:url(#clippath-6);}.cls-35{clip-path:url(#clippath-5);}.cls-36{fill:#fff;}.cls-3,.cls-4{stroke:#fff;stroke-width:8.05px;}</style><clipPath id="clippath-1"><rect class="cls-1" y="2.75" width="300" height="300"/></clipPath><clipPath id="clippath-2"><rect class="cls-1" y="2.75" width="300" height="300"/></clipPath><clipPath id="clippath-3"><rect class="cls-1" y="2.75" width="300" height="300"/></clipPath><clipPath id="clippath-4"><rect class="cls-1" y="2.75" width="300" height="300"/></clipPath><clipPath id="clippath-5"><rect class="cls-1" y="2.75" width="300" height="300"/></clipPath><clipPath id="clippath-6"><rect class="cls-1" y="2.75" width="300" height="300"/></clipPath></defs><text class="cls-15" transform="translate(20.55 120.97) rotate(100.85)"><tspan x="0" y="0">N</tspan></text><text class="cls-19" transform="translate(17.63 136.97) rotate(93.63)"><tspan x="0" y="0">A</tspan></text><text class="cls-9" transform="translate(16.87 150.68) rotate(89.28)"><tspan x="0" y="0">T</tspan></text><text class="cls-18" transform="translate(17.23 162.42) rotate(84.93)"><tspan x="0" y="0">I</tspan></text><text class="cls-10" transform="translate(17.77 169.05) rotate(80.59)"><tspan x="0" y="0">O</tspan></text><text class="cls-11" transform="translate(20.88 185.63) rotate(73.43)"><tspan x="0" y="0">N</tspan></text><text class="cls-21" transform="translate(25.81 201.05) rotate(66.37)"><tspan x="0" y="0">A</tspan></text><text class="cls-23" transform="translate(32.01 214.54) rotate(60.79)"><tspan x="0" y="0">L</tspan></text><text class="cls-23" transform="translate(37.76 224.4) rotate(56.65)"><tspan x="0" y="0"> </tspan></text><text class="cls-8" transform="translate(40.64 228.75) rotate(53.9)"><tspan x="0" y="0">I</tspan></text><text class="cls-20" transform="translate(44.43 234.11) rotate(49.78)"><tspan x="0" y="0">N</tspan></text><text class="cls-7" transform="translate(55 246.25) rotate(42.95)"><tspan x="0" y="0">F</tspan></text><text class="cls-11" transform="translate(64.23 254.81) rotate(37.48)"><tspan x="0" y="0">R</tspan></text><text class="cls-14" transform="translate(76.05 263.79) rotate(30.59)"><tspan x="0" y="0">A</tspan></text><text class="cls-15" transform="translate(88.88 271.26) rotate(25.03)"><tspan x="0" y="0">S</tspan></text><text class="cls-16" transform="translate(100.18 276.49) rotate(19.4)"><tspan x="0" y="0">T</tspan></text><text class="cls-16" transform="translate(111.77 280.61) rotate(13.71)"><tspan x="0" y="0">R</tspan></text><text class="cls-13" transform="translate(125.76 283.94) rotate(7.97)"><tspan x="0" y="0">U</tspan></text><text class="cls-9" transform="translate(141.55 285.95) rotate(.72)"><tspan x="0" y="0">C</tspan></text><text class="cls-19" transform="translate(155.2 286.01) rotate(-3.63)"><tspan x="0" y="0">T</tspan></text><text class="cls-15" transform="translate(167.89 285.11) rotate(-10.85)"><tspan x="0" y="0">U</tspan></text><text class="cls-11" transform="translate(182.89 282.13) rotate(-16.57)"><tspan x="0" y="0">R</tspan></text><text class="cls-12" transform="translate(196.57 277.84) rotate(-22.22)"><tspan x="0" y="0">E</tspan></text><text class="cls-6" transform="translate(208.15 272.83) rotate(-26.42)"><tspan x="0" y="0"> </tspan></text><text class="cls-14" transform="translate(213.36 270.29) rotate(-30.59)"><tspan x="0" y="0">S</tspan></text><text class="cls-8" transform="translate(223.93 263.97) rotate(-36.1)"><tspan x="0" y="0">Y</tspan></text><text class="cls-17" transform="translate(234.37 256.28) rotate(-41.58)"><tspan x="0" y="0">S</tspan></text><text class="cls-7" transform="translate(243.62 248.04) rotate(-47.05)"><tspan x="0" y="0">T</tspan></text><text class="cls-11" transform="translate(251.96 239.12) rotate(-52.52)"><tspan x="0" y="0">E</tspan></text><text class="cls-14" transform="translate(260.42 228.29) rotate(-59.41)"><tspan x="0" y="0">M</tspan></text><text class="cls-21" transform="translate(269.78 212.06) rotate(-66.37)"><tspan x="0" y="0">S</tspan></text><text class="cls-13" transform="translate(274.3 201.52) rotate(-69.18)"><tspan x="0" y="0"> </tspan></text><text class="cls-24" transform="translate(276.74 195.58) rotate(-74.86)"><tspan x="0" y="0">M</tspan></text><text class="cls-13" transform="translate(281.38 177.33) rotate(-82.03)"><tspan x="0" y="0">O</tspan></text><text class="cls-9" transform="translate(283.41 160.56) rotate(-89.28)"><tspan x="0" y="0">D</tspan></text><text class="cls-10" transform="translate(283.38 143.97) rotate(-96.52)"><tspan x="0" y="0">E</tspan></text><text class="cls-22" transform="translate(281.87 130.79) rotate(-102.28)"><tspan x="0" y="0">L</tspan></text><g class="cls-30"><path class="cls-5" d="M150.2,262.76c60.76,0,110.01-49.27,110.01-110.02s-49.25-110.02-110.01-110.02-110.01,49.25-110.01,110.02,49.25,110.02,110.01,110.02"/></g><text class="cls-27" transform="translate(75.37 57.74) rotate(-31.97)"><tspan x="0" y="0">N</tspan></text><g class="cls-33"><text class="cls-28" transform="translate(102.04 42.42) rotate(-20.82)"><tspan x="0" y="0">I</tspan></text><text class="cls-29" transform="translate(113.68 37.65) rotate(-12.28)"><tspan x="0" y="0">S</tspan></text><text class="cls-25" transform="translate(136.36 32.35) rotate(.73)"><tspan x="0" y="0">M</tspan></text><text class="cls-29" transform="translate(169.6 33.44) rotate(15.14)"><tspan x="0" y="0">O</tspan></text></g><text class="cls-26" transform="translate(197.94 41.31) rotate(30.59)"><tspan x="0" y="0">D</tspan></text><g class="cls-31"><path class="cls-2" d="M270.47,112.09c-6.73-19.95-18.27-37.69-33.25-51.81"/><path class="cls-2" d="M63.49,59.61c-15.27,14.19-27.05,32.09-33.89,52.27"/><path class="cls-4" d="M150.19,195.5c23.6,0,42.74-19.16,42.74-42.75s-19.13-42.72-42.74-42.72"/><path class="cls-4" d="M150.2,224.87c39.82,0,72.11-32.28,72.11-72.12s-32.28-72.09-72.11-72.09"/><path class="cls-36" d="M86.67,162.75c5.5,0,9.97-4.5,9.97-10s-4.46-9.94-9.97-9.94-9.97,4.44-9.97,9.94,4.46,10,9.97,10"/></g><line class="cls-3" x1="88.2" y1="152.75" x2="135.58" y2="152.75"/><g class="cls-32"><path class="cls-36" d="M98.06,114.97c3.88,3.88,10.16,3.91,14.06,0,3.87-3.88,3.87-10.19,0-14.06-3.91-3.91-10.22-3.91-14.09-.03-3.91,3.91-3.88,10.19.03,14.09"/></g><line class="cls-3" x1="106.19" y1="109.04" x2="139.69" y2="142.54"/><g class="cls-35"><path class="cls-36" d="M98.59,190.78c3.91-3.91,10.22-3.91,14.12,0s3.88,10.19-.03,14.09c-3.88,3.88-10.19,3.88-14.06,0-3.91-3.91-3.91-10.22-.03-14.09"/></g><line class="cls-3" x1="106.73" y1="196.73" x2="140.23" y2="163.23"/><g class="cls-34"><path class="cls-4" d="M150.2,167.03c7.88,0,14.27-6.41,14.27-14.28s-6.39-14.28-14.27-14.28-14.27,6.41-14.27,14.28,6.39,14.28,14.27,14.28Z"/></g></svg>