<?xml version="1.0" encoding="UTF-8"?><svg id="Layer_1" xmlns="http://www.w3.org/2000/svg" viewBox="0 0 266.73 280.5"><defs><style>.cls-1{stroke:#000;stroke-width:7.32px;}.cls-1,.cls-2,.cls-3{stroke-linejoin:round;}.cls-1,.cls-2,.cls-3,.cls-4{fill:none;stroke-linecap:round;}.cls-5{fill:#ffa36d;}.cls-6{fill:#fff;}.cls-2,.cls-3,.cls-4{stroke:#fff;}.cls-2,.cls-4{stroke-width:8.05px;}.cls-3{stroke-width:8.05px;}</style></defs><path class="cls-5" d="M133.43,257.02c60.76,0,110.01-49.27,110.01-110.02s-49.25-110.02-110.01-110.02S23.42,86.23,23.42,147s49.25,110.02,110.01,110.02h0Z"/><path class="cls-1" d="M253.7,106.34c-6.73-19.95-18.27-37.69-33.25-51.81M46.72,53.86c-15.27,14.19-27.05,32.09-33.89,52.27"/><path class="cls-4" d="M133.42,189.75c23.6,0,42.74-19.16,42.74-42.75s-19.13-42.72-42.74-42.72M133.43,219.12c39.82,0,72.11-32.28,72.11-72.12s-32.28-72.09-72.11-72.09"/><path class="cls-6" d="M69.9,157c5.5,0,9.97-4.5,9.97-10s-4.46-9.94-9.97-9.94-9.97,4.44-9.97,9.94,4.46,10,9.97,10h0Z"/><line class="cls-2" x1="71.43" y1="147" x2="118.81" y2="147"/><path class="cls-6" d="M81.29,109.22c3.88,3.88,10.16,3.91,14.06,0,3.88-3.88,3.88-10.19,0-14.06-3.91-3.91-10.22-3.91-14.09-.03-3.91,3.91-3.88,10.19.03,14.09h0Z"/><line class="cls-3" x1="89.42" y1="103.3" x2="122.92" y2="136.8"/><path class="cls-6" d="M81.82,185.03c3.91-3.91,10.22-3.91,14.13,0,3.88,3.88,3.88,10.19-.03,14.09-3.88,3.88-10.19,3.88-14.06,0-3.91-3.91-3.91-10.22-.03-14.09h0Z"/><line class="cls-3" x1="89.96" y1="190.98" x2="123.46" y2="157.48"/><path class="cls-4" d="M133.43,161.28c7.88,0,14.27-6.41,14.27-14.28s-6.39-14.28-14.27-14.28-14.27,6.41-14.27,14.28,6.39,14.28,14.27,14.28h0Z"/><path d="M61.99,18.46l7.52,12.04-17.5-5.82-5.26,3.29,14.11,22.6,6.26-3.91-7.52-12.04,17.5,5.82,5.26-3.29-14.11-22.6-6.26,3.91h0ZM87.76,35.73l7.05-2.68-9.47-24.91-7.05,2.68,9.47,24.91h0ZM108.77,29.87c7.74-1.68,10.69-6.38,9.7-10.92-2.09-9.6-16.21-3.41-17.07-7.39-.28-1.3.61-2.59,3.69-3.26,2.27-.49,4.87-.36,7.65.44l1.08-5.96c-2.89-.93-6.56-.95-9.94-.21-7.74,1.68-10.7,6.3-9.69,10.95,2.11,9.67,16.25,3.44,17.15,7.56.27,1.26-.73,2.38-3.78,3.04-3.01.66-6.51.33-9.15-.7l-1.24,5.96c2.83,1.18,7.32,1.41,11.6.48h0ZM153.24,27.04l.26-26.65-6.2-.08-9.33,15.26L128.8.08l-6.2-.08-.34,26.64,6.96.09.17-13.74,6.67,11.2,3.35.04,7-11.41-.1,14.12,6.93.09h0ZM168.23,32.41c8.23,2.23,15.82-1.79,17.91-9.51,2.09-7.72-2.44-15.02-10.67-17.24-8.23-2.23-15.82,1.79-17.91,9.51-2.09,7.72,2.44,15.02,10.67,17.24h0ZM169.86,26.39c-3.9-1.05-6.16-4.78-4.96-9.23,1.2-4.45,5.04-6.52,8.93-5.47,3.89,1.05,6.16,4.78,4.96,9.23-1.2,4.45-5.04,6.52-8.93,5.47h0ZM183.47,36.92l10.85,6.41c7.6,4.49,15.43,3.15,19.59-3.89s1.57-14.55-6.03-19.04l-10.85-6.41-13.56,22.94h0ZM193.01,35.58l7.44-12.58,4.1,2.42c3.9,2.31,5.15,6.18,2.8,10.15-2.34,3.96-6.34,4.74-10.24,2.44l-4.1-2.42h0Z"/><path d="M13.99,127.28l-7.33-1.4,8.48-4.6.44-2.31-12.08-2.31-.53,2.76,7.33,1.4-8.49,4.62-.44,2.29,12.08,2.32.53-2.76h0ZM.19,141.84l-.19,2.98,12.62-4.71.18-2.81-11.93-6.25-.18,2.91,2.56,1.25-.36,5.7-2.7.92H.19ZM5.35,136.27l4.58,2.24-4.82,1.65.25-3.89h0ZM.15,148.94l.04,2.85,9.98-.13.05,3.94,2.32-.03-.14-10.72-2.32.03.05,3.94-9.98.13H.15ZM.59,158.12l.25,2.83,12.25-1.09-.25-2.83-12.25,1.09h0ZM2,170.65c.63,3.81,3.75,6.2,7.37,5.6s5.81-3.87,5.17-7.68c-.63-3.83-3.77-6.2-7.37-5.6-3.61.6-5.81,3.85-5.17,7.68h0ZM4.4,170.25c-.36-2.17.95-4.06,3.25-4.44,2.31-.38,4.15.99,4.51,3.15.36,2.17-.95,4.06-3.25,4.44-2.31.38-4.15-.99-4.51-3.15h0ZM18.73,185.88l-7.16,2.13,5.41-7.99-.67-2.26-11.79,3.51.8,2.69,7.16-2.13-5.41,8.01.67,2.24,11.79-3.51-.8-2.69h0ZM13.3,205.05l1.2,2.74,9.06-9.97-1.13-2.58-13.46-.09,1.17,2.67,2.85-.06,2.29,5.23-1.98,2.05h0ZM15.34,197.74l5.1-.1-3.53,3.67-1.56-3.57h0ZM15.95,210.06l4.4,7.86,2.02-1.13-3.01-5.38,8.71-4.87-1.39-2.48-10.73,6h0ZM24.73,224.18l1.68,2.3,9.93-7.25-1.68-2.3-9.93,7.24h0ZM43.46,228l-5.7,4.82,1.75-9.49-1.52-1.8-9.39,7.94,1.81,2.14,5.7-4.82-1.74,9.5,1.51,1.78,9.39-7.94-1.81-2.15h0ZM52.93,240.49l1.55-1.67-6.8-6.33-8.38,9,2.08,1.94,3.05-3.28,4.17,3.88,1.55-1.67-4.17-3.88,2.22-2.38,4.72,4.39h0ZM57.26,256.57l.22-4.81c1.68.43,3.25-.08,4.37-1.54,1.68-2.19,1.08-4.79-1.52-6.79l-4.22-3.24-7.48,9.76,2.26,1.73,2.08-2.72,1.97,1.51.11.09-.2,4.16,2.42,1.86h0ZM59.56,248.46c-.81,1.06-2,1.17-3.38.11l-1.84-1.41,2.61-3.4,1.84,1.41c1.38,1.06,1.6,2.22.77,3.3h0ZM68.45,263.45l2.57,1.52,1.52-13.38-2.42-1.43-10.98,7.8,2.51,1.48,2.28-1.71,4.91,2.9-.4,2.82h0ZM65.82,256.33l4.07-3.06-.72,5.05-3.36-1.98h0ZM77,268.03c3.18,1.49,5.47.62,6.34-1.24,1.91-4.09-5.23-5.7-4.27-7.75.33-.7,1.19-1,2.71-.29.99.46,1.92,1.25,2.68,2.32l1.71-1.59c-.73-1.14-2.01-2.14-3.41-2.79-3.17-1.48-5.43-.62-6.32,1.28-1.93,4.14,5.22,5.73,4.24,7.82-.32.68-1.18.9-2.71.19-1.34-.62-2.52-1.76-3.13-2.88l-1.78,1.53c.63,1.22,2.17,2.58,3.93,3.41h0ZM87.19,272.07l2.68.95,3.32-9.41,3.71,1.31.77-2.19-10.11-3.56-.77,2.19,3.71,1.31-3.32,9.41h0ZM107,277.79l-1.74-4.49c1.71-.29,2.94-1.38,3.38-3.17.65-2.68-.94-4.82-4.13-5.6l-5.17-1.26-2.92,11.95,2.76.68.81-3.33,2.41.59.14.03,1.49,3.89,2.97.72h0ZM105.84,269.44c-.32,1.3-1.36,1.87-3.05,1.46l-2.25-.55,1.02-4.17,2.25.55c1.69.41,2.36,1.39,2.04,2.7h0ZM115.82,279.36c3.46.48,5.79-1.21,6.29-4.8l.96-6.82-2.78-.39-.94,6.72c-.32,2.31-1.45,3.13-3.17,2.89-1.71-.24-2.58-1.34-2.26-3.65l.94-6.72-2.82-.39-.95,6.82c-.5,3.58,1.27,5.86,4.74,6.34h0ZM132.12,280.5c2.14.03,3.93-.72,5.1-2.13l-1.81-1.71c-.84.96-1.88,1.43-3.11,1.42-2.3-.03-3.91-1.67-3.88-3.99.03-2.32,1.68-3.91,3.98-3.89,1.23.02,2.26.52,3.07,1.48l1.85-1.66c-1.14-1.42-2.91-2.22-5.03-2.24-3.83-.05-6.71,2.57-6.76,6.27-.05,3.71,2.76,6.4,6.58,6.44h0ZM142.43,280l2.84-.18-.63-9.96,3.93-.25-.15-2.32-10.7.68.15,2.32,3.93-.25.63,9.96h0ZM157.96,278.26c3.43-.66,5.09-3.02,4.41-6.57l-1.3-6.77-2.76.53,1.28,6.66c.44,2.3-.36,3.43-2.07,3.76-1.69.32-2.87-.43-3.31-2.73l-1.28-6.66-2.79.54,1.3,6.76c.68,3.55,3.09,5.13,6.53,4.47h0ZM177.96,272.86l-3.77-3c1.34-1.11,1.84-2.68,1.32-4.44-.79-2.64-3.24-3.69-6.39-2.76l-5.1,1.52,3.51,11.79,2.73-.81-.98-3.28,2.37-.71.13-.04,3.25,2.61,2.93-.87h0ZM172.75,266.23c.38,1.28-.23,2.3-1.9,2.8l-2.22.66-1.22-4.11,2.22-.66c1.67-.5,2.73.01,3.12,1.31h0ZM182.9,268.35l-1.08-2.63,5.29-2.16-.84-2.05-5.29,2.16-1.01-2.47,5.99-2.45-.86-2.11-8.6,3.51,4.65,11.39,8.82-3.6-.86-2.11-6.2,2.53h0ZM201.43,261.92c3.03-1.79,3.6-4.17,2.55-5.93-2.3-3.88-7.66,1.1-8.81-.85-.4-.67-.16-1.54,1.29-2.4.94-.55,2.11-.88,3.43-.9l-.35-2.31c-1.35-.04-2.9.45-4.23,1.24-3.01,1.78-3.58,4.13-2.51,5.94,2.32,3.93,7.68-1.07,8.85.91.39.65.08,1.48-1.37,2.34-1.27.75-2.87,1.08-4.15.96l.26,2.34c1.37.17,3.35-.33,5.03-1.32h0ZM209.72,241.13l-2.26,1.65.57,6.35-5.87-2.48-2.44,1.78,8.5,3.58,2.59,3.55,2.3-1.68-2.57-3.52-.82-9.23h0ZM221.85,247.03c2.63-2.33,2.74-4.77,1.37-6.31-3-3.38-7.31,2.54-8.81.84-.51-.58-.45-1.48.81-2.6.82-.72,1.91-1.27,3.19-1.54l-.78-2.2c-1.33.22-2.76.99-3.91,2.02-2.61,2.32-2.72,4.74-1.33,6.31,3.03,3.42,7.33-2.51,8.86-.79.5.56.36,1.44-.9,2.56-1.1.98-2.61,1.61-3.89,1.73l.7,2.24c1.37-.09,3.23-.96,4.69-2.26h0ZM229.58,239.35l1.94-2.08-7.3-6.8,2.68-2.88-1.7-1.58-7.3,7.84,1.69,1.58,2.68-2.88,7.3,6.8h0ZM235.99,228.58l-2.26-1.73,3.47-4.53-1.76-1.35-3.47,4.53-2.12-1.63,3.93-5.13-1.81-1.39-5.65,7.37,9.76,7.48,5.79-7.56-1.81-1.39-4.07,5.31h0ZM251.44,209.35l-10.6-6.23-1.19,2.01,4.27,7.79-8.92.07-1.2,2.02,10.58,6.26,1.36-2.3-6.21-3.67,6.93-.09.65-1.1-3.39-6.21,6.36,3.74,1.36-2.3h0ZM255.41,201.36c1.41-3.22.48-5.48-1.4-6.31-4.14-1.81-5.57,5.37-7.65,4.46-.71-.31-1.03-1.16-.35-2.7.44-1,1.2-1.95,2.25-2.74l-1.63-1.67c-1.12.76-2.09,2.06-2.71,3.48-1.4,3.2-.48,5.45,1.43,6.28,4.19,1.83,5.6-5.35,7.71-4.43.69.3.93,1.16.26,2.7-.59,1.35-1.69,2.56-2.8,3.2l1.58,1.74c1.21-.66,2.53-2.23,3.31-4.02h0ZM263.97,175.03l-11.88-3.18-.61,2.25,6.19,6.37-8.58,2.45-.62,2.27,11.87,3.21.7-2.58-6.97-1.89,6.66-1.93.34-1.24-4.92-5.08,7.13,1.91.7-2.58h0ZM265.84,164.27c.54-3.83-1.73-7.04-5.37-7.55-3.64-.51-6.69,1.95-7.23,5.78-.54,3.85,1.75,7.04,5.37,7.55,3.62.51,6.69-1.94,7.23-5.78h0ZM263.44,163.93c-.3,2.18-2.12,3.59-4.43,3.26-2.31-.32-3.67-2.18-3.36-4.36.3-2.17,2.12-3.59,4.43-3.27,2.31.32,3.67,2.18,3.36,4.36h0ZM266.66,153.35l.07-5.59c.05-4.02-2.34-6.81-6.06-6.86-3.73-.05-6.18,2.68-6.24,6.7l-.07,5.59,12.3.16h0ZM264.36,150.47l-7.62-.1.03-2.6c.03-2.44,1.51-4.02,3.86-3.99s3.79,1.65,3.76,4.09l-.03,2.6h0ZM263.85,134.22l-2.83.32-.65-5.67-2.2.25.65,5.67-2.65.3-.73-6.42-2.27.26,1.05,9.23,12.22-1.4-1.08-9.46-2.27.26.76,6.65h0ZM264.79,123.61l-1.92-8.81-2.27.49,1.31,6.03-9.75,2.12.61,2.78,12.02-2.62h0Z"/></svg>