<?xml version="1.0" encoding="UTF-8"?><svg id="Layer_1" xmlns="http://www.w3.org/2000/svg" xmlns:xlink="http://www.w3.org/1999/xlink" viewBox="0 0 300 303.05"><defs><style>.cls-1,.cls-2,.cls-3,.cls-4,.cls-5,.cls-6{fill:none;}.cls-2{stroke:#000;stroke-width:7.32px;}.cls-2,.cls-4,.cls-5{stroke-linejoin:round;}.cls-2,.cls-4,.cls-5,.cls-6{stroke-linecap:round;}.cls-3,.cls-4,.cls-5,.cls-6{stroke:#fff;}.cls-3,.cls-4,.cls-6{stroke-width:8.05px;}.cls-3,.cls-6{stroke-miterlimit:10;}.cls-7{font-size:17.57px;}.cls-7,.cls-8,.cls-9,.cls-10,.cls-11,.cls-12,.cls-13,.cls-14,.cls-15,.cls-16,.cls-17,.cls-18,.cls-19,.cls-20,.cls-21,.cls-22,.cls-23,.cls-24{font-family:Montserrat-Bold, Montserrat;}.cls-7,.cls-8,.cls-9,.cls-10,.cls-11,.cls-12,.cls-13,.cls-14,.cls-15,.cls-16,.cls-17,.cls-18,.cls-19,.cls-20,.cls-21,.cls-22,.cls-23,.cls-24,.cls-25,.cls-26,.cls-27,.cls-28,.cls-29,.cls-30{font-weight:700;}.cls-8{font-size:17.57px;}.cls-9{font-size:17.57px;}.cls-10{font-size:17.57px;}.cls-11{font-size:17.57px;}.cls-12{font-size:17.57px;}.cls-13{font-size:17.57px;}.cls-14{font-size:17.57px;}.cls-15{font-size:17.57px;}.cls-16{font-size:17.57px;}.cls-17{font-size:17.57px;}.cls-18{font-size:17.57px;}.cls-19{font-size:17.57px;}.cls-20{font-size:17.57px;}.cls-21{font-size:17.57px;}.cls-22{font-size:17.57px;}.cls-23{font-size:17.57px;}.cls-24{font-size:17.57px;}.cls-25{font-size:38.07px;}.cls-25,.cls-26,.cls-27,.cls-28,.cls-29,.cls-30{font-family:Montserrat-ExtraBold, Montserrat;}.cls-26{font-size:38.07px;}.cls-27{font-size:38.07px;}.cls-28{font-size:38.07px;}.cls-29{font-size:38.07px;}.cls-30{font-size:38.07px;}.cls-31{clip-path:url(#clippath-1);}.cls-32{clip-path:url(#clippath-3);}.cls-33{clip-path:url(#clippath-4);}.cls-34{clip-path:url(#clippath-2);}.cls-35{fill:#fff;}.cls-36{fill:#ffc000;}.cls-5{stroke-width:6.84px;}</style><clipPath id="clippath-1"><rect class="cls-1" y="3.05" width="300" height="300"/></clipPath><clipPath id="clippath-2"><rect class="cls-1" y="3.05" width="300" height="300"/></clipPath><clipPath id="clippath-3"><rect class="cls-1" y="3.05" width="300" height="300"/></clipPath><clipPath id="clippath-4"><rect class="cls-1" y="3.05" width="300" height="300"/></clipPath></defs><g class="cls-31"><path class="cls-36" d="M150.2,263.06c60.76,0,110.01-49.27,110.01-110.02s-49.25-110.02-110.01-110.02-110.01,49.25-110.01,110.02,49.25,110.02,110.01,110.02"/></g><text class="cls-25" transform="translate(75.81 57.36) rotate(-30.59)"><tspan x="0" y="0">O</tspan></text><g class="cls-34"><text class="cls-28" transform="translate(104.44 41.22) rotate(-16.57)"><tspan x="0" y="0">n</tspan></text><text class="cls-26" transform="translate(130.38 33.85) rotate(-3.63)"><tspan x="0" y="0">S</tspan></text><text class="cls-29" transform="translate(155.2 32.35) rotate(7.97)"><tspan x="0" y="0">S</tspan></text><text class="cls-30" transform="translate(179.76 35.98) rotate(19.4)"><tspan x="0" y="0">E</tspan></text></g><text class="cls-27" transform="translate(204.13 44.98) rotate(31.97)"><tspan x="0" y="0">T</tspan></text><text class="cls-23" transform="translate(21.64 116.83) rotate(102.28)"><tspan x="0" y="0">O</tspan></text><text class="cls-11" transform="translate(18.34 132.79) rotate(96.52)"><tspan x="0" y="0">P</tspan></text><text class="cls-10" transform="translate(16.97 146.89) rotate(90.72)"><tspan x="0" y="0">E</tspan></text><text class="cls-11" transform="translate(16.91 160.76) rotate(83.48)"><tspan x="0" y="0">N</tspan></text><text class="cls-16" transform="translate(18.8 175.71) rotate(79.15)"><tspan x="0" y="0"> </tspan></text><text class="cls-17" transform="translate(19.76 180.89) rotate(76.29)"><tspan x="0" y="0">S</tspan></text><text class="cls-14" transform="translate(23.02 193.71) rotate(69.18)"><tspan x="0" y="0">O</tspan></text><text class="cls-12" transform="translate(29.17 209.35) rotate(62.18)"><tspan x="0" y="0">U</tspan></text><text class="cls-20" transform="translate(36.66 223.25) rotate(55.27)"><tspan x="0" y="0">R</tspan></text><text class="cls-21" transform="translate(44.86 234.93) rotate(49.78)"><tspan x="0" y="0">C</tspan></text><text class="cls-8" transform="translate(54.53 246.11) rotate(42.95)"><tspan x="0" y="0">E</tspan></text><text class="cls-21" transform="translate(63.4 254.23) rotate(40.22)"><tspan x="0" y="0"> </tspan></text><text class="cls-9" transform="translate(67.81 257.95) rotate(36.1)"><tspan x="0" y="0">S</tspan></text><text class="cls-15" transform="translate(78.04 265.26) rotate(30.59)"><tspan x="0" y="0">P</tspan></text><text class="cls-22" transform="translate(90.18 272.32) rotate(23.63)"><tspan x="0" y="0">A</tspan></text><text class="cls-13" transform="translate(103.27 277.99) rotate(17.99)"><tspan x="0" y="0">T</tspan></text><text class="cls-24" transform="translate(113.88 281.35) rotate(15.14)"><tspan x="0" y="0">I</tspan></text><text class="cls-11" transform="translate(120.84 283.32) rotate(9.41)"><tspan x="0" y="0">A</tspan></text><text class="cls-20" transform="translate(135.59 285.7) rotate(3.63)"><tspan x="0" y="0">L</tspan></text><text class="cls-10" transform="translate(146.48 286.31) rotate(.72)"><tspan x="0" y="0"> </tspan></text><text class="cls-20" transform="translate(152.35 286.49) rotate(-3.63)"><tspan x="0" y="0">E</tspan></text><text class="cls-14" transform="translate(165 285.59) rotate(-7.97)"><tspan x="0" y="0">L</tspan></text><text class="cls-17" transform="translate(176.93 283.77) rotate(-13.71)"><tspan x="0" y="0">E</tspan></text><text class="cls-17" transform="translate(189.71 280.49) rotate(-19.4)"><tspan x="0" y="0">C</tspan></text><text class="cls-16" transform="translate(202.98 275.55) rotate(-25.03)"><tspan x="0" y="0">T</tspan></text><text class="cls-19" transform="translate(214.55 270.04) rotate(-31.97)"><tspan x="0" y="0">R</tspan></text><text class="cls-9" transform="translate(226.13 262.68) rotate(-36.1)"><tspan x="0" y="0">I</tspan></text><text class="cls-21" transform="translate(231.49 258.89) rotate(-40.22)"><tspan x="0" y="0">F</tspan></text><text class="cls-8" transform="translate(240.17 251.42) rotate(-42.95)"><tspan x="0" y="0">I</tspan></text><text class="cls-18" transform="translate(245.41 246.6) rotate(-48.42)"><tspan x="0" y="0">C</tspan></text><text class="cls-9" transform="translate(254.64 236.09) rotate(-53.9)"><tspan x="0" y="0">A</tspan></text><text class="cls-15" transform="translate(262.84 224.49) rotate(-59.41)"><tspan x="0" y="0">T</tspan></text><text class="cls-7" transform="translate(268.62 214.35) rotate(-63.58)"><tspan x="0" y="0">I</tspan></text><text class="cls-14" transform="translate(271.96 207.98) rotate(-69.18)"><tspan x="0" y="0">O</tspan></text><text class="cls-17" transform="translate(277.89 192.21) rotate(-76.29)"><tspan x="0" y="0">N</tspan></text><text class="cls-11" transform="translate(281.28 177.53) rotate(-80.59)"><tspan x="0" y="0"> </tspan></text><text class="cls-11" transform="translate(282.18 172.33) rotate(-83.48)"><tspan x="0" y="0">T</tspan></text><text class="cls-10" transform="translate(283.6 159.64) rotate(-90.72)"><tspan x="0" y="0">O</tspan></text><text class="cls-11" transform="translate(283.27 143.34) rotate(-96.52)"><tspan x="0" y="0">O</tspan></text><text class="cls-17" transform="translate(280.99 126.61) rotate(-103.71)"><tspan x="0" y="0">L</tspan></text><g class="cls-32"><path class="cls-2" d="M269.34,109.16c-7.83-21.3-21.2-39.91-38.37-54.11"/><path class="cls-2" d="M65.47,58.11c-15.23,13.56-27.17,30.75-34.49,50.2"/><path class="cls-3" d="M104,124.58c14.5,8.47,33.12,3.53,41.59-10.97,8.47-14.53,3.56-33.16-10.94-41.63-14.53-8.47-33.19-3.56-41.66,10.97-8.47,14.5-3.53,33.16,11,41.62Z"/><path class="cls-3" d="M198.09,179.3c14.5,8.47,33.12,3.53,41.59-10.97,8.47-14.53,3.56-33.16-10.94-41.62-14.53-8.47-33.19-3.56-41.66,10.97-8.47,14.5-3.53,33.16,11,41.62Z"/><path class="cls-6" d="M75.6,153.05h42.78M205.88,106.32c-13.67,7.63-33.53,12.44-55.63,12.44-2.81,0-5.43-.08-8.16-.23M143.83,79.97c2.07-1.03,4.21-1.57,6.41-1.57,17.25,0,31.23,33.42,31.23,74.65M142.77,78.77c2.46-.24,4.95-.37,7.48-.37,30.49,0,56.71,18.28,68.3,44.48"/><path class="cls-6" d="M181.47,153.05c0,41.23-13.98,74.65-31.23,74.65-2.48,0-4.89-.69-7.2-1.99"/><path class="cls-6" d="M218.63,183.01c-11.54,26.31-37.82,44.68-68.39,44.68-2.75,0-5.46-.15-8.13-.44"/><path class="cls-6" d="M142.3,187.55c2.61-.14,5.26-.21,7.94-.21,22.12,0,42,4.81,55.67,12.46"/><path class="cls-6" d="M120.63,176.56c-1.05-7.47-1.62-15.19-1.62-23.51s.59-16.67,1.69-24.28"/><path class="cls-6" d="M89.9,197c-9-12.33-14.31-27.52-14.31-43.95s5.46-32.05,14.69-44.47"/><path class="cls-3" d="M134.06,180.73c-14.5-8.47-33.12-3.53-41.59,10.97-8.47,14.53-3.56,33.16,10.94,41.62,14.53,8.47,33.19,3.56,41.66-10.97,8.47-14.5,3.53-33.16-11-41.62Z"/></g><line class="cls-4" x1="104.85" y1="216.53" x2="117.35" y2="208.31"/><line class="cls-4" x1="118.75" y1="190.75" x2="118.75" y2="205.75"/><line class="cls-4" x1="132.66" y1="216.53" x2="120.15" y2="208.3"/><line class="cls-4" x1="118.75" y1="223.24" x2="118.75" y2="232.47"/><line class="cls-4" x1="213.88" y1="136.44" x2="197.29" y2="153.03"/><line class="cls-4" x1="213.95" y1="136.44" x2="230.55" y2="153.03"/><line class="cls-4" x1="202.62" y1="147.76" x2="202.62" y2="166.28"/><line class="cls-4" x1="225.2" y1="147.76" x2="225.2" y2="166.28"/><line class="cls-4" x1="225.2" y1="166.28" x2="202.64" y2="166.28"/><path class="cls-4" d="M154.32,143.76l-8.23,18.58M137.05,160.48l-7.43-7.43,7.43-7.43M163.36,145.61l7.43,7.43-7.43,7.43"/><line class="cls-6" x1="181.77" y1="153.05" x2="182.5" y2="153.05"/><path class="cls-5" d="M117.82,80.73h3.02M130.29,108.72l.86.86M108.34,86.78l-.86-.86M119.32,113.27v1.22M108.36,108.72l-.86.86M130.31,86.78l.86-.86M103.9,97.75h-1.3M134.81,97.76h1.26"/><g class="cls-33"><path class="cls-35" d="M117.22,90.3h4.26v1.46c0,2.6,2.89,3.27,2.89,6.57,0,2.78-2.25,5.03-5.03,5.03s-5.03-2.25-5.03-5.03c0-3.3,2.89-3.97,2.89-6.57l.03-1.46Z"/><path class="cls-4" d="M117.22,90.3h4.26v1.46c0,2.6,2.89,3.27,2.89,6.57,0,2.78-2.25,5.03-5.03,5.03s-5.03-2.25-5.03-5.03c0-3.3,2.89-3.97,2.89-6.57l.03-1.46Z"/></g><line class="cls-5" x1="119.33" y1="71.55" x2="119.33" y2="76.96"/></svg>