<?xml version="1.0" encoding="UTF-8"?><svg id="Layer_1" xmlns="http://www.w3.org/2000/svg" xmlns:xlink="http://www.w3.org/1999/xlink" viewBox="0 0 300 300"><defs><style>.cls-1,.cls-2,.cls-3,.cls-4,.cls-5,.cls-6,.cls-7{fill:none;}.cls-2{stroke:#000;stroke-width:7.32px;}.cls-2,.cls-4,.cls-5,.cls-6{stroke-linejoin:round;}.cls-2,.cls-4,.cls-5,.cls-6,.cls-7{stroke-linecap:round;}.cls-3,.cls-4,.cls-5,.cls-6,.cls-7{stroke:#fff;}.cls-3,.cls-5{stroke-width:8.05px;}.cls-3,.cls-7{stroke-miterlimit:10;}.cls-8{fill:#fff;}.cls-9{fill:#ffc000;}.cls-4,.cls-7{stroke-width:8.05px;}.cls-6{stroke-width:6.84px;}.cls-10{clip-path:url(#clippath);}</style><clipPath id="clippath"><rect class="cls-1" width="300" height="300"/></clipPath></defs><path class="cls-9" d="M150.2,260.02c60.76,0,110.01-49.27,110.01-110.02s-49.25-110.02-110.01-110.02-110.01,49.25-110.01,110.02,49.25,110.02,110.01,110.02h0Z"/><path class="cls-2" d="M269.34,106.11c-7.83-21.3-21.2-39.91-38.37-54.11M65.47,55.06c-15.23,13.56-27.17,30.75-34.48,50.2"/><g class="cls-10"><path class="cls-3" d="M104,121.53c14.5,8.47,33.12,3.53,41.59-10.97,8.47-14.53,3.56-33.16-10.94-41.63-14.53-8.47-33.19-3.56-41.66,10.97-8.47,14.5-3.53,33.16,11,41.62h0ZM198.09,176.25c14.5,8.47,33.12,3.53,41.59-10.97,8.47-14.53,3.56-33.16-10.94-41.63-14.53-8.47-33.19-3.56-41.66,10.97-8.47,14.5-3.53,33.16,11,41.62h0Z"/></g><path class="cls-7" d="M142.77,75.72c2.46-.24,4.95-.37,7.48-.37,30.49,0,56.71,18.28,68.3,44.48M143.83,76.93c2.07-1.03,4.21-1.57,6.41-1.57,17.25,0,31.23,33.42,31.23,74.65M205.88,103.27c-13.67,7.63-33.53,12.44-55.63,12.44-2.81,0-5.44-.08-8.16-.23M75.59,150h42.78M181.47,150c0,41.23-13.98,74.65-31.23,74.65-2.48,0-4.89-.69-7.2-1.99M218.63,179.97c-11.54,26.31-37.82,44.68-68.39,44.68-2.75,0-5.46-.15-8.13-.44M142.3,184.5c2.61-.14,5.25-.21,7.94-.21,22.12,0,42,4.81,55.67,12.46M120.63,173.51c-1.05-7.47-1.62-15.19-1.62-23.51s.6-16.67,1.69-24.28M89.9,193.95c-9-12.33-14.31-27.52-14.31-43.95s5.46-32.05,14.69-44.47"/><path class="cls-3" d="M134.06,177.69c-14.5-8.47-33.12-3.53-41.59,10.97-8.47,14.53-3.56,33.16,10.94,41.62,14.53,8.47,33.19,3.56,41.66-10.97,8.47-14.5,3.53-33.16-11-41.62h0Z"/><line class="cls-4" x1="104.85" y1="213.48" x2="117.35" y2="205.26"/><line class="cls-4" x1="118.75" y1="187.7" x2="118.75" y2="202.7"/><line class="cls-4" x1="132.66" y1="213.48" x2="120.15" y2="205.26"/><line class="cls-4" x1="118.75" y1="220.19" x2="118.75" y2="229.42"/><line class="cls-5" x1="213.88" y1="133.39" x2="197.29" y2="149.98"/><line class="cls-5" x1="213.95" y1="133.39" x2="230.55" y2="149.98"/><path class="cls-4" d="M210.16,152.05,202.62,144.71v18.52M225.2,144.71v18.52M225.2,163.23h-22.57M217.66,154.81,210.16,163.23,163.36,142.57l7.43,7.43-7.43,7.43M137.05,157.43l-7.43-7.43,7.43-7.43M154.32,140.71l-8.23,18.58"/><line class="cls-7" x1="181.77" y1="150" x2="182.5" y2="150"/><path class="cls-6" d="M134.81,94.71h1.26M103.9,94.7h-1.31M130.3,83.73l.86-.86M108.36,105.68l-.86.86M119.32,110.22v1.22M108.34,83.73l-.86-.86M130.29,105.68l.86.86M117.81,77.68h3.02"/><path class="cls-8" d="M117.22,87.25h4.26v1.46c0,2.6,2.89,3.27,2.89,6.57,0,2.78-2.25,5.03-5.03,5.03s-5.03-2.25-5.03-5.03c0-3.3,2.89-3.97,2.89-6.57l.03-1.46h0Z"/><path class="cls-4" d="M117.22,87.25h4.26v1.46c0,2.6,2.89,3.27,2.89,6.57,0,2.78-2.25,5.03-5.03,5.03s-5.03-2.25-5.03-5.03c0-3.3,2.89-3.97,2.89-6.57l.03-1.46h0Z"/><line class="cls-6" x1="119.33" y1="68.5" x2="119.33" y2="73.91"/><path d="M19.86,120.98c-.82,3.78,1.2,7.15,4.78,7.93,3.59.78,6.82-1.44,7.65-5.22.83-3.79-1.21-7.15-4.78-7.93-3.57-.78-6.82,1.43-7.65,5.22h0ZM22.23,121.5c.47-2.15,2.38-3.42,4.66-2.92,2.28.5,3.49,2.45,3.03,4.6-.47,2.14-2.38,3.42-4.66,2.92-2.28-.5-3.49-2.45-3.03-4.6h0ZM29.79,137.87l.6-5.29-12.22-1.4-.32,2.83,3.37.38-.28,2.46c-.37,3.26,1.09,5.5,3.81,5.81,2.74.31,4.67-1.53,5.04-4.8h0ZM23.26,136.97l.26-2.3,4.24.49-.26,2.3c-.2,1.73-1.08,2.51-2.43,2.36-1.33-.15-2.01-1.11-1.81-2.84h0ZM19.2,148.15l2.85.04-.07,5.71,2.21.03.07-5.71,2.67.03-.08,6.46,2.28.03.12-9.29-12.3-.16-.12,9.52,2.28.03.08-6.69h0ZM30.25,166.17l-7.42.85,6.72-6.92-.27-2.34-12.22,1.4.32,2.79,7.42-.85-6.72,6.94.27,2.32,12.22-1.4-.32-2.79h0ZM20.86,183.23c.83,3.41,2.94,4.65,4.94,4.17,4.39-1.07,1.17-7.65,3.37-8.18.75-.18,1.52.3,1.92,1.94.26,1.06.23,2.28-.13,3.54l2.31.34c.43-1.28.41-2.9.05-4.4-.83-3.4-2.92-4.62-4.95-4.13-4.44,1.08-1.21,7.65-3.44,8.2-.73.18-1.44-.35-1.84-1.99-.35-1.43-.2-3.06.28-4.25l-2.31-.43c-.56,1.26-.66,3.31-.2,5.2h0ZM25.46,197.66c1.37,3.61,4.9,5.33,8.34,4.03,3.43-1.3,4.93-4.94,3.55-8.55-1.38-3.63-4.92-5.33-8.34-4.03-3.42,1.3-4.93,4.92-3.55,8.55h0ZM27.73,196.8c-.78-2.05.13-4.16,2.31-4.99,2.18-.83,4.27.14,5.05,2.2.78,2.05-.13,4.16-2.31,4.99-2.18.83-4.27-.14-5.05-2.2h0ZM32.21,212.52c1.63,3.09,4.37,3.99,7.57,2.3l6.09-3.21-1.31-2.48-6,3.16c-2.07,1.09-3.39.66-4.2-.88-.8-1.52-.42-2.88,1.64-3.97l6-3.16-1.33-2.52-6.09,3.21c-3.2,1.69-4,4.45-2.37,7.55h0ZM43.69,230.35l1.68-4.52c1.47.92,3.11.92,4.63-.14,2.27-1.57,2.5-4.23.62-6.93l-3.03-4.37-10.11,7.01,1.62,2.34,2.82-1.95,1.41,2.04.08.11-1.46,3.9,1.74,2.51h0ZM48.36,223.33c-1.1.76-2.26.5-3.25-.93l-1.32-1.91,3.52-2.44,1.32,1.91c.99,1.43.84,2.6-.27,3.37h0ZM49.44,237.62c1.38,1.64,3.12,2.49,4.95,2.46l.11-2.49c-1.27,0-2.32-.48-3.11-1.42-1.49-1.76-1.31-4.05.47-5.55s4.06-1.29,5.55.46c.79.94,1.09,2.05.9,3.29l2.47.31c.33-1.79-.23-3.65-1.6-5.27-2.47-2.92-6.33-3.38-9.17-.99-2.83,2.39-3.02,6.28-.56,9.19h0ZM59.23,244.31l1.94-2.08,4.18,3.89,1.51-1.62-4.18-3.89,1.82-1.96,4.73,4.4,1.55-1.67-6.8-6.33-8.38,9,6.97,6.49,1.55-1.67-4.9-4.56h0ZM72.13,258.31c2.84,2.07,5.25,1.66,6.46,0,2.66-3.65-4.04-6.6-2.7-8.43.46-.63,1.36-.76,2.72.24.88.64,1.64,1.59,2.18,2.79l1.98-1.23c-.5-1.25-1.56-2.48-2.81-3.39-2.82-2.06-5.21-1.65-6.44.04-2.69,3.69,4.02,6.63,2.66,8.49-.45.61-1.33.66-2.69-.33-1.19-.87-2.13-2.21-2.52-3.43l-2.04,1.16c.38,1.32,1.63,2.95,3.21,4.1h0ZM90.14,255.08l-4.58-2.71-6.26,10.58,2.45,1.45,1.73-2.92,2.13,1.26c2.83,1.67,5.46,1.25,6.86-1.11,1.4-2.37.5-4.89-2.33-6.56h0ZM86.65,260.67l-2-1.18,2.17-3.68,2,1.18c1.5.89,1.85,2.01,1.16,3.18-.68,1.15-1.84,1.38-3.34.5h0ZM99.93,273.53l2.74,1.2-.11-13.47-2.58-1.13-9.95,9.07,2.67,1.17,2.05-1.98,5.23,2.29-.06,2.85h0ZM96.46,266.78l3.67-3.53-.1,5.1-3.57-1.56h0ZM107.07,276.18l2.71.88,3.08-9.49,3.74,1.21.72-2.21-10.19-3.31-.72,2.21,3.74,1.21-3.08,9.49h0ZM115.29,278.67l2.75.74,3.21-11.87-2.75-.74-3.21,11.87h0ZM131.34,282.01l2.95.49-3.41-13.03-2.77-.46-7.42,11.24,2.88.48,1.51-2.42,5.63.93.64,2.78h0ZM126.32,276.32l2.69-4.33,1.15,4.96-3.85-.64h0ZM137.04,282.74l8.99.57.15-2.31-6.15-.39.63-9.96-2.84-.18-.78,12.27h0ZM156.48,280.88l-.18-2.84,5.7-.36-.14-2.21-5.7.36-.17-2.67,6.45-.41-.14-2.28-9.28.59.78,12.27,9.5-.6-.15-2.28-6.68.42h0ZM166.44,282.34l8.93-1.25-.32-2.3-6.11.85-1.38-9.88-2.82.39,1.71,12.18h0ZM180.55,277.48l-.68-2.77,5.55-1.35-.52-2.15-5.55,1.35-.63-2.59,6.28-1.53-.54-2.22-9.03,2.2,2.91,11.95,9.25-2.26-.54-2.22-6.5,1.59h0ZM196.71,275.2c2.02-.71,3.44-2.03,4.06-3.76l-2.28-.98c-.46,1.19-1.27,1.99-2.43,2.4-2.17.76-4.25-.22-5.02-2.41-.77-2.19.23-4.26,2.4-5.02,1.16-.41,2.3-.29,3.4.33l1.16-2.2c-1.56-.94-3.49-1.08-5.5-.37-3.61,1.27-5.42,4.72-4.18,8.22,1.23,3.5,4.8,5.05,8.39,3.79h0ZM206.61,270.8l2.58-1.2-4.22-9.04,3.57-1.67-.98-2.1-9.71,4.53.98,2.1,3.57-1.67,4.22,9.04h0ZM225.03,260.45l-4.43-1.89c.99-1.43,1.07-3.07.09-4.63-1.46-2.34-4.11-2.7-6.89-.96l-4.51,2.82,6.51,10.43,2.41-1.51-1.81-2.91,2.1-1.31.12-.07,3.83,1.65,2.59-1.62h0ZM218.25,255.45c.71,1.13.39,2.29-1.09,3.21l-1.97,1.23-2.27-3.64,1.97-1.23c1.48-.92,2.64-.72,3.36.43h0ZM227.3,258.76l2.3-1.68-7.25-9.93-2.3,1.68,7.24,9.93h0ZM233.23,241.25l-1.47-1.74-7.1,6,7.94,9.39,2.17-1.84-2.89-3.42,4.35-3.68-1.47-1.74-4.35,3.67-2.1-2.48,4.92-4.16h0ZM241.24,247.37l2.08-1.94-8.38-9-2.08,1.94,8.38,9h0ZM250.44,238.19c1.42-1.6,2.02-3.44,1.73-5.25l-2.47.25c.18,1.26-.14,2.36-.96,3.28-1.53,1.72-3.82,1.87-5.56.33-1.73-1.54-1.86-3.83-.33-5.56.82-.92,1.87-1.37,3.13-1.36l-.05-2.48c-1.82-.07-3.58.75-4.99,2.34-2.54,2.87-2.45,6.75.33,9.21,2.77,2.46,6.64,2.09,9.17-.76h0ZM260.91,224.43l1.76-2.41-13.17-2.8-1.66,2.27,6.71,11.67,1.72-2.36-1.49-2.43,3.36-4.61,2.77.67h0ZM253.57,226.36l-2.65-4.35,4.95,1.2-2.3,3.15h0ZM264.88,217.98l1.45-2.45-8.59-5.08,2-3.39-2-1.18-5.45,9.22,2,1.18,2-3.39,8.59,5.08h0ZM269.27,209.99l1.27-2.55-11.01-5.47-1.26,2.55,11.01,5.47h0ZM274.79,198.08c1.37-3.61-.12-7.25-3.55-8.55-3.43-1.3-6.96.42-8.34,4.03-1.38,3.63.14,7.25,3.55,8.55,3.42,1.3,6.96-.4,8.34-4.03h0ZM272.52,197.21c-.78,2.05-2.86,3.03-5.05,2.2-2.18-.83-3.09-2.94-2.31-4.99.78-2.05,2.86-3.03,5.05-2.2,2.19.83,3.09,2.94,2.31,4.99h0ZM268.29,176.6l7.25,1.77-8.7,4.17-.56,2.29,11.95,2.92.67-2.73-7.25-1.77,8.71-4.19.55-2.27-11.95-2.92-.67,2.73h0ZM282.63,165.3l.32-2.83-9.92-1.13.45-3.91-2.3-.26-1.22,10.65,2.3.26.45-3.91,9.91,1.13h0ZM283.71,149.18c-.05-3.87-2.77-6.69-6.44-6.65-3.67.05-6.32,2.94-6.27,6.81.05,3.88,2.79,6.7,6.44,6.65,3.65-.05,6.32-2.93,6.27-6.81h0ZM281.29,149.21c.03,2.2-1.55,3.87-3.89,3.9-2.34.03-3.96-1.6-3.98-3.8-.03-2.2,1.55-3.87,3.89-3.9,2.34-.03,3.96,1.6,3.98,3.8h0ZM282.64,132.89c-.44-3.84-3.43-6.38-7.08-5.96s-5.99,3.57-5.55,7.41c.44,3.86,3.45,6.38,7.08,5.96,3.63-.42,5.99-3.55,5.55-7.41h0ZM280.23,133.17c.25,2.18-1.15,4-3.47,4.27-2.32.27-4.1-1.19-4.35-3.38-.25-2.18,1.15-4,3.47-4.27,2.32-.26,4.1,1.19,4.35,3.38h0ZM280.64,122.15l-2.14-8.76-2.25.55,1.46,5.99-9.7,2.37.68,2.76,11.95-2.91h0Z"/><path d="M89.94,46.59c7.34-4.34,9.76-12.58,5.7-19.46-4.07-6.88-12.46-8.73-19.8-4.39-7.34,4.34-9.76,12.58-5.7,19.46,4.07,6.88,12.46,8.73,19.8,4.39h0ZM86.76,41.21c-3.47,2.05-7.72,1.07-10.07-2.89-2.34-3.97-1.15-8.16,2.32-10.22,3.47-2.05,7.72-1.07,10.07,2.89,2.34,3.96,1.15,8.16-2.32,10.22h0ZM113.56,13.58c-2.48.74-4.46,2.24-5.54,4.35l-.64-2.15-6.6,1.96,5.88,19.78,6.93-2.06-2.84-9.56c-.98-3.28.33-5.18,2.55-5.84,2.01-.6,3.61.24,4.45,3.08l3.03,10.18,6.93-2.06-3.36-11.31c-1.82-6.13-6.16-7.74-10.79-6.36h0ZM142.42,30.58c7.9-.5,11.53-4.7,11.23-9.33-.62-9.8-15.51-5.81-15.77-9.87-.08-1.33.99-2.47,4.14-2.67,2.32-.15,4.87.38,7.5,1.58l1.96-5.73c-2.72-1.35-6.34-1.92-9.8-1.71-7.9.5-11.53,4.62-11.23,9.37.63,9.88,15.55,5.84,15.82,10.06.08,1.29-1.08,2.24-4.19,2.44-3.08.2-6.49-.66-8.94-2.07l-2.12,5.7c2.62,1.59,7.02,2.49,11.39,2.21h0ZM167.04,31.51c7.84,1.1,12.24-2.29,12.88-6.88,1.36-9.73-14.03-8.8-13.46-12.84.18-1.32,1.46-2.22,4.59-1.78,2.3.32,4.69,1.35,7.03,3.06l3.07-5.22c-2.39-1.87-5.82-3.16-9.25-3.64-7.84-1.1-12.22,2.21-12.88,6.92-1.37,9.8,14.06,8.85,13.48,13.03-.18,1.28-1.51,1.98-4.6,1.55-3.05-.43-6.22-1.95-8.34-3.82l-3.22,5.16c2.25,2.08,6.38,3.85,10.71,4.46h0ZM191.25,30.81l1.62-4.6,11.17,3.93,1.87-5.31-11.17-3.93,1.49-4.24,12.67,4.46,1.93-5.49-19.71-6.94-8.85,25.13,20.18,7.11,1.93-5.49-13.14-4.63h0ZM211.2,46.36l6.39,3.99,10.95-17.53,6.91,4.31,3.17-5.07-20.25-12.64-3.16,5.07,6.94,4.33-10.95,17.53h0Z"/></svg>