<?xml version="1.0" encoding="UTF-8"?><svg id="Layer_1" xmlns="http://www.w3.org/2000/svg" xmlns:xlink="http://www.w3.org/1999/xlink" viewBox="0 0 300 302.92"><defs><style>.cls-1,.cls-2,.cls-3,.cls-4{fill:none;}.cls-5{fill:#f34e31;}.cls-6{font-size:17.57px;}.cls-6,.cls-7,.cls-8,.cls-9,.cls-10,.cls-11,.cls-12,.cls-13,.cls-14,.cls-15,.cls-16,.cls-17,.cls-18,.cls-19,.cls-20,.cls-21{font-family:Montserrat-Bold, Montserrat;}.cls-6,.cls-7,.cls-8,.cls-9,.cls-10,.cls-11,.cls-12,.cls-13,.cls-14,.cls-15,.cls-16,.cls-17,.cls-18,.cls-19,.cls-20,.cls-21,.cls-22,.cls-23,.cls-24,.cls-25,.cls-26,.cls-27{font-weight:700;}.cls-7{font-size:17.57px;}.cls-8{font-size:17.57px;}.cls-9{font-size:17.57px;}.cls-10{font-size:17.57px;}.cls-11{font-size:17.57px;}.cls-12{font-size:17.57px;}.cls-13{font-size:17.57px;}.cls-14{font-size:17.57px;}.cls-15{font-size:17.57px;}.cls-16{font-size:17.57px;}.cls-17{font-size:17.57px;}.cls-18{font-size:17.57px;}.cls-19{font-size:17.57px;}.cls-20{font-size:17.57px;}.cls-21{font-size:17.57px;}.cls-22{font-size:38.07px;}.cls-22,.cls-23,.cls-24,.cls-25,.cls-26,.cls-27{font-family:Montserrat-ExtraBold, Montserrat;}.cls-23{font-size:38.07px;}.cls-24{font-size:38.07px;}.cls-25{font-size:38.07px;}.cls-26{font-size:38.07px;}.cls-27{font-size:38.07px;}.cls-28{clip-path:url(#clippath-1);}.cls-29{clip-path:url(#clippath-3);}.cls-30{clip-path:url(#clippath-2);}.cls-31{fill:#fff;}.cls-2{stroke:#000;stroke-linecap:round;stroke-width:7.32px;}.cls-3{stroke-linecap:square;stroke-miterlimit:11.34;stroke-width:8.05px;}.cls-3,.cls-4{stroke:#fff;}.cls-4{stroke-linejoin:round;stroke-width:2.58px;}</style><clipPath id="clippath-1"><rect class="cls-1" y="2.92" width="300" height="300"/></clipPath><clipPath id="clippath-2"><rect class="cls-1" y="2.92" width="300" height="300"/></clipPath><clipPath id="clippath-3"><rect class="cls-1" y="2.92" width="300" height="300"/></clipPath></defs><g class="cls-28"><path class="cls-5" d="M150.2,262.94c60.76,0,110.01-49.27,110.01-110.02s-49.25-110.02-110.01-110.02-110.01,49.25-110.01,110.02,49.25,110.02,110.01,110.02"/></g><text class="cls-23" transform="translate(70.55 61.43) rotate(-33.35)"><tspan x="0" y="0">O</tspan></text><g class="cls-30"><text class="cls-27" transform="translate(98.26 43.74) rotate(-19.4)"><tspan x="0" y="0">n</tspan></text><text class="cls-24" transform="translate(123.77 34.94) rotate(-6.52)"><tspan x="0" y="0">S</tspan></text><text class="cls-22" transform="translate(147.93 32.54) rotate(2.18)"><tspan x="0" y="0">t</tspan></text><text class="cls-27" transform="translate(164.3 32.95) rotate(12.28)"><tspan x="0" y="0">o</tspan></text><text class="cls-25" transform="translate(188.63 38.5) rotate(23.63)"><tspan x="0" y="0">v</tspan></text></g><text class="cls-26" transform="translate(210.14 47.85) rotate(36.1)"><tspan x="0" y="0">e</tspan></text><text class="cls-18" transform="translate(16.73 151.01) rotate(87.82)"><tspan x="0" y="0">O</tspan></text><text class="cls-9" transform="translate(17.55 167.89) rotate(80.59)"><tspan x="0" y="0">P</tspan></text><text class="cls-21" transform="translate(19.91 181.84) rotate(74.86)"><tspan x="0" y="0">E</tspan></text><text class="cls-11" transform="translate(23.41 194.6) rotate(69.18)"><tspan x="0" y="0">N</tspan></text><text class="cls-13" transform="translate(29.02 208.53) rotate(64.97)"><tspan x="0" y="0"> </tspan></text><text class="cls-20" transform="translate(31.48 213.78) rotate(60.79)"><tspan x="0" y="0">S</tspan></text><text class="cls-7" transform="translate(37.94 225.24) rotate(53.9)"><tspan x="0" y="0">O</tspan></text><text class="cls-6" transform="translate(47.92 238.69) rotate(47.05)"><tspan x="0" y="0">U</tspan></text><text class="cls-17" transform="translate(58.73 250.15) rotate(40.22)"><tspan x="0" y="0">R</tspan></text><text class="cls-16" transform="translate(69.67 259.31) rotate(34.73)"><tspan x="0" y="0">C</tspan></text><text class="cls-20" transform="translate(81.5 267.26) rotate(29.21)"><tspan x="0" y="0">E</tspan></text><text class="cls-13" transform="translate(92.62 273.19) rotate(25.03)"><tspan x="0" y="0"> </tspan></text><text class="cls-11" transform="translate(97.87 275.67) rotate(20.82)"><tspan x="0" y="0">S</tspan></text><text class="cls-21" transform="translate(109.72 280.1) rotate(15.14)"><tspan x="0" y="0">P</tspan></text><text class="cls-9" transform="translate(122.81 283.52) rotate(9.41)"><tspan x="0" y="0">A</tspan></text><text class="cls-16" transform="translate(136.96 285.66) rotate(3.63)"><tspan x="0" y="0">T</tspan></text><text class="cls-8" transform="translate(148.7 286.26) rotate(-.72)"><tspan x="0" y="0">I</tspan></text><text class="cls-15" transform="translate(155.36 286.3) rotate(-5.07)"><tspan x="0" y="0">A</tspan></text><text class="cls-13" transform="translate(170.22 284.84) rotate(-10.85)"><tspan x="0" y="0">L</tspan></text><text class="cls-14" transform="translate(180.9 282.68) rotate(-13.71)"><tspan x="0" y="0"> </tspan></text><text class="cls-10" transform="translate(186.57 281.3) rotate(-17.99)"><tspan x="0" y="0">C</tspan></text><text class="cls-19" transform="translate(200.08 276.64) rotate(-23.63)"><tspan x="0" y="0">L</tspan></text><text class="cls-20" transform="translate(211.01 271.67) rotate(-29.21)"><tspan x="0" y="0">E</tspan></text><text class="cls-7" transform="translate(222.94 264.88) rotate(-36.1)"><tspan x="0" y="0">A</tspan></text><text class="cls-6" transform="translate(235.34 255.79) rotate(-42.95)"><tspan x="0" y="0">N</tspan></text><text class="cls-6" transform="translate(246.19 245.45) rotate(-47.05)"><tspan x="0" y="0"> </tspan></text><text class="cls-12" transform="translate(250.19 241.3) rotate(-51.15)"><tspan x="0" y="0">C</tspan></text><text class="cls-15" transform="translate(259.29 229.94) rotate(-58.03)"><tspan x="0" y="0">O</tspan></text><text class="cls-13" transform="translate(268.07 215.64) rotate(-64.97)"><tspan x="0" y="0">O</tspan></text><text class="cls-10" transform="translate(275 200.31) rotate(-72.01)"><tspan x="0" y="0">K</tspan></text><text class="cls-14" transform="translate(279.11 187.07) rotate(-76.29)"><tspan x="0" y="0">I</tspan></text><text class="cls-9" transform="translate(280.75 180.64) rotate(-80.59)"><tspan x="0" y="0">N</tspan></text><text class="cls-18" transform="translate(283.16 164.55) rotate(-87.82)"><tspan x="0" y="0">G</tspan></text><g class="cls-29"><path class="cls-2" d="M276.68,142.31c-2.51-30.31-15.64-57.61-35.68-78.16"/><path class="cls-2" d="M59.17,63.99c-19.3,19.72-32.24,45.69-35.49,74.58"/><path class="cls-3" d="M195.94,198.71c-25.24,25.24-66.16,25.24-91.4,0s-25.24-66.16,0-91.4c25.24-25.24,66.16-25.24,91.4,0,25.24,25.24,25.24,66.16,0,91.4Z"/><path class="cls-31" d="M123.72,126.49c-6.03-4.35-16.05-12.51-30.08-24.5l2.79-2.79,2.79-2.79c11.99,14.03,20.15,24.05,24.5,30.08"/><path class="cls-4" d="M123.72,126.49c-6.03-4.35-16.05-12.51-30.08-24.5l2.79-2.79,2.79-2.79c11.99,14.03,20.15,24.05,24.5,30.08Z"/><path class="cls-31" d="M177.45,125.81c4.35-6.02,12.51-16.05,24.5-30.08l2.79,2.79,2.79,2.79c-14.03,11.99-24.06,20.15-30.08,24.5"/><path class="cls-4" d="M177.45,125.81c4.35-6.02,12.51-16.05,24.5-30.08l2.79,2.79,2.79,2.79c-14.03,11.99-24.06,20.15-30.08,24.5Z"/><path class="cls-31" d="M123.6,179.65c-6.03,4.35-16.05,12.51-30.08,24.5l2.79,2.79,2.79,2.79c11.99-14.03,20.15-24.06,24.5-30.08"/><path class="cls-4" d="M123.6,179.65c-6.03,4.35-16.05,12.51-30.08,24.5l2.79,2.79,2.79,2.79c11.99-14.03,20.15-24.06,24.5-30.08Z"/><path class="cls-31" d="M177.57,180.34c4.35,6.03,12.51,16.05,24.5,30.08l2.79-2.79,2.79-2.79c-14.03-11.99-24.06-20.15-30.08-24.5"/><path class="cls-4" d="M177.57,180.34c4.35,6.03,12.51,16.05,24.5,30.08l2.79-2.79,2.79-2.79c-14.03-11.99-24.06-20.15-30.08-24.5Z"/><path class="cls-3" d="M169.51,172.27c-10.62,10.62-27.91,10.62-38.53,0-5.15-5.14-7.98-11.98-7.98-19.25s2.83-14.11,7.98-19.25c10.62-10.62,27.91-10.62,38.53,0,5.15,5.14,7.98,11.98,7.98,19.26s-2.83,14.11-7.98,19.25Z"/></g></svg>