<?xml version="1.0" encoding="UTF-8"?><svg id="Layer_1" xmlns="http://www.w3.org/2000/svg" viewBox="0 0 266.86 280"><defs><style>.cls-1{fill:#f34e31;}.cls-2{fill:#fff;}.cls-3{stroke:#000;stroke-linecap:round;stroke-width:7.32px;}.cls-3,.cls-4,.cls-5{fill:none;}.cls-4{stroke-linecap:square;stroke-miterlimit:11.34;stroke-width:8.05px;}.cls-4,.cls-5{stroke:#fff;}.cls-5{stroke-linejoin:round;stroke-width:2.58px;}</style></defs><path class="cls-1" d="M133.4,256.63c60.76,0,110.01-49.27,110.01-110.02s-49.25-110.02-110.01-110.02S23.39,85.84,23.39,146.61s49.25,110.02,110.01,110.02h0Z"/><path class="cls-3" d="M259.88,136c-2.51-30.31-15.65-57.61-35.68-78.16M42.37,57.67C23.07,77.39,10.14,103.36,6.89,132.25"/><path class="cls-4" d="M179.14,192.4c-25.24,25.24-66.16,25.24-91.4,0-25.24-25.24-25.24-66.16,0-91.4,25.24-25.24,66.16-25.24,91.4,0,25.24,25.24,25.24,66.16,0,91.4h0Z"/><path class="cls-2" d="M106.92,120.18c-6.02-4.35-16.05-12.51-30.08-24.5l2.79-2.79,2.79-2.79c11.99,14.03,20.15,24.06,24.5,30.08h0Z"/><path class="cls-5" d="M106.92,120.18c-6.02-4.35-16.05-12.51-30.08-24.5l2.79-2.79,2.79-2.79c11.99,14.03,20.15,24.06,24.5,30.08h0Z"/><path class="cls-2" d="M160.65,119.49c4.35-6.02,12.51-16.05,24.5-30.08l2.79,2.79,2.79,2.79c-14.03,11.99-24.06,20.15-30.08,24.5h0Z"/><path class="cls-5" d="M160.65,119.49c4.35-6.02,12.51-16.05,24.5-30.08l2.79,2.79,2.79,2.79c-14.03,11.99-24.06,20.15-30.08,24.5h0Z"/><path class="cls-2" d="M106.81,173.34c-6.02,4.35-16.05,12.51-30.08,24.5l2.79,2.79,2.79,2.79c11.99-14.03,20.15-24.06,24.5-30.08h0Z"/><path class="cls-5" d="M106.81,173.34c-6.02,4.35-16.05,12.51-30.08,24.5l2.79,2.79,2.79,2.79c11.99-14.03,20.15-24.06,24.5-30.08h0Z"/><path class="cls-2" d="M160.77,174.03c4.35,6.02,12.51,16.05,24.5,30.08l2.79-2.79,2.79-2.79c-14.03-11.99-24.06-20.15-30.08-24.5h0Z"/><path class="cls-5" d="M160.77,174.03c4.35,6.02,12.51,16.05,24.5,30.08l2.79-2.79,2.79-2.79c-14.03-11.99-24.06-20.15-30.08-24.5h0Z"/><path class="cls-4" d="M152.71,165.95c-10.62,10.62-27.91,10.62-38.53,0-5.15-5.14-7.98-11.98-7.98-19.25s2.83-14.11,7.98-19.25c10.62-10.62,27.91-10.62,38.53,0,5.15,5.14,7.98,11.98,7.98,19.26s-2.83,14.11-7.98,19.25h0Z"/><path d="M0,152.11c.15,3.86,2.94,6.62,6.61,6.48,3.67-.14,6.25-3.1,6.1-6.97-.15-3.88-2.96-6.62-6.61-6.48-3.65.14-6.25,3.09-6.1,6.97H0ZM2.43,152.02c-.08-2.2,1.45-3.91,3.79-3.99,2.33-.09,4,1.5,4.08,3.7.08,2.2-1.45,3.91-3.79,3.99-2.33.09-4-1.5-4.08-3.7h0ZM13.99,166.26l-.87-5.25-12.13,2.01.47,2.81,3.35-.55.4,2.44c.54,3.24,2.55,4.99,5.26,4.54,2.72-.45,4.07-2.76,3.53-6h0ZM7.47,167.18l-.38-2.29,4.21-.7.38,2.29c.28,1.72-.35,2.71-1.69,2.93-1.32.22-2.24-.52-2.53-2.24h0ZM6.43,179.07l2.75-.74,1.49,5.51,2.14-.58-1.49-5.51,2.58-.7,1.69,6.24,2.2-.6-2.43-8.97-11.87,3.21,2.49,9.19,2.2-.6-1.75-6.46h0ZM21.63,193.19l-6.98,2.65,4.81-8.37-.84-2.2-11.5,4.37,1,2.63,6.98-2.65-4.8,8.39.83,2.18,11.5-4.37-1-2.63h0ZM17.19,212.36c1.71,3.07,4.08,3.7,5.87,2.69,3.94-2.2-.92-7.68,1.06-8.79.68-.38,1.55-.12,2.37,1.35.53.95.83,2.13.82,3.45l2.32-.29c.07-1.35-.38-2.91-1.13-4.26-1.71-3.05-4.05-3.68-5.87-2.65-3.99,2.23.88,7.7-1.13,8.82-.66.37-1.48.04-2.31-1.43-.72-1.29-1.01-2.89-.86-4.17l-2.34.2c-.2,1.36.25,3.36,1.2,5.06h0ZM25.34,225.03c2.28,3.12,6.13,3.85,9.1,1.69,2.97-2.17,3.45-6.06,1.17-9.18-2.29-3.14-6.15-3.84-9.1-1.69-2.95,2.15-3.46,6.05-1.17,9.18h0ZM27.3,223.6c-1.29-1.78-.98-4.05.91-5.43,1.89-1.38,4.15-.98,5.45.79,1.29,1.77.98,4.05-.91,5.43-1.89,1.38-4.15.98-5.45-.79h0ZM35.68,237.58c2.38,2.56,5.26,2.71,7.91.25l5.04-4.69-1.91-2.06-4.96,4.62c-1.71,1.59-3.1,1.52-4.29.24-1.17-1.26-1.16-2.66.55-4.26l4.96-4.62-1.94-2.08-5.04,4.69c-2.65,2.47-2.7,5.35-.32,7.9h0ZM51.36,251.8l.45-4.8c1.66.51,3.25.08,4.44-1.33,1.78-2.11,1.31-4.73-1.2-6.85l-4.06-3.44-7.94,9.39,2.17,1.84,2.21-2.62,1.89,1.6.11.09-.4,4.15,2.33,1.97h0ZM54.05,243.81c-.86,1.02-2.06,1.07-3.38-.05l-1.77-1.5,2.77-3.28,1.77,1.5c1.33,1.12,1.49,2.3.62,3.33h0ZM58.79,257.35c1.76,1.22,3.66,1.6,5.42,1.09l-.54-2.43c-1.23.32-2.36.14-3.37-.56-1.89-1.31-2.31-3.57-.99-5.48,1.32-1.91,3.59-2.3,5.48-.99,1.01.7,1.58,1.7,1.72,2.95l2.46-.34c-.15-1.82-1.17-3.46-2.92-4.67-3.15-2.18-7-1.62-9.11,1.42-2.11,3.05-1.29,6.85,1.85,9.02h0ZM69.55,261.04l1.39-2.49,4.98,2.79,1.08-1.93-4.98-2.79,1.3-2.33,5.64,3.15,1.11-1.99-8.11-4.53-6,10.73,8.31,4.64,1.11-1.99-5.84-3.27h0ZM86.14,271.51c3.29,1.25,5.5.21,6.23-1.71,1.6-4.22-5.63-5.3-4.83-7.42.28-.72,1.11-1.08,2.68-.48,1.02.39,2.01,1.1,2.84,2.11l1.59-1.71c-.81-1.08-2.16-1.99-3.6-2.54-3.27-1.24-5.46-.22-6.21,1.74-1.62,4.27,5.62,5.33,4.81,7.48-.27.71-1.11.99-2.69.39-1.38-.52-2.64-1.57-3.34-2.64l-1.67,1.66c.72,1.18,2.35,2.42,4.17,3.11h0ZM102.68,263.68l-5.14-1.39-3.21,11.87,2.75.74.88-3.27,2.39.65c3.17.86,5.6-.25,6.32-2.89.72-2.66-.82-4.85-3.99-5.7h0ZM100.81,269.99l-2.24-.61,1.12-4.12,2.24.61c1.68.45,2.32,1.45,1.97,2.75-.35,1.29-1.4,1.82-3.08,1.37h0ZM116.51,278.94l2.95.49-3.42-13.03-2.77-.46-7.42,11.24,2.88.48,1.51-2.42,5.63.93.64,2.78h0ZM111.49,273.25l2.69-4.33,1.15,4.96-3.85-.64h0ZM124.16,279.59l2.84.18.63-9.96,3.93.25.15-2.31-10.7-.68-.15,2.31,3.93.25-.63,9.96h0ZM133.36,279.92l2.85-.04-.16-12.3-2.85.04.16,12.3h0ZM149.17,279.04l2.97-.27-6.56-11.76-2.8.25-4.37,12.73,2.9-.26.85-2.72,5.69-.51,1.32,2.53h0ZM142.88,274.78l1.53-4.86,2.36,4.52-3.89.35h0ZM154.85,278.24l8.85-1.7-.44-2.28-6.06,1.16-1.88-9.8-2.8.54,2.31,12.08h0ZM176.82,272.92c2.04-.66,3.49-1.95,4.15-3.66l-2.26-1.04c-.49,1.17-1.32,1.96-2.49,2.34-2.19.71-4.24-.32-4.96-2.53-.72-2.21.34-4.25,2.53-4.96,1.17-.38,2.31-.23,3.39.42l1.22-2.17c-1.54-.98-3.46-1.17-5.49-.51-3.64,1.18-5.53,4.58-4.39,8.11,1.14,3.53,4.67,5.17,8.3,3.99h0ZM184.62,269.73l8.26-3.61-.93-2.12-5.65,2.47-4-9.14-2.61,1.14,4.93,11.27h0ZM196.84,261.27l-1.39-2.49,4.98-2.79-1.08-1.93-4.98,2.79-1.31-2.33,5.64-3.15-1.11-1.99-8.11,4.53,6,10.73,8.31-4.65-1.11-1.99-5.84,3.27h0ZM214.74,252.28l2.41-1.76-11.69-6.7-2.27,1.66,2.82,13.16,2.36-1.72-.67-2.77,4.61-3.37,2.43,1.49h0ZM207.16,251.88l-1.2-4.95,4.35,2.65-3.15,2.3h0ZM217.43,233.7l5.09,5.46-9.56-1.3-1.72,1.6,8.38,9,2.06-1.91-5.09-5.46,9.58,1.29,1.71-1.59-8.38-9-2.06,1.91h0ZM238.16,229.39c1.35-1.67,1.86-3.54,1.48-5.33l-2.46.37c.23,1.25-.03,2.37-.8,3.32-1.44,1.79-3.73,2.05-5.53.6-1.81-1.45-2.04-3.74-.6-5.53.77-.96,1.81-1.46,3.06-1.5l-.17-2.48c-1.82.02-3.54.92-4.87,2.57-2.4,2.98-2.12,6.86.77,9.19,2.89,2.33,6.74,1.77,9.13-1.2h0ZM246.59,217.44c2.05-3.28,1.28-7.13-1.83-9.07-3.12-1.94-6.91-.94-8.96,2.34-2.06,3.3-1.27,7.14,1.83,9.07,3.1,1.94,6.9.96,8.96-2.34h0ZM244.54,216.16c-1.16,1.86-3.39,2.42-5.38,1.18-1.98-1.24-2.46-3.49-1.3-5.35,1.16-1.86,3.39-2.42,5.38-1.18,1.98,1.24,2.46,3.49,1.3,5.35h0ZM254.6,202.69c1.64-3.5.41-7.23-2.92-8.79-3.33-1.55-6.97-.1-8.61,3.41-1.64,3.52-.4,7.24,2.92,8.79,3.31,1.55,6.96.11,8.61-3.41h0ZM252.4,201.66c-.93,1.99-3.08,2.81-5.2,1.82-2.12-.99-2.87-3.16-1.94-5.15.93-1.99,3.08-2.81,5.2-1.82,2.12.99,2.87,3.16,1.94,5.15h0ZM261.25,184.6l1.03-3.16-8.15,3.03-3.64-6.54-.98,3.01,3.78,6.96-5.46-1.77-.87,2.69,11.7,3.8.87-2.69-2.96-.96-1.13-2.1,5.81-2.25h0ZM262.66,179.34l.67-2.77-11.95-2.92-.67,2.76,11.95,2.92h0ZM253.44,162.51l7.37,1.22-8.37,4.81-.38,2.32,12.13,2.01.46-2.77-7.37-1.22,8.37-4.83.38-2.31-12.13-2.01-.46,2.77h0ZM263.99,148.37c.36.73.47,1.46.44,2.23-.09,2.35-1.78,3.92-4.08,3.84-2.33-.09-3.87-1.78-3.78-4.17.05-1.25.53-2.27,1.51-3.13l-1.62-1.89c-1.43,1.14-2.24,2.9-2.32,5.06-.15,3.91,2.39,6.86,6.1,7,3.7.14,6.46-2.6,6.61-6.47.07-1.76-.41-3.64-1.37-5.03l-4.99-.19-.1,2.6,3.6.14h0Z"/><path d="M67.49,46.71c7.12-4.69,9.15-13.04,4.75-19.72-4.4-6.68-12.86-8.12-19.99-3.43-7.12,4.69-9.15,13.04-4.75,19.72,4.4,6.68,12.86,8.12,19.99,3.43h0ZM64.06,41.49c-3.37,2.22-7.66,1.44-10.2-2.4-2.53-3.85-1.55-8.1,1.82-10.32,3.37-2.22,7.66-1.44,10.2,2.4,2.53,3.85,1.55,8.1-1.82,10.32h0ZM89.36,12.41c-2.44.86-4.34,2.46-5.32,4.62l-.75-2.12-6.5,2.29,6.85,19.46,6.82-2.4-3.31-9.41c-1.14-3.23.07-5.19,2.26-5.96,1.98-.7,3.61.06,4.6,2.86l3.53,10.02,6.82-2.4-3.92-11.13c-2.12-6.03-6.53-7.43-11.09-5.82h0ZM118.98,27.8c7.87-.9,11.27-5.27,10.75-9.89-1.12-9.76-15.78-5.02-16.25-9.06-.15-1.32.86-2.51,4-2.87,2.31-.26,4.88.13,7.57,1.2l1.67-5.82c-2.78-1.21-6.43-1.6-9.87-1.21-7.87.9-11.28,5.2-10.74,9.93,1.12,9.83,15.83,5.05,16.31,9.25.15,1.29-.96,2.29-4.07,2.65-3.06.35-6.51-.33-9.03-1.61l-1.83,5.8c2.7,1.45,7.14,2.13,11.49,1.64h0ZM146.12,20.9c-.62.4-1.43.59-2.23.56-1.29-.05-2.14-.92-2.08-2.44l.26-6.85,4.72.18.21-5.4-4.72-.18.2-5.36-7.23-.27-.2,5.36-3.01-.11-.21,5.4,3.01.11-.26,6.92c-.2,5.29,2.78,7.99,8.07,8.19,1.9.07,3.78-.24,5.07-.99l-1.6-5.13h0ZM159.82,29.67c6.66,1.45,12.33-1.87,13.66-7.97,1.32-6.06-2.46-11.41-9.12-12.86-6.58-1.43-12.32,1.84-13.64,7.9-1.33,6.1,2.52,11.5,9.11,12.93h0ZM161.04,24.05c-2.38-.52-3.86-2.67-3.19-5.76.66-3.05,2.9-4.36,5.28-3.84,2.42.53,3.87,2.63,3.2,5.68-.67,3.09-2.88,4.44-5.29,3.91h0ZM195.83,20.16l-9.83,9.45.52-13.53-6.8-2.98-.49,22.3,6.84,2.99,16.08-15.48-6.31-2.76h0ZM218.31,47.03c4.01-5.51,2.3-11.56-2.62-15.15-5.26-3.84-11.77-3.12-15.42,1.9-3.63,4.98-2.46,11.45,3.48,15.78,3.17,2.31,6.18,3.09,9.08,2.48l-.74-5.44c-1.86.15-3.27-.17-4.9-1.36-2.15-1.57-2.88-3.61-2.14-5.66l12.12,8.84c.37-.44.83-.95,1.15-1.38h0ZM212.7,36.05c1.81,1.32,2.3,3.37,1.33,5.35l-6.83-4.98c1.62-1.51,3.68-1.69,5.5-.37h0Z"/></svg>