<?xml version="1.0" encoding="UTF-8"?><svg id="Layer_1" xmlns="http://www.w3.org/2000/svg" viewBox="0 0 266.78 281.14"><defs><style>.cls-1{stroke:#000;stroke-width:7.32px;}.cls-1,.cls-2{stroke-linejoin:round;}.cls-1,.cls-2,.cls-3{fill:none;stroke-linecap:round;}.cls-2,.cls-3{stroke:#fff;stroke-width:8.05px;}.cls-4{fill:#0070d7;}</style></defs><path class="cls-4" d="M133.35,257.86c60.76,0,110.01-49.27,110.01-110.02s-49.25-110.02-110.01-110.02S23.33,87.08,23.33,147.85s49.25,110.02,110.01,110.02h0Z"/><path class="cls-1" d="M22.32,85.53c-5.38,9.55-9.56,19.86-12.33,30.72M256.39,116.63c-2.74-10.84-6.87-21.12-12.19-30.67"/><path class="cls-2" d="M181.27,123.37v92.62M181.27,75.05v27.41"/><line class="cls-2" x1="155.87" y1="122.15" x2="178.71" y2="107.13"/><line class="cls-2" x1="206.67" y1="122.15" x2="183.83" y2="107.13"/><line class="cls-2" x1="198.67" y1="218.91" x2="70.66" y2="218.91"/><path class="cls-3" d="M70.62,111.19h45.78s7.71-.42,7.71,5.88c0,3.53-2.42,5.14-4.89,5.2M70.33,86.02h54.74s7.71.42,7.71-5.88c0-3.41-2.25-5.03-4.62-5.19M70.24,98.5h63.15s7.71-.42,7.71,5.88c0,3.28-2.09,4.91-4.36,5.17"/><path class="cls-2" d="M93.19,169.44l-6.4,28.34c-.48,2.13,1.14,4.15,3.32,4.15h63.49c2.21,0,3.84-2.08,3.3-4.23l-7.09-28.34c-.38-1.51-1.74-2.58-3.3-2.58h-50c-1.59,0-2.97,1.1-3.32,2.65h0ZM112.78,166.79l-5.67,35.15M130.92,166.79l5.67,35.15M91.24,183.8h61.23M107.11,213.79v-11.86M136.59,213.79v-11.86M66.46,166.65h-6M90.46,142.38v-6M69.06,188.05l3.25-3.25.99-.99M107.62,149.49l3.25-3.25.99-.99M69.06,145.25l3.25,3.25.99.99M80.88,177.12c-2.79-2.62-4.53-6.35-4.53-10.48,0-7.94,6.44-14.38,14.38-14.38,3.65,0,6.99,1.36,9.53,3.61"/><path d="M45.63,66.43c5.91-6.35,5.95-15,.05-20.5-5.91-5.5-14.53-4.84-20.44,1.51-5.91,6.35-5.95,15-.05,20.5,5.91,5.5,14.53,4.84,20.44-1.51h0ZM40.31,61.48c-2.26,2.42-5.91,2.66-8.95-.16-3.04-2.83-3.06-6.49-.8-8.91,2.26-2.42,5.91-2.66,8.95.16,3.04,2.83,3.06,6.49.8,8.91h0ZM67.44,47.94c6.9-4.54,8.11-10.26,5.43-14.33-5.4-8.2-16.24,2.12-18-.55-.5-.76-.22-1.86,1.97-3.3,1.94-1.28,4.36-2.1,7.29-2.43l-1.32-6.92c-3.18.22-6.68,1.62-9.67,3.59-6.9,4.54-8.15,10.19-5.43,14.33,5.46,8.3,16.28-2.06,18.12.74.5.76.03,1.71-2.1,3.11-2.45,1.61-5.77,2.66-8.68,2.8l1.18,7.06c3.13-.1,7.48-1.65,11.21-4.09h0ZM96.45,21.69c-2.66-6.52-8.97-7.97-14.68-5.64-6.24,2.55-9.24,8.59-6.85,14.44,2.35,5.74,8.67,8.14,15.75,5.24,3.84-1.57,6.12-3.74,7.15-6.54l-5.87-2.49c-.88,1.47-1.68,2.33-3.44,3.05-1.97.81-3.63.58-4.8-.67l13.39-5.47c-.2-.58-.43-1.35-.66-1.91h0ZM84.05,21.45c1.62-.66,3.17-.19,4.15,1.31l-6.2,2.53c-.35-1.75.39-3.16,2.05-3.84h0ZM136.02,26.47l-3.1-26.47-7.34.84-6.78,15.07-10.24-13.12-7.34.84,3.03,26.47,8.13-.93-1.33-11.65,6.81,8.61,3.93-.45,4.64-10.34,1.45,12.06,8.13-.93h0ZM155.14,30.14c8.56,1.42,15.79-3.33,17.11-11.29,1.32-7.96-3.99-14.78-12.56-16.2-8.56-1.42-15.79,3.33-17.11,11.29-1.32,7.96,3.99,14.78,12.56,16.2h0ZM156.33,22.96c-3.27-.54-5.49-3.46-4.81-7.55.68-4.09,3.72-6.14,6.99-5.6,3.27.54,5.49,3.46,4.81,7.55-.68,4.09-3.72,6.14-6.99,5.6h0ZM182.51,38.7c7.57,3.31,13.02,1.21,14.97-3.26,3.94-9-10.63-12.46-9.35-15.39.37-.84,1.44-1.2,3.85-.15,2.13.93,4.14,2.52,6.01,4.79l5.09-4.88c-1.92-2.54-5-4.72-8.28-6.16-7.57-3.31-12.99-1.28-14.97,3.26-3.98,9.1,10.6,12.53,9.25,15.6-.37.84-1.42.96-3.75-.06-2.69-1.17-5.37-3.39-7.08-5.76l-5.27,4.84c1.79,2.57,5.46,5.38,9.54,7.16h0ZM232.71,38.45l-7.01-5.11-9.86,4.21,1.03-10.65-7.66-5.59-1.82,19.55-5.76,7.9,7.26,5.29,5.7-7.81,18.12-7.8h0ZM223.38,69c5.48,6.18,11.31,6.55,14.96,3.32,7.35-6.52-4.43-15.77-2.03-17.89.68-.61,1.81-.49,3.55,1.48,1.54,1.74,2.7,4.02,3.45,6.87l6.66-2.3c-.68-3.11-2.56-6.38-4.93-9.06-5.48-6.18-11.26-6.6-14.96-3.32-7.43,6.59,4.37,15.82,1.86,18.04-.68.61-1.69.28-3.38-1.63-1.94-2.19-3.46-5.33-4.01-8.19l-6.82,2.18c.54,3.08,2.7,7.17,5.66,10.5h0Z"/><path d="M.53,134.06c-.44,3.84,1.91,6.99,5.55,7.41,3.65.42,6.64-2.12,7.08-5.96.44-3.86-1.92-6.99-5.55-7.41-3.63-.42-6.64,2.11-7.08,5.96h0ZM2.94,134.34c.25-2.18,2.03-3.64,4.35-3.38,2.32.27,3.72,2.09,3.47,4.27-.25,2.18-2.03,3.64-4.35,3.38-2.32-.27-3.72-2.09-3.47-4.27h0ZM12.36,150.17l-.07-5.32-12.3.15.04,2.85,3.39-.04.03,2.48c.04,3.29,1.77,5.32,4.51,5.29,2.76-.04,4.44-2.11,4.39-5.4h0ZM5.77,150.1l-.03-2.32,4.27-.05.03,2.32c.02,1.74-.76,2.63-2.11,2.65-1.34.02-2.14-.85-2.16-2.59h0ZM3.05,161.71l2.83-.32.65,5.67,2.2-.25-.65-5.67,2.65-.3.73,6.42,2.27-.26-1.06-9.23-12.22,1.4,1.08,9.46,2.27-.26-.76-6.65h0ZM16.04,177.95l-7.3,1.59,6-7.56-.5-2.3-12.02,2.62.6,2.75,7.3-1.59-5.99,7.58.5,2.28,12.02-2.62-.6-2.75h0ZM8.9,196.29c1.25,3.29,3.5,4.25,5.42,3.52,4.22-1.6.22-7.73,2.34-8.54.72-.27,1.54.11,2.14,1.68.39,1.02.51,2.23.31,3.53l2.33.05c.27-1.32.05-2.93-.5-4.38-1.24-3.27-3.47-4.23-5.42-3.48-4.27,1.62-.25,7.75-2.4,8.56-.71.27-1.48-.17-2.07-1.75-.52-1.38-.58-3.01-.24-4.25l-2.35-.14c-.4,1.32-.24,3.36.45,5.19h0ZM15.18,210.03c1.8,3.42,5.52,4.7,8.76,2.98,3.25-1.71,4.29-5.5,2.48-8.92-1.81-3.43-5.53-4.69-8.76-2.98-3.23,1.71-4.3,5.48-2.48,8.92h0ZM17.32,208.9c-1.03-1.94-.38-4.15,1.69-5.24,2.07-1.09,4.25-.38,5.28,1.57,1.03,1.94.38,4.15-1.69,5.24-2.07,1.09-4.25.38-5.28-1.57h0ZM23.64,223.95c1.99,2.87,4.82,3.44,7.79,1.38l5.66-3.92-1.6-2.31-5.57,3.86c-1.92,1.33-3.29,1.06-4.28-.37-.98-1.41-.77-2.8,1.15-4.13l5.57-3.86-1.62-2.34-5.66,3.92c-2.97,2.06-3.44,4.9-1.45,7.78h0ZM37.14,240.26l1.13-4.69c1.57.74,3.2.54,4.58-.69,2.06-1.83,1.97-4.5-.21-6.96l-3.53-3.98-9.2,8.16,1.89,2.13,2.56-2.27,1.64,1.85.09.11-.99,4.05,2.03,2.29h0ZM40.94,232.74c-1,.89-2.19.77-3.34-.54l-1.54-1.74,3.21-2.85,1.54,1.74c1.15,1.3,1.15,2.48.13,3.38h0ZM43.7,246.8c1.57,1.46,3.39,2.1,5.21,1.85l-.19-2.48c-1.26.14-2.36-.2-3.26-1.04-1.68-1.57-1.78-3.86-.2-5.56s3.88-1.77,5.56-.2c.9.84,1.32,1.9,1.28,3.16h2.49c.11-1.81-.66-3.58-2.22-5.03-2.8-2.61-6.69-2.61-9.22.11-2.53,2.71-2.25,6.59.54,9.19h0ZM54.2,252.29l1.68-2.3,4.61,3.37,1.3-1.79-4.61-3.37,1.57-2.16,5.22,3.81,1.34-1.84-7.51-5.48-7.25,9.93,7.69,5.61,1.34-1.84-5.41-3.95h0ZM68.85,261.91l1.39-2.49,4.98,2.79,1.08-1.93-4.98-2.79,1.3-2.33,5.64,3.15,1.11-1.99-8.11-4.53-6,10.73,8.31,4.65,1.11-1.99-5.84-3.27h0ZM89.89,260.83l-2.82,6.91-2.84-9.22-2.18-.89-4.65,11.38,2.6,1.06,2.82-6.91,2.85,9.23,2.16.88,4.65-11.39-2.6-1.06h0ZM95.33,273.26l.81-2.73,5.47,1.63.63-2.12-5.47-1.63.76-2.56,6.2,1.84.65-2.19-8.91-2.65-3.51,11.79,9.13,2.71.65-2.19-6.42-1.91h0ZM115.43,280.16l-1.97-4.4c1.7-.37,2.87-1.53,3.22-3.34.52-2.71-1.18-4.77-4.41-5.39l-5.23-1-2.31,12.08,2.79.54.64-3.36,2.43.47.14.03,1.68,3.81,3,.58h0ZM113.85,271.88c-.25,1.31-1.27,1.94-2.97,1.61l-2.28-.44.81-4.21,2.28.44c1.71.33,2.42,1.27,2.17,2.6h0ZM127.98,278.33c-.74.34-1.47.43-2.24.39-2.35-.15-3.88-1.88-3.73-4.18.15-2.33,1.88-3.83,4.26-3.67,1.24.08,2.25.58,3.09,1.59l1.93-1.57c-1.11-1.46-2.85-2.31-5-2.45-3.91-.25-6.92,2.22-7.15,5.92-.23,3.7,2.44,6.53,6.3,6.77,1.75.11,3.65-.31,5.06-1.25l.32-4.98-2.6-.16-.23,3.6h0ZM144.73,268.5l-2.79.11-3.08,5.58-3.49-5.34-3.02.12,5.06,7.72.17,4.39,2.84-.11-.17-4.35,4.47-8.12h0ZM166.7,277.2l-2.35-12.07-2.29.44-3.01,8.36-5.96-6.64-2.31.44,2.31,12.08,2.62-.5-1.36-7.09,4.65,5.14,1.26-.24,2.41-6.65,1.41,7.24,2.62-.5h0ZM177.69,273.81c3.65-1.28,5.45-4.77,4.23-8.23-1.22-3.46-4.81-5.05-8.46-3.76-3.66,1.29-5.45,4.79-4.23,8.23,1.21,3.45,4.8,5.05,8.46,3.76h0ZM176.88,271.52c-2.07.73-4.16-.23-4.94-2.43-.78-2.2.25-4.26,2.32-4.99,2.07-.73,4.16.23,4.94,2.43.78,2.2-.25,4.26-2.32,4.99h0ZM187.74,269.69l5-2.49c3.6-1.79,4.99-5.19,3.34-8.52-1.66-3.34-5.2-4.28-8.81-2.49l-5,2.49,5.47,11.01h0ZM189.25,266.34l-3.39-6.83,2.33-1.16c2.19-1.09,4.27-.49,5.32,1.62,1.05,2.11.26,4.13-1.92,5.21l-2.33,1.16h0ZM203.42,258.59l-1.57-2.38,4.77-3.14-1.22-1.85-4.77,3.14-1.47-2.23,5.4-3.55-1.26-1.91-7.76,5.11,6.76,10.27,7.95-5.24-1.25-1.91-5.59,3.68h0ZM212.71,254.97l7.15-5.48-1.41-1.84-4.89,3.75-6.07-7.92-2.26,1.73,7.48,9.76h0ZM222,247.44l6.6-6.14-1.58-1.7-4.51,4.2-6.8-7.3-2.08,1.94,8.38,9h0ZM230.16,239.48l1.94-2.08-9-8.38-1.94,2.08,9,8.38h0ZM230.33,220.34l5.81,4.68-9.65.08-1.47,1.83,9.58,7.71,1.76-2.19-5.81-4.68,9.66-.1,1.46-1.82-9.58-7.71-1.76,2.19h0ZM246.4,213.32c-.05.82-.32,1.5-.72,2.16-1.25,2-3.5,2.52-5.45,1.3-1.98-1.24-2.47-3.47-1.21-5.5.66-1.06,1.58-1.71,2.86-1.96l-.46-2.44c-1.81.28-3.38,1.41-4.53,3.24-2.08,3.33-1.33,7.14,1.81,9.1,3.15,1.96,6.9.96,8.95-2.32.93-1.49,1.45-3.36,1.31-5.04l-4.23-2.64-1.38,2.2,3.06,1.91h0ZM256.01,200.64c1.41-3.22.48-5.49-1.4-6.31-4.14-1.81-5.57,5.37-7.65,4.46-.71-.31-1.03-1.16-.35-2.7.44-1,1.2-1.95,2.25-2.74l-1.63-1.67c-1.12.76-2.09,2.06-2.71,3.48-1.4,3.2-.48,5.45,1.43,6.28,4.18,1.83,5.6-5.35,7.71-4.43.69.3.93,1.16.26,2.7-.59,1.35-1.69,2.56-2.8,3.2l1.58,1.75c1.21-.66,2.53-2.23,3.31-4.02h0ZM250.52,178.88l-.86,2.66,4.18,4.81-6.21,1.44-.93,2.87,8.99-2.09,4.18,1.36.88-2.71-4.14-1.35-6.08-7h0ZM263.78,176.44c.75-3.43-.61-5.47-2.62-5.91-4.41-.96-4.41,6.36-6.62,5.88-.76-.16-1.24-.93-.88-2.58.23-1.06.79-2.15,1.67-3.12l-1.92-1.32c-.95.96-1.64,2.43-1.97,3.94-.74,3.42.6,5.43,2.64,5.88,4.46.97,4.44-6.35,6.69-5.86.74.16,1.14.95.78,2.6-.31,1.44-1.16,2.84-2.12,3.69l1.89,1.4c1.06-.88,2.04-2.68,2.46-4.59h0ZM265.4,166.14l.4-2.82-9.88-1.38.54-3.9-2.3-.32-1.48,10.61,2.3.32.55-3.9,9.88,1.38h0ZM264.24,153.5l-2.84-.11.22-5.71-2.21-.08-.22,5.71-2.67-.1.24-6.46-2.28-.09-.35,9.29,12.29.47.36-9.52-2.28-.09-.26,6.69h0ZM265.48,128.74l-12.25,1.12.21,2.33,8.01,3.84-7.21,5.26.21,2.35,12.25-1.09-.24-2.66-7.19.64,5.58-4.11-.11-1.28-6.38-3.07,7.35-.67-.24-2.66h0Z"/></svg>