<?xml version="1.0" encoding="UTF-8"?><svg id="Layer_1" xmlns="http://www.w3.org/2000/svg" xmlns:xlink="http://www.w3.org/1999/xlink" viewBox="0 0 300 303.78"><defs><style>.cls-1,.cls-2,.cls-3,.cls-4{fill:none;}.cls-2{stroke:#000;stroke-width:7.32px;}.cls-2,.cls-3{stroke-linejoin:round;}.cls-2,.cls-3,.cls-4{stroke-linecap:round;}.cls-5{font-size:17.57px;}.cls-5,.cls-6,.cls-7,.cls-8,.cls-9,.cls-10,.cls-11,.cls-12,.cls-13,.cls-14,.cls-15,.cls-16,.cls-17,.cls-18,.cls-19,.cls-20,.cls-21,.cls-22,.cls-23,.cls-24{font-family:Montserrat-Bold, Montserrat;font-weight:700;}.cls-6{font-size:17.57px;}.cls-7{font-size:17.57px;}.cls-8{font-size:17.57px;}.cls-9{font-size:17.57px;}.cls-10{font-size:17.57px;}.cls-11{font-size:17.57px;}.cls-12{font-size:17.57px;}.cls-13{font-size:17.57px;}.cls-14{font-size:17.57px;}.cls-15{font-size:17.57px;}.cls-16{font-size:17.57px;}.cls-17{font-size:17.57px;}.cls-18{font-size:17.57px;}.cls-19{font-size:17.57px;}.cls-20{font-size:17.57px;}.cls-21{font-size:17.57px;}.cls-22{font-size:17.57px;}.cls-23{font-size:17.57px;}.cls-24{font-size:17.57px;}.cls-25{clip-path:url(#clippath-1);}.cls-26{clip-path:url(#clippath-3);}.cls-27{clip-path:url(#clippath-4);}.cls-28{clip-path:url(#clippath-2);}.cls-29{clip-path:url(#clippath-5);}.cls-3,.cls-4{stroke:#fff;stroke-width:8.05px;}.cls-30{fill:#0070d7;}.cls-31{font-size:38.07px;}.cls-31,.cls-32,.cls-33,.cls-34,.cls-35,.cls-36,.cls-37,.cls-38{font-family:Montserrat-Black, Montserrat;font-weight:800;}.cls-32{font-size:38.07px;}.cls-33{font-size:38.07px;}.cls-34{font-size:38.07px;}.cls-35{font-size:38.07px;}.cls-36{font-size:38.07px;}.cls-37{font-size:38.07px;}.cls-38{font-size:38.07px;}</style><clipPath id="clippath-1"><rect class="cls-1" y="3.78" width="300" height="300"/></clipPath><clipPath id="clippath-2"><rect class="cls-1" y="3.78" width="300" height="300"/></clipPath><clipPath id="clippath-3"><rect class="cls-1" y="3.78" width="300" height="300"/></clipPath><clipPath id="clippath-4"><rect class="cls-1" y="3.78" width="300" height="300"/></clipPath><clipPath id="clippath-5"><rect class="cls-1" y="3.78" width="300" height="300"/></clipPath></defs><text class="cls-9" transform="translate(18.44 132.66) rotate(96.52)"><tspan x="0" y="0">O</tspan></text><text class="cls-8" transform="translate(16.84 149.48) rotate(89.28)"><tspan x="0" y="0">P</tspan></text><text class="cls-9" transform="translate(17.15 163.65) rotate(83.48)"><tspan x="0" y="0">E</tspan></text><text class="cls-23" transform="translate(18.77 176.81) rotate(77.72)"><tspan x="0" y="0">N</tspan></text><text class="cls-12" transform="translate(22.43 192) rotate(72.01)"><tspan x="0" y="0"> </tspan></text><text class="cls-14" transform="translate(24 197.01) rotate(69.18)"><tspan x="0" y="0">S</tspan></text><text class="cls-10" transform="translate(28.76 209.31) rotate(62.18)"><tspan x="0" y="0">O</tspan></text><text class="cls-20" transform="translate(36.72 224.07) rotate(55.27)"><tspan x="0" y="0">U</tspan></text><text class="cls-18" transform="translate(45.8 236.96) rotate(48.42)"><tspan x="0" y="0">R</tspan></text><text class="cls-6" transform="translate(55.33 247.58) rotate(42.95)"><tspan x="0" y="0">C</tspan></text><text class="cls-7" transform="translate(66.25 257.55) rotate(36.1)"><tspan x="0" y="0">E</tspan></text><text class="cls-24" transform="translate(76.03 264.56) rotate(33.35)"><tspan x="0" y="0"> </tspan></text><text class="cls-24" transform="translate(80.85 267.75) rotate(29.21)"><tspan x="0" y="0">E</tspan></text><text class="cls-13" transform="translate(92.9 274.4) rotate(22.22)"><tspan x="0" y="0">N</tspan></text><text class="cls-11" transform="translate(107.42 280.16) rotate(16.57)"><tspan x="0" y="0">E</tspan></text><text class="cls-16" transform="translate(120.16 283.77) rotate(10.85)"><tspan x="0" y="0">R</tspan></text><text class="cls-20" transform="translate(134.91 286.38) rotate(3.63)"><tspan x="0" y="0">G</tspan></text><text class="cls-21" transform="translate(149.92 287.19) rotate(-2.18)"><tspan x="0" y="0">Y</tspan></text><text class="cls-9" transform="translate(162.67 286.53) rotate(-6.52)"><tspan x="0" y="0"> </tspan></text><text class="cls-16" transform="translate(168.51 286.02) rotate(-10.85)"><tspan x="0" y="0">M</tspan></text><text class="cls-17" transform="translate(187.48 282.01) rotate(-19.4)"><tspan x="0" y="0">O</tspan></text><text class="cls-5" transform="translate(203.29 276.28) rotate(-26.42)"><tspan x="0" y="0">D</tspan></text><text class="cls-24" transform="translate(217.95 268.79) rotate(-33.35)"><tspan x="0" y="0">E</tspan></text><text class="cls-11" transform="translate(228.41 261.8) rotate(-37.48)"><tspan x="0" y="0">L</tspan></text><text class="cls-6" transform="translate(237.79 254.37) rotate(-42.95)"><tspan x="0" y="0">L</tspan></text><text class="cls-6" transform="translate(246.02 246.49) rotate(-47.05)"><tspan x="0" y="0">I</tspan></text><text class="cls-15" transform="translate(250.54 241.73) rotate(-51.15)"><tspan x="0" y="0">N</tspan></text><text class="cls-19" transform="translate(260.41 228.99) rotate(-58.03)"><tspan x="0" y="0">G</tspan></text><text class="cls-10" transform="translate(267.77 216.67) rotate(-62.18)"><tspan x="0" y="0"> </tspan></text><text class="cls-22" transform="translate(270.47 211.53) rotate(-66.37)"><tspan x="0" y="0">S</tspan></text><text class="cls-12" transform="translate(275.33 200.16) rotate(-72.01)"><tspan x="0" y="0">Y</tspan></text><text class="cls-23" transform="translate(279.26 187.71) rotate(-77.72)"><tspan x="0" y="0">S</tspan></text><text class="cls-14" transform="translate(281.7 176.05) rotate(-82.03)"><tspan x="0" y="0">T</tspan></text><text class="cls-21" transform="translate(283.22 163.81) rotate(-87.82)"><tspan x="0" y="0">E</tspan></text><text class="cls-19" transform="translate(283.69 149.94) rotate(-95.07)"><tspan x="0" y="0">M</tspan></text><g class="cls-25"><path class="cls-30" d="M150.2,263.79c60.76,0,110.01-49.27,110.01-110.02s-49.25-110.02-110.01-110.02-110.01,49.25-110.01,110.02,49.25,110.02,110.01,110.02"/></g><text class="cls-37" transform="translate(51.05 83.76) rotate(-47.05)"><tspan x="0" y="0">O</tspan></text><text class="cls-31" transform="translate(73.85 60.02) rotate(-33.35)"><tspan x="0" y="0">S</tspan></text><g class="cls-28"><text class="cls-35" transform="translate(94.98 46.37) rotate(-22.22)"><tspan x="0" y="0">e</tspan></text><text class="cls-32" transform="translate(118.95 36.27) rotate(-6.52)"><tspan x="0" y="0">M</tspan></text><text class="cls-36" transform="translate(156.18 32.83) rotate(9.41)"><tspan x="0" y="0">O</tspan></text><text class="cls-33" transform="translate(188.52 39.22) rotate(23.63)"><tspan x="0" y="0">S</tspan></text></g><text class="cls-34" transform="translate(211.2 49.38) rotate(36.1)"><tspan x="0" y="0">Y</tspan></text><text class="cls-38" transform="translate(232.66 65.47) rotate(48.42)"><tspan x="0" y="0">S</tspan></text><g class="cls-26"><path class="cls-2" d="M39.18,91.47c-5.38,9.55-9.56,19.86-12.33,30.72"/><path class="cls-2" d="M273.25,122.56c-2.74-10.84-6.87-21.12-12.19-30.67"/></g><line class="cls-3" x1="198.12" y1="129.3" x2="198.12" y2="221.92"/><line class="cls-3" x1="198.12" y1="80.98" x2="198.12" y2="108.39"/><line class="cls-3" x1="172.73" y1="128.08" x2="195.57" y2="113.06"/><line class="cls-3" x1="223.52" y1="128.08" x2="200.69" y2="113.06"/><line class="cls-3" x1="215.53" y1="224.84" x2="87.51" y2="224.84"/><g class="cls-27"><path class="cls-4" d="M87.48,117.12h45.78s7.71-.42,7.71,5.88c0,3.53-2.42,5.14-4.89,5.2"/><path class="cls-4" d="M87.19,91.95h54.74s7.71.42,7.71-5.88c0-3.41-2.25-5.03-4.62-5.19"/><path class="cls-4" d="M87.09,104.43h63.15s7.71-.42,7.71,5.88c0,3.28-2.09,4.91-4.36,5.17"/><path class="cls-3" d="M153.45,219.72v-11.85M123.97,219.72v-11.85M108.09,189.73h61.22M147.78,172.72l5.67,35.15M129.63,172.72l-5.67,35.15M110.04,175.37l-6.4,28.35c-.48,2.13,1.14,4.15,3.32,4.15h63.49c2.21,0,3.84-2.08,3.3-4.23l-7.09-28.35c-.38-1.51-1.74-2.58-3.3-2.58h-50c-1.59,0-2.97,1.1-3.32,2.65Z"/></g><path class="cls-3" d="M85.92,151.18l3.25,3.25.99.99M124.48,155.42l3.25-3.25.99-.99M85.92,193.98l3.25-3.25.99-.99M107.32,148.31v-6M83.32,172.58h-6"/><g class="cls-29"><path class="cls-3" d="M97.74,183.06c-2.79-2.62-4.53-6.35-4.53-10.47,0-7.94,6.44-14.38,14.38-14.38,3.65,0,6.99,1.36,9.52,3.61"/></g></svg>