<?xml version="1.0" encoding="UTF-8"?><svg id="Layer_1" xmlns="http://www.w3.org/2000/svg" xmlns:xlink="http://www.w3.org/1999/xlink" viewBox="0 0 300 303.28"><defs><style>.cls-1,.cls-2,.cls-3,.cls-4{fill:none;}.cls-5{font-size:17.57px;}.cls-5,.cls-6,.cls-7,.cls-8,.cls-9,.cls-10,.cls-11,.cls-12,.cls-13,.cls-14,.cls-15,.cls-16,.cls-17,.cls-18{font-family:Montserrat-Bold, Montserrat;}.cls-5,.cls-6,.cls-7,.cls-8,.cls-9,.cls-10,.cls-11,.cls-12,.cls-13,.cls-14,.cls-15,.cls-16,.cls-17,.cls-18,.cls-19,.cls-20,.cls-21,.cls-22,.cls-23{font-weight:700;}.cls-6{font-size:17.57px;}.cls-7{font-size:17.57px;}.cls-8{font-size:17.57px;}.cls-9{font-size:17.57px;}.cls-10{font-size:17.57px;}.cls-11{font-size:17.57px;}.cls-12{font-size:17.57px;}.cls-13{font-size:17.57px;}.cls-14{font-size:17.57px;}.cls-15{font-size:17.57px;}.cls-16{font-size:17.57px;}.cls-17{font-size:17.57px;}.cls-18{font-size:17.57px;}.cls-19{font-size:38.07px;}.cls-19,.cls-20,.cls-21,.cls-22,.cls-23{font-family:Montserrat-ExtraBold, Montserrat;}.cls-20{font-size:38.07px;}.cls-21{font-size:38.07px;}.cls-22{font-size:38.07px;}.cls-23{font-size:38.07px;}.cls-24{clip-path:url(#clippath-1);}.cls-25{clip-path:url(#clippath-3);}.cls-26{clip-path:url(#clippath-4);}.cls-27{clip-path:url(#clippath-2);}.cls-28{clip-path:url(#clippath-6);}.cls-29{clip-path:url(#clippath-5);}.cls-2{stroke-linejoin:round;}.cls-2,.cls-3,.cls-4{stroke-linecap:round;}.cls-2,.cls-4{stroke:#fff;stroke-width:8.05px;}.cls-3{stroke:#000;stroke-width:7.32px;}.cls-30{fill:#2a5c76;}</style><clipPath id="clippath-1"><rect class="cls-1" y="3.28" width="300" height="300"/></clipPath><clipPath id="clippath-2"><rect class="cls-1" y="3.28" width="300" height="300"/></clipPath><clipPath id="clippath-3"><rect class="cls-1" y="3.28" width="300" height="300"/></clipPath><clipPath id="clippath-4"><rect class="cls-1" y="3.28" width="300" height="300"/></clipPath><clipPath id="clippath-5"><rect class="cls-1" y="3.28" width="300" height="300"/></clipPath><clipPath id="clippath-6"><rect class="cls-1" y="3.28" width="300" height="300"/></clipPath></defs><g class="cls-24"><path class="cls-30" d="M150.2,263.29c60.76,0,110.01-49.27,110.01-110.02s-49.25-110.02-110.01-110.02-110.01,49.25-110.01,110.02,49.25,110.02,110.01,110.02"/></g><text class="cls-22" transform="translate(67.37 65.31) rotate(-37.48)"><tspan x="0" y="0">P</tspan></text><g class="cls-27"><text class="cls-20" transform="translate(89.79 48.79) rotate(-25.03)"><tspan x="0" y="0">a</tspan></text><text class="cls-23" transform="translate(111.54 39.18) rotate(-15.14)"><tspan x="0" y="0">t</tspan></text><text class="cls-20" transform="translate(127.87 34.57) rotate(-5.07)"><tspan x="0" y="0">h</tspan></text><text class="cls-21" transform="translate(154.79 32.53) rotate(7.97)"><tspan x="0" y="0">C</tspan></text><text class="cls-20" transform="translate(182.88 37.07) rotate(20.82)"><tspan x="0" y="0">a</tspan></text></g><text class="cls-19" transform="translate(204.62 45.96) rotate(29.21)"><tspan x="0" y="0">l</tspan></text><text class="cls-22" transform="translate(214.82 51.34) rotate(37.48)"><tspan x="0" y="0">c</tspan></text><text class="cls-6" transform="translate(38.83 226.81) rotate(53.9)"><tspan x="0" y="0">P</tspan></text><text class="cls-13" transform="translate(46.81 237.6) rotate(48.42)"><tspan x="0" y="0">A</tspan></text><text class="cls-5" transform="translate(56.39 248.07) rotate(42.95)"><tspan x="0" y="0">T</tspan></text><text class="cls-6" transform="translate(65.79 256.72) rotate(36.1)"><tspan x="0" y="0">H</tspan></text><text class="cls-8" transform="translate(79.22 266.57) rotate(27.82)"><tspan x="0" y="0">W</tspan></text><text class="cls-12" transform="translate(99.13 276.65) rotate(19.4)"><tspan x="0" y="0">A</tspan></text><text class="cls-12" transform="translate(112.48 281.32) rotate(13.71)"><tspan x="0" y="0">Y</tspan></text><text class="cls-10" transform="translate(125.2 284.4) rotate(7.97)"><tspan x="0" y="0">S</tspan></text><text class="cls-14" transform="translate(136.6 285.91) rotate(5.07)"><tspan x="0" y="0"> </tspan></text><text class="cls-7" transform="translate(142.44 286.49) rotate(.72)"><tspan x="0" y="0">C</tspan></text><text class="cls-14" transform="translate(156.56 286.55) rotate(-5.07)"><tspan x="0" y="0">A</tspan></text><text class="cls-11" transform="translate(171.4 284.97) rotate(-10.85)"><tspan x="0" y="0">L</tspan></text><text class="cls-9" transform="translate(183.02 282.62) rotate(-16.57)"><tspan x="0" y="0">C</tspan></text><text class="cls-17" transform="translate(197.14 278.28) rotate(-23.63)"><tspan x="0" y="0">U</tspan></text><text class="cls-18" transform="translate(211.03 272.02) rotate(-29.21)"><tspan x="0" y="0">L</tspan></text><text class="cls-15" transform="translate(221.54 266.04) rotate(-34.73)"><tspan x="0" y="0">A</tspan></text><text class="cls-16" transform="translate(233.08 257.77) rotate(-40.22)"><tspan x="0" y="0">T</tspan></text><text class="cls-5" transform="translate(242.67 249.59) rotate(-47.05)"><tspan x="0" y="0">O</tspan></text><text class="cls-6" transform="translate(253.97 237.24) rotate(-53.9)"><tspan x="0" y="0">R</tspan></text><g class="cls-25"><path class="cls-2" d="M196.96,109.08c-5.47,3.16-12.47,1.29-15.63-4.19-3.16-5.47-1.29-12.47,4.19-15.63,5.47-3.16,12.47-1.29,15.63,4.19,3.16,5.47,1.29,12.47-4.19,15.63Z"/></g><line class="cls-4" x1="222.28" y1="99.17" x2="206.37" y2="99.17"/><line class="cls-4" x1="175.43" y1="99.17" x2="77.18" y2="99.17"/><g class="cls-26"><path class="cls-2" d="M115.85,163.19c-5.47,3.16-12.47,1.29-15.63-4.19-3.16-5.47-1.29-12.47,4.19-15.63,5.47-3.16,12.47-1.29,15.63,4.19,3.16,5.47,1.29,12.47-4.19,15.63Z"/></g><line class="cls-4" x1="95.1" y1="153.28" x2="77.18" y2="153.28"/><line class="cls-4" x1="222.28" y1="153.28" x2="125.49" y2="153.28"/><g class="cls-29"><path class="cls-2" d="M170.31,217.3c-5.47,3.16-12.47,1.29-15.63-4.19-3.16-5.47-1.29-12.47,4.19-15.63,5.47-3.16,12.47-1.28,15.63,4.19,3.16,5.47,1.29,12.47-4.19,15.63Z"/></g><line class="cls-4" x1="149.27" y1="207.31" x2="77.17" y2="207.31"/><line class="cls-4" x1="222.28" y1="207.31" x2="180.01" y2="207.31"/><g class="cls-28"><path class="cls-3" d="M263.2,211.15c8.89-17.36,13.91-37.03,13.91-57.88,0-32.44-12.15-62.03-32.14-84.48"/><path class="cls-3" d="M55.22,68.56c-20.11,22.48-32.33,52.17-32.33,84.72,0,20.38,4.8,39.64,13.33,56.72"/></g></svg>