<?xml version="1.0" encoding="UTF-8"?><svg id="Layer_1" xmlns="http://www.w3.org/2000/svg" viewBox="0 0 261.55 281.2"><defs><style>.cls-1{stroke-linejoin:round;}.cls-1,.cls-2,.cls-3{fill:none;stroke-linecap:round;}.cls-1,.cls-3{stroke:#fff;stroke-width:8.05px;}.cls-2{stroke:#000;stroke-width:7.32px;}.cls-4{fill:#2a5c76;}</style></defs><path class="cls-4" d="M130.98,257.7c60.76,0,110.01-49.27,110.01-110.02s-49.25-110.02-110.01-110.02S20.97,86.92,20.97,147.68s49.25,110.02,110.01,110.02h0Z"/><path class="cls-1" d="M177.73,103.48c-5.47,3.16-12.47,1.29-15.63-4.19-3.16-5.47-1.28-12.47,4.19-15.63,5.47-3.16,12.47-1.28,15.63,4.19,3.16,5.47,1.29,12.47-4.19,15.63h0Z"/><path class="cls-3" d="M203.05,93.57h-15.91M156.2,93.57H57.95"/><path class="cls-1" d="M96.62,157.59c-5.47,3.16-12.47,1.28-15.63-4.19-3.16-5.47-1.28-12.47,4.19-15.63,5.47-3.16,12.47-1.28,15.63,4.19,3.16,5.47,1.28,12.47-4.19,15.63h0Z"/><path class="cls-3" d="M75.87,147.68h-17.92M203.05,147.68h-96.79"/><path class="cls-1" d="M151.09,211.7c-5.47,3.16-12.47,1.28-15.63-4.19-3.16-5.47-1.29-12.47,4.19-15.63,5.47-3.16,12.47-1.29,15.63,4.19,3.16,5.47,1.29,12.47-4.19,15.63h0Z"/><path class="cls-3" d="M130.04,201.71H57.95M203.05,201.71h-42.26"/><path class="cls-2" d="M243.98,205.56c8.89-17.36,13.91-37.03,13.91-57.87,0-32.44-12.15-62.03-32.14-84.48M36,62.96C15.89,85.45,3.66,115.13,3.66,147.68c0,20.37,4.8,39.64,13.33,56.72"/><path d="M33.53,219.43l-3.14-4.3-9.93,7.25,1.68,2.3,2.74-2,1.46,2c1.94,2.65,4.52,3.31,6.74,1.7,2.23-1.63,2.39-4.29.46-6.94h0ZM28.12,223.19l-1.37-1.88,3.45-2.52,1.37,1.88c1.03,1.41.9,2.58-.19,3.38-1.08.79-2.24.54-3.26-.86h0ZM34.65,239.96l1.98,2.23,5.55-12.27-1.87-2.1-12.84,4.06,1.94,2.18,2.69-.94,3.79,4.27-1.25,2.56h0ZM34.33,232.38l4.82-1.67-2.23,4.58-2.59-2.92h0ZM40.09,245.19l2.08,1.94,6.8-7.3,2.88,2.68,1.58-1.7-7.84-7.3-1.58,1.7,2.88,2.68-6.8,7.3h0ZM61.8,247.01l-2.86,3.92-4.52-3.29,2.86-3.92-2.3-1.68-7.25,9.93,2.3,1.68,2.97-4.07,4.52,3.29-2.97,4.07,2.3,1.68,7.25-9.93-2.3-1.68h0ZM81.05,258.17l-6.6,6.37,1.58-9.02-2.33-1.23-6.6,6.29,1.58-8.94-2.61-1.38-2.16,12.76,2.69,1.42,6.36-6.06-1.49,8.63,2.7,1.43,9.3-9-2.41-1.27h0ZM89.94,274.59l2.82.99-1.1-13.43-2.65-.93-9.26,9.78,2.75.97,1.9-2.12,5.39,1.9.15,2.85h0ZM85.99,268.11l3.4-3.79.27,5.09-3.68-1.3h0ZM107.97,266.64l-2.71-.66-4.49,4.53-1.9-6.09-2.94-.72,2.75,8.81-1.04,4.27,2.76.67,1.03-4.23,6.53-6.58h0ZM111.39,279.76c3.48.49,5.41-1.02,5.7-3.05.63-4.47-6.67-3.91-6.36-6.16.11-.77.84-1.3,2.51-1.07,1.08.15,2.2.63,3.24,1.43l1.17-2.02c-1.03-.87-2.55-1.46-4.08-1.67-3.46-.48-5.37,1-5.66,3.07-.63,4.52,6.67,3.95,6.35,6.23-.1.75-.86,1.21-2.53.98-1.46-.21-2.92-.94-3.84-1.83l-1.25,1.99c.96.99,2.83,1.83,4.76,2.1h0ZM130.56,281.2c2.14.03,3.93-.72,5.1-2.13l-1.81-1.71c-.84.96-1.88,1.43-3.11,1.42-2.3-.03-3.91-1.67-3.88-3.98.03-2.32,1.68-3.92,3.99-3.89,1.23.02,2.26.52,3.07,1.48l1.85-1.66c-1.14-1.42-2.91-2.22-5.03-2.24-3.83-.05-6.71,2.57-6.76,6.28-.05,3.71,2.76,6.4,6.58,6.44h0ZM147.94,280l2.98-.26-6.57-11.76-2.8.25-4.37,12.73,2.9-.26.85-2.72,5.69-.51,1.32,2.53h0ZM141.65,275.75l1.53-4.86,2.36,4.52-3.89.35h0ZM153.61,279.09l8.85-1.7-.44-2.28-6.06,1.16-1.88-9.8-2.8.54,2.31,12.08h0ZM170.89,275.13c2.05-.61,3.54-1.86,4.24-3.55l-2.23-1.1c-.52,1.16-1.37,1.93-2.55,2.28-2.21.66-4.23-.43-4.89-2.65-.66-2.22.44-4.24,2.65-4.89,1.18-.35,2.31-.18,3.38.5l1.27-2.14c-1.51-1.02-3.43-1.25-5.47-.65-3.67,1.09-5.64,4.45-4.59,8,1.06,3.55,4.54,5.28,8.2,4.2h0ZM184.34,270.09c3.2-1.4,4.3-4.07,2.85-7.38l-2.76-6.31-2.58,1.13,2.72,6.21c.94,2.14.41,3.43-1.19,4.12-1.58.69-2.9.21-3.83-1.93l-2.72-6.21-2.61,1.14,2.76,6.31c1.45,3.32,4.15,4.32,7.36,2.92h0ZM193.08,265.7l7.87-4.4-1.13-2.02-5.38,3.01-4.87-8.71-2.48,1.39,6,10.73h0ZM211.07,254.37l2.45-1.7-11.52-6.97-2.31,1.6,2.5,13.23,2.4-1.66-.61-2.79,4.69-3.25,2.4,1.54h0ZM203.5,253.78l-1.08-4.98,4.29,2.76-3.21,2.22h0ZM216.92,249.58l2.17-1.84-6.44-7.62,3.01-2.54-1.5-1.77-8.18,6.92,1.5,1.77,3-2.54,6.44,7.62h0ZM228.65,238.71c2.63-2.83,2.62-6.75-.07-9.26-2.69-2.5-6.6-2.24-9.24.59-2.65,2.84-2.61,6.77.07,9.26,2.68,2.49,6.59,2.25,9.24-.59h0ZM226.87,237.06c-1.5,1.61-3.79,1.73-5.5.14-1.71-1.59-1.76-3.89-.26-5.5,1.5-1.61,3.79-1.73,5.5-.13,1.71,1.59,1.75,3.89.26,5.5h0ZM242.02,221.66l-4.82-.1c.39-1.69-.15-3.24-1.65-4.33-2.23-1.63-4.81-.97-6.75,1.69l-3.14,4.3,9.93,7.25,1.68-2.3-2.77-2.02,1.46-2,.08-.11,4.17.1,1.8-2.47h0ZM233.86,219.55c1.08.79,1.22,1.97.19,3.38l-1.37,1.87-3.46-2.53,1.37-1.88c1.02-1.4,2.18-1.65,3.28-.85h0Z"/><path d="M43.71,29.53l-9.67,7.41,16.21,21.15,5.98-4.59-4.24-5.53,3.69-2.83c5.77-4.42,7.1-10.19,3.42-15-3.71-4.83-9.62-5.04-15.39-.62h0ZM51.71,40.72l-3.32,2.55-4.75-6.19,3.32-2.55c2.48-1.9,4.6-1.7,6.1.26,1.48,1.93,1.12,4.03-1.35,5.93h0ZM71.76,19.49c-2.93,1.37-5.75,3.61-7.23,6.02l4.28,3.42c.81-1.6,2.52-3.15,4.31-3.99,2.59-1.21,4.36-.73,5.35,1.11l-3.73,1.74c-5.79,2.71-7.31,6.02-5.7,9.47,1.51,3.24,5.17,4.6,9.66,2.51,2.73-1.27,4.15-3.07,4.25-5.3l1.13,2.41,6.11-2.85-4.85-10.38c-2.77-5.93-7.51-7-13.58-4.16h0ZM78.61,34.78c-1.55.72-2.82.35-3.33-.75-.53-1.14-.13-2.25,1.98-3.23l2.83-1.32.76,1.62c.18,1.72-.78,3.01-2.23,3.69h0ZM105.02,24.03c-.48.56-1.19.99-1.96,1.2-1.25.34-2.31-.24-2.71-1.71l-1.79-6.61,4.56-1.23-1.41-5.22-4.56,1.23-1.4-5.18-6.98,1.89,1.4,5.18-2.9.79,1.41,5.22,2.9-.79,1.81,6.69c1.38,5.11,5.04,6.8,10.14,5.42,1.84-.5,3.54-1.35,4.54-2.45l-3.05-4.42h0ZM122.49,6.69c-2.43.22-4.52,1.17-5.98,2.79l-.84-9.48-7.2.64,2.5,28.13,7.2-.64-.88-9.93c-.3-3.41,1.35-5.01,3.66-5.22,2.08-.19,3.48.95,3.75,3.91l.94,10.58,7.2-.64-1.04-11.75c-.57-6.37-4.49-8.81-9.31-8.38h0ZM151.29,29.67c4.86.68,9.03-.54,12.04-3.39l-4.15-4.96c-1.94,1.77-4.13,2.57-6.65,2.22-4.34-.61-6.93-4.04-6.3-8.57.63-4.52,4.07-7.12,8.41-6.51,2.53.35,4.41,1.73,5.79,3.96l5.35-3.63c-2.11-3.56-5.79-5.88-10.65-6.56-8.37-1.17-15.31,3.66-16.43,11.69-1.12,8.03,4.22,14.58,12.59,15.75h0ZM181.49,15.82c-3.02-1.15-6.6-1.61-9.36-.99l.53,5.46c1.71-.53,4.02-.39,5.87.32,2.67,1.01,3.57,2.62,2.93,4.62l-3.84-1.46c-5.98-2.27-9.41-1.05-10.77,2.5-1.27,3.34.3,6.92,4.93,8.67,2.81,1.07,5.1.84,6.76-.65l-.95,2.49,6.3,2.39,4.07-10.71c2.33-6.12-.21-10.26-6.48-12.64h0ZM175.29,31.38c-1.6-.61-2.21-1.78-1.78-2.92.45-1.17,1.53-1.66,3.7-.83l2.92,1.11-.64,1.67c-1.12,1.33-2.7,1.54-4.2.97h0ZM187.42,41.5l6.31,3.53,13.78-24.65-6.31-3.53-13.78,24.65h0ZM205.6,53.85c3.72,2.85,7.83,3.36,11.12,1.38l-2.7-5.67c-1.97.94-3.62.72-4.95-.3-1.99-1.53-2.5-4.12-.55-6.66,1.9-2.48,4.54-2.66,6.53-1.13,1.33,1.02,1.97,2.56,1.57,4.71l6.18,1.14c1.06-3.7-.51-7.54-4.22-10.38-5.5-4.22-12.08-3.7-15.86,1.23-3.82,4.98-2.61,11.48,2.89,15.69h0Z"/></svg>