<?xml version="1.0" encoding="UTF-8"?><svg id="Layer_1" xmlns="http://www.w3.org/2000/svg" viewBox="0 0 266.78 280.77"><defs><style>.cls-1{fill:#fff;}.cls-2{stroke-width:.44px;}.cls-2,.cls-3,.cls-4,.cls-5,.cls-6{fill:none;}.cls-2,.cls-3,.cls-4,.cls-6{stroke:#fff;}.cls-2,.cls-6{stroke-miterlimit:10;}.cls-3{stroke-width:8.05px;}.cls-3,.cls-4{stroke-linejoin:round;}.cls-3,.cls-4,.cls-5{stroke-linecap:round;}.cls-4{stroke-width:8.05px;}.cls-5{stroke:#000;stroke-width:7.32px;}.cls-6{stroke-width:1.46px;}.cls-7{fill:#01b0f1;}</style></defs><path class="cls-7" d="M133.41,37.4c-60.76,0-110.01,49.27-110.01,110.02s49.25,110.02,110.01,110.02,110.01-49.25,110.01-110.02-49.25-110.02-110.01-110.02h0Z"/><path class="cls-5" d="M53.3,48.69c-20.15,16.33-35.2,38.7-42.39,64.36M255.61,113.4c-7.01-25.27-21.63-47.37-41.23-63.67"/><path class="cls-3" d="M70.66,186.18v33.68M87.82,186.18v33.68M104.96,186.18v33.68M122.1,186.18v33.68"/><path class="cls-1" d="M84,105.96c-3.99,0-7.22-3.23-7.22-7.22s3.23-7.22,7.22-7.22,7.23,3.23,7.23,7.22-3.24,7.22-7.23,7.22h0ZM108.25,98.74h-4.81M64.55,98.74h-4.8M83.78,122.99v-4.8M83.78,79.29v-4.8M66.63,115.89l2.6-2.6.79-.79M97.53,84.99l2.6-2.6.79-.79M66.63,81.59l2.6,2.6.79.79M97.53,112.49l2.6,2.6.79.79"/><path class="cls-3" d="M84,105.96c-3.99,0-7.22-3.23-7.22-7.22s3.23-7.22,7.22-7.22,7.23,3.23,7.23,7.22-3.24,7.22-7.23,7.22h0ZM108.25,98.74h-4.81M64.55,98.74h-4.8M83.78,122.99v-4.8M83.78,79.29v-4.8M66.63,115.89l2.6-2.6.79-.79M97.53,84.99l2.6-2.6.79-.79M66.63,81.59l2.6,2.6.79.79M97.53,112.49l2.6,2.6.79.79"/><line class="cls-4" x1="148.24" y1="130.26" x2="124.64" y2="154.49"/><line class="cls-3" x1="138.49" y1="141.12" x2="138.49" y2="166.71"/><line class="cls-4" x1="206.91" y1="130.26" x2="183.3" y2="154.49"/><line class="cls-3" x1="197.15" y1="141.12" x2="197.15" y2="166.71"/><line class="cls-4" x1="177.58" y1="130.26" x2="153.97" y2="154.49"/><line class="cls-3" x1="167.82" y1="141.12" x2="167.82" y2="166.71"/><path class="cls-1" d="M98.93,168.14v-6.71c3.45-1.1,6.04-4.59,6.04-9.23,0-3.39-4.35-13.11-5.76-16.01l-1.32-2.7c-.13-.27-.41-.45-.71-.46-.3,0-.6.15-.76.41l-1.54,2.59c-.67,1.16-6.66,11.45-6.66,16.17,0,4.42,2.01,7.94,5.47,9.14v6.86"/><path class="cls-6" d="M98.93,168.14v-6.71c3.45-1.1,6.04-4.59,6.04-9.23,0-3.39-4.35-13.11-5.76-16.01l-1.32-2.7c-.13-.27-.41-.45-.71-.46-.3,0-.6.15-.76.41l-1.54,2.59c-.67,1.16-6.66,11.45-6.66,16.17,0,4.42,2.01,7.94,5.47,9.14v6.86"/><path class="cls-1" d="M73.58,168.28l.04-7.98c4.61-1.24,7.07-5.55,7.07-11.01,0-3.98-5.69-15.28-7.35-18.7l-1.55-3.18c-.13-.27-.39-.45-.69-.46-.31-.01-.55.15-.7.41l-1.72,3.06c-.79,1.36-7.63,13.49-7.63,19.01,0,5.2,2.64,9.33,7.25,10.69l-.03,8.1"/><path class="cls-6" d="M73.58,168.28l.04-7.98c4.61-1.24,7.07-5.55,7.07-11.01,0-3.98-5.69-15.28-7.35-18.7l-1.55-3.18c-.13-.27-.39-.45-.69-.46-.31-.01-.55.15-.7.41l-1.72,3.06c-.79,1.36-7.63,13.49-7.63,19.01,0,5.2,2.64,9.33,7.25,10.69l-.03,8.1"/><line class="cls-3" x1="206.91" y1="171.65" x2="61.53" y2="171.65"/><path class="cls-1" d="M119.35,78.82c-.71-.71-1.11-1.69-1.11-2.69s.65-2.1,1.11-2.99c.53-1,1.69-2.58,2.7-2.58,1,0,2.21,1.7,2.69,2.58.41.76,1.12,1.99,1.12,2.98s-.41,1.99-1.12,2.7c-.71.71-1.69,1.11-2.7,1.11-1,0-1.98-.4-2.69-1.11h0Z"/><path class="cls-2" d="M119.35,78.82c-.71-.71-1.11-1.69-1.11-2.69s.65-2.1,1.11-2.99c.53-1,1.69-2.58,2.7-2.58,1,0,2.21,1.7,2.69,2.58.41.76,1.12,1.99,1.12,2.98s-.41,1.99-1.12,2.7c-.71.71-1.69,1.11-2.7,1.11-1,0-1.98-.4-2.69-1.11h0Z"/><path class="cls-1" d="M119.35,105.5c-.71-.71-1.11-1.69-1.11-2.69s.65-2.1,1.11-2.99c.53-1,1.69-2.58,2.7-2.58,1,0,2.21,1.7,2.69,2.58.41.76,1.12,1.99,1.12,2.98s-.41,1.99-1.12,2.7c-.71.71-1.69,1.11-2.7,1.11-1,0-1.98-.4-2.69-1.11h0Z"/><path class="cls-2" d="M119.35,105.5c-.71-.71-1.11-1.69-1.11-2.69s.65-2.1,1.11-2.99c.53-1,1.69-2.58,2.7-2.58,1,0,2.21,1.7,2.69,2.58.41.76,1.12,1.99,1.12,2.98s-.41,1.99-1.12,2.7c-.71.71-1.69,1.11-2.7,1.11-1,0-1.98-.4-2.69-1.11h0Z"/><path class="cls-1" d="M147.01,78.82c-.71-.71-1.11-1.69-1.11-2.69s.65-2.1,1.11-2.99c.53-1,1.69-2.58,2.7-2.58,1,0,2.21,1.7,2.69,2.58.41.76,1.12,1.99,1.12,2.98s-.41,1.99-1.12,2.7c-.71.71-1.69,1.11-2.7,1.11-1,0-1.98-.4-2.69-1.11h0Z"/><path class="cls-2" d="M147.01,78.82c-.71-.71-1.11-1.69-1.11-2.69s.65-2.1,1.11-2.99c.53-1,1.69-2.58,2.7-2.58,1,0,2.21,1.7,2.69,2.58.41.76,1.12,1.99,1.12,2.98s-.41,1.99-1.12,2.7c-.71.71-1.69,1.11-2.7,1.11-1,0-1.98-.4-2.69-1.11h0Z"/><path class="cls-1" d="M132.96,92.01c-.71-.71-1.11-1.69-1.11-2.69s.65-2.1,1.11-2.99c.53-1,1.69-2.58,2.7-2.58,1,0,2.2,1.7,2.69,2.58.41.76,1.12,1.99,1.12,2.98s-.41,1.99-1.12,2.7c-.71.71-1.69,1.11-2.7,1.11-1,0-1.98-.4-2.69-1.11h0Z"/><path class="cls-2" d="M132.96,92.01c-.71-.71-1.11-1.69-1.11-2.69s.65-2.1,1.11-2.99c.53-1,1.69-2.58,2.7-2.58,1,0,2.2,1.7,2.69,2.58.41.76,1.12,1.99,1.12,2.98s-.41,1.99-1.12,2.7c-.71.71-1.69,1.11-2.7,1.11-1,0-1.98-.4-2.69-1.11h0Z"/><path class="cls-1" d="M119.35,132.18c-.71-.71-1.11-1.69-1.11-2.69s.65-2.1,1.11-2.99c.53-1,1.69-2.58,2.7-2.58,1,0,2.21,1.7,2.69,2.58.41.76,1.12,1.99,1.12,2.98s-.41,1.99-1.12,2.7c-.71.71-1.69,1.11-2.7,1.11-1,0-1.98-.4-2.69-1.11h0Z"/><path class="cls-2" d="M119.35,132.18c-.71-.71-1.11-1.69-1.11-2.69s.65-2.1,1.11-2.99c.53-1,1.69-2.58,2.7-2.58,1,0,2.21,1.7,2.69,2.58.41.76,1.12,1.99,1.12,2.98s-.41,1.99-1.12,2.7c-.71.71-1.69,1.11-2.7,1.11-1,0-1.98-.4-2.69-1.11h0Z"/><path class="cls-1" d="M146.56,105.5c-.71-.71-1.11-1.69-1.11-2.69s.65-2.1,1.11-2.99c.53-1,1.69-2.58,2.7-2.58,1,0,2.21,1.7,2.69,2.58.41.76,1.12,1.99,1.12,2.98s-.41,1.99-1.12,2.7c-.71.71-1.69,1.11-2.69,1.11-1,0-1.98-.4-2.69-1.11h0Z"/><path class="cls-2" d="M146.56,105.5c-.71-.71-1.11-1.69-1.11-2.69s.65-2.1,1.11-2.99c.53-1,1.69-2.58,2.7-2.58,1,0,2.21,1.7,2.69,2.58.41.76,1.12,1.99,1.12,2.98s-.41,1.99-1.12,2.7c-.71.71-1.69,1.11-2.69,1.11-1,0-1.98-.4-2.69-1.11h0Z"/><path class="cls-1" d="M132.96,118.69c-.71-.71-1.11-1.69-1.11-2.69s.65-2.1,1.11-2.99c.53-1,1.69-2.58,2.7-2.58,1,0,2.2,1.7,2.69,2.58.41.76,1.12,1.99,1.12,2.98s-.41,1.99-1.12,2.7c-.71.71-1.69,1.11-2.7,1.11-1,0-1.98-.4-2.69-1.11h0Z"/><path class="cls-2" d="M132.96,118.69c-.71-.71-1.11-1.69-1.11-2.69s.65-2.1,1.11-2.99c.53-1,1.69-2.58,2.7-2.58,1,0,2.2,1.7,2.69,2.58.41.76,1.12,1.99,1.12,2.98s-.41,1.99-1.12,2.7c-.71.71-1.69,1.11-2.7,1.11-1,0-1.98-.4-2.69-1.11h0Z"/><path class="cls-1" d="M173.78,78.82c-.71-.71-1.11-1.69-1.11-2.69s.65-2.1,1.11-2.99c.53-1,1.7-2.58,2.7-2.58,1,0,2.21,1.7,2.69,2.58.41.76,1.12,1.99,1.12,2.98s-.41,1.99-1.12,2.7c-.71.71-1.69,1.11-2.7,1.11-1,0-1.98-.4-2.69-1.11h0Z"/><path class="cls-2" d="M173.78,78.82c-.71-.71-1.11-1.69-1.11-2.69s.65-2.1,1.11-2.99c.53-1,1.7-2.58,2.7-2.58,1,0,2.21,1.7,2.69,2.58.41.76,1.12,1.99,1.12,2.98s-.41,1.99-1.12,2.7c-.71.71-1.69,1.11-2.7,1.11-1,0-1.98-.4-2.69-1.11h0Z"/><path class="cls-1" d="M161.06,92.01c-.71-.71-1.11-1.69-1.11-2.69s.65-2.1,1.11-2.99c.53-1,1.69-2.58,2.7-2.58,1,0,2.21,1.7,2.69,2.58.41.76,1.12,1.99,1.12,2.98,0,1.01-.41,1.99-1.12,2.7-.71.71-1.69,1.11-2.7,1.11-1,0-1.98-.4-2.69-1.11h0Z"/><path class="cls-2" d="M161.06,92.01c-.71-.71-1.11-1.69-1.11-2.69s.65-2.1,1.11-2.99c.53-1,1.69-2.58,2.7-2.58,1,0,2.21,1.7,2.69,2.58.41.76,1.12,1.99,1.12,2.98,0,1.01-.41,1.99-1.12,2.7-.71.71-1.69,1.11-2.7,1.11-1,0-1.98-.4-2.69-1.11h0Z"/><path class="cls-1" d="M200.99,105.5c-.71-.71-1.11-1.69-1.11-2.69s.65-2.1,1.11-2.99c.53-1,1.7-2.58,2.7-2.58,1,0,2.21,1.7,2.69,2.58.41.76,1.12,1.99,1.12,2.98s-.41,1.99-1.12,2.7c-.71.71-1.69,1.11-2.7,1.11-1,0-1.98-.4-2.69-1.11h0Z"/><path class="cls-2" d="M200.99,105.5c-.71-.71-1.11-1.69-1.11-2.69s.65-2.1,1.11-2.99c.53-1,1.7-2.58,2.7-2.58,1,0,2.21,1.7,2.69,2.58.41.76,1.12,1.99,1.12,2.98s-.41,1.99-1.12,2.7c-.71.71-1.69,1.11-2.7,1.11-1,0-1.98-.4-2.69-1.11h0Z"/><path class="cls-1" d="M187.66,118.69c-.71-.71-1.11-1.69-1.11-2.69s.65-2.1,1.11-2.99c.53-1,1.69-2.58,2.7-2.58,1,0,2.21,1.7,2.69,2.58.41.76,1.12,1.99,1.12,2.98s-.41,1.99-1.12,2.7c-.71.71-1.69,1.11-2.69,1.11-1,0-1.98-.4-2.69-1.11h0Z"/><path class="cls-2" d="M187.66,118.69c-.71-.71-1.11-1.69-1.11-2.69s.65-2.1,1.11-2.99c.53-1,1.69-2.58,2.7-2.58,1,0,2.21,1.7,2.69,2.58.41.76,1.12,1.99,1.12,2.98s-.41,1.99-1.12,2.7c-.71.71-1.69,1.11-2.69,1.11-1,0-1.98-.4-2.69-1.11h0Z"/><path class="cls-1" d="M173.78,105.5c-.71-.71-1.11-1.69-1.11-2.69s.65-2.1,1.11-2.99c.53-1,1.7-2.58,2.7-2.58,1,0,2.21,1.7,2.69,2.58.41.76,1.12,1.99,1.12,2.98s-.41,1.99-1.12,2.7c-.71.71-1.69,1.11-2.7,1.11-1,0-1.98-.4-2.69-1.11h0Z"/><path class="cls-2" d="M173.78,105.5c-.71-.71-1.11-1.69-1.11-2.69s.65-2.1,1.11-2.99c.53-1,1.7-2.58,2.7-2.58,1,0,2.21,1.7,2.69,2.58.41.76,1.12,1.99,1.12,2.98s-.41,1.99-1.12,2.7c-.71.71-1.69,1.11-2.7,1.11-1,0-1.98-.4-2.69-1.11h0Z"/><path class="cls-1" d="M160.31,118.69c-.71-.71-1.11-1.69-1.11-2.69s.65-2.1,1.11-2.99c.53-1,1.69-2.58,2.7-2.58,1,0,2.21,1.7,2.69,2.58.41.76,1.12,1.99,1.12,2.98s-.41,1.99-1.12,2.7c-.71.71-1.69,1.11-2.7,1.11-1,0-1.98-.4-2.69-1.11h0Z"/><path class="cls-2" d="M160.31,118.69c-.71-.71-1.11-1.69-1.11-2.69s.65-2.1,1.11-2.99c.53-1,1.69-2.58,2.7-2.58,1,0,2.21,1.7,2.69,2.58.41.76,1.12,1.99,1.12,2.98s-.41,1.99-1.12,2.7c-.71.71-1.69,1.11-2.7,1.11-1,0-1.98-.4-2.69-1.11h0Z"/><path class="cls-1" d="M200.99,78.82c-.71-.71-1.11-1.69-1.11-2.69s.65-2.1,1.11-2.99c.53-1,1.7-2.58,2.7-2.58,1,0,2.21,1.7,2.69,2.58.41.76,1.12,1.99,1.12,2.98s-.41,1.99-1.12,2.7c-.71.71-1.69,1.11-2.7,1.11-1,0-1.98-.4-2.69-1.11h0Z"/><path class="cls-2" d="M200.99,78.82c-.71-.71-1.11-1.69-1.11-2.69s.65-2.1,1.11-2.99c.53-1,1.7-2.58,2.7-2.58,1,0,2.21,1.7,2.69,2.58.41.76,1.12,1.99,1.12,2.98s-.41,1.99-1.12,2.7c-.71.71-1.69,1.11-2.7,1.11-1,0-1.98-.4-2.69-1.11h0Z"/><path class="cls-1" d="M187.66,92.01c-.71-.71-1.11-1.69-1.11-2.69s.65-2.1,1.11-2.99c.53-1,1.69-2.58,2.7-2.58,1,0,2.21,1.7,2.69,2.58.41.76,1.12,1.99,1.12,2.98s-.41,1.99-1.12,2.7c-.71.71-1.69,1.11-2.69,1.11-1,0-1.98-.4-2.69-1.11h0Z"/><path class="cls-2" d="M187.66,92.01c-.71-.71-1.11-1.69-1.11-2.69s.65-2.1,1.11-2.99c.53-1,1.69-2.58,2.7-2.58,1,0,2.21,1.7,2.69,2.58.41.76,1.12,1.99,1.12,2.98s-.41,1.99-1.12,2.7c-.71.71-1.69,1.11-2.69,1.11-1,0-1.98-.4-2.69-1.11h0Z"/><path class="cls-3" d="M206.73,195.54c-1.42-1.36-2.58-2.98-5.35-2.98-4.77,0-4.77,4.81-9.55,4.81s-4.77-4.81-9.54-4.81-4.77,4.81-9.55,4.81-4.78-4.81-9.55-4.81-4.78,4.81-9.55,4.81-4.79-4.81-9.57-4.81c-2.82,0-3.98,1.68-5.44,3.05M206.73,218.02c-1.42-1.36-2.58-2.98-5.35-2.98-4.77,0-4.77,4.82-9.55,4.82s-4.77-4.82-9.54-4.82-4.77,4.82-9.55,4.82-4.78-4.82-9.55-4.82-4.78,4.82-9.55,4.82-4.79-4.82-9.57-4.82c-2.82,0-3.98,1.68-5.44,3.05"/><path d="M.97,130.38c-.3,2.12.22,3.99,1.47,5.33l1.92-1.58c-.84-.95-1.19-2.05-1.02-3.26.32-2.28,2.15-3.67,4.44-3.35,2.3.32,3.67,2.16,3.35,4.44-.17,1.22-.8,2.18-1.86,2.86l1.42,2.04c1.55-.95,2.56-2.6,2.86-4.71.53-3.79-1.7-6.98-5.37-7.49-3.67-.51-6.69,1.94-7.22,5.71h0ZM.34,138.83l-.34,9.01,2.32.09.23-6.16,9.97.38.11-2.84-12.29-.47H.34ZM.13,150.33l.11,2.84,12.29-.47-.11-2.84-12.29.47H.13ZM1.9,170.76l12.21-1.43-.27-2.32-8.11-3.64,7.07-5.44-.27-2.34-12.22,1.4.3,2.65,7.17-.82-5.47,4.25.15,1.27,6.45,2.91-7.33.86.3,2.65h0ZM5.23,184.53l.71,2.9,10.64-8.26-.67-2.73-13.25-2.41.69,2.83,2.82.43,1.35,5.55-2.3,1.68h0ZM8.5,177.68l5.04.78-4.11,3.01-.92-3.79h0ZM7.68,191.77l.95,2.68,9.41-3.32,1.31,3.71,2.19-.77-3.56-10.11-2.19.77,1.31,3.71-9.41,3.32h0ZM14.47,202.42l2.58-1.21,2.42,5.17,2-.94-2.42-5.17,2.42-1.13,2.74,5.86,2.07-.97-3.93-8.42-11.14,5.2,4.03,8.63,2.07-.96-2.83-6.07h0ZM16.56,218.43l1.33,2.13,13.95-8.71-1.33-2.13-13.95,8.71h0ZM25.45,225.7l5.48,7.15,1.84-1.41-3.75-4.89,7.92-6.07-1.73-2.26-9.76,7.48h0ZM39.22,241.87l2.03,2.19,5.25-12.4-1.92-2.06-12.73,4.37,1.99,2.13,2.67-1,3.89,4.18-1.19,2.59h0ZM38.72,234.3l4.78-1.78-2.12,4.64-2.66-2.85h0ZM58.1,242.2l-4.82,5.7.15-9.65-1.8-1.52-7.94,9.39,2.14,1.81,4.82-5.7-.14,9.66,1.78,1.51,7.94-9.39-2.14-1.81h0ZM56.25,256.22l4.67,3.07c3.36,2.21,7,1.71,9.04-1.41,2.05-3.11,1.08-6.65-2.28-8.86l-4.67-3.07-6.76,10.27h0ZM59.9,255.84l4.19-6.37,2.17,1.43c2.04,1.34,2.57,3.44,1.28,5.41-1.29,1.97-3.43,2.31-5.47.96l-2.17-1.43h0ZM72.37,269.77l2.25,1.12,7.32-14.72-2.25-1.12-7.32,14.72h0ZM87.78,270.28l.95-2.69,5.38,1.9.74-2.09-5.39-1.9.89-2.52,6.1,2.15.76-2.15-8.77-3.09-4.09,11.6,8.98,3.16.76-2.15-6.31-2.22h0ZM108.02,265.8l-1.77,7.25-4.17-8.7-2.29-.56-2.91,11.95,2.73.67,1.77-7.25,4.19,8.71,2.27.55,2.92-11.95-2.73-.67h0ZM115.29,277.19l.4-2.82,5.65.79.31-2.19-5.65-.79.37-2.64,6.4.9.32-2.26-9.2-1.29-1.71,12.18,9.43,1.32.32-2.26-6.63-.93h0ZM136.83,280.77l-2.71-3.99c1.61-.66,2.56-2.01,2.58-3.85.03-2.76-2-4.49-5.28-4.53l-5.32-.07-.16,12.3,2.85.04.04-3.43,2.48.03h.14s2.33,3.46,2.33,3.46l3.06.04h0ZM133.82,272.9c-.02,1.33-.91,2.13-2.65,2.11l-2.32-.03.05-4.29,2.32.03c1.74.02,2.61.82,2.59,2.18h0ZM148.37,277.17c-.68.45-1.39.65-2.16.72-2.35.21-4.12-1.27-4.32-3.57-.21-2.33,1.28-4.07,3.66-4.28,1.24-.11,2.31.24,3.29,1.1l1.67-1.84c-1.31-1.28-3.16-1.85-5.32-1.66-3.9.35-6.5,3.24-6.18,6.93.33,3.69,3.4,6.08,7.25,5.74,1.75-.15,3.56-.86,4.81-2l-.44-4.97-2.59.23.32,3.59h0ZM163.43,264.89l-2.74.53-2.2,5.98-4.26-4.75-2.97.57,6.16,6.87.83,4.31,2.8-.54-.82-4.28,3.2-8.7h0ZM183.14,269.64l-1.8-.78c.24-.92.27-1.94.13-3.01l-2.3.08c.11.73.12,1.41.06,2.01l-2.82-1.23c1.27-1.42,1.66-2.54,1.24-3.73-.58-1.64-2.27-2.2-4.27-1.49-2.19.77-3.2,2.43-2.61,4.12.29.83.9,1.45,2.06,2.03-1.42,1.62-1.85,2.9-1.33,4.36.65,1.86,2.99,2.52,5.54,1.62,1.49-.53,2.65-1.46,3.42-2.66l1.85.8.83-2.14h0ZM174,263.25c.75-.26,1.28,0,1.48.56.19.53-.03,1.09-.95,2.1-.96-.44-1.26-.71-1.41-1.16-.22-.61.09-1.22.89-1.5h0ZM176.51,271.55c-1.28.45-2.28.13-2.58-.71-.25-.71-.06-1.38.79-2.36l3.72,1.63c-.47.67-1.14,1.16-1.93,1.44h0ZM199.8,248.96l1.75,9-6.71-6.23-2.3,1.29,1.69,8.96-6.64-6.19-2.58,1.44,9.53,8.76,2.65-1.48-1.62-8.63,6.42,5.95,2.67-1.49-2.49-12.7-2.38,1.33h0ZM218.27,250.33l2.37-1.82-11.85-6.41-2.23,1.71,3.13,13.09,2.31-1.77-.74-2.75,4.53-3.47,2.47,1.43h0ZM210.69,250.11l-1.32-4.92,4.41,2.55-3.1,2.37h0ZM223.9,245.3l2.08-1.94-6.8-7.3,2.88-2.68-1.58-1.7-7.84,7.3,1.58,1.7,2.88-2.68,6.8,7.3h0ZM230.95,234.9l-2.13-1.89,3.79-4.27-1.65-1.47-3.79,4.27-2-1.77,4.29-4.84-1.71-1.51-6.17,6.95,9.2,8.16,6.32-7.12-1.71-1.51-4.44,5.01h0ZM245.89,219.16h-4.82c.35-1.69-.23-3.23-1.75-4.28-2.27-1.57-4.84-.85-6.71,1.85l-3.03,4.37,10.11,7,1.62-2.34-2.82-1.95,1.41-2.04.08-.11h4.17s1.74-2.51,1.74-2.51h0ZM237.68,217.25c1.1.76,1.26,1.94.27,3.37l-1.32,1.91-3.52-2.44,1.32-1.91c.99-1.43,2.14-1.7,3.25-.93h0ZM252.04,208.74c1.64-3.11.88-5.43-.94-6.39-3.99-2.11-5.94,4.95-7.95,3.89-.69-.36-.94-1.23-.15-2.73.51-.96,1.34-1.86,2.45-2.56l-1.5-1.79c-1.17.67-2.23,1.9-2.95,3.27-1.63,3.09-.88,5.39.97,6.37,4.04,2.13,5.98-4.93,8.01-3.86.67.35.84,1.22.06,2.71-.69,1.31-1.88,2.43-3.03,2.99l1.44,1.85c1.25-.57,2.68-2.04,3.59-3.76h0ZM248.13,186.63l-1.06,2.59,3.82,5.11-6.3.98-1.14,2.8,9.12-1.42,4.07,1.66,1.08-2.64-4.03-1.65-5.54-7.43h0ZM261.5,185.19c1-3.37-.2-5.5-2.17-6.09-4.33-1.29-4.87,6.01-7.04,5.37-.74-.22-1.16-1.02-.68-2.64.31-1.04.95-2.08,1.9-2.99l-1.82-1.46c-1.02.89-1.82,2.3-2.26,3.78-1,3.35.19,5.46,2.19,6.06,4.38,1.3,4.9-6,7.11-5.35.72.22,1.07,1.03.59,2.65-.42,1.42-1.37,2.75-2.39,3.53l1.78,1.54c1.12-.8,2.24-2.52,2.79-4.39h0ZM263.97,174.48l.54-2.8-9.8-1.88.74-3.87-2.28-.44-2.02,10.53,2.28.44.74-3.87,9.8,1.88h0ZM263.58,162.35l-2.83-.32.65-5.67-2.2-.25-.65,5.67-2.65-.3.73-6.42-2.27-.26-1.06,9.23,12.22,1.4,1.08-9.46-2.27-.26-.76,6.65h0ZM266.6,137.75l-12.3.19.03,2.34,7.7,4.44-7.58,4.7.03,2.35,12.3-.16-.03-2.67-7.22.09,5.88-3.68-.02-1.28-6.12-3.54,7.38-.11-.03-2.67h0ZM265.63,128.76c-.49-3.48-2.46-4.92-4.5-4.64-4.47.63-1.93,7.49-4.18,7.81-.76.11-1.48-.45-1.72-2.12-.15-1.08,0-2.29.49-3.51l-2.26-.57c-.55,1.23-.7,2.85-.49,4.38.48,3.46,2.44,4.89,4.51,4.6,4.52-.63,1.97-7.49,4.25-7.81.75-.1,1.4.5,1.63,2.17.2,1.46-.1,3.07-.71,4.2l2.26.66c.69-1.2.99-3.22.72-5.16h0Z"/><path d="M80.36,40.08c4.34-2.29,7.01-5.72,7.79-9.79l-6.27-1.6c-.54,2.57-1.84,4.5-4.1,5.69-3.87,2.04-7.99.77-10.12-3.27-2.13-4.04-.86-8.15,3.01-10.2,2.26-1.19,4.59-1.17,7.01-.17l2.22-6.08c-3.8-1.65-8.14-1.39-12.48.9-7.47,3.94-10.28,11.92-6.5,19.09,3.78,7.17,11.95,9.36,19.43,5.42h0ZM94.03,33.52l19.55-5.29-1.56-5.77-12.27,3.32-5.4-19.95-7.27,1.97,6.96,25.72h0ZM123.84,21.74l-.31-4.86,11.82-.75-.36-5.62-11.82.75-.28-4.48,13.41-.85-.37-5.81-20.86,1.32,1.69,26.59,21.35-1.35-.37-5.81-13.9.88h0ZM182.53,7.8l-9.12,15.58-1.59-17.92-6.77-1.47-9.12,15.43-1.62-17.77-7.59-1.65,2.78,27.87,7.89,1.72,8.66-14.71,1.53,16.93,7.89,1.72,14.11-24.2-7.03-1.53h0ZM191.13,42.34c5.85,3.27,10.35,2.39,12.21-.94,3.99-7.14-8.11-10.38-6.72-12.87.37-.66,1.47-.84,3.6.35,1.6.89,3.2,2.23,4.44,4.23l4.29-3.23c-1.24-2-3.73-4.09-6.26-5.5-5.65-3.16-10.22-2.31-12.11,1.08-4.03,7.21,8.14,10.4,6.79,12.82-.43.76-1.39.84-3.51-.35-2.19-1.23-4.27-3.21-5.35-5.17l-4.31,3.26c1.15,2.08,3.88,4.61,6.93,6.32h0Z"/></svg>
