<?xml version="1.0" encoding="UTF-8"?><svg id="Layer_1" xmlns="http://www.w3.org/2000/svg" xmlns:xlink="http://www.w3.org/1999/xlink" viewBox="0 0 3510.21 1183.62"><defs><style>.cls-1{fill:none;}.cls-2{fill:#fdde00;}.cls-3{clip-path:url(#clippath);}.cls-4{fill:#0c2444;}</style><clipPath id="clippath"><rect class="cls-1" width="3510.21" height="1183.6"/></clipPath></defs><g class="cls-3"><path class="cls-2" d="M475.55,684.52l-83.57-73.58c-5.08-4.48-13.08-1.33-13.84,5.4l-29.36,180.58c-1.62,13.33-21.3,12.32-21.52-1.11l-5.27-260.5c-.48-31.17,39.36-44.5,57.74-19.33l112.08,153.34c7.78,10.67-6.09,23.71-16.25,15.2"/><path class="cls-2" d="M256.51,652.43l-7.08-111.13c-.44-6.73-8.29-10.22-13.59-5.97l-148.49,106.9c-10.54,8.32-23.74-6.35-14.38-15.97l180.45-187.94c21.68-22.38,59.29-3.62,54.5,27.17l-29.2,187.65c-2.03,13.08-21.05,12.44-22.22-.73"/><path class="cls-2" d="M124.31,474.86l73.54-83.57c4.51-5.08,1.36-13.08-5.36-13.84l-180.58-29.36c-13.33-1.62-12.32-21.3,1.11-21.52l260.5-5.27c31.17-.48,44.5,39.36,19.33,57.74l-153.34,112.08c-10.67,7.78-23.71-6.13-15.2-16.25"/><path class="cls-2" d="M156.4,255.81l111.13-7.08c6.73-.44,10.22-8.28,5.97-13.59l-106.9-148.45c-8.32-10.57,6.35-23.77,15.97-14.41l187.94,180.45c22.38,21.68,3.62,59.29-27.17,54.5l-187.66-29.2c-13.08-2.03-12.44-21.04.73-22.22"/><path class="cls-2" d="M333.98,123.62l83.57,73.58c5.08,4.48,13.08,1.33,13.84-5.4l29.36-180.58c1.62-13.33,21.3-12.32,21.52,1.11l5.27,260.5c.48,31.17-39.36,44.5-57.74,19.33l-112.08-153.34c-7.78-10.67,6.09-23.71,16.25-15.2"/><path class="cls-2" d="M553.02,155.7l7.08,111.13c.44,6.73,8.29,10.22,13.59,5.97l148.49-106.91c10.54-8.32,23.74,6.35,14.38,15.97l-180.45,187.94c-21.68,22.38-59.29,3.62-54.5-27.17l29.2-187.66c2.03-13.08,21.05-12.44,22.22.73"/><path class="cls-2" d="M685.22,333.27l-73.58,83.57c-4.48,5.08-1.33,13.08,5.4,13.84l180.58,29.36c13.33,1.62,12.32,21.3-1.11,21.52l-260.5,5.27c-31.17.48-44.5-39.36-19.33-57.74l153.34-112.08c10.67-7.78,23.71,6.09,15.2,16.25"/><path class="cls-2" d="M653.13,552.32l-111.13,7.08c-6.73.44-10.22,8.28-5.97,13.59l106.9,148.49c8.32,10.54-6.35,23.74-15.97,14.38l-187.94-180.45c-22.38-21.68-3.62-59.29,27.17-54.5l187.66,29.2c13.08,2.03,12.44,21.04-.73,22.22"/><path class="cls-4" d="M3200.63,402.19v-186.29h104.84c38.15,0,66.25,7.9,84.27,23.77,18.03,15.87,27.01,39.11,27.01,69.77s-8.98,53.1-27.01,68.94c-18.03,15.87-46.12,23.81-84.27,23.81h-104.84ZM3114.33,142.48v532.3h86.3v-198.38h118.55c38.15,0,71.1-6.73,98.81-20.19,27.68-13.43,49.29-32.66,64.91-57.67,15.58-24.98,23.39-54.69,23.39-89.1s-7.81-64.78-23.39-89.54c-15.62-24.73-37.23-43.8-64.91-57.26-27.71-13.43-60.66-20.16-98.81-20.16h-204.86ZM2782.85,216.69l87.1,248.41h-174.99l87.89-248.41ZM2835.29,142.48h-103.25l-200.8,532.3h88.72l50.79-139.5h223.43l50.82,139.5h91.13l-200.83-532.3ZM2326.35,142.48l-106.46,308.08-37.9,126.65h-1.59l-37.14-126.65-107.25-308.08h-128.24v532.3h79.86v-308.08l-6.47-146.77h.83l162.1,454.85h71.8l162.1-454.85h.79l-6.44,146.77v308.08h79.83V142.48h-125.82ZM1476.28,156.57c-31.17,14.82-54.98,34.44-71.35,58.88-16.41,24.47-24.6,51.77-24.6,81.89,0,23.11,5.08,43.93,15.3,62.5,10.22,18.54,25.84,34.28,46.79,47.17,20.98,12.92,47.58,22.85,79.83,29.84l116.97,26.63c28.5,6.44,47.99,15.59,58.47,27.42,10.51,11.84,15.74,25.55,15.74,41.14s-4.73,29.96-14.13,41.55c-9.43,11.55-23.11,20.28-41.14,26.19-18.03,5.94-39.39,8.89-64.12,8.89-27.96,0-53.36-4.03-76.21-12.09-22.85-8.09-42.88-19.49-60.09-34.28-17.24-14.79-31.46-31.58-42.76-50.44l-59.67,59.71c14.51,21.52,33.08,40.6,55.64,57.26,22.57,16.66,48.94,29.84,79.04,39.52,30.12,9.68,63.99,14.51,101.64,14.51,42.47,0,79.45-6.44,110.9-19.36,31.46-12.89,56.05-31.46,73.8-55.64,17.74-24.19,26.6-52.69,26.6-85.48,0-35.49-10.76-64.78-32.25-87.92-21.52-23.11-58.06-40.31-109.7-51.61l-108.08-24.19c-31.71-6.98-53.36-16.66-64.91-29.04-11.59-12.35-17.33-26.88-17.33-43.55,0-14.54,3.87-27.55,11.68-39.14,7.78-11.52,20.03-20.82,36.69-27.81,16.66-6.98,37.9-10.47,63.7-10.47,34.95,0,65.2,6.86,90.75,20.54,25.52,13.71,48.53,36.19,68.97,67.36l58.06-55.64c-24.19-34.95-53.77-61.42-88.72-79.45-34.95-18-76.37-27.01-124.2-27.01-43.04,0-80.12,7.4-111.32,22.16M1306.12,674.78v-74.21h-310.53v-158.07h233.9v-72.59h-233.9v-153.22h299.23v-74.21h-385.5v532.3h396.8Z"/><path class="cls-4" d="M3129.06,876.85h64.72v-12.32h-64.72v12.32ZM3146.93,843.07v88.65c.13,5.75,1.37,10.35,3.68,13.87,2.32,3.52,5.46,6.06,9.39,7.68,3.91,1.59,8.16,2.41,12.67,2.41,4.89,0,9.2-.73,12.98-2.13,3.74-1.46,6.98-3.43,9.74-5.94l-5.02-11.97c-2.03,2.03-4.29,3.65-6.79,4.82s-5.49,1.78-8.95,1.78c-3.94,0-7.14-1.05-9.65-3.21-2.48-2.13-3.74-5.43-3.74-9.81v-90.11l-14.32,3.94ZM3048.62,953.88v-47.55c0-7.62,1.4-13.68,4.19-18.22,2.79-4.54,6.35-7.81,10.63-9.81,4.29-2.06,8.6-3.08,12.89-3.08,6.19,0,11.43,1.97,15.65,5.84,4.22,3.87,6.32,10.76,6.32,20.63v52.18h14.31v-57.2c0-7.74-1.59-14.09-4.73-19.11-3.14-5.02-7.36-8.73-12.6-11.17-5.24-2.44-11.11-3.65-17.52-3.65-4.54,0-8.92.63-13.14,1.97-4.25,1.3-7.94,3.4-11.17,6.35-3.21,2.89-5.78,6.76-7.68,11.52l2.32,1.97-1.24-20.03h-12.51v89.38h14.28v-.03ZM2987.94,953.28c4.7-1.62,8.82-3.9,12.32-6.89,3.52-2.98,6.41-6.51,8.67-10.54l-11.24-6.6c-2.51,4.29-5.84,7.65-9.93,10.16-4.13,2.51-9.43,3.75-16,3.75-6.09,0-11.3-1.3-15.65-4-4.35-2.67-7.71-6.6-10.09-11.71-2.38-5.11-3.59-11.2-3.59-18.25s1.17-13.24,3.49-18.28c2.35-5.08,5.62-8.95,9.84-11.65,4.22-2.67,9.27-4,15.11-4,7.62,0,13.81,2.32,18.51,6.95,4.7,4.67,7.05,11.27,7.05,19.84l7.33-1.4h-65.96v12.66h72.24c.22-1.3.41-2.79.51-4.48.13-1.65.19-3.49.19-5.52,0-7.62-1.56-14.51-4.67-20.63-3.08-6.16-7.59-11.01-13.49-14.6-5.9-3.56-13.01-5.36-21.36-5.36s-15.55,1.87-21.96,5.55c-6.44,3.68-11.52,9.05-15.2,16-3.71,6.98-5.55,15.3-5.55,24.95s1.84,17.97,5.55,24.92c3.68,6.98,8.86,12.32,15.46,16,6.6,3.71,14.16,5.55,22.6,5.55,5.84,0,11.11-.79,15.84-2.41M2782.25,953.88v-47.71c0-7.4,1.36-13.33,4.12-17.87,2.73-4.54,6.16-7.84,10.25-9.94,4.13-2.06,8.16-3.11,12.09-3.11,5.97,0,10.95,1.78,15.01,5.36,4.06,3.56,6.06,9.43,6.06,17.52v55.77h14.28v-48.98c0-6.44,1.24-11.87,3.68-16.28,2.44-4.41,5.68-7.74,9.74-10,4.06-2.29,8.41-3.4,13.08-3.4,5.94,0,10.92,1.78,14.98,5.36,4.06,3.56,6.09,9.4,6.09,17.52v55.77h14.28v-57.2c0-7.87-1.65-14.32-4.98-19.33-3.37-5.02-7.62-8.7-12.79-11.08-5.17-2.38-10.63-3.59-16.35-3.59-3.68,0-7.59.63-11.71,1.9-4.09,1.24-7.9,3.14-11.36,5.71-3.46,2.54-6.13,5.87-8.03,9.9-2.98-5.94-7.27-10.35-12.89-13.24-5.59-2.86-11.55-4.29-17.87-4.29-5.49,0-10.82,1.27-16,3.78-5.17,2.48-9.36,6.48-12.6,11.97l-.89-13.93h-12.51v89.35h14.28ZM2721.56,953.28c4.7-1.62,8.82-3.9,12.35-6.89,3.52-2.98,6.41-6.51,8.67-10.54l-11.27-6.6c-2.51,4.29-5.81,7.65-9.93,10.16-4.1,2.51-9.43,3.75-15.97,3.75-6.09,0-11.3-1.3-15.65-4-4.35-2.67-7.71-6.6-10.09-11.71-2.38-5.11-3.59-11.2-3.59-18.25s1.14-13.24,3.49-18.28c2.32-5.08,5.59-8.95,9.84-11.65,4.22-2.67,9.27-4,15.11-4,7.62,0,13.78,2.32,18.47,6.95,4.73,4.67,7.08,11.27,7.08,19.84l7.33-1.4h-65.96v12.66h72.21c.22-1.3.41-2.79.54-4.48.13-1.65.16-3.49.16-5.52,0-7.62-1.52-14.51-4.63-20.63-3.11-6.16-7.59-11.01-13.49-14.6-5.91-3.56-13.02-5.36-21.36-5.36s-15.55,1.87-22,5.55c-6.44,3.68-11.52,9.05-15.2,16-3.68,6.98-5.55,15.3-5.55,24.95s1.87,17.97,5.55,24.92c3.68,6.98,8.86,12.32,15.49,16,6.6,3.71,14.13,5.55,22.6,5.55,5.84,0,11.11-.79,15.81-2.41M2622.78,879.45c4.19,3.4,6.25,7.9,6.25,13.49s-2.06,9.97-6.25,13.39c-4.16,3.46-9.33,5.21-15.52,5.21s-11.4-1.75-15.55-5.21c-4.19-3.43-6.25-7.9-6.25-13.39s2.06-10.09,6.25-13.49c4.16-3.4,9.33-5.11,15.55-5.11s11.36,1.71,15.52,5.11M2588.31,866.59c-5.49,2.54-9.81,6.09-12.98,10.63-3.14,4.51-4.73,9.74-4.73,15.71,0,8.82,3.14,16.06,9.49,21.74,6.32,5.65,15.36,8.47,27.17,8.47,7.14,0,13.49-1.27,19.01-3.84,5.55-2.57,9.87-6.13,12.98-10.73,3.08-4.57,4.63-9.81,4.63-15.65s-1.56-11.2-4.63-15.71c-3.11-4.54-7.43-8.09-12.98-10.63-5.52-2.57-11.87-3.87-19.01-3.87s-13.49,1.3-18.95,3.87M2587.49,976.42c-5.05-2.6-7.58-6.13-7.58-10.54,0-3.46,1.3-6.16,3.93-8.13,2.6-1.97,5.84-2.95,9.65-2.95h27.52c6.66,0,11.3.95,13.87,2.86,2.54,1.9,3.84,4.48,3.84,7.68,0,2.63-1.08,5.08-3.24,7.33-2.13,2.25-5.46,4.13-9.9,5.52-4.48,1.46-10.16,2.16-17.08,2.16-8.95,0-15.93-1.3-21.01-3.94M2598.85,942.46c-4.41,0-7.84-.79-10.29-2.41-2.44-1.59-3.65-4.06-3.65-7.43,0-2.73,1.21-5.27,3.65-7.59,2.44-2.32,6.6-3.78,12.41-4.38h1.81l-9.49-4.82c-7.14.83-12.54,3.02-16.19,6.54-3.62,3.52-5.46,7.71-5.46,12.6s1.43,8.6,4.22,11.17c2.79,2.57,6.22,4.38,10.28,5.46l1.24-2.7c-7.49.48-12.82,2.6-16,6.35-3.14,3.75-4.73,8-4.73,12.79,0,6.67,3.49,12.38,10.44,17.14,6.98,4.76,17.49,7.14,31.58,7.14,8.09,0,15.39-1.14,21.87-3.49,6.51-2.29,11.68-5.62,15.55-9.9,3.87-4.29,5.84-9.36,5.84-15.2,0-6.41-2.38-11.59-7.17-15.46-4.76-3.87-11.36-5.81-19.84-5.81h-26.09ZM2651.67,848.06h-.45c-4.41,0-8.47.95-12.16,2.79-3.68,1.84-6.6,4.51-8.76,7.94-2.16,3.46-3.2,7.52-3.2,12.19l8.76,4.44c0-5.11,1.55-8.82,4.73-11.17,3.14-2.32,7.65-3.49,13.49-3.49h1.27l-3.24-12.7h-.44ZM2531.46,920.84c0,3.81-.73,7.14-2.16,9.9-1.43,2.79-3.4,5.14-5.9,6.98-2.48,1.87-5.33,3.24-8.48,4.13-3.14.89-6.47,1.33-9.93,1.33-5.36,0-9.49-1.17-12.41-3.49-2.92-2.32-4.38-5.33-4.38-9.05s1.43-6.76,4.29-8.92c2.86-2.16,7.2-3.81,13.05-5.02l28.79-5.9v-11.78l-35.39,6.98c-8,1.52-14.22,4.48-18.7,8.82-4.48,4.35-6.7,9.87-6.7,16.54,0,5.36,1.33,9.87,4.03,13.49,2.67,3.65,6.28,6.35,10.79,8.13,4.54,1.81,9.43,2.7,14.7,2.7,4.16,0,8.38-.7,12.66-2.06,4.29-1.36,8.16-3.49,11.62-6.41,3.46-2.95,5.9-6.73,7.33-11.36l-3.59-.54v1.81c0,4.03.79,7.4,2.35,10.09,1.52,2.67,3.68,4.67,6.44,5.97,2.73,1.3,5.81,1.97,9.27,1.97,3.84,0,6.92-.57,9.3-1.78l.73-11.27c-2.16.6-4.38.89-6.63.89-4.51,0-6.79-2.13-6.79-6.41v-43.26c0-7.05-1.49-12.79-4.57-17.27-3.01-4.48-7.14-7.81-12.41-10.03-5.24-2.19-11.08-3.27-17.52-3.27-9.52,0-17.52,2.03-23.93,6.16-6.44,4.09-10.85,9.52-13.24,16.19l11.62,7.14c2.03-5.97,5.17-10.28,9.49-12.98,4.29-2.67,9.52-4,15.71-4,6.57,0,11.62,1.81,15.2,5.46,3.56,3.62,5.36,8.76,5.36,15.46v24.66ZM2386.47,953.88v-47.55c0-7.62,1.4-13.68,4.19-18.22,2.82-4.54,6.35-7.81,10.63-9.81,4.32-2.06,8.6-3.08,12.89-3.08,6.19,0,11.43,1.97,15.65,5.84,4.22,3.87,6.35,10.76,6.35,20.63v52.18h14.28v-57.2c0-7.74-1.56-14.09-4.7-19.11-3.18-5.02-7.36-8.73-12.63-11.17-5.24-2.44-11.08-3.65-17.52-3.65-4.51,0-8.89.63-13.14,1.97-4.22,1.3-7.94,3.4-11.17,6.35-3.21,2.89-5.78,6.76-7.68,11.52l2.32,1.97-1.24-20.03h-12.51v89.38h14.31l-.03-.03ZM2326.76,920.84c0,3.81-.73,7.14-2.13,9.9-1.43,2.79-3.4,5.14-5.9,6.98-2.51,1.87-5.33,3.24-8.51,4.13-3.14.89-6.44,1.33-9.9,1.33-5.36,0-9.52-1.17-12.44-3.49-2.92-2.32-4.35-5.33-4.35-9.05s1.4-6.76,4.29-8.92c2.86-2.16,7.2-3.81,13.05-5.02l28.76-5.9v-11.78l-35.36,6.98c-8,1.52-14.22,4.48-18.7,8.82-4.48,4.35-6.73,9.87-6.73,16.54,0,5.36,1.37,9.87,4.06,13.49,2.67,3.65,6.25,6.35,10.79,8.13,4.51,1.81,9.4,2.7,14.66,2.7,4.16,0,8.41-.7,12.7-2.06,4.29-1.36,8.16-3.49,11.62-6.41,3.46-2.95,5.9-6.73,7.33-11.36l-3.59-.54v1.81c0,4.03.79,7.4,2.32,10.09,1.56,2.67,3.71,4.67,6.44,5.97,2.73,1.3,5.84,1.97,9.3,1.97,3.81,0,6.89-.57,9.27-1.78l.73-11.27c-2.16.6-4.35.89-6.6.89-4.54,0-6.79-2.13-6.79-6.41v-43.26c0-7.05-1.52-12.79-4.57-17.27-3.01-4.48-7.17-7.81-12.41-10.03-5.24-2.19-11.08-3.27-17.52-3.27-9.55,0-17.52,2.03-23.93,6.16-6.44,4.09-10.85,9.52-13.24,16.19l11.62,7.14c2.03-5.97,5.17-10.28,9.46-12.98,4.29-2.67,9.55-4,15.71-4,6.57,0,11.65,1.81,15.2,5.46,3.59,3.62,5.36,8.76,5.36,15.46v24.66ZM2221.29,835.93l-25.74,71.86-9.11,29.3h-.35l-8.95-29.49-25.9-71.67h-22v117.98h13.58v-74.18l-1.62-31.11h.19l38.79,105.29h12.16l38.79-105.29h.19l-1.62,31.11v74.18h13.58v-117.98h-22ZM2018.2,953.91v-48.28c0-6.67,1.24-12.19,3.75-16.54,2.51-4.35,5.65-7.59,9.39-9.74,3.75-2.13,7.46-3.21,11.17-3.21,2.86,0,5.05.13,6.6.35,1.56.25,2.98.6,4.29,1.08l2.51-13.05c-1.3-.73-2.89-1.21-4.73-1.43-1.84-.25-3.56-.38-5.11-.38-6.89,0-12.76,1.4-17.58,4.13-4.83,2.73-8.51,6.86-11.02,12.35l-1.97-14.66h-11.62v89.35h14.31v.03M1952.79,879.19c4.29,2.73,7.59,6.63,9.9,11.71,2.32,5.05,3.49,11.14,3.49,18.31s-1.17,13.11-3.49,18.25c-2.32,5.08-5.62,9.05-9.9,11.78-4.32,2.73-9.49,4.13-15.55,4.13s-11.27-1.4-15.59-4.13c-4.29-2.73-7.59-6.7-9.9-11.78-2.32-5.14-3.49-11.24-3.49-18.25s1.17-13.27,3.49-18.31c2.32-5.08,5.62-8.98,9.9-11.71,4.32-2.76,9.49-4.13,15.59-4.13s11.24,1.36,15.55,4.13M1914.89,868.28c-6.57,3.71-11.71,9.05-15.39,16-3.68,6.98-5.55,15.3-5.55,24.95s1.87,17.97,5.55,24.92c3.68,6.98,8.82,12.32,15.39,16,6.54,3.71,14,5.55,22.35,5.55s15.93-1.84,22.41-5.55c6.51-3.68,11.62-9.01,15.3-16,3.68-6.95,5.55-15.27,5.55-24.92s-1.87-17.97-5.55-24.95c-3.68-6.95-8.79-12.32-15.3-16-6.48-3.68-13.97-5.55-22.41-5.55s-15.81,1.87-22.35,5.55M1817.79,876.85h64.72v-12.32h-64.72v12.32ZM1835.66,843.07v88.69c.13,5.71,1.36,10.32,3.68,13.84,2.32,3.52,5.46,6.09,9.4,7.68,3.9,1.62,8.16,2.41,12.7,2.41,4.89,0,9.17-.73,12.95-2.13,3.75-1.46,7.02-3.43,9.74-5.94l-5.01-11.97c-2.03,2.03-4.29,3.65-6.79,4.82-2.51,1.21-5.49,1.81-8.95,1.81-3.9,0-7.14-1.08-9.65-3.21-2.48-2.16-3.74-5.43-3.74-9.84v-90.11l-14.31,3.94ZM1747.01,868.28c-6.57,3.71-11.68,9.05-15.36,16-3.71,6.98-5.56,15.3-5.56,24.95s1.84,17.97,5.56,24.92c3.68,6.98,8.79,12.32,15.36,16,6.54,3.71,14,5.55,22.35,5.55,6.32,0,11.97-1.05,16.89-3.11,4.95-2.09,9.17-5.11,12.7-9.05,3.52-3.94,6.28-8.63,8.32-14.12l-13.24-4.63c-.83,3.9-2.35,7.27-4.54,10-2.22,2.73-5.01,4.82-8.41,6.25-3.4,1.43-7.43,2.13-12.06,2.13-5.97,0-11.08-1.3-15.36-4-4.29-2.67-7.59-6.6-9.84-11.71-2.29-5.14-3.4-11.2-3.4-18.25s1.11-13.24,3.4-18.28c2.25-5.08,5.55-8.95,9.84-11.65,4.28-2.67,9.39-4.03,15.36-4.03s11.23,1.52,15.11,4.57c3.87,3.05,6.76,7.43,8.67,13.14l13.58-6.44c-2.16-4.89-4.95-9.11-8.41-12.66-3.46-3.59-7.52-6.35-12.25-8.25-4.7-1.87-10.16-2.86-16.35-2.86-8.35,0-15.81,1.87-22.35,5.55M1685.97,953.28c4.7-1.59,8.79-3.9,12.35-6.89,3.49-2.98,6.38-6.48,8.63-10.54l-11.24-6.6c-2.51,4.29-5.81,7.68-9.93,10.16-4.1,2.51-9.43,3.78-16,3.78-6.09,0-11.27-1.33-15.65-4.03-4.35-2.67-7.71-6.57-10.09-11.68-2.38-5.14-3.59-11.2-3.59-18.25s1.17-13.27,3.49-18.31c2.35-5.08,5.62-8.95,9.84-11.65,4.22-2.67,9.27-4,15.11-4,7.62,0,13.78,2.32,18.5,6.95,4.7,4.67,7.08,11.27,7.08,19.87l7.33-1.43h-65.99v12.66h72.24c.22-1.3.41-2.79.51-4.48.13-1.65.19-3.49.19-5.52,0-7.62-1.56-14.51-4.67-20.63-3.08-6.13-7.59-11.01-13.49-14.57-5.9-3.59-13.01-5.36-21.36-5.36s-15.55,1.84-21.96,5.52c-6.44,3.71-11.52,9.05-15.2,16-3.71,6.98-5.55,15.3-5.55,24.95s1.84,17.97,5.55,24.92c3.68,6.98,8.86,12.32,15.46,16,6.6,3.71,14.16,5.55,22.6,5.55,5.84,0,11.11-.79,15.84-2.41v.03-.03ZM1538.85,838.95c-6.63,3.24-11.68,7.49-15.2,12.79-3.52,5.3-5.27,11.11-5.27,17.46,0,4.63.98,8.95,2.95,12.95,1.97,3.97,5.17,7.43,9.65,10.38,4.48,2.89,10.35,5.17,17.62,6.86l27.71,6.25c6.89,1.56,11.62,3.87,14.13,6.89,2.48,3.05,3.75,6.48,3.75,10.28,0,4.16-1.17,7.71-3.59,10.63-2.38,2.92-5.81,5.14-10.28,6.6-4.48,1.49-9.74,2.25-15.81,2.25-6.57,0-12.38-.95-17.43-2.89-5.08-1.87-9.4-4.57-12.95-8.03-3.59-3.46-6.51-7.43-8.76-11.97l-12.51,10.19c2.95,4.89,6.76,9.3,11.43,13.24,4.63,3.94,10.22,7.05,16.7,9.36,6.51,2.32,14.06,3.49,22.63,3.49,9.17,0,17.17-1.43,23.93-4.29,6.83-2.86,12.09-6.89,15.84-12.06,3.74-5.17,5.62-11.11,5.62-17.81,0-7.49-2.22-13.78-6.7-18.85-4.44-5.08-12.38-8.86-23.68-11.33l-25.55-5.75c-7.87-1.78-13.11-4.25-15.74-7.4-2.63-3.14-3.94-6.82-3.94-11.01,0-3.68.95-6.98,2.86-9.9,1.9-2.92,4.92-5.27,9.01-7.08,4.13-1.78,9.33-2.67,15.65-2.67,7.87,0,14.6,1.59,20.12,4.73,5.52,3.14,10.51,8.57,14.92,16.19l12-9.3c-5.01-8.22-11.27-14.47-18.79-18.66-7.49-4.25-16.44-6.35-26.82-6.35-9.05,0-16.89,1.59-23.49,4.79M1438.29,864.53l-20.92,56.5-6.44,17.68-5.52-15.9-22.35-58.28h-16.28l28.41,67.93,8.95,21.27-4.67,11.62c-2.25,5.84-4.76,9.71-7.49,11.62-2.73,1.94-5.65,2.89-8.76,2.89-2.63,0-5.27-.51-7.97-1.52-2.67-1.02-5.17-2.6-7.59-4.76l-3.94,12.54c2.63,1.9,5.65,3.43,9.05,4.54,3.37,1.14,7.11,1.71,11.17,1.71,4.29,0,8.06-.73,11.33-2.22,3.3-1.49,6.28-3.97,8.95-7.33,2.7-3.4,5.17-8.03,7.43-13.87l41.99-104.4h-15.36ZM1334.59,879.45c4.19,3.4,6.28,7.9,6.28,13.52s-2.09,9.94-6.28,13.39c-4.16,3.46-9.36,5.17-15.55,5.17s-11.36-1.71-15.55-5.17c-4.16-3.46-6.25-7.94-6.25-13.39s2.1-10.13,6.25-13.52c4.19-3.4,9.36-5.08,15.55-5.08s11.4,1.68,15.55,5.08M1300.09,866.59c-5.46,2.54-9.81,6.09-12.95,10.63-3.14,4.54-4.73,9.78-4.73,15.74,0,8.82,3.14,16.06,9.46,21.71,6.32,5.68,15.36,8.47,27.17,8.47,7.14,0,13.49-1.27,19.05-3.84,5.55-2.54,9.84-6.13,12.95-10.73,3.11-4.57,4.67-9.78,4.67-15.62s-1.56-11.2-4.67-15.74c-3.08-4.54-7.4-8.09-12.95-10.63-5.56-2.57-11.9-3.84-19.05-3.84s-13.46,1.27-18.95,3.84M1299.29,976.45c-5.08-2.63-7.59-6.16-7.59-10.54,0-3.46,1.3-6.19,3.9-8.16,2.63-1.97,5.84-2.95,9.68-2.95h27.52c6.67,0,11.3.95,13.84,2.89,2.57,1.87,3.84,4.44,3.84,7.65,0,2.63-1.08,5.08-3.21,7.33-2.13,2.29-5.46,4.13-9.9,5.55-4.48,1.43-10.19,2.13-17.08,2.13-8.95,0-15.97-1.3-21.01-3.9M1310.63,942.49c-4.38,0-7.81-.83-10.25-2.44-2.44-1.59-3.68-4.06-3.68-7.4,0-2.76,1.24-5.27,3.68-7.62,2.44-2.32,6.57-3.78,12.41-4.38h1.81l-9.49-4.82c-7.14.86-12.54,3.05-16.16,6.54-3.68,3.52-5.46,7.71-5.46,12.6s1.4,8.63,4.19,11.17c2.79,2.57,6.22,4.38,10.28,5.46l1.24-2.7c-7.49.48-12.82,2.6-16,6.35-3.17,3.75-4.73,8-4.73,12.79,0,6.67,3.49,12.38,10.48,17.14,6.95,4.76,17.46,7.17,31.52,7.17,8.13,0,15.43-1.17,21.9-3.49,6.51-2.32,11.68-5.65,15.55-9.94,3.87-4.29,5.81-9.33,5.81-15.17,0-6.44-2.38-11.62-7.14-15.49-4.76-3.84-11.39-5.78-19.84-5.78h-26.12ZM1363.48,848.09h-.44c-4.41,0-8.47.92-12.16,2.76-3.71,1.87-6.63,4.51-8.76,7.97-2.16,3.46-3.21,7.52-3.21,12.16l8.73,4.48c0-5.14,1.59-8.86,4.76-11.17,3.14-2.32,7.65-3.49,13.49-3.49h1.24l-3.21-12.7h-.44ZM1238.07,953.91v-48.25c0-6.7,1.24-12.19,3.74-16.57,2.51-4.35,5.65-7.59,9.4-9.74,3.74-2.13,7.46-3.21,11.17-3.21,2.86,0,5.05.13,6.6.35,1.55.25,2.98.6,4.28,1.08l2.51-13.05c-1.3-.7-2.89-1.17-4.73-1.43-1.84-.22-3.56-.35-5.11-.35-6.89,0-12.76,1.36-17.58,4.09-4.82,2.76-8.51,6.86-11.01,12.35l-1.97-14.66h-11.62v89.38h14.32M1177.38,953.28c4.7-1.59,8.82-3.9,12.32-6.89,3.52-2.98,6.41-6.48,8.7-10.54l-11.27-6.6c-2.51,4.29-5.81,7.68-9.93,10.19-4.09,2.48-9.46,3.75-16,3.75-6.06,0-11.27-1.33-15.62-4.03-4.38-2.67-7.75-6.57-10.13-11.68-2.38-5.14-3.56-11.2-3.56-18.25s1.14-13.27,3.46-18.31c2.35-5.08,5.62-8.95,9.84-11.65,4.25-2.67,9.27-4,15.11-4,7.62,0,13.78,2.32,18.51,6.98,4.7,4.63,7.08,11.24,7.08,19.84l7.3-1.43h-65.96v12.66h72.24c.22-1.3.41-2.79.51-4.44.13-1.68.19-3.52.19-5.55,0-7.62-1.56-14.51-4.63-20.63-3.11-6.13-7.62-10.98-13.52-14.57-5.87-3.59-13.01-5.36-21.36-5.36s-15.55,1.84-21.97,5.52c-6.44,3.71-11.52,9.05-15.2,16.03-3.71,6.95-5.55,15.27-5.55,24.92s1.84,17.97,5.55,24.95c3.68,6.95,8.86,12.32,15.46,16,6.63,3.68,14.16,5.52,22.63,5.52,5.84,0,11.11-.79,15.81-2.38v-.03ZM1031.4,953.91v-47.55c0-7.65,1.4-13.71,4.22-18.25,2.79-4.51,6.35-7.78,10.63-9.81,4.28-2.03,8.57-3.05,12.86-3.05,6.22,0,11.43,1.94,15.68,5.81,4.19,3.87,6.32,10.76,6.32,20.63v52.21h14.31v-57.2c0-7.74-1.59-14.12-4.73-19.14-3.17-4.98-7.36-8.73-12.63-11.17-5.24-2.44-11.08-3.65-17.49-3.65-4.54,0-8.92.63-13.17,1.97-4.22,1.3-7.94,3.43-11.14,6.35-3.24,2.92-5.78,6.76-7.71,11.52l2.35,1.97-1.27-20.03h-12.51v89.38h14.31-.03M994.77,953.91v-13.39h-71.16v-39.71h53.29v-13.39h-53.29v-38.06h68.47v-13.43h-82.75v117.98h85.45Z"/><path class="cls-4" d="M2411.5,1145.18v-47.74c0-7.4,1.36-13.33,4.09-17.87,2.76-4.51,6.16-7.84,10.29-9.9,4.09-2.09,8.16-3.14,12.06-3.14,5.97,0,10.98,1.78,15.01,5.36,4.06,3.56,6.09,9.43,6.09,17.52v55.77h14.31v-48.98c0-6.44,1.21-11.87,3.65-16.28,2.41-4.38,5.68-7.74,9.74-10,4.06-2.25,8.38-3.4,13.05-3.4,5.94,0,10.95,1.78,15.01,5.36,4.03,3.56,6.09,9.43,6.09,17.52v55.77h14.28v-57.2c0-7.87-1.68-14.32-5.02-19.3-3.33-5.02-7.58-8.73-12.76-11.11-5.21-2.38-10.67-3.56-16.35-3.56-3.71,0-7.62.6-11.71,1.87-4.13,1.24-7.94,3.17-11.36,5.71-3.46,2.57-6.13,5.87-8.06,9.94-2.99-5.97-7.27-10.38-12.86-13.24-5.62-2.86-11.55-4.32-17.87-4.32-5.49,0-10.82,1.27-16,3.78-5.21,2.48-9.39,6.48-12.6,11.97l-.89-13.93h-12.54v89.38h14.32ZM2351.8,1112.1c0,3.81-.73,7.14-2.16,9.9-1.43,2.83-3.4,5.14-5.9,6.98-2.51,1.87-5.33,3.24-8.48,4.13-3.17.89-6.47,1.33-9.93,1.33-5.36,0-9.49-1.14-12.41-3.49-2.92-2.32-4.38-5.33-4.38-9.01s1.43-6.79,4.29-8.95c2.86-2.13,7.2-3.81,13.05-5.02l28.79-5.87v-11.81l-35.39,6.98c-8,1.52-14.22,4.48-18.7,8.82-4.48,4.38-6.7,9.87-6.7,16.54,0,5.36,1.33,9.87,4.03,13.49,2.67,3.65,6.28,6.35,10.79,8.16,4.54,1.78,9.43,2.67,14.66,2.67,4.19,0,8.41-.67,12.7-2.03,4.29-1.36,8.16-3.52,11.62-6.44,3.46-2.92,5.91-6.73,7.33-11.36l-3.56-.54v1.81c0,4.06.76,7.43,2.32,10.09,1.56,2.7,3.68,4.67,6.44,5.97,2.73,1.33,5.84,1.97,9.3,1.97,3.78,0,6.89-.57,9.27-1.78l.73-11.27c-2.16.6-4.35.89-6.6.89-4.57,0-6.83-2.13-6.83-6.41v-43.26c0-7.05-1.52-12.79-4.54-17.27-3.05-4.48-7.2-7.78-12.44-10-5.24-2.22-11.08-3.3-17.49-3.3-9.55,0-17.55,2.06-23.96,6.16-6.44,4.13-10.85,9.52-13.24,16.19l11.62,7.14c2.03-5.97,5.21-10.28,9.49-12.95,4.29-2.7,9.52-4.03,15.71-4.03,6.57,0,11.62,1.81,15.2,5.46,3.56,3.62,5.36,8.79,5.36,15.46v24.66ZM2247.02,1145.18v-48.28c0-6.67,1.24-12.19,3.74-16.51,2.51-4.38,5.62-7.62,9.4-9.74,3.74-2.16,7.46-3.24,11.17-3.24,2.86,0,5.08.13,6.6.35,1.56.25,2.98.6,4.29,1.08l2.51-13.05c-1.3-.73-2.89-1.21-4.73-1.43-1.84-.25-3.56-.38-5.08-.38-6.95,0-12.79,1.4-17.65,4.13-4.79,2.73-8.48,6.86-10.98,12.35l-1.97-14.66h-11.59v89.38h14.28ZM2187.12,1070.71c4.19,3.43,6.25,7.9,6.25,13.49s-2.06,9.97-6.25,13.43c-4.16,3.46-9.36,5.17-15.55,5.17s-11.4-1.71-15.55-5.17c-4.16-3.46-6.25-7.94-6.25-13.43s2.1-10.06,6.25-13.49c4.16-3.4,9.36-5.08,15.55-5.08s11.4,1.68,15.55,5.08M2152.62,1057.86c-5.49,2.57-9.81,6.09-12.95,10.63-3.17,4.54-4.73,9.78-4.73,15.71,0,8.82,3.14,16.09,9.46,21.74,6.32,5.65,15.36,8.51,27.17,8.51,7.14,0,13.52-1.3,19.04-3.87,5.56-2.57,9.87-6.13,12.95-10.73,3.11-4.57,4.67-9.81,4.67-15.65s-1.56-11.17-4.67-15.71c-3.08-4.54-7.39-8.06-12.95-10.63-5.52-2.57-11.87-3.84-19.04-3.84s-13.46,1.27-18.95,3.84M2151.83,1167.68c-5.08-2.6-7.59-6.13-7.59-10.54,0-3.46,1.3-6.16,3.91-8.13,2.63-1.97,5.84-2.95,9.65-2.95h27.55c6.66,0,11.27.95,13.84,2.86,2.57,1.9,3.84,4.48,3.84,7.71,0,2.6-1.08,5.05-3.2,7.3-2.13,2.25-5.46,4.13-9.93,5.55-4.44,1.43-10.16,2.13-17.05,2.13-8.95,0-15.97-1.3-21.01-3.94v.03-.03ZM2163.16,1133.72c-4.38,0-7.84-.79-10.25-2.38-2.44-1.62-3.68-4.09-3.68-7.43,0-2.76,1.24-5.27,3.68-7.59,2.41-2.35,6.57-3.81,12.41-4.41h1.78l-9.46-4.82c-7.14.83-12.57,3.02-16.19,6.54-3.65,3.52-5.43,7.71-5.43,12.6s1.4,8.6,4.19,11.17c2.79,2.57,6.22,4.38,10.28,5.46l1.24-2.7c-7.49.51-12.82,2.6-16,6.35-3.17,3.78-4.76,8.03-4.76,12.79,0,6.67,3.49,12.38,10.48,17.14,6.98,4.79,17.49,7.17,31.55,7.17,8.09,0,15.4-1.17,21.9-3.49,6.51-2.32,11.68-5.62,15.55-9.94,3.87-4.29,5.81-9.36,5.81-15.17,0-6.44-2.38-11.59-7.14-15.46-4.76-3.87-11.4-5.84-19.87-5.84h-26.09ZM2216.01,1039.35h-.45c-4.41,0-8.47.92-12.16,2.76-3.71,1.87-6.63,4.51-8.79,7.97-2.13,3.43-3.18,7.49-3.18,12.16l8.73,4.48c0-5.14,1.59-8.86,4.76-11.2,3.14-2.32,7.65-3.46,13.49-3.46h1.24l-3.21-12.7h-.44ZM2090.06,1070.46c4.29,2.73,7.59,6.63,9.93,11.71,2.32,5.08,3.46,11.17,3.46,18.31s-1.14,13.11-3.46,18.25c-2.35,5.11-5.65,9.05-9.93,11.78-4.29,2.73-9.46,4.13-15.55,4.13s-11.27-1.4-15.55-4.13c-4.29-2.73-7.59-6.67-9.9-11.78-2.35-5.14-3.49-11.2-3.49-18.25s1.14-13.24,3.49-18.31c2.32-5.08,5.62-8.98,9.9-11.71,4.28-2.76,9.49-4.13,15.55-4.13s11.27,1.4,15.55,4.13M2052.16,1059.54c-6.57,3.71-11.68,9.05-15.36,16-3.71,6.98-5.56,15.3-5.56,24.95s1.84,17.97,5.56,24.95c3.68,6.95,8.79,12.28,15.36,16,6.54,3.68,14,5.52,22.35,5.52s15.93-1.84,22.44-5.52c6.51-3.71,11.59-9.05,15.27-16,3.71-6.98,5.55-15.3,5.55-24.95s-1.84-17.97-5.55-24.95c-3.68-6.95-8.76-12.28-15.27-16-6.51-3.68-13.97-5.52-22.44-5.52s-15.81,1.84-22.35,5.52M1985.31,1145.18v-48.28c0-6.67,1.24-12.19,3.74-16.51,2.51-4.35,5.62-7.62,9.4-9.74,3.74-2.16,7.46-3.24,11.17-3.24,2.86,0,5.08.13,6.6.38,1.56.22,2.98.57,4.28,1.05l2.51-13.05c-1.3-.73-2.89-1.21-4.73-1.43-1.84-.25-3.56-.38-5.08-.38-6.95,0-12.79,1.4-17.65,4.13-4.79,2.73-8.48,6.86-10.98,12.35l-1.97-14.66h-11.62v89.38h14.32M1882.53,1085.66v-45.07h25.17c9.3,0,16.09,1.9,20.41,5.75,4.29,3.81,6.41,9.4,6.41,16.79s-2.13,12.82-6.41,16.7c-4.32,3.87-11.11,5.84-20.41,5.84h-25.17ZM1868.22,1027.2v117.98h14.31v-46.12h27.33c8,0,14.92-1.46,20.82-4.38,5.9-2.92,10.54-7.05,13.87-12.41,3.33-5.36,5.01-11.74,5.01-19.14s-1.68-13.78-5.01-19.14c-3.33-5.33-7.97-9.49-13.87-12.41-5.91-2.92-12.82-4.38-20.82-4.38h-41.65ZM1761.76,1144.54c4.7-1.59,8.82-3.87,12.35-6.86,3.49-2.98,6.38-6.51,8.66-10.57l-11.27-6.6c-2.51,4.29-5.81,7.68-9.9,10.19-4.13,2.51-9.46,3.75-16.03,3.75-6.06,0-11.27-1.33-15.62-4-4.38-2.7-7.74-6.6-10.12-11.71-2.38-5.14-3.59-11.2-3.59-18.25s1.18-13.24,3.49-18.31c2.35-5.08,5.62-8.95,9.84-11.62,4.25-2.7,9.27-4.03,15.11-4.03,7.62,0,13.81,2.32,18.5,6.95,4.7,4.67,7.08,11.3,7.08,19.87l7.33-1.43h-65.99v12.7h72.24c.22-1.33.41-2.83.51-4.48.13-1.65.19-3.52.19-5.52,0-7.65-1.56-14.54-4.63-20.66-3.11-6.13-7.62-11.01-13.52-14.57-5.87-3.59-13.01-5.36-21.36-5.36s-15.55,1.84-21.97,5.55c-6.44,3.68-11.52,9.01-15.2,16-3.68,6.95-5.52,15.27-5.52,24.92s1.84,17.97,5.52,24.95c3.71,6.95,8.86,12.28,15.46,16,6.63,3.68,14.16,5.52,22.63,5.52,5.84,0,11.11-.79,15.81-2.41v.03-.03ZM1626.7,1059.54c-6.57,3.71-11.68,9.05-15.36,16-3.71,6.98-5.56,15.3-5.56,24.95s1.84,17.97,5.56,24.95c3.68,6.95,8.79,12.28,15.36,16,6.54,3.68,14,5.52,22.35,5.52,6.32,0,11.97-1.02,16.89-3.11,4.95-2.09,9.2-5.11,12.7-9.05,3.52-3.94,6.28-8.63,8.32-14.09l-13.2-4.67c-.86,3.94-2.38,7.27-4.57,10-2.22,2.73-5.01,4.82-8.41,6.28-3.4,1.4-7.43,2.13-12.06,2.13-5.97,0-11.08-1.33-15.36-4.03-4.32-2.67-7.59-6.57-9.84-11.71-2.29-5.11-3.4-11.2-3.4-18.22s1.11-13.27,3.4-18.31c2.25-5.08,5.52-8.95,9.84-11.62,4.29-2.7,9.4-4.06,15.36-4.06s11.24,1.56,15.11,4.57c3.87,3.05,6.76,7.43,8.67,13.14l13.58-6.41c-2.16-4.89-4.95-9.14-8.41-12.7-3.46-3.59-7.52-6.35-12.25-8.25-4.7-1.87-10.13-2.86-16.35-2.86-8.35,0-15.81,1.87-22.35,5.55M1519.25,1145.18v-47.55c0-7.62,1.4-13.71,4.22-18.22,2.79-4.54,6.32-7.84,10.63-9.84,4.29-2.03,8.57-3.05,12.86-3.05,6.22,0,11.43,1.94,15.65,5.81,4.22,3.87,6.35,10.76,6.35,20.66v52.18h14.32v-57.2c0-7.74-1.59-14.12-4.76-19.14-3.14-5.02-7.33-8.73-12.6-11.17-5.24-2.44-11.08-3.65-17.52-3.65-4.51,0-8.89.67-13.14,1.97-4.22,1.3-7.94,3.43-11.14,6.35-3.24,2.92-5.81,6.76-7.71,11.52l2.35,1.97-1.27-20.03h-12.51v89.38h14.28ZM1459.58,1112.1c0,3.81-.73,7.14-2.16,9.94-1.43,2.79-3.4,5.11-5.9,6.95-2.51,1.87-5.33,3.24-8.51,4.13-3.14.89-6.44,1.33-9.9,1.33-5.36,0-9.52-1.14-12.44-3.49-2.89-2.32-4.35-5.33-4.35-9.01s1.4-6.79,4.29-8.95c2.86-2.13,7.2-3.81,13.05-4.98l28.76-5.9v-11.81l-35.36,6.98c-8,1.52-14.22,4.48-18.7,8.82-4.48,4.38-6.73,9.87-6.73,16.54,0,5.36,1.36,9.87,4.06,13.49,2.67,3.65,6.25,6.35,10.79,8.16,4.54,1.78,9.43,2.67,14.66,2.67,4.16,0,8.41-.67,12.7-2.03,4.29-1.36,8.16-3.52,11.62-6.44,3.46-2.92,5.9-6.73,7.33-11.36l-3.59-.54v1.81c0,4.06.79,7.43,2.32,10.09,1.55,2.7,3.71,4.67,6.44,5.97,2.76,1.33,5.84,2,9.3,2,3.81,0,6.92-.6,9.3-1.81l.73-11.27c-2.16.6-4.38.89-6.63.89-4.54,0-6.79-2.13-6.79-6.41v-43.26c0-7.05-1.52-12.79-4.54-17.27-3.05-4.48-7.21-7.78-12.44-10-5.24-2.22-11.08-3.3-17.52-3.3-9.52,0-17.52,2.06-23.93,6.16-6.44,4.13-10.86,9.52-13.24,16.19l11.62,7.14c2.03-5.94,5.21-10.28,9.49-12.95,4.29-2.7,9.52-4.03,15.71-4.03,6.54,0,11.62,1.81,15.2,5.46,3.56,3.62,5.36,8.79,5.36,15.46v24.66ZM1324.93,1068.11h64.72v-12.32h-64.72v12.32ZM1342.8,1034.34v88.69c.13,5.71,1.36,10.35,3.68,13.84,2.32,3.52,5.46,6.09,9.4,7.68,3.9,1.62,8.16,2.41,12.66,2.41,4.92,0,9.21-.7,12.98-2.13,3.75-1.43,6.98-3.4,9.74-5.9l-5.01-11.97c-2.03,2.03-4.29,3.62-6.79,4.79-2.51,1.21-5.49,1.81-8.95,1.81-3.9,0-7.14-1.08-9.65-3.21-2.47-2.16-3.74-5.43-3.74-9.84v-90.11l-14.32,3.94ZM1296.17,1143.56c5.36-2.25,9.52-5.49,12.51-9.71,2.98-4.25,4.48-9.14,4.48-14.76s-1.68-10.13-5.01-13.93c-3.33-3.84-9.17-6.57-17.52-8.25l-22.35-4.63c-4.89-.95-8.22-2.54-10-4.73-1.81-2.22-2.7-4.63-2.7-7.24s.83-4.98,2.44-7.08c1.59-2.06,3.9-3.71,6.95-4.92,3.05-1.17,6.7-1.78,11.01-1.78,4.89,0,9.55,1.21,14.13,3.65,4.51,2.48,7.78,6.28,9.81,11.52l11.97-7.84c-2.95-6.32-7.49-11.2-13.55-14.66-6.09-3.46-13.55-5.17-22.35-5.17-7.05,0-13.14,1.21-18.31,3.65-5.21,2.44-9.21,5.68-12,9.74-2.79,4.06-4.19,8.54-4.19,13.39,0,6.22,1.87,11.4,5.62,15.59,3.75,4.16,9.97,7.14,18.7,8.92l21.46,4.48c4.51.95,7.59,2.48,9.21,4.57,1.59,2.09,2.41,4.38,2.41,6.86,0,3.94-1.81,7.14-5.36,9.59-3.59,2.41-8.54,3.65-14.86,3.65-7.14,0-13.24-1.52-18.31-4.63-5.05-3.11-8.92-7.4-11.52-12.89l-12.19,8.76c3.97,6.79,9.59,12.03,16.92,15.74,7.33,3.68,15.33,5.52,24.06,5.52,7.02,0,13.2-1.14,18.57-3.4M1201.43,1145.18h14.28v-89.38h-14.28v89.38ZM1216.34,1035.7c1.97-1.97,2.95-4.57,2.95-7.81s-.98-5.78-2.95-7.74c-1.97-1.97-4.57-2.95-7.78-2.95s-5.81.98-7.78,2.95c-1.97,1.97-2.95,4.54-2.95,7.74s.98,5.84,2.95,7.81c1.97,1.94,4.57,2.92,7.78,2.92s5.81-.98,7.78-2.92M1161.56,1143.56c5.36-2.25,9.52-5.49,12.51-9.71,2.98-4.25,4.48-9.14,4.48-14.76s-1.65-10.13-5.01-13.93c-3.33-3.84-9.17-6.57-17.52-8.25l-22.35-4.63c-4.89-.95-8.19-2.54-10-4.73-1.78-2.22-2.67-4.63-2.67-7.24s.79-4.98,2.41-7.08c1.59-2.06,3.94-3.71,6.95-4.92,3.05-1.17,6.73-1.78,11.01-1.78,4.89,0,9.59,1.21,14.12,3.65,4.54,2.48,7.81,6.28,9.81,11.55l12-7.87c-2.98-6.32-7.52-11.2-13.59-14.66-6.09-3.46-13.52-5.17-22.35-5.17-7.05,0-13.14,1.21-18.35,3.65-5.17,2.44-9.14,5.68-11.97,9.74-2.79,4.06-4.19,8.54-4.19,13.39,0,6.22,1.87,11.4,5.62,15.59,3.78,4.16,10,7.14,18.7,8.92l21.46,4.48c4.54.95,7.59,2.48,9.21,4.57,1.59,2.09,2.41,4.38,2.41,6.86,0,3.94-1.81,7.14-5.36,9.59-3.59,2.41-8.54,3.65-14.82,3.65-7.17,0-13.3-1.52-18.35-4.63-5.08-3.11-8.92-7.4-11.52-12.89l-12.16,8.76c3.94,6.79,9.55,12.03,16.89,15.74,7.33,3.68,15.33,5.52,24.06,5.52,7.02,0,13.2-1.11,18.57-3.4M1070.94,1143.56c5.36-2.25,9.52-5.49,12.51-9.71,2.98-4.25,4.48-9.14,4.48-14.76s-1.68-10.13-5.01-13.93c-3.33-3.84-9.17-6.57-17.52-8.25l-22.35-4.63c-4.89-.95-8.22-2.54-10-4.73-1.78-2.22-2.67-4.63-2.67-7.24s.79-4.98,2.38-7.08c1.62-2.06,3.94-3.71,6.98-4.92,3.05-1.17,6.7-1.78,10.98-1.78,4.89,0,9.62,1.21,14.13,3.65,4.54,2.48,7.81,6.28,9.84,11.55l12-7.87c-2.98-6.32-7.52-11.2-13.58-14.66-6.09-3.46-13.52-5.17-22.35-5.17-7.05,0-13.14,1.21-18.35,3.65-5.17,2.44-9.17,5.68-11.97,9.74-2.79,4.06-4.22,8.54-4.22,13.39,0,6.22,1.91,11.4,5.65,15.59,3.75,4.16,10,7.14,18.66,8.92l21.46,4.48c4.54.95,7.62,2.48,9.24,4.57,1.59,2.09,2.38,4.38,2.38,6.86,0,3.94-1.78,7.14-5.36,9.59-3.56,2.41-8.51,3.65-14.82,3.65-7.14,0-13.27-1.52-18.32-4.63-5.08-3.11-8.92-7.4-11.52-12.89l-12.16,8.76c3.9,6.79,9.55,12.03,16.89,15.74,7.33,3.68,15.33,5.52,24.03,5.52,7.05,0,13.24-1.11,18.6-3.4ZM948.83,1040.97l21.65,58.09h-43.07l21.43-58.09ZM957.59,1027.2h-16.98l-45.96,117.98h15.05l12.51-32.69h53.45l12.51,32.69h15.2l-45.77-117.98Z"/></g></svg>