<?xml version="1.0" encoding="UTF-8"?><svg id="Layer_1" xmlns="http://www.w3.org/2000/svg" xmlns:xlink="http://www.w3.org/1999/xlink" viewBox="0 0 1068.78 345"><defs><style>.cls-1{fill:none;}.cls-2{clip-path:url(#clippath-1);}.cls-3{clip-path:url(#clippath-3);}.cls-4{clip-path:url(#clippath-2);}.cls-5{fill-rule:evenodd;}.cls-5,.cls-6{fill:#0069b3;}.cls-7{clip-path:url(#clippath);}</style><clipPath id="clippath"><rect class="cls-1" x="0" width="1068.78" height="345"/></clipPath><clipPath id="clippath-1"><rect class="cls-1" x="0" width="1068.7" height="309.24"/></clipPath><clipPath id="clippath-2"><rect class="cls-1" x="0" width="1068.78" height="345"/></clipPath><clipPath id="clippath-3"><rect class="cls-1" x="0" width="1068.7" height="309.24"/></clipPath></defs><g class="cls-7"><path class="cls-5" d="M91.43,204.62c.28-.08.68-.65.75-.96-3.15-.46-6.32-4.48-7.2-5.6s-2.88-6.36-7.83-12.88c-5.94-7.83-13.73-16.36-19.8-21.82,2.12,8.02,3.38,16.21,7.44,23.49,3.53,6.33,6.93,11.1,16.18,14.63-7.54-2.35-11.46-3.36-18.21-4.87-7.65-1.23-22.22-5.8-24.29-6.67-2.21-.93-9.34-4.36-9.34-4.36,5.39,9.47,15.5,17.71,26.07,21.36,11.89,4.42,24.72-.19,36.23-2.31"/><path class="cls-5" d="M60.12,191.56s.59-.08.94-.21c-1.13-2.11-1.96-3.37-2.83-6.92-1.26-5.16-2.21-15.2-4.73-21.51-4.9-12.28-13.26-24.03-13.26-24.03,1.89,17.01-1.35,30.88,13.85,47.6-1.51-.92-1.99-1.06-5.1-4.54-8.86-9.95-23.6-16.89-32.28-26.93-2.26-2.11-3.58-5.57-6.22-7.3,2.07,8.85,6.51,18.98,11.98,26.09,8.66,11.14,19.05,13.96,29.76,15.63,4.81.75,5.71,1.47,7.88,2.13"/></g><g class="cls-2"><path class="cls-5" d="M37.09,164.82c.26.05.7.1,1.13-.19-1.11-3.09-2.44-7.28-2.3-10.39.25-5.19,1.03-11.86,1.13-18.87.14-9.31-.85-19.25-5.06-27.46-2.83,12.11-5.56,26.63-2.36,39.32.94,3.08,2.13,5.28,2.5,8.36-2.65-5.06-7.79-14.26-12.33-19.27-4.71-5.2-7.76-8.16-11.05-12.9-4.32-6.23-6.27-11.38-6.27-11.38,0,0-.32,4.12.63,9.33.72,3.98,3.29,10.94,4.76,14.19,5.28,13.27,15.89,16.58,29.2,29.25"/><path class="cls-5" d="M21.43,132.71h.95c-.76-2.31-.76-5.77,0-8.27,3.3-6.78,6.16-14.58,7.97-21.44,1.45-5.73,2.14-10.59,2.18-13.72.03-3.08-.01-4.53-.32-5.8,0,0-15.63,20.95-13.6,38.26-2.64-14.42-6.79-23.13-13.01-36.01-1.14-2.31-2.87-8.43-3.77-11.4-1.5,7.87-2.9,12.36-.63,23.42.98,4.79,3.41,10.08,6.59,15.2,4.16,6.67,9.91,13,13.65,19.75"/></g><g class="cls-4"><path class="cls-5" d="M17.44,104.9c1.36-4.42,1.84-6.77,3.16-9.51,1.02-2.15,6.97-9.46,11.24-16.96,4.11-6.88,7.37-15.1,9.4-21.4-9.24,9.04-19.23,15.31-23.12,28.32,2.28-9.87.34-17.3-.98-27.49-1.13-6.34,1.47-12.17,2.41-17.94-3.58,3.85-5.66,8.65-7.36,13.27-7.84,17.7.58,34.91,4.35,51.06l.9.66Z"/><path class="cls-5" d="M22.52,70.93c2.64-3.85,7.89-8.81,10.24-10.49,2.35-1.68,18.68-17.69,21.51-28.65-7.92,9.61-20.94,12.31-26.42,24.42,2.23-10.44,4.87-24.57,5.85-27.5l2.83-7.3c-7.13,5.43-12.12,13.89-14.13,22.62-.57,2.47-1.84,8.75-.61,18.79.44,3.62.37,5.64.74,8.11"/><path class="cls-5" d="M33.64,43.77c13.02-5.96,19.43-20.19,27.73-30.76-12.83,4.23-22.72,13.96-26.7,25.53-1.07,3.12-1.07,4.42-1.04,5.23"/><path class="cls-5" d="M207.57,197.49c-6.75,1.52-10.68,2.52-18.21,4.88,9.24-3.53,12.65-8.3,16.18-14.64,4.05-7.28,5.68-15.71,7.8-23.73-6.07,5.46-14.22,14.24-20.17,22.06-4.95,6.53-6.95,11.76-7.83,12.89-.88,1.12-4.05,5.15-7.2,5.61.08.31.47.88.75.96,11.51,2.12,24.34,6.73,36.23,2.31,10.57-3.65,20.68-11.9,26.07-21.36,0,0-7.12,3.43-9.34,4.36-2.06.87-16.64,5.43-24.28,6.67"/><path class="cls-5" d="M253.62,155.9c-8.69,10.03-23.42,16.98-32.28,26.93-3.11,3.48-3.59,3.62-5.1,4.54,15.21-16.72,11.96-30.59,13.85-47.6,0,0-7.11,12.61-12.07,25.06-3.72,9.33-5.56,19.11-5.91,20.5-.82,3.24-1.7,4.81-2.83,6.92.34.13.94.21.94.21,2.18-.67,3.08-1.39,7.88-2.13,10.71-1.67,21.11-4.49,29.76-15.63,5.47-7.12,9.91-17.25,11.98-26.09-2.64,1.73-3.96,5.19-6.22,7.31"/><path class="cls-5" d="M261.56,124.31c-3.29,4.73-6.33,7.69-11.04,12.9-4.54,5.01-9.68,14.22-12.33,19.27.38-3.08,1.56-5.29,2.51-8.36,3.21-12.69.47-27.21-2.36-39.32-4.21,8.21-5.19,18.15-5.07,27.46.1,7.01.89,13.68,1.13,18.87.15,3.1-1.19,7.3-2.29,10.39.43.29.87.24,1.13.19,13.31-12.67,23.92-15.99,29.2-29.25,1.47-3.24,4.04-10.21,4.77-14.19.94-5.22.63-9.33.63-9.33,0,0-1.95,5.15-6.27,11.38"/><path class="cls-5" d="M267.39,74.82c-.5,1.72-.51,4.84-1.75,7.65-5.77,13.14-11.28,25.75-13.92,40.17,2.02-17.32-13.49-38.29-13.49-38.29-.31,1.27-.46,2.74-.43,5.82.03,3.13.72,7.98,2.17,13.72,1.81,6.86,4.68,14.66,7.97,21.44.75,2.5.75,5.96,0,8.27h.95c3.74-6.75,9.49-13.08,13.65-19.75,3.18-5.11,5.37-10.37,6.35-15.17,2.84-13.83.24-16.21-1.51-23.86"/><path class="cls-5" d="M252.49,58.3c-1.32,10.19-2.55,18.07-.27,27.94-3.89-13.01-13.88-19.29-23.12-28.33,2,6.21,5.25,14.01,9.31,20.92,5.11,8.69,10.42,14.55,11.35,16.37,1.97,3.9,2.49,6.51,3.44,9.59l.64-.51c3.78-16.15,11.49-33.3,4.32-50.22-1.7-4.62-3.78-9.42-7.36-13.27.94,5.77,2.83,11.15,1.7,17.5"/><path class="cls-5" d="M242.48,57.09c-5.48-12.11-18.49-14.81-26.42-24.42,2.83,10.96,19.17,26.97,21.51,28.65,2.34,1.68,7.6,6.64,10.24,10.49.37-2.47.29-4.48.74-8.11,1.23-10.05-.04-16.33-.61-18.8-2.01-8.73-7-17.18-14.14-22.62l2.83,7.31c.98,2.93,3.62,17.06,5.85,27.49"/><path class="cls-5" d="M237.01,44.66c.04-.81.04-2.11-1.04-5.23-3.98-11.57-13.87-21.3-26.7-25.53,8.3,10.58,14.72,24.8,27.73,30.76"/><path class="cls-5" d="M201.81,215.53c-8.3-1.55-18.67-5.11-28.18-6.83-5.98-1.07-12.77-2.28-20.47-1.29-6.88.88-11.94,1.66-16.56,2.92-.63-.08-14.14-3.5-20.75-4.02-6.61-.52-13.12.52-18.61,1.51-9.52,1.72-19.89,5.27-28.18,6.83-6.79.77-13.59,0-19.25-1.73,4.91,4.23,10.76,6.54,16.98,8.27,25.2,6.98,47.96-7.59,54.64-8.8,5.18-.93,6.08-1.03,10-.45l-1.7.51c-10.57,4.61-21.51,10.58-29.43,20.19,1.76,1.49,5.06,2.7,5.06,2.7,0,0,1.42-4.06,9.66-10.96,6.93-5.82,16.46-9.56,21.67-11.12,5.45,1.82,13.37,5.37,19.16,10.23,8.23,6.91,9.66,10.96,9.66,10.96,0,0,3.29-1.2,5.06-2.7-7.42-9-18-15.12-27.92-19.61,1.6-.01,3.69.57,6.79,1.13,6.68,1.21,29.44,15.77,54.64,8.8,6.23-1.73,12.08-4.04,16.98-8.27-5.66,1.73-12.45,2.5-19.25,1.73"/><path class="cls-5" d="M207.9,93.07c-1.11-8.85-16.19-14.54-37.86-15.75,5.35-41.36-.53-73.8-15.15-76.72-2.37-.47-4.98-.51-7.62.17-.7-.63-1.55-.78-2.57-.78-2.17,0-3.94,1.76-3.94,3.93,0,.41.08.8.2,1.17-9.1,9.03-16.81,21.42-23.27,37.19-4.84-3.03-9.19-4.03-12.63-2.5-4.75,2.11-7.84,9.12-7.84,18.55-1.09.59-1.36,1.89-1.3,2.87.08,1.49,1.16,2.69,2.44,3.27.21,2.28.54,4.68.96,7.17-6.29-.29-10.86,1.09-12.78,4.33-2.02,3.42-.75,8.37,3.04,14.06-18.29,7.19-29.68,16.3-28.65,24.57,1.1,8.8,16.24,15.13,37.74,16.52-1.17,30.51,4.81,52.58,16.86,55.38,8.98,2.09,19.55-7.91,29.13-25.36,7.23,6.46,13.85,9.26,18.67,7.12,6.69-2.97,8.5-14.82,5.89-30.96,6.91.63,11.94-.64,13.99-4.1.26-.44.58-1.07.73-1.57,1.35-.56,2.08-1.92,2.08-3.46,0-1.76-1.35-3.16-2.98-3.55-.79-2.16-2.07-4.49-3.78-6.96,18.29-7.19,29.68-16.3,28.65-24.58M143.1,7.8c.58.34,1.49.59,2.21.59,1.98,0,3.59-1.19,3.87-3.09,1.39-.32,2.8-.42,4.13-.17,13.13,2.49,18.4,32.99,13.75,72.06-6.24-.22-12.97-.09-20.04.43-8.76-15.38-18.41-27.34-26.86-33.63,7-17.49,15.11-30.49,22.94-36.19M163.15,101.08c-2.18-1.78-4.51-3.55-6.96-5.31-.19-.42-.37-.85-.56-1.27-2.36-5.19-4.86-10.15-7.44-14.81,6.57-.47,12.82-.61,18.61-.42-.84,6.64-1.97,13.51-3.39,20.53-.09.43-.18.85-.26,1.28M123.86,129.81c4.43-.34,8.98-.82,13.63-1.49.67-.1,1.35-.2,2.02-.31,5.1,2.4,10.02,4.38,14.62,5.89-3.09,8.83-6.5,16.77-10.06,23.58-6.51-6.38-13.58-15.98-20.21-27.67M153.22,96.46c2.69,5.91,5.02,11.73,6.98,17.35-.72,2.81-1.48,5.57-2.27,8.26-5.47,1.35-11.27,2.53-17.29,3.5-4.65-2.16-9.47-4.69-14.34-7.57-4.4-2.6-8.53-5.32-12.34-8.07-2.88-6.62-5.3-13.11-7.25-19.28.1-.52.21-1.04.31-1.56.18-.87.35-1.72.54-2.58,6.45-1.74,13.39-3.25,20.64-4.45,4.79,2.21,9.76,4.81,14.78,7.77,3.59,2.13,7.01,4.33,10.21,6.56.01.02.02.05.03.07M144.47,88.13c-4.2-2.48-8.37-4.71-12.46-6.67.03,0,.06,0,.08,0,4.34-.64,8.59-1.13,12.74-1.5,2.23,3.94,4.41,8.11,6.49,12.46-2.2-1.46-4.49-2.89-6.86-4.29M131.35,79.35c-.99.14-1.97.3-2.95.45-6.32-2.82-12.35-4.95-17.78-6.33,2.45-9.44,5.25-18.27,8.29-26.26,7.56,5.47,16.44,16.43,24.74,30.68-4.01.36-8.12.84-12.3,1.46M124.58,80.45c-5.74,1.02-11.26,2.23-16.49,3.6.65-2.94,1.33-5.84,2.05-8.68,4.41,1.17,9.3,2.88,14.44,5.08M104.94,84.67c-1.04-3.79-1.88-7.42-2.53-10.85,1.53.19,3.16.48,4.88.86-.82,3.24-1.6,6.57-2.35,9.99M103.79,90.06c-.69,3.41-1.31,6.79-1.87,10.12-3.45-3.19-6.33-6.29-8.54-9.19,3.06-1.13,6.32-2.21,9.72-3.22.22.76.45,1.52.69,2.29M105.71,95.92c1.25,3.59,2.63,7.26,4.17,10.97-1.86-1.44-3.61-2.87-5.27-4.31.34-2.2.71-4.42,1.1-6.66M111.92,111.63c.28.63.55,1.27.84,1.9,2.28,5.03,4.7,9.83,7.19,14.36-2.45.16-4.85.27-7.2.33-.27-1.35-1.52-2.54-3.3-2.37-1.66.16-2.34.45-3.05,1.81-1.5-.02-2.98-.05-4.44-.1.38-6.99,1.11-14.38,2.21-22.01,2.4,2.03,4.99,4.06,7.74,6.08M116.03,114.54c3.01,2.05,6.18,4.07,9.49,6.04,3.5,2.07,6.99,3.97,10.41,5.69-4.52.63-8.95,1.11-13.25,1.44-2.29-4.15-4.52-8.56-6.65-13.16M144.31,127.21c4.44-.79,8.75-1.7,12.89-2.7-.69,2.29-1.42,4.54-2.15,6.73-3.39-1.07-6.99-2.42-10.74-4.03M159.94,123.82c1.07-.27,2.14-.56,3.19-.85,1.09,3.78,2,7.41,2.71,10.85-2.6-.38-5.47-1.01-8.54-1.9.91-2.63,1.79-5.34,2.64-8.1M160.69,121.36c.32-1.08.64-2.17.95-3.27.3.93.59,1.86.87,2.79-.6.16-1.21.32-1.82.48M163.01,113.09c.66-2.51,1.29-5.05,1.89-7.62,4.47,3.89,8.14,7.7,10.82,11.22-3.29,1.2-6.78,2.35-10.47,3.42-.68-2.3-1.43-4.65-2.24-7.02M161.46,108.71c-1.07-2.92-2.24-5.87-3.49-8.86,1.62,1.23,3.18,2.46,4.66,3.69-.37,1.74-.76,3.47-1.17,5.17M101.12,64.6c1.46-.5,2.4-1.94,2.4-3.62,0-1.41-.38-2.32-1.9-3.08.29-6.95,1.49-12.34,5.11-13.95,2.64-1.17,5.94-.53,9.65,1.61-3.18,8.21-6.04,17.29-8.61,27.24-2-.43-3.91-.75-5.71-.95-.43-2.54-.75-4.97-.94-7.25M89.13,76.97c1.54-2.61,5.29-3.68,10.53-3.41.71,3.82,1.66,7.85,2.83,12.04-3.67,1.09-7.18,2.25-10.47,3.48-3.39-5-4.57-9.27-2.88-12.11M64.18,114.17c-.93-7.37,9.74-15.6,26.75-22.24,2.65,3.57,6.21,7.38,10.52,11.25-1.31,8.46-2.17,16.59-2.6,24.24-19.59-1.07-33.7-5.49-34.67-13.25M117.12,183.74c-11.02-1.01-16.45-22.69-15.32-52.47,1.54.06,3.1.11,4.7.12.79,1.19,1.9,1.57,3.11,1.53,1.53-.06,2.94-.74,3.17-2.55,2.73-.08,5.51-.2,8.35-.38,7.06,12.46,14.7,22.71,21.85,29.56-8.59,15.76-17.95,24.91-25.85,24.19M161.93,165.55c-4.1,1.83-9.81-.71-16.16-6.46,3.75-7.12,7.34-15.38,10.6-24.48,3.62,1.09,7.01,1.88,10.09,2.35,2.68,15.04,1.35,25.98-4.52,28.6M180.32,125.02c-1.1.64-1.85,1.83-1.85,3.2,0,1.14.52,2.14,1.33,2.82-1.73,2.53-5.68,3.51-11.12,3.1-.72-3.79-1.67-7.79-2.83-11.94,3.94-1.15,7.68-2.39,11.19-3.7,1.61,2.36,2.73,4.55,3.29,6.51M177.94,115.85c-3.12-4.09-7.35-8.45-12.47-12.84.26-1.15.51-2.32.77-3.48,1.46-6.87,2.63-13.61,3.53-20.14,20.19,1.05,34.16,6.09,35.16,14.05.94,7.47-9.78,15.77-26.98,22.42"/><path class="cls-5" d="M141.5,116.45c0,2.68,2.18,4.86,4.86,4.86s4.86-2.18,4.86-4.86-2.17-4.86-4.86-4.86-4.86,2.18-4.86,4.86"/><rect class="cls-6" x="316.63" y="71.75" width="18.81" height="93.27"/><path class="cls-6" d="M453.43,165.02h-20.47l-8-21.22h-37.34l-7.75,21.22h-19.97l36.36-93.27h20.02l37.15,93.27ZM418.88,128.06l-12.89-34.56-12.63,34.56h25.51Z"/><polygon class="cls-6" points="479.43 165.02 479.43 71.75 548.55 71.75 548.55 87.5 498.24 87.5 498.24 108.18 545.08 108.18 545.08 123.92 498.24 123.92 498.24 149.28 550.28 149.28 550.28 165.02 479.43 165.02"/><path class="cls-6" d="M666.37,165.02h-20.47l-8-21.22h-37.34l-7.75,21.22h-19.97l36.36-93.27h20.02l37.16,93.27ZM631.82,128.06l-12.89-34.56-12.63,34.56h25.52Z"/><rect class="cls-6" x="316.64" y="192.36" width="6.22" height="30.64"/><path class="cls-6" d="M349.41,223h-5.89v-11.32c0-2.4-.13-3.94-.37-4.65-.25-.7-.66-1.25-1.22-1.64-.56-.39-1.23-.59-2.02-.59-1.01,0-1.92.28-2.72.84-.8.55-1.35,1.3-1.65,2.21s-.45,2.62-.45,5.1v10.05h-5.89v-22.21h5.49v3.26c1.93-2.48,4.36-3.73,7.29-3.73,1.29,0,2.47.23,3.54.7,1.07.47,1.88,1.06,2.43,1.79.55.72.93,1.54,1.14,2.47.22.92.32,2.23.32,3.95v13.78Z"/><path class="cls-6" d="M366.2,200.79v4.68h-4.01v8.97c0,1.82.04,2.87.11,3.17.08.3.25.55.52.74.27.2.6.29.99.29.54,0,1.33-.19,2.36-.56l.44,4.57c-1.36.59-2.89.88-4.6.88-1.05,0-2-.18-2.84-.54-.84-.35-1.46-.82-1.85-1.38-.39-.57-.67-1.33-.82-2.3-.13-.69-.19-2.07-.19-4.15v-9.7h-2.68v-4.68h2.68v-4.42l5.89-3.48v7.9h4.01Z"/><path class="cls-6" d="M383.67,215.9l5.89,1.01c-.75,2.16-1.94,3.8-3.56,4.93-1.62,1.13-3.65,1.7-6.09,1.7-3.85,0-6.71-1.27-8.56-3.78-1.46-2.02-2.2-4.58-2.2-7.66,0-3.68.96-6.56,2.89-8.65,1.92-2.08,4.35-3.13,7.29-3.13,3.3,0,5.91,1.09,7.82,3.27,1.91,2.19,2.82,5.53,2.74,10.04h-14.72c.04,1.73.51,3.08,1.41,4.04.9.96,2.02,1.44,3.37,1.44.91,0,1.68-.25,2.31-.76.62-.51,1.09-1.32,1.41-2.45M384.07,210.02c-.04-1.7-.48-3-1.32-3.89-.84-.89-1.86-1.33-3.06-1.33-1.28,0-2.35.47-3.18,1.41-.84.94-1.25,2.21-1.23,3.81h8.79Z"/><path class="cls-6" d="M400.07,223h-5.89v-22.21h5.48v3.16c.93-1.49,1.77-2.47,2.51-2.93.75-.46,1.59-.69,2.53-.69,1.33,0,2.62.37,3.85,1.11l-1.84,5.13c-.99-.64-1.9-.96-2.75-.96s-1.51.22-2.08.67c-.57.45-1.01,1.27-1.34,2.45s-.49,3.66-.49,7.42v6.84Z"/><path class="cls-6" d="M431.85,223h-5.89v-11.32c0-2.4-.13-3.94-.37-4.65-.25-.7-.66-1.25-1.22-1.64s-1.23-.59-2.02-.59c-1.01,0-1.92.28-2.72.84-.8.55-1.36,1.3-1.65,2.21-.3.92-.45,2.62-.45,5.1v10.05h-5.88v-22.21h5.48v3.26c1.93-2.48,4.36-3.73,7.29-3.73,1.29,0,2.47.23,3.54.7,1.07.47,1.88,1.06,2.43,1.79.55.72.93,1.54,1.14,2.47.22.92.32,2.23.32,3.95v13.78Z"/><path class="cls-6" d="M442.81,207.61l-5.29-.93c.6-2.16,1.63-3.76,3.09-4.8,1.46-1.04,3.64-1.56,6.51-1.56,2.62,0,4.57.31,5.85.93,1.28.62,2.18,1.41,2.7,2.36.52.95.79,2.7.79,5.25l-.07,6.85c0,1.95.1,3.39.28,4.31.19.93.54,1.92,1.06,2.98h-5.89c-.16-.39-.34-.96-.56-1.73-.1-.34-.17-.57-.21-.69-1,.98-2.06,1.72-3.2,2.21-1.13.49-2.34.74-3.63.74-2.27,0-4.06-.62-5.37-1.86-1.31-1.23-1.96-2.81-1.96-4.7,0-1.25.3-2.37.9-3.35.59-.98,1.44-1.74,2.52-2.26s2.63-.98,4.66-1.36c2.74-.52,4.64-1,5.7-1.44v-.59c0-1.14-.28-1.95-.84-2.43-.56-.49-1.62-.73-3.17-.73-1.05,0-1.87.21-2.46.62-.59.42-1.06,1.14-1.43,2.18M450.71,212.36c-.75.25-1.94.55-3.56.9-1.62.35-2.68.69-3.19,1.02-.76.55-1.14,1.23-1.14,2.07s.3,1.54.91,2.13,1.39.9,2.33.9c1.06,0,2.06-.34,3.02-1.04.71-.53,1.17-1.18,1.39-1.94.15-.51.23-1.46.23-2.87v-1.17Z"/><path class="cls-6" d="M473.05,200.79v4.68h-4.01v8.97c0,1.82.04,2.87.11,3.17.08.3.25.55.52.74.27.2.6.29.99.29.54,0,1.33-.19,2.36-.56l.44,4.57c-1.36.59-2.89.88-4.6.88-1.05,0-2-.18-2.84-.54-.84-.35-1.46-.82-1.85-1.38-.39-.57-.67-1.33-.82-2.3-.13-.69-.19-2.07-.19-4.15v-9.7h-2.68v-4.68h2.68v-4.42l5.89-3.48v7.9h4.01Z"/><path class="cls-6" d="M477.67,192.36h5.89v5.42h-5.89v-5.42ZM477.67,200.79h5.89v22.21h-5.89v-22.21Z"/><path class="cls-6" d="M488.83,211.61c0-1.96.48-3.85,1.44-5.67.96-1.83,2.32-3.22,4.08-4.18,1.76-.96,3.72-1.44,5.9-1.44,3.35,0,6.11,1.09,8.25,3.27,2.15,2.18,3.22,4.94,3.22,8.27s-1.08,6.15-3.25,8.35c-2.16,2.21-4.89,3.32-8.18,3.32-2.03,0-3.97-.46-5.82-1.38-1.84-.92-3.24-2.27-4.2-4.05-.96-1.78-1.44-3.94-1.44-6.49M494.85,211.93c0,2.2.52,3.87,1.57,5.04,1.04,1.16,2.33,1.75,3.86,1.75s2.81-.59,3.85-1.75c1.04-1.17,1.56-2.86,1.56-5.08s-.52-3.83-1.56-5c-1.04-1.16-2.32-1.75-3.85-1.75s-2.82.59-3.86,1.75c-1.04,1.17-1.57,2.85-1.57,5.04"/><path class="cls-6" d="M537.13,223h-5.89v-11.32c0-2.4-.13-3.94-.37-4.65-.25-.7-.66-1.25-1.22-1.64s-1.23-.59-2.02-.59c-1.01,0-1.92.28-2.72.84-.8.55-1.35,1.3-1.65,2.21-.3.92-.45,2.62-.45,5.1v10.05h-5.89v-22.21h5.49v3.26c1.93-2.48,4.36-3.73,7.29-3.73,1.29,0,2.47.23,3.54.7,1.07.47,1.88,1.06,2.43,1.79.55.72.93,1.54,1.14,2.47.21.92.32,2.23.32,3.95v13.78Z"/><path class="cls-6" d="M548.1,207.61l-5.29-.93c.6-2.16,1.63-3.76,3.09-4.8,1.46-1.04,3.64-1.56,6.51-1.56,2.62,0,4.57.31,5.85.93,1.28.62,2.18,1.41,2.7,2.36.52.95.79,2.7.79,5.25l-.07,6.85c0,1.95.09,3.39.29,4.31.19.93.54,1.92,1.05,2.98h-5.89c-.15-.39-.34-.96-.56-1.73-.1-.34-.16-.57-.21-.69-1,.98-2.06,1.72-3.2,2.21-1.14.49-2.34.74-3.63.74-2.27,0-4.06-.62-5.37-1.86-1.31-1.23-1.96-2.81-1.96-4.7,0-1.25.3-2.37.9-3.35.6-.98,1.44-1.74,2.52-2.26,1.08-.52,2.64-.98,4.67-1.36,2.74-.52,4.64-1,5.7-1.44v-.59c0-1.14-.28-1.95-.84-2.43-.56-.49-1.62-.73-3.17-.73-1.05,0-1.87.21-2.46.62-.59.42-1.06,1.14-1.43,2.18M555.99,212.36c-.75.25-1.94.55-3.56.9-1.62.35-2.69.69-3.19,1.02-.77.55-1.14,1.23-1.14,2.07s.3,1.54.91,2.13c.61.6,1.39.9,2.33.9,1.06,0,2.06-.34,3.02-1.04.71-.53,1.17-1.18,1.39-1.94.15-.51.23-1.46.23-2.87v-1.17Z"/><rect class="cls-6" x="567.23" y="192.36" width="5.89" height="30.64"/><path class="cls-6" d="M619.27,223h-6.7l-2.64-6.96h-12.32l-2.55,6.96h-6.56l11.91-30.64h6.57l12.29,30.64ZM607.94,210.82l-4.3-11.31-4.13,11.31h8.43Z"/><path class="cls-6" d="M633.26,200.79v4.68h-4.02v8.97c0,1.82.04,2.87.11,3.17.08.3.25.55.52.74.27.2.6.29.99.29.54,0,1.33-.19,2.36-.56l.43,4.57c-1.35.59-2.89.88-4.6.88-1.06,0-2-.18-2.84-.54-.84-.35-1.46-.82-1.86-1.38-.39-.57-.67-1.33-.82-2.3-.12-.69-.19-2.07-.19-4.15v-9.7h-2.68v-4.68h2.68v-4.42l5.89-3.48v7.9h4.02Z"/><path class="cls-6" d="M636.54,211.61c0-1.96.48-3.85,1.44-5.67.96-1.83,2.32-3.22,4.08-4.18,1.76-.96,3.72-1.44,5.9-1.44,3.35,0,6.1,1.09,8.24,3.27,2.15,2.18,3.22,4.94,3.22,8.27s-1.08,6.15-3.24,8.35c-2.17,2.21-4.89,3.32-8.18,3.32-2.04,0-3.97-.46-5.82-1.38-1.84-.92-3.25-2.27-4.2-4.05-.96-1.78-1.44-3.94-1.44-6.49M642.56,211.93c0,2.2.52,3.87,1.57,5.04,1.04,1.16,2.33,1.75,3.86,1.75s2.82-.59,3.85-1.75c1.04-1.17,1.55-2.86,1.55-5.08s-.52-3.83-1.55-5c-1.04-1.16-2.32-1.75-3.85-1.75s-2.82.59-3.86,1.75c-1.05,1.17-1.57,2.85-1.57,5.04"/><path class="cls-6" d="M664.24,200.79h5.42v3.03c1.94-2.33,4.25-3.5,6.94-3.5,1.42,0,2.66.29,3.71.88,1.05.58,1.91,1.46,2.58,2.65.98-1.19,2.03-2.07,3.16-2.65,1.13-.58,2.34-.88,3.62-.88,1.63,0,3.01.33,4.15.99,1.13.66,1.98,1.64,2.53,2.92.41.95.61,2.48.61,4.6v14.18h-5.89v-12.68c0-2.2-.21-3.62-.61-4.26-.54-.83-1.38-1.25-2.51-1.25-.82,0-1.6.25-2.32.75-.72.5-1.25,1.23-1.57,2.21-.32.97-.48,2.5-.48,4.58v10.66h-5.88v-12.16c0-2.16-.11-3.55-.32-4.18-.21-.62-.53-1.09-.97-1.4-.45-.31-1.04-.46-1.8-.46-.91,0-1.72.24-2.45.73-.72.49-1.25,1.19-1.56,2.11s-.47,2.44-.47,4.57v10.78h-5.89v-22.21Z"/><path class="cls-6" d="M703.31,192.36h5.89v5.42h-5.89v-5.42ZM703.31,200.79h5.89v22.21h-5.89v-22.21Z"/><path class="cls-6" d="M735.28,207.34l-5.82,1.07c-.19-1.15-.64-2.02-1.33-2.61-.69-.58-1.59-.87-2.69-.87-1.46,0-2.63.51-3.5,1.51-.87,1.01-1.31,2.7-1.31,5.06,0,2.63.45,4.49,1.33,5.58.89,1.08,2.08,1.63,3.58,1.63,1.12,0,2.04-.32,2.75-.96.71-.64,1.22-1.75,1.51-3.32l5.75,1c-.59,2.67-1.75,4.69-3.45,6.05-1.7,1.36-3.98,2.04-6.84,2.04-3.24,0-5.83-1.03-7.76-3.07-1.93-2.05-2.9-4.89-2.9-8.51s.97-6.52,2.91-8.56c1.94-2.05,4.56-3.07,7.87-3.07,2.71,0,4.86.58,6.46,1.74,1.6,1.16,2.74,2.92,3.44,5.29"/><polygon class="cls-6" points="752.85 223 752.85 192.36 775.53 192.36 775.53 197.57 759.08 197.57 759.08 204.33 774.4 204.33 774.4 209.55 759.08 209.55 759.08 217.78 776.13 217.78 776.13 223 752.85 223"/><path class="cls-6" d="M802.08,223h-5.89v-11.32c0-2.4-.13-3.94-.37-4.65-.25-.7-.66-1.25-1.22-1.64-.56-.39-1.23-.59-2.03-.59-1.01,0-1.91.28-2.72.84-.8.55-1.35,1.3-1.65,2.21-.29.92-.45,2.62-.45,5.1v10.05h-5.89v-22.21h5.49v3.26c1.93-2.48,4.36-3.73,7.29-3.73,1.29,0,2.47.23,3.54.7,1.07.47,1.88,1.06,2.43,1.79.55.72.93,1.54,1.15,2.47.22.92.32,2.23.32,3.95v13.78Z"/><path class="cls-6" d="M821.48,215.9l5.88,1.01c-.75,2.16-1.94,3.8-3.56,4.93-1.62,1.13-3.65,1.7-6.09,1.7-3.85,0-6.71-1.27-8.56-3.78-1.46-2.02-2.19-4.58-2.19-7.66,0-3.68.96-6.56,2.89-8.65,1.92-2.08,4.35-3.13,7.29-3.13,3.3,0,5.91,1.09,7.82,3.27,1.91,2.19,2.82,5.53,2.74,10.04h-14.72c.04,1.73.51,3.08,1.41,4.04.9.96,2.02,1.44,3.37,1.44.91,0,1.68-.25,2.3-.76.63-.51,1.09-1.32,1.41-2.45M821.88,210.02c-.04-1.7-.48-3-1.32-3.89s-1.86-1.33-3.06-1.33c-1.28,0-2.35.47-3.18,1.41-.84.94-1.25,2.21-1.23,3.81h8.79Z"/><path class="cls-6" d="M838.74,223h-5.89v-22.21h5.48v3.16c.93-1.49,1.77-2.47,2.52-2.93.74-.46,1.59-.69,2.53-.69,1.33,0,2.62.37,3.85,1.11l-1.84,5.13c-.98-.64-1.9-.96-2.75-.96s-1.51.22-2.08.67c-.57.45-1.01,1.27-1.34,2.45s-.49,3.66-.49,7.42v6.84Z"/><path class="cls-6" d="M848.86,224.53l6.69.74c.11.82.37,1.38.79,1.69.56.44,1.45.66,2.68.66,1.55,0,2.72-.23,3.5-.7.53-.31.92-.81,1.19-1.51.18-.49.27-1.4.27-2.73l.02-3.28c-1.77,2.4-4.01,3.6-6.7,3.6-3,0-5.37-1.26-7.12-3.78-1.37-1.99-2.06-4.47-2.06-7.44,0-3.72.9-6.56,2.7-8.52,1.8-1.96,4.04-2.95,6.71-2.95s5.04,1.2,6.84,3.61v-3.14h5.48v19.99c0,2.63-.22,4.59-.65,5.89-.43,1.3-1.04,2.32-1.83,3.06-.78.74-1.83,1.32-3.14,1.74-1.31.42-3.49.63-5.5.63-3.79,0-5.95-.64-7.53-1.93-1.59-1.29-2.38-2.93-2.38-4.92,0-.19,0-.43.02-.71M854.14,211.44c0,2.36.45,4.08,1.37,5.17.92,1.09,2.05,1.64,3.39,1.64,1.44,0,2.66-.56,3.66-1.68.99-1.12,1.49-2.78,1.49-4.98s-.48-4-1.43-5.11c-.96-1.12-2.15-1.67-3.61-1.67s-2.58.55-3.5,1.64c-.91,1.09-1.37,2.76-1.37,5"/><path class="cls-6" d="M873.47,200.79h6.22l5.32,15.77,5.19-15.77h6.09l-7.81,21.37-1.44,3.93c-.52,1.3-1.01,2.29-1.47,2.98-.47.69-1,1.25-1.6,1.67-.61.43-1.87.76-2.76,1-.88.24-1.88.36-3,.36s-2.23-.12-3.32-.36v-4.6c.91.19,1.73.28,2.48.28,1.37,0,2.38-.41,3.03-1.23.66-.82,1.16-1.86,1.51-3.12l-8.43-22.28Z"/><path class="cls-6" d="M940.16,223h-6.7l-2.64-6.96h-12.33l-2.54,6.96h-6.57l11.92-30.64h6.57l12.29,30.64ZM928.83,210.82l-4.3-11.31-4.14,11.31h8.43Z"/><path class="cls-6" d="M943.31,224.53l6.69.74c.11.82.38,1.38.79,1.69.56.44,1.46.66,2.68.66,1.56,0,2.73-.23,3.5-.7.53-.31.92-.81,1.19-1.51.19-.49.27-1.4.27-2.73l.02-3.28c-1.77,2.4-4.01,3.6-6.7,3.6-3,0-5.37-1.26-7.12-3.78-1.37-1.99-2.06-4.47-2.06-7.44,0-3.72.9-6.56,2.7-8.52,1.8-1.96,4.04-2.95,6.72-2.95s5.04,1.2,6.84,3.61v-3.14h5.48v19.99c0,2.63-.21,4.59-.65,5.89-.43,1.3-1.04,2.32-1.83,3.06-.78.74-1.83,1.32-3.14,1.74-1.31.42-3.49.63-5.5.63-3.78,0-5.95-.64-7.53-1.93-1.59-1.29-2.38-2.93-2.38-4.92,0-.19,0-.43.02-.71M948.6,211.44c0,2.36.46,4.08,1.37,5.17.91,1.09,2.05,1.64,3.39,1.64,1.44,0,2.66-.56,3.65-1.68.99-1.12,1.49-2.78,1.49-4.98s-.48-4-1.43-5.11c-.95-1.12-2.15-1.67-3.61-1.67s-2.58.55-3.49,1.64c-.91,1.09-1.37,2.76-1.37,5"/><path class="cls-6" d="M983.51,215.9l5.89,1.01c-.75,2.16-1.94,3.8-3.56,4.93-1.62,1.13-3.66,1.7-6.09,1.7-3.86,0-6.72-1.27-8.56-3.78-1.46-2.02-2.2-4.58-2.2-7.66,0-3.68.96-6.56,2.89-8.65,1.92-2.08,4.36-3.13,7.29-3.13,3.3,0,5.92,1.09,7.82,3.27,1.91,2.19,2.82,5.53,2.74,10.04h-14.72c.04,1.73.51,3.08,1.41,4.04.9.96,2.03,1.44,3.37,1.44.91,0,1.68-.25,2.3-.76.63-.51,1.1-1.32,1.41-2.45M983.91,210.02c-.04-1.7-.48-3-1.31-3.89-.84-.89-1.86-1.33-3.06-1.33-1.28,0-2.35.47-3.19,1.41s-1.25,2.21-1.23,3.81h8.79Z"/><path class="cls-6" d="M1015.29,223h-5.89v-11.32c0-2.4-.13-3.94-.38-4.65-.25-.7-.65-1.25-1.21-1.64s-1.24-.59-2.02-.59c-1.01,0-1.92.28-2.73.84-.8.55-1.35,1.3-1.65,2.21-.3.92-.44,2.62-.44,5.1v10.05h-5.89v-22.21h5.49v3.26c1.92-2.48,4.36-3.73,7.28-3.73,1.29,0,2.47.23,3.54.7,1.07.47,1.88,1.06,2.43,1.79.55.72.93,1.54,1.14,2.47.22.92.33,2.23.33,3.95v13.78Z"/><path class="cls-6" d="M1041.31,207.34l-5.82,1.07c-.19-1.15-.64-2.02-1.33-2.61-.69-.58-1.58-.87-2.69-.87-1.46,0-2.63.51-3.5,1.51-.88,1.01-1.31,2.7-1.31,5.06,0,2.63.45,4.49,1.33,5.58.89,1.08,2.08,1.63,3.57,1.63,1.12,0,2.04-.32,2.75-.96.71-.64,1.22-1.75,1.51-3.32l5.75,1c-.6,2.67-1.75,4.69-3.45,6.05-1.7,1.36-3.98,2.04-6.83,2.04-3.25,0-5.84-1.03-7.77-3.07-1.93-2.05-2.89-4.89-2.89-8.51s.97-6.52,2.91-8.56c1.94-2.05,4.56-3.07,7.86-3.07,2.71,0,4.86.58,6.46,1.74,1.6,1.16,2.74,2.92,3.44,5.29"/><path class="cls-6" d="M1043.51,200.79h6.22l5.32,15.77,5.19-15.77h6.09l-7.81,21.37-1.44,3.93c-.52,1.3-1.01,2.29-1.47,2.98-.47.69-1,1.25-1.61,1.67-.61.43-1.87.76-2.75,1-.88.24-1.88.36-3,.36s-2.23-.12-3.32-.36l-.02-4.6c.92.19,1.75.28,2.49.28,1.37,0,2.38-.41,3.04-1.23.65-.82,1.15-1.86,1.51-3.12l-8.43-22.28Z"/><path class="cls-6" d="M347.02,297.33v.86h-13.2v-.86c2.79,0,4.19-.9,4.19-2.69l-.06-1.55-1.11-7.02h-11.78l-3.03,6.09c-.37.71-.65,1.31-.84,1.79-.19.48-.28.99-.28,1.52,0,.67.2,1.13.59,1.36.39.23,1.25.4,2.58.51v.86h-10.03v-.86c1.11-.25,1.97-.72,2.57-1.4.75-.82,2.2-3.08,4.34-6.76l15.56-26.82h1.39l5.04,30.36c.32,1.93.7,3.15,1.12,3.65.43.5,1.41.82,2.95.97M326.16,284.13h10.4l-2.36-13.9h-.05s-7.99,13.9-7.99,13.9Z"/><path class="cls-6" d="M365.79,275.23l-.27,1.72h-4.51s-4.72,17.86-4.72,17.86l-.05.45c0,.63.29.95.85.95.47,0,1.15-.49,2.04-1.47.32-.36,1.07-1.3,2.25-2.82l.7.38c-1.5,2.31-2.76,3.91-3.76,4.81-1.25,1.15-2.54,1.73-3.86,1.73-.68,0-1.23-.14-1.66-.43-.61-.39-.91-.97-.91-1.73,0-.25.13-.87.38-1.84.25-.97.53-2.02.85-3.13l3.88-14.75h-3.99c-.07-.36-.05-.64.08-.84.13-.2.51-.42,1.16-.67.86-.36,1.4-.59,1.61-.7.86-.47,1.84-1.18,2.93-2.15,1.09-.96,2.07-1.99,2.93-3.06.11-.14.23-.3.38-.46.14-.16.32-.22.54-.19.18-.07.3-.02.37.16s.07.4,0,.65l-1.5,5.53h4.26Z"/><path class="cls-6" d="M382.42,274.53c2.82,0,4.91.88,6.27,2.63,1.07,1.4,1.61,3.17,1.61,5.32,0,3.55-1.55,7.1-4.66,10.64-3.33,3.8-6.96,5.7-10.89,5.7-2.72,0-4.75-.71-6.09-2.12-1.34-1.42-2.01-3.29-2.01-5.62,0-3.98,1.65-7.74,4.96-11.27,3.31-3.53,6.91-5.29,10.81-5.29M382.04,275.66c-2.79,0-5.35,2.04-7.67,6.13-2.15,3.76-3.22,7.4-3.22,10.92,0,1.54.38,2.76,1.13,3.66.75.9,1.81,1.35,3.16,1.35,2.79,0,5.27-2.1,7.46-6.29,1.93-3.73,2.9-7.26,2.9-10.59,0-1.47-.32-2.7-.96-3.69-.64-.98-1.57-1.48-2.79-1.48"/><path class="cls-6" d="M429.36,291.91l.8.64-.27.38c-1.22,1.71-2.34,3.02-3.38,3.91-1.43,1.22-2.84,1.83-4.24,1.83-.96,0-1.63-.34-1.98-1.02-.18-.36-.27-.9-.27-1.61,0-.5.7-3.45,2.09-8.85,1.39-5.4,2.09-8.28,2.09-8.64,0-.82-.38-1.23-1.13-1.23-.96,0-2.31.89-4.02,2.68-1.47,1.54-2.7,3.09-3.7,4.66-1.18,1.86-2.15,3.86-2.9,6.01-.54,1.54-1.25,4.04-2.15,7.51h-4.02c1.32-4.79,2.34-8.55,3.06-11.27,1.36-5.04,2.04-7.76,2.04-8.15,0-.64-.11-1.04-.32-1.21-.22-.16-.5-.24-.86-.24-1.25,0-3.04,1.39-5.36,4.18-1.04,1.25-1.9,2.38-2.58,3.38-.93,1.43-1.81,3.22-2.63,5.37-.57,1.57-1.43,4.22-2.57,7.94h-4.02c1.65-5.97,2.93-10.69,3.86-14.14.93-3.45,1.4-5.35,1.4-5.71,0-.57-.22-.93-.67-1.07-.45-.14-1.37-.22-2.76-.22v-.86l8.58-1.66h.16l-3,10.84.11.11c1.5-2.43,3.08-4.58,4.72-6.44,2.68-3,4.99-4.5,6.92-4.5,2.11,0,3.17,1.16,3.17,3.49,0,.35-.22,1.39-.66,3.08-.44,1.7-.84,3.12-1.22,4.26v.11c1.97-3.25,3.93-5.85,5.9-7.78,2.15-2.11,4.06-3.16,5.74-3.16.97,0,1.73.32,2.31.96s.86,1.52.86,2.63c0,.64-.45,2.63-1.34,5.95-1,3.68-2,7.35-3,11,0,.43.05.71.16.86.11.14.32.21.64.21.47,0,1.07-.39,1.82-1.18.61-.61,1.49-1.63,2.63-3.06"/><path class="cls-6" d="M433.43,290.36h.86c.32,1.98.75,3.49,1.29,4.54.97,1.88,2.4,2.81,4.29,2.81,1.36,0,2.38-.5,3.06-1.51.53-.79.8-1.75.8-2.86s-1.06-3.23-3.19-6.25c-2.13-3.02-3.19-5.23-3.19-6.63s.35-2.57,1.07-3.61c1.11-1.58,2.9-2.37,5.37-2.37.89,0,2.02.21,3.38.62.75.23,1.33.34,1.72.34s.7-.09.91-.27.41-.41.59-.7h.75l-1.07,7.45h-.86c-.14-1.79-.57-3.2-1.28-4.23-.86-1.29-2.11-1.93-3.76-1.93-.79,0-1.41.18-1.88.54-.68.54-1.02,1.4-1.02,2.58,0,1.04,1.09,3.01,3.27,5.92,2.18,2.9,3.27,5.18,3.27,6.83,0,2.61-.95,4.55-2.84,5.8-1.43.93-3.14,1.4-5.15,1.4-.36,0-1.47-.24-3.33-.74-.86-.22-1.52-.34-1.98-.34-.29,0-.5.05-.64.15-.14.1-.36.41-.64.92h-.86l1.07-8.48Z"/><path class="cls-6" d="M468.41,276.95l.38-1.72h4.93c1.18-3.84,2.31-6.66,3.38-8.45,2.04-3.34,4.52-5.01,7.45-5.01,1.68,0,2.95.45,3.81,1.34.61.64.91,1.36.91,2.15,0,.54-.22,1.03-.67,1.47-.45.45-.96.67-1.53.67-.75,0-1.28-.22-1.58-.67-.3-.45-.46-.9-.46-1.37,0-.43.09-.79.27-1.07.18-.29.27-.52.27-.7,0-.43-.41-.64-1.23-.64-1.89,0-3.47,1.71-4.72,5.12-.64,1.76-1.23,4.15-1.77,7.17h5.79l-.32,1.72h-5.87s-3.82,17.17-3.82,17.17c-1.25,5.52-2.92,9.53-5,12.02-1.68,2.07-3.62,3.1-5.8,3.1-1,0-1.86-.21-2.58-.64-.93-.57-1.47-1.41-1.61-2.52.04-.5.11-.88.22-1.12.32-.79.89-1.18,1.72-1.18.46,0,.94.18,1.42.54.48.35.72.84.72,1.45,0,.36-.08.66-.24.91-.16.25-.24.45-.24.59,0,.57.34.86,1.02.86,1.47,0,2.72-1.17,3.75-3.52.57-1.31,1.07-3.02,1.5-5.12l4.72-22.53h-4.83Z"/><path class="cls-6" d="M499.04,274.53c2.82,0,4.92.88,6.27,2.63,1.07,1.4,1.61,3.17,1.61,5.32,0,3.55-1.55,7.1-4.67,10.64-3.33,3.8-6.96,5.7-10.89,5.7-2.72,0-4.75-.71-6.09-2.12-1.34-1.42-2.01-3.29-2.01-5.62,0-3.98,1.65-7.74,4.96-11.27,3.31-3.53,6.91-5.29,10.81-5.29M498.66,275.66c-2.79,0-5.35,2.04-7.67,6.13-2.15,3.76-3.22,7.4-3.22,10.92,0,1.54.37,2.76,1.13,3.66.75.9,1.8,1.35,3.16,1.35,2.79,0,5.27-2.1,7.45-6.29,1.93-3.73,2.9-7.26,2.9-10.59,0-1.47-.32-2.7-.96-3.69-.64-.98-1.57-1.48-2.79-1.48"/><path class="cls-6" d="M515.51,298.19h-4.08l4.34-15.66c.29-1.04.5-1.92.64-2.66.14-.73.21-1.28.21-1.63,0-.61-.17-1.03-.51-1.27-.34-.23-.82-.35-1.42-.35-.36,0-.7.03-1.02.11-.32.07-.57.13-.75.16v-.91c1.29-.18,2.71-.41,4.26-.7,2.44-.46,3.8-.72,4.09-.75h.16s-2.65,10.78-2.65,10.78l.1.11.43-1.07c1.22-2.4,2.54-4.47,3.97-6.22,1.97-2.4,3.72-3.59,5.25-3.59.72,0,1.32.22,1.83.64.5.43.75,1.09.75,1.99,0,1.18-.34,1.99-1.02,2.41-.39.25-.89.37-1.5.37-.86,0-1.45-.32-1.77-.96-.32-.64-.66-.96-1.02-.96-.5,0-1.27.67-2.31,2.01-1.04,1.34-2.03,2.9-2.98,4.69-.95,1.79-1.73,3.55-2.36,5.29-.63,1.73-1.51,4.46-2.65,8.18"/><path class="cls-6" d="M551.88,264.02v-.86h13.3c3.65,0,6.44.68,8.39,2.04,1.95,1.36,2.93,3.4,2.93,6.12,0,2.54-.95,4.78-2.84,6.7-2.5,2.54-6.14,3.81-10.93,3.81-1.71,0-2.9-.03-3.56-.08-.66-.05-1.36-.17-2.12-.34l-2.82,10.36c-.31,1-.5,1.69-.58,2.08-.08.39-.11.79-.11,1.18,0,.82.23,1.36.7,1.6.46.25,1.44.48,2.95.7v.86h-13.14v-.86c1.25-.22,2.02-.38,2.31-.48.86-.39,1.56-1.56,2.09-3.49l6.33-22.8c.18-.54.38-1.27.59-2.2.21-.93.32-1.57.32-1.93,0-.89-.29-1.47-.86-1.74-.57-.27-1.56-.49-2.95-.67M561.31,266.27l-3.8,13.3c.43.08.82.14,1.18.19.36.05.77.08,1.23.08,3.19,0,5.51-.36,6.97-1.07,2.72-1.32,4.08-3.91,4.08-7.77,0-2.15-.5-3.69-1.51-4.62-1.14-1.07-3.15-1.61-6.01-1.61-.72,0-1.25.16-1.61.48-.18.18-.36.52-.54,1.02"/><path class="cls-6" d="M592.11,292.34l.64.65c-.97,1.41-2.69,2.79-5.15,4.17-2.04,1.12-3.93,1.67-5.69,1.67-2.57,0-4.5-.84-5.79-2.53-1.04-1.32-1.55-3.01-1.55-5.05,0-3.87,1.73-7.63,5.18-11.26,3.45-3.64,7.07-5.46,10.86-5.46,2.93,0,4.4,1.22,4.4,3.66,0,2.19-1.24,4.22-3.73,6.11-2.48,1.88-5.82,3.13-10,3.74l-1.5.22c-.18.79-.31,1.39-.4,1.83-.09.43-.14.91-.14,1.45,0,1.69.56,2.96,1.67,3.82.89.72,2.02,1.08,3.38,1.08,1.29,0,2.61-.4,3.97-1.2.89-.54,2.18-1.5,3.86-2.88M581.06,284.67l-.91,2.36c3.61-.75,6.4-1.99,8.37-3.73,1.97-1.73,2.95-3.53,2.95-5.39,0-.61-.15-1.12-.45-1.53-.3-.41-.78-.61-1.42-.61-1.43,0-2.95.86-4.56,2.57-1.61,1.72-2.93,3.83-3.97,6.33"/><path class="cls-6" d="M621.99,292.29l.64.55c-3.18,4-5.63,6-7.35,6-1,0-1.66-.27-1.98-.81-.18-.29-.27-.79-.27-1.51,0-.93.37-2.84,1.12-5.72v-.11c-2.16,3.15-4.07,5.33-5.72,6.54-1.47,1.07-3.09,1.61-4.86,1.61s-3.18-.53-4.13-1.58c-.95-1.06-1.43-2.64-1.43-4.76,0-3.98,1.67-7.97,5.02-11.96,3.34-3.99,6.78-6,10.32-6,1.14,0,2.12.29,2.92.86.8.57,1.24,1.25,1.31,2.04l.64-2.36.16-.16,3.27-.38.37.16c-.46,1.76-.93,3.53-1.39,5.29-1.14,4.39-1.95,7.53-2.41,9.44-.86,3.52-1.29,5.52-1.29,5.98s.25.7.75.7c.32,0,1.75-1.27,4.29-3.81M602.52,292.39c0,1.29.35,2.28,1.07,2.96.61.57,1.32.86,2.15.86,2.61,0,5.15-2.15,7.62-6.46,2.22-3.87,3.33-7.35,3.33-10.43,0-1.22-.3-2.12-.88-2.72-.59-.59-1.31-.89-2.18-.89-2.82,0-5.45,2.17-7.89,6.51-2.15,3.84-3.22,7.22-3.22,10.16"/><path class="cls-6" d="M643.07,292.5l.86.54c-1.18,1.52-2.32,2.69-3.43,3.51-2.04,1.52-4.26,2.28-6.65,2.28-2.18,0-3.93-.52-5.26-1.56-1.79-1.4-2.68-3.71-2.68-6.94,0-3.87,1.57-7.47,4.72-10.8,3.15-3.33,6.69-5,10.63-5,2,0,3.54.52,4.61,1.55.82.79,1.23,1.72,1.23,2.79,0,.72-.25,1.31-.75,1.77-.5.47-1.09.7-1.77.7-1.43,0-2.15-.66-2.15-1.99,0-.54.13-1.06.4-1.55.27-.5.4-.86.4-1.07,0-.36-.21-.63-.62-.8-.42-.18-.89-.27-1.42-.27-3.15,0-5.79,1.8-7.94,5.38-1.82,3.09-2.73,6.19-2.73,9.31,0,4.37,1.62,6.56,4.88,6.56,1.46,0,2.9-.45,4.29-1.36,1.04-.69,2.16-1.7,3.38-3.04"/><path class="cls-6" d="M667.69,292.34l.64.65c-.97,1.41-2.69,2.79-5.15,4.17-2.04,1.12-3.93,1.67-5.69,1.67-2.57,0-4.5-.84-5.79-2.53-1.04-1.32-1.55-3.01-1.55-5.05,0-3.87,1.73-7.63,5.18-11.26,3.45-3.64,7.07-5.46,10.86-5.46,2.93,0,4.4,1.22,4.4,3.66,0,2.19-1.24,4.22-3.73,6.11-2.48,1.88-5.82,3.13-10,3.74l-1.5.22c-.18.79-.31,1.39-.4,1.83-.09.43-.13.91-.13,1.45,0,1.69.55,2.96,1.66,3.82.89.72,2.02,1.08,3.38,1.08,1.29,0,2.61-.4,3.97-1.2.89-.54,2.18-1.5,3.86-2.88M656.64,284.67l-.91,2.36c3.61-.75,6.4-1.99,8.37-3.73,1.96-1.73,2.95-3.53,2.95-5.39,0-.61-.15-1.12-.46-1.53-.3-.41-.78-.61-1.42-.61-1.43,0-2.95.86-4.56,2.57-1.61,1.72-2.93,3.83-3.97,6.33"/><path class="cls-6" d="M711.36,292.29l.64.55c-3.18,4-5.63,6-7.35,6-1,0-1.67-.27-1.99-.81-.18-.29-.27-.79-.27-1.51,0-.93.38-2.84,1.12-5.72v-.11c-2.16,3.15-4.07,5.33-5.72,6.54-1.47,1.07-3.09,1.61-4.86,1.61s-3.18-.53-4.13-1.58c-.95-1.06-1.43-2.64-1.43-4.76,0-3.98,1.67-7.97,5.02-11.96,3.34-3.99,6.78-6,10.32-6,1.14,0,2.12.29,2.92.86.8.57,1.24,1.25,1.31,2.04l.64-2.36.16-.16,3.27-.38.37.16c-.46,1.76-.93,3.53-1.39,5.29-1.14,4.39-1.95,7.53-2.41,9.44-.86,3.52-1.29,5.52-1.29,5.98s.25.7.75.7c.32,0,1.75-1.27,4.29-3.81M691.88,292.39c0,1.29.35,2.28,1.07,2.96.61.57,1.32.86,2.15.86,2.61,0,5.15-2.15,7.62-6.46,2.22-3.87,3.33-7.35,3.33-10.43,0-1.22-.3-2.12-.88-2.72-.59-.59-1.31-.89-2.18-.89-2.82,0-5.45,2.17-7.89,6.51-2.15,3.84-3.22,7.22-3.22,10.16"/><path class="cls-6" d="M738.34,291.91l.75.7c-1.32,1.79-2.24,2.95-2.74,3.49-1.57,1.72-3.15,2.58-4.72,2.58-1.11,0-1.82-.27-2.12-.81-.3-.53-.45-1.32-.45-2.36,0-.36.66-3,1.99-7.94,1.32-4.94,1.98-7.79,1.98-8.58,0-1.14-.45-1.72-1.34-1.72-1.15,0-2.54.9-4.18,2.68-1.18,1.29-2.42,2.93-3.7,4.94-1.15,1.72-2.07,3.49-2.79,5.31-.5,1.25-1.36,3.91-2.58,7.99h-4.02c.29-1.04.98-3.56,2.09-7.57.97-3.43,1.68-6.06,2.15-7.89.68-2.57,1.02-4,1.02-4.29,0-.46-.22-.81-.67-1.04s-1.37-.35-2.76-.35v-.86l8.69-1.66h.16l-3.43,11.32.1.11c1.97-3.11,3.7-5.51,5.21-7.19,2.5-2.82,4.74-4.24,6.7-4.24,2.47,0,3.7,1.18,3.7,3.54,0,.82-.71,3.77-2.15,8.85-1.43,5.08-2.14,7.85-2.14,8.32,0,.32.14.57.43.75.07.04.21.09.43.16.46,0,1.07-.39,1.82-1.18.61-.64,1.47-1.66,2.58-3.06"/><path class="cls-6" d="M765.7,292.23l.64.53c-1.11,1.7-2.41,3.14-3.91,4.31-1.5,1.17-2.72,1.75-3.65,1.75s-1.58-.24-1.96-.71c-.38-.48-.56-1.05-.56-1.72,0-.98.22-2.41.64-4.28v-.11c-1.8,2.72-3.55,4.6-5.24,5.63-1.3.79-2.76,1.18-4.38,1.18-2.02,0-3.51-.7-4.48-2.09-.76-1.11-1.14-2.53-1.14-4.25,0-3.98,1.77-7.97,5.31-11.96,3.54-3.99,6.94-5.99,10.19-5.99,1.32,0,2.27.34,2.84,1.02.32.39.57,1.04.75,1.93l.11-.1,2.31-8.53c.11-.36.27-.98.48-1.85.21-.88.32-1.46.32-1.74,0-.65-.2-1.07-.59-1.26-.39-.2-1.31-.3-2.74-.3v-.91c1.51-.14,2.88-.3,4.13-.48,1.25-.18,2.61-.43,4.08-.75l.27.27c-.79,3.18-1.88,7.35-3.27,12.5-1.25,4.58-2.49,9.09-3.7,13.55-1.22,4.45-1.83,6.79-1.83,7,0,.36.09.64.27.86.18.22.41.32.7.32.72,0,2.18-1.27,4.4-3.81M749.6,296.26c2.43,0,4.79-1.97,7.08-5.92,2.18-3.77,3.28-7.42,3.28-10.97,0-1.07-.09-1.83-.27-2.26-.39-.9-1.14-1.34-2.25-1.34-2.72,0-5.31,2.13-7.78,6.4-2.22,3.84-3.33,7.21-3.33,10.11,0,1,.13,1.77.38,2.31.5,1.11,1.47,1.67,2.9,1.67"/><path class="cls-6" d="M788.82,264.02v-.86h14.91c5.54,0,9.69,1.66,12.44,4.99,2.15,2.58,3.22,5.67,3.22,9.28,0,5.72-2.09,10.53-6.28,14.43-4.54,4.22-10.58,6.33-18.13,6.33h-13.57v-.86c1.43-.25,2.36-.56,2.79-.91.61-.5,1.13-1.52,1.55-3.06l6.6-23.71c.07-.29.19-.82.35-1.61.16-.79.24-1.36.24-1.72,0-1.54-1.38-2.31-4.13-2.31M798.63,266.32l-6.5,23.17c-.39,1.47-.68,2.6-.87,3.41-.19.8-.29,1.33-.29,1.59,0,.82.3,1.38.89,1.66.59.29,1.56.43,2.92.43,5.08,0,9.19-1.47,12.34-4.4,2.39-2.21,4.15-5.15,5.26-8.8.71-2.36,1.07-4.56,1.07-6.6,0-3.36-.7-6.04-2.09-8.05-1.86-2.65-4.94-3.97-9.23-3.97-1.36,0-2.29.16-2.79.48-.32.22-.56.58-.7,1.07"/><path class="cls-6" d="M840.15,292.34l.64.65c-.97,1.41-2.69,2.79-5.15,4.17-2.04,1.12-3.93,1.67-5.69,1.67-2.57,0-4.5-.84-5.79-2.53-1.04-1.32-1.55-3.01-1.55-5.05,0-3.87,1.73-7.63,5.18-11.26,3.45-3.64,7.07-5.46,10.86-5.46,2.93,0,4.4,1.22,4.4,3.66,0,2.19-1.24,4.22-3.73,6.11-2.49,1.88-5.82,3.13-10.01,3.74l-1.5.22c-.18.79-.31,1.39-.4,1.83-.09.43-.13.91-.13,1.45,0,1.69.55,2.96,1.66,3.82.89.72,2.02,1.08,3.38,1.08,1.29,0,2.61-.4,3.97-1.2.9-.54,2.18-1.5,3.86-2.88M829.1,284.67l-.91,2.36c3.61-.75,6.4-1.99,8.37-3.73,1.96-1.73,2.95-3.53,2.95-5.39,0-.61-.16-1.12-.46-1.53-.3-.41-.78-.61-1.42-.61-1.43,0-2.95.86-4.56,2.57-1.61,1.72-2.93,3.83-3.97,6.33"/><path class="cls-6" d="M845.46,276.57v-.7c1.96-.29,3.56-.57,4.77-.86.68-.14,1.36-.3,2.04-.48.29,0,.47.04.54.11.07.07.18.4.32.97.9,3.9,1.5,7.11,1.83,9.63.32,2.52.48,5.59.48,9.2l1.66-1.72c1.68-1.75,3.29-3.85,4.83-6.28,1.68-2.68,2.52-4.66,2.52-5.95,0-.61-.37-1.23-1.12-1.88-.75-.64-1.13-1.48-1.13-2.52,0-.43.19-.8.56-1.1.38-.3.83-.46,1.37-.46.93,0,1.67.32,2.23.94.55.63.83,1.44.83,2.44,0,2.15-1.39,5.26-4.18,9.33-1.86,2.72-3.72,5.07-5.58,7.05-1.86,1.99-2.86,3.05-3.01,3.19-1.07,1.11-1.84,1.67-2.31,1.67-.21,0-.35-.12-.4-.35-.05-.24-.08-.66-.08-1.26,0-2.26-.13-4.96-.37-8.13-.25-3.16-.54-5.69-.86-7.56-.32-1.88-.57-3.05-.75-3.51-.43-1.22-1.36-1.83-2.79-1.83-.57,0-1.04.02-1.39.05"/><path class="cls-6" d="M887.74,292.34l.64.65c-.97,1.41-2.69,2.79-5.15,4.17-2.04,1.12-3.93,1.67-5.69,1.67-2.57,0-4.5-.84-5.79-2.53-1.04-1.32-1.55-3.01-1.55-5.05,0-3.87,1.73-7.63,5.18-11.26,3.45-3.64,7.07-5.46,10.86-5.46,2.93,0,4.4,1.22,4.4,3.66,0,2.19-1.24,4.22-3.73,6.11-2.48,1.88-5.82,3.13-10,3.74l-1.5.22c-.18.79-.31,1.39-.4,1.83-.09.43-.14.91-.14,1.45,0,1.69.56,2.96,1.67,3.82.89.72,2.02,1.08,3.38,1.08,1.29,0,2.61-.4,3.97-1.2.89-.54,2.18-1.5,3.86-2.88M876.68,284.67l-.91,2.36c3.61-.75,6.4-1.99,8.37-3.73,1.96-1.73,2.95-3.53,2.95-5.39,0-.61-.15-1.12-.45-1.53-.3-.41-.78-.61-1.42-.61-1.43,0-2.95.86-4.56,2.57-1.61,1.72-2.93,3.83-3.97,6.33"/><path class="cls-6" d="M904.95,291.59l.7.49c-1.54,2.31-2.82,3.94-3.86,4.92-1.32,1.22-2.75,1.84-4.29,1.84-1.04,0-1.73-.31-2.07-.94-.34-.63-.51-1.43-.51-2.39,0-.36.64-2.96,1.93-7.82,1.29-4.85,2.58-9.74,3.89-14.67,1.31-4.92,1.96-7.53,1.96-7.81,0-.61-.34-.99-1.02-1.13-.68-.14-1.55-.21-2.63-.21v-.86c2.79-.32,5.58-.8,8.37-1.45l.27.27-8.1,31.11c-.11.5-.19.9-.27,1.19-.18.75-.27,1.2-.27,1.34,0,.72.27,1.07.8,1.07.86,0,2.56-1.65,5.1-4.94"/><path class="cls-6" d="M925.23,274.53c2.82,0,4.91.88,6.27,2.63,1.07,1.4,1.61,3.17,1.61,5.32,0,3.55-1.56,7.1-4.67,10.64-3.32,3.8-6.96,5.7-10.89,5.7-2.72,0-4.75-.71-6.09-2.12-1.34-1.42-2.01-3.29-2.01-5.62,0-3.98,1.65-7.74,4.96-11.27,3.31-3.53,6.91-5.29,10.81-5.29M924.85,275.66c-2.79,0-5.35,2.04-7.67,6.13-2.15,3.76-3.22,7.4-3.22,10.92,0,1.54.37,2.76,1.12,3.66.75.9,1.81,1.35,3.17,1.35,2.79,0,5.27-2.1,7.45-6.29,1.93-3.73,2.9-7.26,2.9-10.59,0-1.47-.32-2.7-.96-3.69-.64-.98-1.57-1.48-2.79-1.48"/><path class="cls-6" d="M938.21,276.57l-.11-.86,8.32-1.18c.18.22.23.45.16.7l-1.44,4.99v.11c1.04-1.5,2.1-2.7,3.18-3.59,1.8-1.46,3.68-2.2,5.62-2.2,2.27,0,3.94.68,5.02,2.04.93,1.19,1.41,2.85,1.41,5,0,4.12-1.73,8.03-5.18,11.72-3.45,3.69-7.05,5.54-10.81,5.54-1.25,0-2.47-.32-3.65-.96-.43,1.68-.82,3.24-1.18,4.66-.54,2.25-.81,3.63-.81,4.13,0,.75.39,1.25,1.18,1.5.47.14,1.22.22,2.25.22v.86h-11v-.86c1.25,0,2.15-.3,2.68-.91.32-.39.63-1.15.91-2.26.54-2.26,1.34-5.41,2.41-9.46,1.68-6.34,2.68-10.15,3-11.45,1-3.87,1.51-5.95,1.51-6.23,0-.47-.22-.84-.64-1.13-.43-.29-.97-.43-1.61-.43l-1.23.05ZM955.54,281.41c0-1.65-.29-2.82-.88-3.53-.59-.7-1.47-1.05-2.66-1.05-1.29,0-2.61.58-3.97,1.72-1.36,1.15-2.39,2.63-3.09,4.46-.7,1.83-1.45,4.17-2.25,7.02-.8,2.85-1.21,4.78-1.21,5.78,0,.64.26,1.14.78,1.48.52.34,1.15.51,1.91.51,3.04,0,5.76-1.93,8.16-5.8,2.14-3.48,3.22-7.01,3.22-10.6"/><path class="cls-6" d="M999.36,291.91l.8.64-.27.38c-1.21,1.71-2.34,3.02-3.38,3.91-1.43,1.22-2.84,1.83-4.23,1.83-.96,0-1.63-.34-1.99-1.02-.18-.36-.27-.9-.27-1.61,0-.5.7-3.45,2.09-8.85,1.4-5.4,2.1-8.28,2.1-8.64,0-.82-.38-1.23-1.13-1.23-.97,0-2.31.89-4.02,2.68-1.47,1.54-2.7,3.09-3.7,4.66-1.18,1.86-2.15,3.86-2.9,6.01-.53,1.54-1.25,4.04-2.15,7.51h-4.02c1.33-4.79,2.34-8.55,3.06-11.27,1.36-5.04,2.04-7.76,2.04-8.15,0-.64-.11-1.04-.32-1.21-.21-.16-.5-.24-.86-.24-1.25,0-3.04,1.39-5.37,4.18-1.04,1.25-1.89,2.38-2.57,3.38-.93,1.43-1.81,3.22-2.63,5.37-.57,1.57-1.43,4.22-2.57,7.94h-4.02c1.64-5.97,2.93-10.69,3.86-14.14.93-3.45,1.39-5.35,1.39-5.71,0-.57-.22-.93-.67-1.07-.45-.14-1.37-.22-2.76-.22v-.86l8.58-1.66h.16l-3,10.84.11.11c1.5-2.43,3.07-4.58,4.72-6.44,2.68-3,4.99-4.5,6.92-4.5,2.11,0,3.16,1.16,3.16,3.49,0,.35-.22,1.39-.66,3.08-.44,1.7-.84,3.12-1.22,4.26v.11c1.97-3.25,3.94-5.85,5.9-7.78,2.15-2.11,4.06-3.16,5.74-3.16.97,0,1.73.32,2.31.96s.86,1.52.86,2.63c0,.64-.45,2.63-1.35,5.95-1,3.68-2,7.35-3,11,0,.43.05.71.16.86.11.14.32.21.64.21.47,0,1.07-.39,1.83-1.18.61-.61,1.48-1.63,2.63-3.06"/><path class="cls-6" d="M1020.71,292.34l.64.65c-.97,1.41-2.69,2.79-5.15,4.17-2.04,1.12-3.93,1.67-5.69,1.67-2.57,0-4.5-.84-5.79-2.53-1.04-1.32-1.55-3.01-1.55-5.05,0-3.87,1.73-7.63,5.18-11.26,3.45-3.64,7.07-5.46,10.86-5.46,2.93,0,4.4,1.22,4.4,3.66,0,2.19-1.24,4.22-3.73,6.11-2.49,1.88-5.82,3.13-10.01,3.74l-1.5.22c-.18.79-.31,1.39-.4,1.83-.09.43-.13.91-.13,1.45,0,1.69.55,2.96,1.66,3.82.89.72,2.02,1.08,3.38,1.08,1.29,0,2.61-.4,3.97-1.2.9-.54,2.18-1.5,3.86-2.88M1009.66,284.67l-.91,2.36c3.61-.75,6.4-1.99,8.37-3.73,1.97-1.73,2.95-3.53,2.95-5.39,0-.61-.16-1.12-.46-1.53-.3-.41-.78-.61-1.42-.61-1.43,0-2.95.86-4.56,2.57-1.61,1.72-2.93,3.83-3.97,6.33"/></g><g class="cls-3"><path class="cls-6" d="M1050.38,291.91l.75.7c-1.32,1.79-2.24,2.95-2.74,3.49-1.57,1.72-3.14,2.58-4.72,2.58-1.11,0-1.82-.27-2.12-.81-.3-.53-.46-1.32-.46-2.36,0-.36.66-3,1.99-7.94,1.32-4.94,1.98-7.79,1.98-8.58,0-1.14-.45-1.72-1.34-1.72-1.15,0-2.54.9-4.18,2.68-1.18,1.29-2.42,2.93-3.7,4.94-1.15,1.72-2.08,3.49-2.79,5.31-.5,1.25-1.36,3.91-2.58,7.99h-4.02c.29-1.04.98-3.56,2.09-7.57.97-3.43,1.68-6.06,2.15-7.89.68-2.57,1.02-4,1.02-4.29,0-.46-.22-.81-.67-1.04s-1.37-.35-2.76-.35v-.86l8.69-1.66h.16l-3.43,11.32.1.11c1.97-3.11,3.7-5.51,5.21-7.19,2.5-2.82,4.74-4.24,6.7-4.24,2.47,0,3.7,1.18,3.7,3.54,0,.82-.72,3.77-2.15,8.85-1.43,5.08-2.14,7.85-2.14,8.32,0,.32.14.57.43.75.07.04.22.09.43.16.46,0,1.07-.39,1.82-1.18.61-.64,1.47-1.66,2.58-3.06"/><path class="cls-6" d="M1068.78,275.23l-.27,1.72h-4.51s-4.71,17.86-4.71,17.86l-.05.45c0,.63.29.95.85.95.47,0,1.15-.49,2.04-1.47.32-.36,1.07-1.3,2.25-2.82l.69.38c-1.5,2.31-2.75,3.91-3.75,4.81-1.25,1.15-2.54,1.73-3.86,1.73-.68,0-1.23-.14-1.66-.43-.61-.39-.91-.97-.91-1.73,0-.25.12-.87.37-1.84.25-.97.53-2.02.85-3.13l3.89-14.75h-3.99c-.07-.36-.05-.64.08-.84.13-.2.51-.42,1.15-.67.86-.36,1.4-.59,1.62-.7.86-.47,1.84-1.18,2.93-2.15,1.09-.96,2.07-1.99,2.93-3.06.1-.14.23-.3.37-.46.14-.16.32-.22.54-.19.18-.07.3-.02.38.16.07.18.07.4,0,.65l-1.51,5.53h4.27Z"/></g></svg>