<?xml version="1.0" encoding="utf-8"?>
<!-- Generator: Adobe Illustrator 26.0.3, SVG Export Plug-In . SVG Version: 6.00 Build 0)  -->
<svg version="1.0" id="Layer_1" xmlns="http://www.w3.org/2000/svg" xmlns:xlink="http://www.w3.org/1999/xlink" x="0px" y="0px"
	 viewBox="0 0 306.1 217.2" style="enable-background:new 0 0 306.1 217.2;" xml:space="preserve">
<style type="text/css">
	.st0{fill:#355AAC;}
</style>
<path class="st0" d="M156.6,185.2c1.6-1.9,3.4-3.9,4.6-5.1c1.3-1.4,3-2.2,4.9-2.4c0,0-2.8-1.4-5.8,1.6c-0.8,0.8-2.6,2.8-4.4,4.9
	c-0.7-0.7-1.3-1.5-2-2.1c0.7-0.8,1.3-1.4,1.9-2c1.3-1.4,3-2.3,4.9-2.4c0,0-2.8-1.4-5.8,1.6c-0.4,0.4-1,1-1.7,1.8
	c-0.7-0.8-1.3-1.4-1.7-1.8c-3-3-5.8-1.6-5.8-1.6c1.9,0.1,3.6,1,4.9,2.4c0.6,0.6,1.2,1.2,1.9,2c-0.6,0.6-1.3,1.4-2,2.1
	c-1.8-2-3.6-4.1-4.4-4.9c-3-3-5.8-1.6-5.8-1.6c1.9,0.1,3.6,1,4.9,2.4c1.2,1.2,2.9,3.2,4.6,5.1c-1.6,1.7-3,3.3-3.9,4.2
	c-1.2,1.2-2.7,1.9-4.3,2.1c0,0,2.5,1.5,5.9-2.1c1.1-1.1,2.1-2.2,3.1-3.4c0.7,0.8,1.3,1.6,1.9,2.2c-0.4,0.3-0.7,0.7-1,1.1
	c-1.2,1.2-2.7,1.9-4.3,2.1c0,0,2.5,1.5,5.9-2.1c0.1-0.1,0.2-0.2,0.3-0.3c0.1,0.2,0.2,0.2,0.3,0.3c3.4,3.5,5.9,2.1,5.9,2.1
	c-1.6-0.2-3.2-1-4.3-2.1c-0.3-0.4-0.6-0.8-1-1.1c0.6-0.6,1.2-1.4,1.9-2.2c1.3,1.5,2.4,2.8,3,3.4c3.5,3.5,6,2.1,6,2.1
	c-1.6-0.2-3.2-1-4.3-2.1C159.6,188.5,158.2,186.8,156.6,185.2z M153.1,187.3c-0.6-0.6-1.3-1.4-2-2.1l2-2.2l2,2.2
	C154.3,185.9,153.7,186.7,153.1,187.3z"/>
<path class="st0" d="M90.1,81.7c0.4,1.2,1.6,2,2.8,1.9c0.4,0,0.8-0.1,1.2-0.2l0.2,0.2c0.2,0.3,0.4,0.5,0.7,0.7
	c0.1,0.1,0.2,0.1,0.3,0.1c0.2,0,0.3-0.1,0.4-0.2c0.2-0.2,0.1-0.6-0.2-0.7c-0.2-0.1-0.4-0.3-0.5-0.5L95.1,83c0.5-0.3,1-0.7,1.3-1.3
	c0.3-0.6,0.4-1.4,0.2-2.1c-0.1-0.5-0.5-0.8-1-0.9l-0.1,0.1c0-0.2-0.1-0.4-0.2-0.6c-0.5-1.6-1.9-2.8-2.9-2.7
	c-0.2-0.2-0.4-0.2-0.6-0.2c-0.2,0.1-0.4,0.3-0.4,0.5c-0.3,0.2-0.5,0.4-0.7,0.7c-0.5,1-0.5,2.2-0.2,3.2c0,0.2,0.1,0.3,0.2,0.5h-0.1
	C90.2,80.7,90,81.2,90.1,81.7z M95.7,80.2c0,0.3,0,0.7-0.2,1c-0.3,0.6-0.9,1-1.6,1.2c-0.3,0.1-0.6,0.2-0.9,0.2
	c-0.7,0.1-1.4-0.3-1.7-1c0.3,0.1,0.6,0.1,0.9,0.1c0.5,0,1-0.1,1.5-0.2C94.4,81.2,95.1,80.8,95.7,80.2z M91.6,77.2
	c0.1-0.2,0.2-0.3,0.3-0.3s0.2-0.1,0.2-0.2h0.2c0.4-0.2,1.6,0.7,2,2c0.2,0.4,0.2,0.8,0.2,1.3c-0.3,0.3-0.7,0.5-1.2,0.6
	c-0.4,0.1-0.8,0.1-1.2,0.2H92c-0.2-0.3-0.4-0.7-0.6-1.1C91.1,78.8,91.2,77.9,91.6,77.2z"/>
<path class="st0" d="M101.9,90.1c0.5,0,0.9-0.3,1.1-0.7v-0.1h0.6c1.1,0,2.2-0.5,2.9-1.3c0.3-0.2,0.5-0.5,0.5-0.9
	c0.1-0.1,0.3-0.2,0.3-0.5c0-0.2-0.2-0.5-0.4-0.6c-0.2-1.1-1.8-2-3.6-2c-0.2,0-0.3,0-0.5,0.1v-0.2c-0.2-0.4-0.7-0.7-1.2-0.7l0,0
	c-0.8,0.1-1.5,0.5-2,1.1c-0.3,0.4-0.5,0.9-0.7,1.4H99c-0.2-0.1-0.4-0.2-0.6-0.3c-0.2-0.2-0.5-0.2-0.7,0.1c0,0,0,0,0,0
	c-0.2,0.2-0.1,0.6,0.2,0.7c0,0,0,0,0,0c0.3,0.2,0.5,0.4,0.9,0.5c0.2,0,0.2,0.1,0.3,0.1C99.1,88.7,100.2,90.1,101.9,90.1L101.9,90.1z
	 M103.5,85.2c1.3-0.1,2.5,0.8,2.5,1.2c0,0.2,0,0.2,0.1,0.3c-0.1,0.1-0.1,0.2-0.1,0.2c0,0.2-0.1,0.3-0.2,0.5
	c-0.6,0.6-1.4,0.9-2.2,0.9c-0.4,0-0.8-0.1-1.3-0.2c-0.2-0.4-0.3-0.9-0.3-1.3c0-0.5,0.1-0.9,0.2-1.3C102.6,85.3,103,85.2,103.5,85.2z
	 M100,86.8c0-0.6,0.1-1.2,0.5-1.7c0.3-0.3,0.6-0.5,1-0.6c-0.4,0.7-0.5,1.5-0.4,2.3c0,0.8,0.2,1.6,0.6,2.3
	C100.6,88.9,99.9,87.9,100,86.8z"/>
<path class="st0" d="M96.4,114.6c0.1-0.3,0.1-0.7,0-1c0.1-0.2,0.1-0.4,0-0.6c-0.1-0.2-0.3-0.3-0.5-0.3c-0.8-0.8-2.7-0.8-4.1,0.1
	c-0.2,0.1-0.2,0.2-0.4,0.2c0,0-0.1,0-0.1-0.1c-0.2-0.1-0.5-0.1-0.7-0.2c-0.2,0-0.4,0-0.6,0.2c-0.7,0.4-1.2,1.2-1.3,2
	c-0.1,0.5,0,1,0.2,1.4c-0.1,0.1-0.1,0.1-0.2,0.1c-0.2,0-0.5,0.1-0.6,0c-0.3,0-0.6,0.2-0.6,0.5c-0.1,0.2,0.1,0.5,0.4,0.5c0,0,0,0,0,0
	h0.4c0.2,0,0.4,0,0.6-0.1c0.2,0,0.2,0,0.3-0.1c0.6,1,1.6,1.7,2.8,1.8c0.5,0,1-0.2,1.4-0.4c0.4-0.2,0.6-0.7,0.5-1.2v-0.2
	c0.2,0,0.4-0.1,0.5-0.2C95.4,116.6,96.1,115.7,96.4,114.6z M92.4,113.7c1.2-0.7,2.6-0.6,2.8-0.2l0.2,0.2c0,0.1,0,0.2,0.1,0.2
	c0,0.2,0,0.3,0,0.5c-0.2,0.8-0.8,1.5-1.5,1.9c-0.4,0.2-0.8,0.4-1.2,0.5c-0.4-0.3-0.7-0.6-0.9-1c-0.3-0.4-0.4-0.8-0.5-1.3
	C91.7,114.1,92,113.9,92.4,113.7L92.4,113.7z M90.2,116.8c-0.3-0.5-0.4-1.1-0.4-1.7c0-0.4,0.2-0.8,0.6-1.1c0,0.8,0.3,1.6,0.7,2.3
	c0.4,0.7,1,1.2,1.7,1.7C91.7,118.3,90.6,117.8,90.2,116.8L90.2,116.8z"/>
<path class="st0" d="M78.7,115.7c0.1,0.1,0.2,0.2,0.4,0.3c0,0-0.1,0-0.1,0.1l0,0c-0.1,0.5,0,1,0.3,1.3c0.5,0.4,1.1,0.7,1.8,0.7
	c1,0,1.9-0.5,2.6-1.2c0.1,0,0.2,0.1,0.2,0.2c0.3,0.1,0.6,0.2,1,0.2l0,0c0.3,0,0.5-0.2,0.6-0.5c0-0.3-0.2-0.5-0.5-0.6
	c-0.2,0-0.4-0.1-0.6-0.2c-0.1,0-0.1-0.1-0.2-0.1c0.3-0.5,0.5-1.1,0.5-1.7c0-0.7-0.3-1.4-0.9-1.9c-0.2-0.2-0.5-0.4-0.9-0.4
	c-0.2,0-0.4,0.1-0.4,0.2h-0.1c-0.2-0.1-0.2-0.2-0.4-0.3c-1.2-1.1-3-1.6-4-1c-0.2,0-0.4,0-0.5,0.2c-0.2,0.2-0.2,0.4-0.2,0.6
	c-0.2,0.3-0.2,0.7-0.2,1C77.4,113.9,77.9,114.9,78.7,115.7z M83.7,114.4c0,0.7-0.3,1.3-0.8,1.8c-0.5,0.5-1.1,0.8-1.8,0.9
	c-0.3,0-0.6-0.1-0.9-0.3c0.8-0.2,1.5-0.7,2-1.3c0.6-0.6,1-1.2,1.2-2C83.7,113.8,83.8,114.1,83.7,114.4L83.7,114.4z M78.4,112.3
	c0-0.1,0.1-0.2,0.1-0.2s0.2-0.1,0.2-0.2c0.3-0.3,1.7-0.2,2.7,0.8c0.3,0.3,0.6,0.6,0.8,1c-0.2,0.4-0.4,0.8-0.7,1.1
	c-0.3,0.3-0.7,0.6-1.1,0.9c-0.4-0.2-0.7-0.5-1-0.7c-0.6-0.6-1-1.4-1.1-2.2C78.3,112.6,78.4,112.4,78.4,112.3L78.4,112.3z"/>
<path class="st0" d="M100.7,143.1c0-0.3-0.2-0.7-0.5-0.9c0-0.2-0.1-0.4-0.2-0.6c-0.2-0.1-0.4-0.1-0.6,0c-1.1-0.3-2.7,0.6-3.6,2.1
	c-0.1,0.1-0.2,0.3-0.2,0.4h-0.2c-0.4,0-0.8,0.3-1,0.6c-0.7,1.2-0.4,2.7,0.6,3.5l-0.1,0.1c-0.2,0.2-0.3,0.3-0.6,0.3
	c-0.3,0.1-0.4,0.4-0.3,0.7c0.1,0.2,0.3,0.3,0.5,0.3c0.1,0,0.2-0.1,0.2-0.1c0.3-0.2,0.6-0.3,0.9-0.6c0.1-0.1,0.2-0.1,0.2-0.1
	c0.6,0.3,1.2,0.5,1.9,0.5c1,0,1.9-0.5,2.3-1.3c0.3-0.4,0.3-0.9,0-1.3c-0.1,0-0.1,0-0.1-0.1c0.1-0.1,0.2-0.3,0.2-0.4
	C100.8,145.3,101,144.1,100.7,143.1z M96.7,144.2c0.7-1.2,2-1.7,2.4-1.6c0.1,0.1,0.2,0.1,0.2,0.2c0.1,0,0.2,0.1,0.2,0.1
	c0.1,0,0.2,0.2,0.2,0.4c0.2,0.8,0,1.7-0.4,2.4c-0.2,0.4-0.5,0.7-0.8,1c-0.4-0.1-0.9-0.3-1.3-0.5c-0.4-0.2-0.7-0.5-1-0.9
	C96.4,145,96.5,144.6,96.7,144.2L96.7,144.2z M96.3,148c-1-0.4-1.5-1.5-1.2-2.5c0.4,0.7,1,1.3,1.7,1.6c0.7,0.4,1.5,0.7,2.3,0.6
	C98.4,148.5,97.1,148.6,96.3,148L96.3,148z"/>
<path class="st0" d="M92.3,150.2c-0.1-0.2-0.3-0.4-0.5-0.3c0,0-0.1,0-0.1,0c-0.2,0.1-0.4,0.1-0.6,0.2h-0.2c0-0.5-0.1-1-0.3-1.4
	c-0.3-0.8-0.9-1.3-1.7-1.5c-0.5-0.1-1,0-1.3,0.4l-0.1,0.1c-0.2,0-0.3-0.1-0.5-0.1c-1.6-0.4-3.4,0.1-3.9,1.2c-0.2,0-0.4,0.2-0.5,0.4
	c0,0.2,0,0.5,0.2,0.6c0,0.4,0.1,0.7,0.3,1c0.6,0.9,1.5,1.6,2.6,1.8c0.2,0.1,0.3,0.1,0.5,0.2v0.1c0.1,0.5,0.5,0.9,0.9,1
	c0.2,0.1,0.5,0.1,0.7,0.1l0,0c1.5-0.1,2.7-1.2,2.9-2.6h0.3L92,151c0.3-0.1,0.4-0.4,0.3-0.7C92.3,150.2,92.3,150.2,92.3,150.2z
	 M84,150.2c-0.1-0.1-0.2-0.3-0.2-0.5c0.1-0.1,0.1-0.2,0-0.3c0.1-0.1,0.2-0.2,0.2-0.2c0.1-0.4,1.4-0.9,2.8-0.6
	c0.4,0.1,0.8,0.3,1.2,0.6c0,0.4,0,0.9-0.2,1.3c-0.1,0.5-0.3,0.9-0.6,1.3c-0.4,0-0.8,0-1.3-0.1C85.2,151.3,84.5,150.8,84,150.2z
	 M89.7,150.9c-0.1,1-0.9,1.7-1.9,1.8h-0.2c0.6-0.5,1-1.2,1.2-2c0.2-0.8,0.2-1.6,0-2.4c0.4,0.2,0.7,0.5,0.9,0.9
	C89.9,149.7,89.9,150.3,89.7,150.9L89.7,150.9z"/>
<path class="st0" d="M116.9,172.6L116.9,172.6c1.9,0,3.3-1.2,3.3-2.8c0.1-0.5-0.2-1-0.7-1.2h-0.1c0-0.1,0.1-0.4,0.1-0.6
	c0-1.1-0.4-2.2-1.1-3c-0.2-0.2-0.5-0.4-0.9-0.5c-0.2-0.1-0.3-0.4-0.6-0.4c-0.2,0-0.4,0.2-0.5,0.3c-1,0.2-2.1,1.8-2.1,3.5v0.6h-0.1
	c-0.5,0.2-0.7,0.6-0.7,1.1c0,0.8,0.3,1.6,1,2.1c0.4,0.3,0.8,0.5,1.3,0.6c0,0.1,0,0.1-0.1,0.2c-0.1,0.2-0.2,0.4-0.3,0.6
	c-0.2,0.2-0.1,0.5,0.1,0.7c0.1,0.1,0.2,0.1,0.3,0.2c0.2,0,0.3-0.1,0.4-0.2c0.2-0.2,0.4-0.5,0.5-0.9
	C116.9,172.7,116.9,172.6,116.9,172.6z M116.7,165.6L116.7,165.6c0.2,0,0.2,0,0.3-0.1c0.1,0.1,0.2,0.1,0.2,0.1
	c0.2,0,0.3,0.1,0.4,0.2c0.6,0.6,0.9,1.4,0.9,2.3c0,0.4-0.1,0.9-0.2,1.3c-0.4,0.1-0.9,0.2-1.3,0.2c-0.5-0.1-0.9-0.2-1.3-0.2
	c-0.1-0.4-0.1-0.9-0.2-1.3C115.5,166.6,116.3,165.5,116.7,165.6L116.7,165.6z M114.7,170c0.7,0.4,1.5,0.6,2.4,0.6
	c0.8,0,1.5-0.2,2.2-0.6c-0.3,1-1.2,1.7-2.3,1.6c-0.6,0-1.2-0.2-1.7-0.6C114.9,170.8,114.7,170.4,114.7,170L114.7,170z"/>
<path class="st0" d="M114,175.9c-0.1,0.2-0.3,0.4-0.5,0.5l-0.1,0.1c-0.5-1-1.5-1.6-2.6-1.7c-0.2,0-0.4,0.1-0.6,0.2
	c-0.7,0.2-0.9,0.6-0.9,0.9v0.1c-0.2,0.1-0.3,0.1-0.5,0.1c-1.6,0.4-2.9,1.7-2.8,2.8c-0.2,0.2-0.2,0.4-0.2,0.6
	c0.1,0.2,0.2,0.3,0.4,0.4c0.2,0.3,0.4,0.6,0.8,0.7c0.6,0.3,1.3,0.5,2,0.5c0.4,0,0.8,0,1.2-0.2c0.2,0,0.3-0.1,0.5-0.2v0.1
	c0.2,0.3,0.6,0.5,0.9,0.5c0.1,0,0.3,0,0.4-0.1c0.7-0.2,1.2-0.6,1.6-1.2c0.5-0.8,0.6-1.8,0.3-2.8c0.1,0,0.2-0.1,0.2-0.2
	c0.3-0.2,0.5-0.4,0.7-0.7c0.2-0.2,0.2-0.5,0-0.6c0,0-0.1-0.1-0.1-0.1C114.5,175.6,114.2,175.7,114,175.9z M109.8,180
	c-0.8,0.2-1.6,0.1-2.4-0.2c-0.2-0.2-0.3-0.2-0.3-0.3s-0.1-0.2-0.2-0.2v-0.3c-0.2-0.4,0.8-1.5,2-1.9c0.4-0.1,0.8-0.1,1.3-0.1
	c0.3,0.3,0.5,0.7,0.5,1.2c0.1,0.4,0.2,0.9,0.2,1.3C110.6,179.7,110.2,179.9,109.8,180z M112.6,179.6c-0.2,0.3-0.5,0.6-0.8,0.7
	c0.2-0.8,0.2-1.6,0-2.4c-0.2-0.8-0.6-1.5-1.2-2.1c1.1,0,2,0.8,2.1,1.8C113,178.3,113,179,112.6,179.6L112.6,179.6z"/>
<path class="st0" d="M144.6,186.2c0.3,0,0.6,0,0.7-0.2v-0.2c0-0.2,0.1-0.5-3.3-1.1c0-1.2,0-3.7-1.5-4.6c-0.3-0.2-0.6-0.3-0.9-0.3
	c-0.7,0.1-1.3,0.5-1.6,1.2c-0.1,0.1-0.2,0.2-0.2,0.3c-0.2-0.4-0.3-0.9-0.3-1.3l-0.1-0.6c-0.2-0.9-0.4-2.9-2.4-3.5
	c-0.2-0.1-0.5-0.1-0.7-0.1c-1.4,0-1.8,1.3-2,2.1c-0.1,0.3-0.2,0.8-0.4,0.9c-0.2-0.7-0.3-1.4-0.2-2.1v-0.5c0-2.6-1.3-4.2-3.4-4.2
	c-0.2,0-0.5,0-0.7,0.1c-0.5,0-1.1,0.3-1.4,0.7c-0.7,0.8-0.6,2-0.4,3c0,0.4,0.1,0.9,0.1,1.1c-0.1,0.1-0.1,0.1-0.2,0.1
	c-0.4,0-0.7-0.4-1.2-1.2c-0.6-1.4-2-2.3-3.5-2.3c-1.5,0.1-2.9,0.9-3.6,2.2c-0.9,1.3-1,2.9-0.3,4.3c0.8,1.3,2.2,2.1,3.7,2h0.8
	c1,0,1.4,0.3,1.6,0.7c-0.3,0.2-0.6,0.4-0.9,0.6c-0.9,0.5-2,0.9-2.2,2c-0.1,0.6,0,1.3,0.4,1.8c0.8,1.2,2.1,2,3.5,2
	c1.2-0.1,2.3-0.6,3.2-1.4c0.2-0.1,0.2-0.3,0.4-0.4c0.6-0.6,1.3-1.2,1.7-1.2h0.2c0.1,0.2-0.2,0.6-0.2,0.8c-0.4,0.7-0.4,1.5-0.2,2.3
	c0.3,0.6,0.8,1,1.5,1.2c0.4,0.2,0.9,0.2,1.3,0.2c1.2-0.1,2.4-0.7,3.2-1.6l0.1-0.1l0.5-0.5c0.5-0.6,0.7-0.9,1-0.9l0,0v0.3
	c0.1,0.6,0.3,2.1,2.1,1.9c1.4-0.1,2.5-1.4,3.3-3.7C142.7,186.1,143.7,186.2,144.6,186.2z M138.3,188.2H138c-0.1-0.1-0.1-0.4-0.2-0.6
	c-0.1-0.6-0.1-1.4-1-1.6c-0.1-0.1-0.3-0.1-0.5-0.1c-0.9,0.1-1.7,0.6-2.2,1.3c-0.1,0.2-0.2,0.3-0.4,0.5l-0.1,0.1
	c-0.5,0.7-1.2,1.1-2,1.2c-0.3,0-0.6-0.1-0.9-0.1c-0.3-0.2-0.6-0.2-0.6-0.4c0-0.3,0.1-0.7,0.2-1c0.6-0.8,0.5-1.9-0.2-2.6
	c-0.3-0.2-0.7-0.4-1.1-0.4c-1,0-1.9,0.9-2.8,1.7c-0.2,0.1-0.2,0.2-0.4,0.3c-0.6,0.6-1.4,0.9-2.2,0.9c-0.9,0-1.8-0.5-2.3-1.3
	c-0.1-0.2-0.2-0.4-0.2-0.6c0.1-0.3,0.9-0.7,1.5-1c0.9-0.4,2.2-1,1.7-2.3c-0.5-1.2-1.8-1.9-3.1-1.8H121c-1,0.2-2.1-0.3-2.7-1.2
	c-0.4-0.9-0.3-2,0.2-2.8c0.5-0.9,1.4-1.4,2.4-1.5c0.9,0.1,1.7,0.6,2.1,1.5c0.4,1.1,1.4,1.8,2.5,2c0.3,0,0.6-0.1,0.9-0.2
	c1-0.5,0.8-1.6,0.7-2.7c-0.1-0.6-0.2-1.6,0.1-1.9c0,0,0.1-0.2,0.4-0.2h0.5c0.5,0,1.8,0,1.9,2.7v0.3c-0.1,1.2-0.1,2.5,0.6,3.2
	c0.3,0.3,0.8,0.5,1.3,0.4c1.1-0.1,1.4-1.1,1.7-1.9c0.4-1.2,0.5-1.2,0.9-1c1,0.2,1.2,1.2,1.3,2.2l0.1,0.6c0.2,1.2,0.3,2.4,1.7,2.7
	h0.2c0.7,0,1-0.6,1.3-1c0.1-0.2,0.2-0.5,0.3-0.5h0.1c0.3,0.2,0.9,0.9,0.9,3.1l-1.2-0.2c-5.7-0.9-12.8-3.8-15.1-4.7
	c-0.8-0.3-0.8-0.3-0.9-0.3s-0.1,0-0.2,0.1c0,0,0,0.1-0.1,0.1l0,0v0.1c0.2,0.5,9.4,4.9,15.9,6l1.2,0.2
	C139.6,187.6,138.8,188.1,138.3,188.2L138.3,188.2z"/>
<path class="st0" d="M99,81.5l0.1,0.1l0.1,0.1h0.2c0.1,0,0.2,0,1-0.8c1,0.6,2.2,1,3.4,1.1c0.5,0,0.9-0.1,1.3-0.4
	c0.4-0.2,0.7-0.6,0.8-1c0.1-0.6,0-1.2-0.4-1.7c-0.1-0.1-0.1-0.2-0.2-0.2c0.4,0,0.8,0.1,1.2,0.2l0.6,0.2c0.6,0.2,1.2,0.4,1.9,0.4
	c0.9,0,1.7-0.3,2.2-1c0.4-0.4,0.6-0.9,0.6-1.4c-0.1-0.8-0.5-1.5-1.2-1.9c-0.2-0.2-0.5-0.5-0.6-0.6s0.1-0.1,0.2-0.1
	c0.6,0.1,1.3,0.4,1.8,0.7l0.3,0.2c2.6,1.3,4.7,0.6,5.4-1.7c0.2-0.5,0.2-1.1,0-1.7c-0.6-0.8-1.4-1.4-2.4-1.6c-0.3-0.2-0.7-0.3-1-0.4
	c0.1-0.3,0.2-0.8,1.6-0.8c1.4,0.1,2.8-0.7,3.6-1.9c0.6-1.4,0.5-3-0.3-4.3c-0.7-1.3-2-2.2-3.5-2.2c-1.7,0.1-3.1,1.1-3.7,2.7
	c-0.6,1.3-1,1.5-1.4,1.5c-0.1-0.3-0.1-0.7-0.1-1c0.1-1-0.1-2-0.6-2.8c-0.4-0.4-0.9-0.6-1.4-0.5c-0.2,0-0.3,0.1-0.5,0.1
	c-1.3,0.2-2.5,0.9-3.2,2c-0.6,1.1-0.7,2.4-0.3,3.6c0.1,0.2,0.1,0.4,0.2,0.6c0.3,1,0.6,1.9,0.2,2.1c-0.2-0.2-0.5-0.4-0.6-0.6
	c-0.4-0.7-1.2-1.1-2-1.2c-0.6,0-1.2,0.3-1.7,0.8c-1.2,1.2-1.5,3.1-0.7,4.6l0.1,0.1c0,0.2,0.1,0.4,0.2,0.6c0.3,0.8,0.4,1.1,0.3,1.3
	c-0.1,0-0.2,0-0.3-0.1c-0.3-0.1-0.7-0.2-1-0.2c-0.7,0-1.4,0.5-1.6,1.2c-0.6,1.4,0.2,3,2,4.8C98.9,81.2,99,81.3,99,81.5z M98.9,76.1
	c0.1-0.2,0.2-0.2,0.2-0.2c0.2,0,0.4,0.1,0.6,0.2c0.3,0.1,0.6,0.1,0.9,0.2c0.4,0,0.8-0.2,1-0.5c0.8-1,0.4-2,0-2.9
	c-0.1-0.2-0.1-0.3-0.2-0.5l-0.1-0.2c-0.3-0.9-0.6-2,0.4-2.9c0.3-0.3,0.5-0.4,0.5-0.4c0.2,0,0.6,0.4,0.8,0.7c0.5,0.5,0.9,1.1,1.7,1.1
	c0.2,0,0.4-0.1,0.6-0.2c1.7-0.7,1.1-2.6,0.7-3.9c-0.1-0.2-0.1-0.4-0.2-0.6c-0.3-0.8-0.3-1.6,0.2-2.4c0.5-0.7,1.3-1.2,2.1-1.3h0.2
	c0.2,0,0.3,0,0.3,0.1c0.2,0.2,0.2,1.1,0.2,1.7c0,1,0,2.4,1.3,2.5c1.7,0.2,2.5-1.1,3.2-2.4c0.4-1.3,1.7-2,3-1.6
	c0.7,0.2,1.2,0.7,1.5,1.3c0.5,0.8,0.6,1.9,0.2,2.8c-0.5,0.7-1.3,1.2-2.2,1.1c-2.5,0-3,1.3-3.1,2.3c-0.1,1,1.1,1.5,2,1.8
	c0.6,0.2,1.4,0.5,1.6,0.8c0.1,0.1,0.1,0.2,0,0.6c-0.4,1.2-1.1,1.3-1.6,1.3c-0.6,0-1.2-0.2-1.8-0.4l-0.2-0.2
	c-0.8-0.5-1.6-0.8-2.5-0.9c-0.7,0-1.3,0.4-1.6,1c-0.5,1,0.4,1.8,0.9,2.4c0.2,0.2,0.7,0.6,0.7,0.9c0,0.1-0.1,0.2-0.2,0.3
	c-0.3,0.3-0.7,0.5-1.1,0.5c-0.5,0-1-0.1-1.4-0.2l-0.7-0.3c-0.5-0.2-1-0.3-1.6-0.4c-0.6,0-1.1,0.3-1.4,0.7c-0.5,0.7-0.1,1.4,0.2,1.9
	c0.1,0.2,0.2,0.3,0.3,0.5c-0.1,0-0.1,0-0.1,0.1c-0.2,0.1-0.4,0.1-0.6,0.1c-0.8-0.1-1.6-0.3-2.4-0.7c0.6-0.6,1.3-1.5,2.1-2.6
	c3.4-3.9,7.1-7.5,11.1-10.7h0.1c0.9-0.7,0.9-0.7,0.9-0.8v-0.2l-0.2-0.2h-0.1c-0.2,0-0.2,0-1.1,0.7c-2,1.4-8.3,5.8-11.8,10.2
	c-1,1.2-1.7,2-2.1,2.8C98.7,77.4,98.7,76.5,98.9,76.1z"/>
<path class="st0" d="M106.9,173.7L106.9,173.7c1.4-0.1,2.7-0.8,3.6-1.8c0.3,0.3,0.7,0.5,1.2,0.6c0.2,0,0.2-0.2,0.3-0.2v-0.1l0.1-0.1
	c0-0.2,0.1-0.2-0.8-1.1c0.5-0.9,2-3.3,1-5c-0.2-0.5-0.8-0.9-1.3-0.9c-0.4,0-0.9,0.2-1.3,0.4c-0.1,0.1-0.2,0.1-0.2,0.2
	c0.1-0.4,0.2-0.8,0.3-1.2l0.2-0.6c0.3-0.8,1-2.7-0.5-4.1c-0.3-0.4-0.9-0.7-1.4-0.7c-0.8,0.1-1.5,0.5-2,1.1c-0.2,0.2-0.4,0.4-0.6,0.6
	c-0.2-0.3,0.6-1.6,0.8-2l0.2-0.3c0.7-1.1,0.8-2.4,0.5-3.6c-0.3-0.9-1.1-1.6-2-1.9c-0.3-0.1-0.7-0.1-1-0.1c-1.4,0-2,1.4-2.4,2.5
	c-0.1,0.3-0.3,0.6-0.5,0.9c-0.3-0.1-0.6-0.3-0.7-1.5c0.2-1.1-0.2-2.3-1-3.1c-1.1-1.3-3.2-1.4-5-0.5c-1.3,0.6-2.2,2-2.3,3.5
	c0.1,1.7,1.1,3.1,2.6,3.8c1.3,0.6,1.5,1,1.4,1.4h-1.9c-0.8-0.1-1.6,0.2-2.1,0.7c-0.4,0.5-0.5,1.1-0.4,1.7c0.3,2.4,1.9,3.9,4.1,3.9
	c0.5,0,0.9-0.1,1.3-0.2c0.2,0,0.4-0.1,0.6-0.1c0.5-0.2,1-0.3,1.6-0.3c0.4,0,0.5,0.1,0.5,0.1s-0.3,0.4-0.6,0.6
	c-0.6,0.4-1.1,1-1.2,1.7c0,0.7,0.2,1.3,0.6,1.8c0.7,0.8,1.7,1.3,2.8,1.3c0.6,0,1.2-0.1,1.8-0.3l0.2-0.1c0.2-0.1,0.4-0.1,0.5-0.2
	c0.3-0.2,0.7-0.3,1-0.3c0.1,0,0.2,0,0.2,0.1c-0.1,0.1-0.1,0.2-0.2,0.3c-0.2,0.6-0.7,2,0.9,2.6C106.3,173.6,106.6,173.7,106.9,173.7z
	 M104.9,169c-0.5,0-1.1,0.1-1.6,0.3l-0.5,0.2h-0.1c-0.4,0.2-0.9,0.3-1.3,0.3c-0.6,0-1.2-0.2-1.6-0.7c-0.2-0.2-0.3-0.4-0.3-0.6
	c0-0.2,0.4-0.6,0.7-0.8c0.5-0.5,1.5-1.2,1-2.3c-0.3-0.8-1-1.3-1.9-1.3c-0.7,0.1-1.3,0.2-2,0.4c-0.2,0-0.4,0.1-0.6,0.2
	c-0.3,0.1-0.7,0.1-1,0.1c-1.4,0-2.4-0.9-2.6-2.6c-0.1-0.2,0-0.3,0.1-0.5c0-0.1,0.2-0.2,1-0.2h0.8c0.2,0.1,0.5,0.1,0.7,0.1
	c1.2,0,1.8-0.4,1.9-1.2c0.3-1.8-1.1-2.7-2.3-3.2c-0.9-0.4-1.6-1.3-1.7-2.4c0-0.9,0.6-1.8,1.5-2.1c1.3-0.6,2.5-0.6,3.2,0.2
	c0.5,0.5,0.8,1.3,0.6,2c0,1.9,0.8,2.9,2.2,3.1h0.1c1,0,1.4-1.1,1.8-2c0.2-0.7,0.6-1.6,1-1.6c0.1,0,0.3,0,0.4,0.1
	c0.5,0.2,0.9,0.5,1.1,1c0.2,0.8,0.1,1.7-0.4,2.4l-0.2,0.3c-0.6,0.9-1.2,2.1-1,3.1c0.1,0.4,0.5,0.8,0.9,1c0.2,0.1,0.4,0.2,0.6,0.2
	c0.7-0.1,1.3-0.5,1.7-1c0.2-0.3,0.6-0.7,0.9-0.7c0.1,0,0.2,0.1,0.3,0.3c0.7,0.7,0.5,1.6,0.2,2.4l-0.2,0.6c-0.4,1-0.8,2.1,0.2,3
	c0.2,0.2,0.5,0.3,0.8,0.3c0.4,0,0.8-0.2,1.1-0.4c0.1-0.1,0.3-0.2,0.5-0.2l0.1,0.2c0.2,0.2,0.3,1-0.9,3.1c-0.6-0.6-1.3-1.3-2.4-2.2
	c-3.9-3.7-7.4-7.7-10.5-12c-0.5-0.6-0.5-0.6-0.6-0.6h-0.1c-0.1,0.1-0.1,0.1-0.2,0.2c-0.1,0.5,5.5,9,10.4,13.3
	c0.8,0.8,1.6,1.5,2.5,2.2c-0.7,0.6-1.5,1.1-2.4,1.2h-0.4c-0.1,0-0.2-0.1-0.2-0.2c0.1-0.2,0.1-0.4,0.2-0.6c0.2-0.5,0.5-1.3-0.1-1.9
	C106,169.2,105.5,169,104.9,169L104.9,169z"/>
<path class="st0" d="M84.7,140.5c0.2,0,0.5,0.1,0.7,0.1c0.8,0.2,1,0.2,1.2,0.4l-0.2,0.2c-0.9,0.5-1.2,1.6-0.7,2.4
	c0,0.1,0.1,0.2,0.2,0.3c0.7,0.8,1.8,1.3,2.8,1.2c0.7,0,1.3-0.1,2-0.2c0.6,1.1,0.8,1.1,0.9,1.1c0.1,0,0.2,0,0.2-0.1l0.2-0.1
	c0.1-0.1,0.2-0.2-0.2-1.3c1-0.6,3.2-2,3.2-3.8c0-0.4-0.2-0.9-0.5-1.2c-0.4-0.4-1-0.6-1.6-0.5h-0.3c0.1-0.2,0.2-0.4,0.9-0.9l0.6-0.4
	c0.7-0.6,2.2-1.8,1.7-3.8c-0.2-0.9-1-1.5-1.9-1.5c-0.4,0-0.9,0.1-1.3,0.2c-0.3,0.1-0.5,0.1-0.8,0.2c0,0-0.1,0-0.1-0.1c0,0,0,0,0,0
	c0-0.3,1.1-1,1.6-1.3l0.3-0.2c1.2-0.6,2-1.7,2.3-2.9c0.1-1-0.2-2-0.9-2.7c-0.4-0.5-1-0.9-1.7-0.9c-0.9,0.2-1.8,0.6-2.4,1.3
	c-0.3,0.2-0.6,0.5-0.9,0.6c-0.2-0.2-0.5-0.5,0.2-1.7c0.8-1.1,0.9-2.6,0.2-3.9c-0.8-1.3-2.2-2.1-3.8-2.1h-0.2c-1.5-0.1-2.8,0.7-3.5,2
	c-0.7,1.4-0.5,3.2,0.5,4.4c0.8,1.1,0.6,1.7,0.4,2.1c-0.2-0.1-0.6-0.4-0.9-0.6c-0.7-0.5-1.5-0.8-2.3-0.9c-0.9,0-1.6,0.6-1.9,1.4
	c-0.5,1.2-0.5,2.5,0.1,3.7c0.6,1.1,1.7,1.9,2.9,2.2c0.2,0.1,0.4,0.1,0.6,0.1c1.1,0.3,1.9,0.6,1.9,1c-0.3,0.1-0.5,0.2-0.8,0.2
	c-0.8,0-1.5,0.3-2,0.9c-0.3,0.6-0.4,1.3-0.2,1.9c0.4,1.7,1.8,2.9,3.5,3L84.7,140.5z M82.7,137.1c-0.2-0.5-0.1-0.7,0-0.7
	c0.1-0.2,0.6-0.2,0.9-0.3c0.7-0.2,2-0.3,2-1.5c0.2-1.8-1.7-2.3-3-2.7c-0.2,0-0.3-0.1-0.5-0.1c-0.9-0.2-1.6-0.7-2-1.5
	c-0.4-0.8-0.4-1.7-0.1-2.4c0.2-0.5,0.4-0.5,0.5-0.5c0.5,0.1,1,0.4,1.4,0.7c0.6,0.4,1.2,0.7,1.9,0.8c0.4,0,0.7-0.2,1-0.5
	c1.2-1.7,0-3.4-0.3-3.9c-0.7-0.8-0.9-1.9-0.4-2.8c0.5-0.8,1.3-1.2,2.2-1.2h0.2c1,0,2,0.5,2.5,1.3c0.4,0.8,0.3,1.7-0.2,2.4
	c-0.4,0.6-1.5,2.6,0.2,3.9c0.2,0.1,0.5,0.2,0.7,0.2c0.7-0.1,1.4-0.4,1.9-1c0.5-0.4,1.1-1,1.5-1c0.1,0,0.2,0,0.5,0.3
	c0.4,0.4,0.6,0.9,0.5,1.5c-0.2,0.8-0.8,1.5-1.6,1.8l-0.3,0.2c-0.9,0.6-2.1,1.3-2.3,2.2c-0.1,0.5,0,1,0.4,1.3
	c0.3,0.4,0.8,0.7,1.3,0.6c0.4,0,0.8-0.1,1.2-0.2c0.3-0.1,0.6-0.1,0.9-0.2c0.2,0,0.3,0,0.5,0.4c0.2,0.9-0.5,1.6-1.2,2.3l-0.5,0.3
	c-0.9,0.7-1.7,1.5-1.3,2.8c0.3,0.9,1.2,0.9,1.7,0.9c0.2,0,0.4,0,0.5,0.1v0.1c0,0.3-0.3,1.1-2.1,2.3c-0.3-0.8-0.6-1.8-1.1-3.1
	c-1.7-5-2.7-11.9-3.2-14.8c-0.2-1.6-0.2-1.6-0.5-1.6l-0.2,0.1c-0.2,0.3,0.2,10.2,2.5,16.8c0.5,1.3,0.9,2.3,1.2,3.1
	c-0.5,0.1-1,0.1-1.5,0.1c-0.6,0.1-1.2-0.1-1.6-0.6c-0.2-0.2-0.2-0.2-0.2-0.2s0.3-0.3,0.4-0.4c0.4-0.3,1.1-0.9,0.8-1.7
	c-0.4-1.2-1.4-1.4-2.5-1.6c-0.2,0-0.4-0.1-0.6-0.1l-0.1-0.1C83.9,138.9,82.9,138.1,82.7,137.1L82.7,137.1z"/>
<path class="st0" d="M83.4,104.7L83.4,104.7c0.3,0.2,0.4,0.3,0.6,0.5c0.7,0.5,0.9,0.7,0.9,1c-0.1,0-0.2,0-0.2,0.1
	c-0.5,0.1-2,0.3-1.8,2c0.2,1.4,1.4,2.4,3.9,3.2c-0.1,0.9,0.1,1.1,0.2,1.2c0.1,0.1,0.2,0.2,0.2,0.2h0.1c0.2,0,0.3,0,0.6-1.1
	c1.1,0,3.7-0.2,4.7-1.7c0.2-0.4,0.3-0.8,0.2-1.3c-0.2-0.5-0.6-1-1.1-1.2c-0.1-0.1-0.2-0.1-0.2-0.2c0.1-0.2,0.4-0.2,1.2-0.3l0.5-0.2
	c0.9-0.2,2.8-0.6,3.3-2.5s-1.2-2.4-2.2-2.7c-0.3-0.1-0.5-0.1-0.8-0.2v-0.1c0.6-0.2,1.3-0.4,2-0.3h0.3c1.3,0.1,2.5-0.5,3.3-1.4
	c0.6-0.8,0.9-1.8,0.6-2.8c-0.1-1.1-1.1-1.9-2.2-1.8c0,0-0.1,0-0.1,0c-0.5,0-1,0.1-1.5,0.2c-0.3,0.1-0.6,0.1-0.9,0.2h-0.1
	c-0.1-0.3-0.1-0.8,1-1.4c1.3-0.6,2.1-1.9,2.2-3.3c-0.1-1.5-0.9-2.9-2.3-3.7c-1.6-1-3.7-0.8-5,0.6c-0.8,0.9-1.2,2.2-1,3.4
	c0.1,1.3-0.1,1.8-0.6,2c-0.2-0.2-0.4-0.6-0.5-0.9c-0.6-1-1.2-2.2-2.4-2.2c-0.5,0.1-1,0.3-1.3,0.6C83.7,91,83,92.2,83,93.6
	c0,1.3,0.5,2.5,1.5,3.4c0.1,0.2,0.2,0.3,0.4,0.5c0.8,0.7,1.4,1.3,1.1,1.7c-0.3,0-0.6-0.1-0.9-0.2c-0.4-0.2-0.9-0.3-1.3-0.3
	c-0.7,0-1.5,0.2-2,1.7C81.3,101.9,82,103.7,83.4,104.7z M83.3,100.7c0.2-0.6,0.4-0.6,0.5-0.6c0.3,0,0.6,0.1,0.9,0.2
	c0.4,0.2,0.8,0.3,1.3,0.3l0,0c0.5,0,1-0.2,1.3-0.6c1.1-1.4-0.3-2.8-1.3-3.7l-0.5-0.5c-0.6-0.6-1-1.4-1-2.2c0.1-0.9,0.5-1.6,1.3-2.1
	c0.1-0.1,0.2-0.2,0.4-0.2c0.4,0,0.9,0.9,1.1,1.4c0.5,0.9,0.9,1.7,1.9,1.7c0.2,0,0.3-0.1,0.5-0.1c1.8-0.8,1.7-2.7,1.6-3.6
	c-0.1-0.8,0.1-1.6,0.6-2.3c0.9-0.8,2.2-0.9,3.2-0.2c0.9,0.5,1.5,1.4,1.5,2.4c0,0.9-0.6,1.6-1.3,2c-2.1,1.2-1.9,2.7-1.6,3.5
	c0.3,0.5,0.8,0.9,1.4,0.8c0.4,0,0.8-0.1,1.3-0.2c0.4-0.1,0.8-0.1,1.2-0.2c0.6,0,0.7,0.2,0.8,0.6c0.1,0.6,0,1.1-0.3,1.6
	c-0.6,0.6-1.4,0.9-2.2,0.9h-0.2c-1.2,0-2.5,0.1-3.2,0.8c-0.3,0.3-0.5,0.8-0.5,1.3c0.2,1.1,1.3,1.3,2,1.6c1.2,0.3,1.2,0.4,1,0.9
	c-0.2,0.9-1.1,1.2-2,1.3l-0.6,0.2c-1.1,0.2-2.2,0.4-2.4,1.7c-0.2,0.9,0.5,1.3,1,1.6l0.5,0.2c-0.1,0-0.1,0.1-0.1,0.1
	c-0.2,0.3-0.9,0.9-3.1,1c0.2-0.8,0.4-1.9,0.7-3.4c0.9-5.1,3.4-11.5,4.5-14.3c0.6-1.6,0.6-1.6,0.5-1.7c0-0.1-0.1-0.1-0.2-0.1
	c-0.6,0-5,9.5-6.2,15.8c-0.2,1.1-0.4,2.3-0.6,3.5c-2-0.6-2.5-1.4-2.5-1.8s0-0.2,0-0.2c0.2-0.1,0.4-0.2,0.5-0.2
	c0.6-0.2,1.3-0.3,1.5-1.2c0.2-1.3-0.6-1.9-1.3-2.6c-0.2-0.1-0.3-0.2-0.5-0.3l-0.1-0.1C83.4,103,83,101.8,83.3,100.7z"/>
<path class="st0" d="M211,83L211,83c-0.2,0.3-0.4,0.4-0.6,0.6c-0.2,0.2-0.3,0.5-0.1,0.7c0.1,0.2,0.2,0.2,0.4,0.2
	c0.2,0,0.2,0,0.3-0.1c0.3-0.2,0.5-0.4,0.7-0.7l0.2-0.2c0.4,0.1,0.8,0.1,1.2,0.2c1.3,0.1,2.4-0.7,2.8-1.9c0.1-0.5,0-1-0.4-1.3h-0.1
	c0.1-0.1,0.1-0.3,0.2-0.5c0.4-1.1,0.3-2.2-0.2-3.2c-0.2-0.3-0.4-0.5-0.7-0.7c0-0.2-0.2-0.4-0.4-0.5c-0.2-0.1-0.5,0-0.6,0.2
	c-1-0.1-2.4,1.1-2.9,2.7c-0.1,0.1-0.1,0.3-0.2,0.5h-0.1c-0.5,0-0.9,0.4-1,0.9c-0.3,0.8-0.1,1.7,0.3,2.4
	C210.2,82.5,210.6,82.8,211,83z M211.8,78.7c0.4-1.3,1.6-2.1,2-2h0.2c0.1,0,0.2,0.1,0.2,0.2s0.2,0.1,0.3,0.3
	c0.4,0.8,0.4,1.6,0.2,2.4c-0.1,0.4-0.3,0.8-0.6,1.1H214c-0.4,0-0.8-0.1-1.2-0.2c-0.4-0.1-0.8-0.3-1.2-0.6
	C211.6,79.5,211.6,79,211.8,78.7L211.8,78.7z M210.4,80.2c0.5,0.6,1.3,1,2.1,1.3c0.5,0.2,1,0.2,1.5,0.2c0.3,0,0.6,0,0.9-0.1
	c-0.3,0.6-1,1-1.7,0.9c-0.3,0-0.6,0-0.9-0.2c-0.6-0.1-1.1-0.5-1.4-1C210.5,81.1,210.3,80.7,210.4,80.2z"/>
<path class="st0" d="M207.1,86.9c0.1,0,0.2-0.1,0.3-0.1c0.3-0.1,0.6-0.3,0.9-0.5c0.2-0.1,0.3-0.5,0.2-0.7c0,0,0,0,0,0
	c-0.2-0.2-0.5-0.3-0.7-0.1c0,0,0,0,0,0c-0.2,0.1-0.4,0.2-0.6,0.3h-0.1c-0.2-1.4-1.4-2.4-2.8-2.4c-0.5,0-0.9,0.3-1.1,0.7v0.2
	c-0.1-0.1-0.3-0.1-0.5-0.1c-1.7,0-3.3,0.9-3.6,2c-0.2,0.1-0.4,0.2-0.4,0.5c0,0.2,0.1,0.5,0.3,0.6c0.1,0.3,0.3,0.6,0.6,0.9
	c0.8,0.8,1.8,1.2,2.9,1.3h0.6c0,0-0.1,0,0,0.1c0.2,0.4,0.6,0.7,1.1,0.7h0.1C205.9,90.1,207.1,88.7,207.1,86.9z M202.6,88.3
	c-0.8,0-1.6-0.3-2.2-0.9c-0.1-0.1-0.2-0.3-0.2-0.5c0-0.1,0-0.2-0.1-0.2c0.1-0.1,0.1-0.2,0.1-0.3c0-0.4,1.2-1.2,2.5-1.2
	c0.4,0,0.9,0.1,1.3,0.2c0.2,0.4,0.3,0.9,0.2,1.3c0,0.5-0.2,0.9-0.3,1.3C203.4,88.2,203,88.3,202.6,88.3z M204.5,89.1
	c0.4-0.7,0.7-1.5,0.6-2.3c0.1-0.8-0.1-1.6-0.5-2.3c1,0.2,1.7,1.2,1.5,2.3C206.2,87.9,205.5,88.8,204.5,89.1z"/>
<path class="st0" d="M212.7,118.7c0.4,0.3,0.9,0.4,1.4,0.4c1.2-0.1,2.2-0.8,2.8-1.8c0.1,0.1,0.2,0.1,0.3,0.1
	c0.2,0.1,0.4,0.1,0.6,0.1h0.4c0.3,0,0.4-0.3,0.4-0.5c0,0,0,0,0,0c0-0.3-0.2-0.5-0.6-0.5c-0.2,0.1-0.4,0-0.6,0c-0.1,0-0.1,0-0.2-0.1
	c0.2-0.5,0.2-0.9,0.2-1.4c-0.1-0.8-0.5-1.6-1.3-2c-0.2-0.1-0.4-0.2-0.6-0.2c-0.2,0-0.5,0.1-0.7,0.2c0,0.1-0.1,0.1-0.1,0.1
	c-0.2-0.1-0.2-0.2-0.4-0.2c-1.4-0.9-3.3-0.9-4-0.1c-0.2,0-0.5,0.1-0.6,0.3c-0.1,0.2-0.1,0.4,0,0.6c-0.1,0.3-0.1,0.7,0,1
	c0.3,1.1,0.9,2,1.9,2.5c0.1,0.1,0.3,0.2,0.5,0.2v0.2C212,118,212.2,118.4,212.7,118.7z M216.4,115.1c0,0.6-0.1,1.2-0.4,1.7
	c-0.4,1-1.5,1.4-2.5,1.1c0.7-0.4,1.2-1,1.6-1.7c0.4-0.7,0.7-1.5,0.7-2.3C216.1,114.2,216.3,114.6,216.4,115.1L216.4,115.1z
	 M210.7,114.4c0-0.2,0-0.3,0-0.5c0.1-0.1,0.1-0.1,0.1-0.2c0.1-0.1,0.2-0.2,0.2-0.2c0.2-0.3,1.6-0.5,2.8,0.2c0.4,0.2,0.7,0.5,1,0.8
	c0,0.5-0.2,0.9-0.5,1.3c-0.2,0.4-0.5,0.7-0.9,1c-0.4-0.1-0.8-0.2-1.2-0.5C211.5,115.9,210.9,115.2,210.7,114.4L210.7,114.4z"/>
<path class="st0" d="M223.5,112.3L223.5,112.3c-0.1-0.1-0.2-0.2-0.5-0.2c-0.3,0-0.6,0.1-0.9,0.4c-0.6,0.5-0.9,1.2-0.9,1.9
	c0,0.6,0.2,1.2,0.5,1.7c-0.1,0-0.1,0.1-0.2,0.1c-0.2,0.1-0.4,0.2-0.6,0.2c-0.3,0.1-0.5,0.3-0.5,0.6c0.1,0.3,0.3,0.5,0.6,0.5l0,0
	c0.4-0.1,0.7-0.2,1-0.2c0.1-0.1,0.2-0.2,0.2-0.2c0.7,0.7,1.6,1.1,2.6,1.2c0.7,0,1.3-0.3,1.8-0.7c0.3-0.4,0.5-0.9,0.3-1.3L227,116
	c0.1-0.1,0.3-0.2,0.4-0.3c0.8-0.8,1.3-1.8,1.4-2.8c0-0.3-0.1-0.7-0.2-1c0-0.2,0-0.5-0.2-0.6c-0.2-0.1-0.4-0.2-0.6-0.2
	c-0.9-0.6-2.8-0.2-3.9,1C223.8,112.1,223.7,112.2,223.5,112.3z M223.1,116.3c-0.5-0.5-0.8-1.1-0.8-1.8c0-0.3,0.1-0.7,0.3-0.9
	c0.2,0.8,0.6,1.4,1.2,2c0.5,0.6,1.2,1,2,1.3C225,117.3,223.8,117.1,223.1,116.3z M227.3,111.9c0.1,0.1,0.2,0.2,0.2,0.2
	s0.1,0.2,0.1,0.2c0.1,0.1,0.2,0.3,0.2,0.5c-0.1,0.8-0.5,1.6-1.1,2.2c-0.3,0.2-0.6,0.5-1,0.7c-0.4-0.3-0.8-0.6-1.1-0.9
	c-0.3-0.3-0.5-0.7-0.7-1.1c0.2-0.4,0.5-0.7,0.8-1C225.6,111.8,227.1,111.6,227.3,111.9z"/>
<path class="st0" d="M211.8,144.7c-0.2-0.4-0.6-0.6-1-0.6h-0.2c-0.1-0.1-0.1-0.3-0.2-0.4c-0.9-1.4-2.4-2.4-3.6-2.1
	c-0.2-0.1-0.4-0.1-0.6,0c-0.2,0.1-0.3,0.3-0.3,0.6c-0.3,0.2-0.5,0.5-0.6,0.9c-0.2,1.1,0,2.2,0.6,3.1c0.1,0.1,0.1,0.3,0.2,0.4
	c0,0.1,0,0.1-0.1,0.1c-0.3,0.4-0.3,0.9,0,1.3c0.5,0.9,1.4,1.4,2.4,1.3c0.7,0,1.3-0.2,1.9-0.5c0.1,0,0.1,0.1,0.2,0.1
	c0.3,0.2,0.6,0.4,0.9,0.6c0.1,0,0.2,0.1,0.2,0.1c0.2,0,0.4-0.1,0.5-0.3c0.1-0.3-0.1-0.6-0.3-0.7c-0.2-0.1-0.4-0.2-0.6-0.3l-0.1-0.1
	C212.2,147.4,212.5,145.9,211.8,144.7z M206.3,143.3c0.1-0.2,0.2-0.4,0.2-0.4l0.2-0.1c0.2,0,0.2-0.1,0.3-0.1
	c0.3-0.2,1.7,0.3,2.4,1.5c0.2,0.4,0.3,0.8,0.4,1.2c-0.3,0.4-0.6,0.7-1,0.9c-0.4,0.2-0.8,0.4-1.3,0.5c-0.3-0.3-0.6-0.6-0.8-1
	C206.4,145,206.2,144.1,206.3,143.3z M209.8,148c-0.4,0.3-0.9,0.4-1.4,0.4c-0.5,0-1-0.2-1.3-0.6c0.8,0,1.6-0.2,2.3-0.6
	c0.7-0.4,1.3-1,1.6-1.6C211.3,146.4,210.8,147.5,209.8,148z"/>
<path class="st0" d="M223,148.7c-0.5-1-2.3-1.6-3.9-1.2c-0.1,0.1-0.3,0.1-0.5,0.1l-0.1-0.1c-0.3-0.4-0.8-0.5-1.3-0.4
	c-0.8,0.2-1.5,0.7-1.7,1.5c-0.2,0.4-0.3,0.9-0.3,1.4h-0.2c-0.2,0-0.4-0.1-0.6-0.2c-0.2-0.1-0.5-0.1-0.6,0.1c0,0,0,0.1,0,0.1
	c-0.1,0.3,0,0.6,0.2,0.7l0.9,0.2h0.3c0.2,1.4,1.5,2.5,2.9,2.6c0.2,0,0.5,0,0.7-0.1c0.5-0.1,0.8-0.5,0.9-1v0c0.2-0.1,0.3-0.1,0.5-0.2
	c1.1-0.3,2-0.9,2.6-1.8c0.2-0.3,0.3-0.6,0.3-1c0.1-0.2,0.2-0.4,0.2-0.6C223.3,148.8,223.2,148.7,223,148.7z M216.4,150.9
	c-0.2-0.6-0.1-1.2,0.1-1.8c0.2-0.4,0.5-0.7,0.9-0.9c-0.2,0.8-0.2,1.6,0,2.4c0.2,0.8,0.6,1.5,1.2,2
	C217.5,152.8,216.7,152.1,216.4,150.9L216.4,150.9z M222.1,150.2c-0.5,0.7-1.2,1.1-2,1.3c-0.4,0.1-0.8,0.1-1.3,0.1
	c-0.3-0.4-0.5-0.8-0.6-1.3c-0.1-0.4-0.2-0.8-0.2-1.3c0.4-0.2,0.8-0.4,1.2-0.6c1.3-0.3,2.7,0.2,2.8,0.6c0,0.1,0.1,0.2,0.2,0.2
	c-0.1,0-0.1,0.1,0,0.2c0,0,0,0,0,0C222.3,149.8,222.2,150,222.1,150.2z"/>
<path class="st0" d="M190.3,172.6c-0.1-0.1-0.1-0.1-0.1-0.2c1.3-0.2,2.3-1.4,2.3-2.8c0-0.5-0.3-0.9-0.7-1.1h-0.1V168
	c0-1.6-1-3.2-2-3.5c-0.1-0.2-0.3-0.3-0.6-0.3c-0.2,0.1-0.4,0.2-0.6,0.4c-0.3,0.1-0.6,0.2-0.9,0.5c-0.7,0.8-1.1,1.9-1.1,3
	c0,0.2,0,0.4,0.1,0.6h-0.1c-0.5,0.2-0.7,0.6-0.7,1.1c0,1.6,1.4,2.8,3.3,2.8l0,0c0.1,0.1,0.1,0.1,0.1,0.3c0.1,0.3,0.2,0.6,0.5,0.9
	c0.1,0.1,0.2,0.2,0.4,0.2c0.1,0,0.2-0.1,0.3-0.2c0.2-0.2,0.3-0.5,0.1-0.7C190.5,172.9,190.4,172.8,190.3,172.6z M188.5,165.8
	c0.1-0.1,0.2-0.2,0.4-0.2c0.1,0,0.2,0,0.2-0.1c0.1,0.1,0.1,0.1,0.2,0.1h0.1c0.4,0,1.3,1.1,1.3,2.4c0,0.5-0.1,0.9-0.1,1.3
	c-0.4,0.1-0.9,0.2-1.4,0.2c-0.4,0-0.9-0.1-1.3-0.2c-0.2-0.4-0.2-0.8-0.2-1.3C187.6,167.2,187.9,166.4,188.5,165.8L188.5,165.8z
	 M186.9,169.9c0.7,0.4,1.5,0.6,2.3,0.6l0,0c0.8,0,1.6-0.2,2.3-0.6c-0.1,0.9-1,1.6-2.3,1.6C188.1,171.6,187.1,171,186.9,169.9z"/>
<path class="st0" d="M197.4,176.1c-0.2-0.1-0.3-0.1-0.5-0.1v-0.1c0-0.3-0.2-0.8-0.9-0.9c-0.2-0.1-0.5-0.1-0.7-0.2
	c-1.1,0-2.1,0.7-2.5,1.7l-0.1-0.1c-0.2-0.1-0.4-0.3-0.5-0.5c-0.2-0.2-0.5-0.2-0.7-0.1c-0.2,0.1-0.3,0.4-0.2,0.6c0,0,0,0.1,0.1,0.1
	c0.2,0.3,0.4,0.6,0.7,0.7c0.1,0.1,0.2,0.2,0.2,0.2c-0.3,0.9-0.1,1.9,0.3,2.8c0.3,0.6,0.9,1,1.6,1.2c0.1,0.1,0.3,0.1,0.4,0.1
	c0.4,0,0.7-0.2,0.9-0.5v-0.1c0.1,0.1,0.3,0.1,0.5,0.2c0.4,0.1,0.8,0.2,1.2,0.2c0.7,0,1.4-0.1,2-0.5c0.3-0.1,0.6-0.4,0.8-0.7
	c0.2-0.1,0.3-0.2,0.4-0.4c0.1-0.2,0-0.5-0.2-0.6C200.3,177.9,198.9,176.5,197.4,176.1z M194.3,180.3c-0.3-0.1-0.6-0.4-0.8-0.7
	c-0.3-0.6-0.4-1.3-0.1-2c0.3-1.1,1-1.8,1.9-1.8h0.2c-0.6,0.6-1,1.3-1.2,2.1C194,178.7,194,179.5,194.3,180.3L194.3,180.3z
	 M199.2,179.3c-0.1,0-0.1,0.1-0.2,0.2s-0.1,0.2-0.3,0.3c-0.8,0.4-1.6,0.5-2.4,0.2c-0.4-0.1-0.8-0.3-1.1-0.6c0-0.5,0-0.9,0.2-1.3
	c0.1-0.4,0.2-0.9,0.6-1.2c0.4-0.1,0.8,0,1.3,0.1c1.3,0.4,2.2,1.5,2.1,1.9V179.3z"/>
<path class="st0" d="M185.3,173.5c-1.5,0-2.8,0.9-3.5,2.3c-0.5,0.8-0.8,1.2-1.2,1.2c-0.1,0-0.2,0-0.2-0.1c0-0.2,0.1-0.7,0.1-1.1
	c0.2-1,0.3-2.2-0.4-3c-0.4-0.4-0.9-0.7-1.4-0.7c-2.5-0.4-4.1,1.2-4.1,4.1v0.4c0.1,0.7,0,1.4-0.2,2.1c-0.2-0.1-0.3-0.6-0.4-0.9
	c-0.2-0.8-0.6-2.1-2-2.1c-0.2,0-0.5,0-0.7,0.1c-2,0.6-2.3,2.5-2.4,3.5l-0.1,0.6c0,0.5-0.2,0.9-0.3,1.3c-0.1-0.1-0.1-0.2-0.2-0.3
	c-0.3-0.7-0.9-1.1-1.6-1.2c-0.3,0-0.7,0.1-0.9,0.3c-1.5,0.9-1.5,3.5-1.5,4.6c-3.4,0.6-3.4,0.9-3.3,1.1v0.2c0.1,0.2,0.4,0.2,0.7,0.2
	c0.9,0,1.9-0.1,2.8-0.2c0.8,2.3,1.9,3.6,3.3,3.7c0.1,0.1,0.2,0.1,0.3,0.1c1.5,0,1.7-1.3,1.8-2v-0.3l0,0c0.3,0,0.6,0.3,1,0.9l0.5,0.5
	l0.1,0.1c0.8,1,1.9,1.6,3.1,1.6c0.5,0,0.9-0.1,1.3-0.2c0.7-0.1,1.2-0.6,1.5-1.2c0.2-0.8,0.1-1.6-0.2-2.3c-0.1-0.2-0.3-0.6-0.2-0.7
	c0,0,0.1-0.1,0.2-0.1c0.5,0,1.2,0.6,1.7,1.2c0.2,0.1,0.2,0.2,0.4,0.4c0.9,0.8,2,1.3,3.2,1.3c1.4,0,2.8-0.8,3.5-2
	c0.4-0.5,0.5-1.2,0.4-1.8c-0.2-1-1.3-1.5-2.2-2c-0.3-0.1-0.6-0.3-0.9-0.6c0.1-0.4,0.6-0.7,1.6-0.7h0.4c1.7,0.3,3.3-0.5,4.1-2
	c0.7-1.4,0.6-3.1-0.3-4.3C188.1,174.3,186.8,173.5,185.3,173.5z M187.9,179.3c-0.5,0.8-1.4,1.2-2.4,1.2h-0.8
	c-1.3-0.1-2.6,0.6-3.1,1.8c-0.5,1.3,0.8,1.9,1.7,2.3c0.6,0.3,1.4,0.7,1.5,1c0,0.2-0.1,0.4-0.2,0.6c-0.5,0.8-1.4,1.2-2.3,1.3
	c-0.8,0-1.6-0.4-2.2-0.9c-0.2-0.1-0.2-0.2-0.4-0.3c-0.9-0.8-1.7-1.7-2.8-1.7c-0.4,0-0.8,0.1-1.1,0.4c-0.7,0.7-0.8,1.8-0.2,2.6
	c0.2,0.3,0.2,0.7,0.2,1c0,0.2-0.2,0.2-0.6,0.4c-0.3,0.1-0.5,0.1-0.8,0.1c-0.8-0.1-1.5-0.5-2-1.2l-0.1-0.1c-0.2-0.1-0.3-0.3-0.4-0.5
	c-0.5-0.8-1.3-1.3-2.2-1.3c-0.2,0-0.3,0-0.5,0.1c-0.7,0.2-1.1,0.9-1,1.6c-0.1,0.2-0.1,0.5-0.2,0.6h-0.3c-0.5-0.1-1.3-0.6-2-2.4
	c0.4-0.1,0.8-0.2,1.3-0.2c6.5-1.1,15.7-5.5,15.9-6v-0.1c0,0-0.1,0-0.1-0.1l0,0c-0.1-0.1-0.1-0.1-0.2-0.1s-0.1,0-0.9,0.3
	c-2.3,0.9-9.4,3.7-15.1,4.7l-1.2,0.2c0-2.2,0.6-2.9,0.9-3.1h0.1c0.1,0.1,0.2,0.3,0.3,0.5c0.3,0.5,0.7,1.2,1.6,1
	c1.3-0.3,1.5-1.5,1.7-2.7l0.1-0.6c0.2-1,0.4-2,1.3-2.2c0.5-0.2,0.6-0.2,0.9,1c0.2,0.8,0.6,1.8,1.7,1.9c0.5,0.1,0.9-0.1,1.3-0.4
	c0.7-0.7,0.7-2.1,0.6-3.1v-0.4c0.1-2.7,1.4-2.7,1.9-2.7h0.6c0.3,0,0.4,0.2,0.4,0.2c0.3,0.3,0.2,1.3,0.1,1.9c-0.2,1-0.2,2.2,0.7,2.7
	c0.3,0.1,0.6,0.1,0.9,0.2c1.1-0.2,2.1-0.9,2.5-2c0.4-0.9,1.2-1.4,2.1-1.5c1,0.1,1.9,0.6,2.4,1.5
	C188.3,177.2,188.4,178.3,187.9,179.3z"/>
<path class="st0" d="M211.9,160H210c-0.1-0.4,0.2-0.9,1.5-1.5c1.4-0.7,2.4-2.1,2.4-3.7c-0.1-1.5-0.9-2.8-2.3-3.5
	c-1.8-0.9-3.9-0.8-5,0.5c-0.8,0.8-1.1,1.9-1,3c-0.1,1.3-0.5,1.5-0.7,1.6c-0.2-0.3-0.3-0.6-0.5-0.9c-0.4-1.1-1-2.5-2.4-2.5
	c-0.3,0-0.7,0.1-1,0.1c-0.9,0.3-1.7,1-2,1.9c-0.4,1.2-0.2,2.6,0.5,3.7l0.2,0.2c0.2,0.4,1,1.6,0.8,2c-0.2-0.2-0.4-0.3-0.6-0.6
	c-0.5-0.6-1.2-1-2-1.1c-0.6,0-1.1,0.3-1.4,0.7c-1.5,1.4-0.8,3.3-0.5,4.1l0.2,0.6c0.2,0.4,0.3,0.8,0.3,1.3c-0.1-0.1-0.2-0.1-0.2-0.2
	c-0.4-0.2-0.8-0.4-1.3-0.4c-0.6,0-1.1,0.3-1.3,0.9c-1,1.7,0.6,4.1,1,5c-0.9,0.9-0.8,0.9-0.8,1.1l0.1,0.1c0.1,0.1,0.1,0.1,0.1,0.2
	s0.2,0.1,0.2,0.1c0.4-0.1,0.8-0.3,1.2-0.6c0.9,1,2.2,1.7,3.6,1.8c0.3,0,0.7-0.1,1-0.2c1.6-0.6,1-2,0.9-2.6c-0.1-0.2-0.2-0.2-0.2-0.3
	c0.1-0.1,0.2-0.1,0.2-0.1c0.3,0.1,0.7,0.2,1,0.3c0.2,0,0.4,0.1,0.6,0.2l0.1,0.1c0.6,0.2,1.2,0.3,1.8,0.3c1.1,0,2.1-0.4,2.8-1.3
	c0.4-0.5,0.7-1.1,0.6-1.8c-0.2-0.7-0.6-1.4-1.3-1.7c-0.2-0.2-0.6-0.5-0.6-0.6s0.1-0.1,0.5-0.1c0.5,0,1.1,0.1,1.6,0.3
	c0.2,0,0.4,0.1,0.6,0.1c0.5,0.2,0.9,0.2,1.4,0.2c2.2,0,3.8-1.5,4.1-3.9c0.1-0.6,0-1.2-0.4-1.7C213.3,160.3,212.6,160,211.9,160z
	 M212.9,162.2c-0.3,2-1.6,3-3.6,2.5c-0.2-0.1-0.4-0.1-0.6-0.2c-0.7-0.2-1.3-0.3-2-0.4c-0.8-0.1-1.6,0.4-1.9,1.2
	c-0.5,1.2,0.5,1.9,1,2.4c0.3,0.2,0.7,0.6,0.7,0.8c0,0.2-0.2,0.4-0.3,0.6c-0.4,0.5-0.9,0.8-1.6,0.8c-0.5,0-0.9-0.1-1.3-0.3h-0.2
	l-0.5-0.2c-0.5-0.2-1-0.3-1.6-0.3c-0.5,0-1,0.2-1.4,0.6c-0.6,0.6-0.3,1.4-0.1,1.9c0,0.2,0.1,0.4,0.2,0.6c-0.1,0.1-0.2,0.1-0.2,0.1
	c-0.6,0.3-1.6-0.1-2.8-1.1c0.7-0.6,1.6-1.3,2.5-2.1c4.9-4.4,10.5-12.9,10.4-13.4c0-0.1-0.1-0.2-0.1-0.2h-0.1c-0.2,0-0.2,0-0.6,0.6
	c-3.1,4.3-6.6,8.3-10.5,12c-1,0.9-1.8,1.6-2.4,2.2c-1.2-2-1-2.8-0.9-3.1c0-0.1,0.1-0.1,0.1-0.2c0.1,0.1,0.3,0.2,0.5,0.2
	c0.3,0.2,0.7,0.4,1.1,0.4c0.3,0,0.5-0.1,0.8-0.3c0.9-0.9,0.6-2,0.2-3l-0.2-0.6c-0.5-0.8-0.4-1.8,0.2-2.5c0.2-0.2,0.2-0.2,0.3-0.2
	s0.6,0.4,0.9,0.7c0.4,0.5,1.1,0.9,1.7,1c0.2,0,0.4-0.1,0.6-0.2c0.4-0.2,0.7-0.6,0.9-1c0.2-0.9-0.4-2.1-1-3.1l-0.2-0.2
	c-0.4-0.7-0.6-1.6-0.4-2.4c0.2-0.5,0.7-0.9,1.2-1c0.1-0.1,0.2-0.1,0.3-0.1c0.4,0,0.8,0.9,1,1.6c0.4,0.9,0.8,2,1.8,2h0.1
	c1.4-0.2,2.2-1.3,2.2-3.1c-0.1-0.7,0.1-1.5,0.6-2c0.6-0.7,1.9-0.8,3.2-0.2c0.9,0.4,1.4,1.2,1.5,2.1c-0.1,1-0.7,1.9-1.6,2.4
	c-1.2,0.6-2.6,1.4-2.3,3.2c0.1,0.8,0.7,1.2,1.9,1.2c0.2,0,0.5,0,0.7-0.1h0.8c0.7,0,0.9,0.2,0.9,0.2
	C212.8,161.9,212.9,162,212.9,162.2L212.9,162.2z"/>
<path class="st0" d="M225.5,125.9c-0.8,0.1-1.6,0.4-2.3,0.9c-0.2,0.2-0.7,0.5-0.9,0.6c-0.2-0.4-0.4-0.9,0.4-2.1c1-1.3,1.2-3,0.5-4.4
	c-0.7-1.3-2.1-2.1-3.5-2h-0.2c-1.5,0-3,0.8-3.8,2.1c-0.6,1.2-0.5,2.7,0.2,3.9c0.6,1.2,0.5,1.5,0.2,1.7c-0.3-0.2-0.6-0.4-0.9-0.6
	c-0.7-0.7-1.5-1.1-2.4-1.3c-0.6,0-1.2,0.3-1.6,0.9c-0.7,0.7-1.1,1.7-0.9,2.7c0.3,1.3,1.1,2.3,2.3,2.9l0.3,0.1c0.5,0.3,1.6,1,1.6,1.3
	c0,0,0,0.1-0.1,0.1c0,0,0,0,0,0c-0.3,0-0.5-0.1-0.8-0.1c-0.4-0.2-0.9-0.2-1.3-0.2c-0.9,0-1.7,0.6-1.8,1.5c-0.6,2,1,3.2,1.7,3.8
	l0.4,0.4c0.7,0.6,0.9,0.8,0.9,0.9h-0.3c-0.6-0.1-1.2,0.1-1.6,0.5c-0.3,0.3-0.4,0.8-0.4,1.2c0.1,1.8,2.3,3.1,3.2,3.8
	c-0.3,1.1-0.2,1.3-0.2,1.3l0.2,0.2h0.2c0.1,0,0.3,0,0.8-1.1c0.7,0.1,1.4,0.2,2.1,0.2c1.1,0.1,2.1-0.4,2.8-1.2
	c0.6-0.8,0.5-1.9-0.3-2.5c-0.1-0.1-0.2-0.1-0.3-0.2l-0.2-0.2c0.2-0.1,0.4-0.2,1.2-0.4c0.2,0,0.5-0.1,0.7-0.1l0.1-0.1
	c1.7-0.1,3.1-1.3,3.5-3c0.2-0.6,0.1-1.3-0.2-1.9c-0.5-0.6-1.2-0.9-2-0.9c-0.3-0.1-0.5-0.1-0.8-0.2c0-0.5,0.8-0.7,1.9-1
	c0.2,0,0.4-0.1,0.6-0.1c1.2-0.3,2.3-1.1,2.9-2.2c0.5-1.2,0.6-2.6,0.1-3.8C227.1,126.4,226.3,125.9,225.5,125.9z M214.6,145.6
	L214.6,145.6L214.6,145.6L214.6,145.6z M225.9,130.3c-0.4,0.8-1.1,1.3-2,1.5c-0.1,0-0.3,0.1-0.5,0.1c-1.3,0.4-3.1,0.9-3,2.7
	c0.1,1.2,1.3,1.3,2,1.5c0.3,0.1,0.9,0.1,1,0.3c0.1,0.2,0.1,0.5,0,0.7c-0.2,1.1-1.2,1.8-2.3,1.8l-0.1,0.1c-0.2,0-0.5,0.1-0.6,0.1
	c-1,0.2-2,0.4-2.4,1.6c-0.3,0.9,0.4,1.4,0.8,1.7c0.1,0.1,0.4,0.3,0.4,0.4s0,0.1-0.1,0.2c-0.4,0.4-1,0.6-1.6,0.6
	c-0.5,0-1-0.1-1.5-0.1c0.3-0.8,0.7-1.8,1.2-3.1c2.3-6.5,2.8-16.5,2.5-16.8l-0.2-0.1c-0.2,0-0.2,0-0.5,1.6c-0.5,2.9-1.4,9.8-3.2,14.8
	c-0.5,1.3-0.8,2.3-1.1,3.1c-1.8-1.2-2.1-2-2.1-2.3v-0.1c0.1-0.1,0.3-0.1,0.5-0.1c0.6,0,1.4,0,1.7-0.9c0.4-1.3-0.5-2-1.3-2.8
	l-0.5-0.3c-0.7-0.7-1.4-1.3-1.2-2.3c0.2-0.4,0.2-0.4,0.4-0.4c0.3,0,0.6,0.1,0.9,0.2c0.4,0.1,0.8,0.2,1.2,0.2c0.5,0.1,1-0.2,1.3-0.6
	c0.3-0.4,0.4-0.8,0.3-1.3c-0.2-1-1.3-1.7-2.3-2.2l-0.3-0.2c-0.8-0.3-1.4-1-1.6-1.8c0-0.6,0.2-1.1,0.6-1.5c0.2-0.3,0.3-0.3,0.4-0.3
	c0.4,0,1,0.6,1.5,1c0.5,0.6,1.2,0.9,1.9,1c0.2,0,0.5-0.1,0.7-0.2c1.7-1.3,0.6-3.2,0.2-3.9c-0.5-0.7-0.5-1.6-0.1-2.4
	c0.5-0.9,1.5-1.4,2.5-1.3h0.2c0.9,0,1.7,0.4,2.2,1.2c0.5,0.9,0.3,2.1-0.4,2.8c-0.3,0.6-1.5,2.2-0.3,3.9c0.2,0.3,0.6,0.5,1,0.5
	c0.7-0.1,1.3-0.4,1.9-0.8c0.4-0.3,0.9-0.6,1.4-0.7c0.1,0,0.2,0,0.5,0.5C226.3,128.7,226.2,129.5,225.9,130.3L225.9,130.3z"/>
<path class="st0" d="M215.5,87.4c-1.3-1.4-3.5-1.6-5.1-0.6c-1.3,0.8-2.2,2.2-2.3,3.8c0.1,1.4,0.9,2.7,2.1,3.3c1.2,0.6,1.1,1.1,1,1.4
	h-0.1c-0.3,0-0.6-0.1-0.9-0.2c-0.5-0.1-1-0.1-1.5-0.2c-1.1-0.2-2.1,0.6-2.3,1.7c0,0,0,0.1,0,0.1c-0.2,1,0,2,0.6,2.8
	c0.9,0.9,2.1,1.5,3.4,1.4h0.3c0.7,0,1.4,0.1,2,0.3v0.1c-0.2,0.1-0.5,0.1-0.7,0.2c-0.9,0.2-2.6,0.7-2.1,2.7s2.4,2.4,3.3,2.5l0.6,0.2
	c0.8,0.1,1.1,0.2,1.2,0.3c-0.1,0.1-0.2,0.1-0.2,0.2c-0.5,0.2-0.9,0.6-1.1,1.2c-0.1,0.4-0.1,0.9,0.1,1.3c1,1.6,3.6,1.7,4.7,1.7
	c0.2,1.1,0.4,1.1,0.6,1.1h0.1c0.1,0,0.2-0.1,0.2-0.2s0.2-0.2,0.2-1.2c2.4-0.7,3.7-1.7,3.9-3.2c0.2-1.7-1.3-2-1.8-2
	c-0.1-0.1-0.2-0.1-0.2-0.1c0-0.2,0.2-0.5,0.9-1c0.1-0.2,0.3-0.3,0.5-0.4l0.1-0.1c1.4-1,2-2.8,1.6-4.4c-0.5-1.4-1.3-1.7-2-1.7
	c-0.5,0-0.9,0.1-1.3,0.3c-0.3,0.1-0.6,0.1-0.9,0.2c-0.2-0.3,0.4-0.9,1.2-1.7c0.2-0.1,0.3-0.3,0.4-0.5c1-0.9,1.5-2.1,1.5-3.4
	c-0.1-1.3-0.7-2.5-1.8-3.2c-0.4-0.4-0.8-0.6-1.3-0.6c-1.3,0-1.9,1.3-2.4,2.2c-0.2,0.3-0.3,0.6-0.6,0.9c-0.5-0.2-0.6-0.6-0.6-2
	C216.7,89.6,216.3,88.3,215.5,87.4z M216.6,94.3c0.1,0.1,0.3,0.1,0.5,0.2c0.9,0,1.4-0.9,1.9-1.7c0.2-0.6,0.7-1.4,1.1-1.4
	c0.2,0,0.3,0.1,0.4,0.2c0.7,0.5,1.2,1.3,1.3,2.1c0,0.9-0.4,1.7-1,2.3c-0.2,0.1-0.3,0.2-0.5,0.4c-0.9,1-2.4,2.3-1.3,3.7
	c0.3,0.4,0.8,0.6,1.3,0.6c0.4,0,0.9-0.1,1.3-0.3c0.3-0.1,0.6-0.2,0.9-0.2c0.1,0,0.3,0,0.5,0.6c0.3,1.1-0.1,2.2-1.1,2.8l-0.1,0.1
	c-0.2,0.1-0.3,0.2-0.5,0.3c-0.8,0.7-1.6,1.3-1.3,2.6c0.2,0.9,0.9,1,1.5,1.2c0.2,0,0.4,0.1,0.6,0.2v0.2c0,0.4-0.5,1.2-2.5,1.8
	c-0.1-1.2-0.3-2.3-0.6-3.5c-1.1-6.3-5.5-15.8-6.1-15.8c-0.1,0-0.1,0-0.2,0.1c-0.2,0.2-0.2,0.2,0.5,1.7c1.1,2.8,3.6,9.1,4.5,14.3
	c0.3,1.5,0.5,2.6,0.7,3.4c-2.2-0.1-2.8-0.6-3.1-1c0,0,0-0.1-0.1-0.1l0.5-0.2c0.5-0.3,1.2-0.7,1-1.6c-0.2-1.3-1.3-1.6-2.4-1.7
	l-0.6-0.2c-0.9-0.2-1.8-0.4-2-1.4c-0.2-0.4-0.2-0.5,1-0.8c0.7-0.2,1.8-0.5,2-1.7c0-0.4-0.2-0.9-0.5-1.2c-0.6-0.7-2-0.8-3.1-0.8h-0.2
	c-0.8,0-1.6-0.3-2.2-0.9c-0.3-0.5-0.4-1-0.3-1.6c0.1-0.4,0.2-0.6,0.8-0.6c0.4,0,0.8,0.1,1.2,0.2c0.4,0.1,0.8,0.1,1.3,0.2
	c0.6,0.1,1.2-0.2,1.4-0.8c0.3-0.8,0.6-2.3-1.6-3.5c-0.8-0.4-1.3-1.1-1.3-2c0-1,0.6-1.9,1.5-2.4c1-0.7,2.3-0.6,3.1,0.2
	c0.5,0.7,0.7,1.5,0.6,2.4C214.9,91.7,214.8,93.6,216.6,94.3L216.6,94.3z"/>
<path class="st0" d="M186.9,63.2c-0.8,1.3-0.9,2.9-0.2,4.3c0.8,1.2,2.1,1.9,3.6,1.9c1.3,0,1.5,0.5,1.6,0.8c-0.3,0.1-0.7,0.2-1,0.4
	c-1,0.2-1.9,0.7-2.4,1.6c-0.2,0.5-0.2,1.1,0,1.7c0.7,2.3,2.8,3,5.4,1.7l0.3-0.2c0.6-0.3,1.2-0.6,1.8-0.7c0.1,0,0.2,0,0.2,0.1
	s-0.4,0.4-0.6,0.6c-0.7,0.4-1.1,1.1-1.2,1.9c0,0.5,0.2,1,0.6,1.4c0.5,0.7,1.4,1,2.2,1c0.6,0,1.3-0.2,1.9-0.4l0.6-0.2
	c0.4-0.2,0.8-0.3,1.2-0.2c-0.1,0.1-0.1,0.2-0.1,0.2c-0.4,0.5-0.5,1.1-0.4,1.7c0.1,0.4,0.4,0.8,0.8,1c0.4,0.3,0.9,0.4,1.3,0.4
	c1.2-0.1,2.4-0.5,3.4-1.1c0.7,0.8,0.9,0.8,0.9,0.8c0.1,0,0.2,0,0.2-0.1h0l0.1-0.2c0-0.2,0.1-0.3-0.5-1.2c1.8-1.8,2.5-3.4,2-4.8
	c-0.2-0.7-0.9-1.2-1.6-1.2c-0.3,0-0.7,0.1-1,0.2c-0.1,0.1-0.2,0.1-0.3,0.1c-0.1-0.2,0-0.5,0.3-1.3c0.1-0.2,0.1-0.4,0.2-0.6l0.1-0.1
	c0.8-1.5,0.4-3.4-0.8-4.6c-0.4-0.5-1-0.8-1.6-0.8c-0.8,0.1-1.6,0.5-2,1.2c-0.2,0.2-0.5,0.5-0.6,0.5c-0.3-0.2-0.1-1,0.2-2
	c0-0.2,0.1-0.4,0.2-0.5c0.4-1.2,0.3-2.5-0.3-3.6c-0.8-1.1-1.9-1.8-3.2-2c-0.7-0.2-1.4,0-1.9,0.5c-0.5,0.8-0.8,1.8-0.6,2.8
	c0,0.3,0,0.7-0.1,1c-0.5,0-0.9-0.2-1.4-1.4c-0.5-1.6-2-2.7-3.7-2.8C188.9,61.1,187.6,61.9,186.9,63.2z M188.2,64
	c0.5-1.2,2-1.7,3.2-1.2c0.6,0.3,1.1,0.8,1.3,1.5c0.6,1.2,1.3,2.4,2.8,2.4h0.3c1.3-0.1,1.3-1.5,1.3-2.5c0-0.6,0-1.5,0.2-1.7
	c0-0.1,0.1-0.1,0.2-0.1h0.3c0.9,0.1,1.6,0.6,2.1,1.3c0.4,0.8,0.5,1.7,0.1,2.5c0,0.2-0.1,0.4-0.1,0.5c-0.4,1.3-1,3.2,0.7,3.9
	c0.2,0.1,0.4,0.2,0.6,0.2c0.8,0,1.3-0.6,1.7-1.1c0.2-0.3,0.6-0.7,0.8-0.7c0.1,0,0.2,0.1,0.6,0.3c1,1,0.7,2.1,0.4,3l-0.1,0.2
	c-0.1,0.2-0.1,0.3-0.2,0.5c-0.4,0.9-0.8,1.9,0,2.9c0.2,0.3,0.6,0.5,1,0.5c0.3,0,0.6-0.1,0.9-0.2c0.2-0.1,0.4-0.1,0.6-0.2
	c0,0,0.1,0,0.2,0.2c0.2,0.4,0.2,1.3-1.4,2.9c-0.5-0.7-1.2-1.6-2.1-2.8c-3.6-4.4-9.8-8.8-11.8-10.2c-0.9-0.7-0.9-0.7-1.1-0.7h-0.1
	l-0.1,0.2v0.1c0,0.1,0,0.1,0.9,0.8h0.1c4,3.2,7.7,6.8,11.1,10.7c0.9,1.1,1.6,2,2.1,2.6c-0.7,0.4-1.5,0.6-2.4,0.7
	c-0.2,0-0.4,0-0.6-0.1c0-0.1,0-0.1-0.1-0.1c0.1-0.2,0.2-0.3,0.3-0.5c0.2-0.5,0.7-1.2,0.2-1.9c-0.3-0.4-0.9-0.7-1.4-0.7
	c-0.5,0.1-1.1,0.2-1.6,0.4l-0.6,0.2c-0.5,0.1-0.9,0.2-1.4,0.2c-0.4,0-0.8-0.1-1.1-0.5c-0.2-0.2-0.2-0.2-0.2-0.3
	c0-0.2,0.5-0.6,0.7-0.9c0.6-0.6,1.4-1.3,0.9-2.4c-0.3-0.6-0.9-1-1.6-1c-0.9,0.1-1.8,0.4-2.5,0.9l-0.2,0.2c-0.6,0.3-1.2,0.4-1.8,0.5
	c-0.5,0-1.2-0.2-1.6-1.3c-0.1-0.4-0.1-0.5,0-0.6c0.2-0.3,0.9-0.6,1.6-0.8c0.9-0.3,2-0.7,2-1.8c0-1.1-0.6-2.3-3.1-2.3
	c-0.9,0.1-1.7-0.4-2.2-1.1C187.7,65.8,187.7,64.8,188.2,64z"/>
<path class="st0" d="M116.3,136.9l3.4-9h-1.9l-1.8,4.8c-0.2,0.6-0.6,1.5-0.8,2.3c-0.2-0.9-0.5-1.7-0.7-2.4l-1.7-4.7h-2.1l3.4,9
	L116.3,136.9z"/>
<polygon class="st0" points="127.4,135.4 124,135.4 124,133.1 127.2,133.1 127.2,131.6 124,131.6 124,129.4 127.4,129.4 
	127.4,127.9 122.1,127.9 122.1,136.9 127.4,136.9 "/>
<polygon class="st0" points="134.1,136.9 134.1,129.6 136.6,129.6 136.6,127.9 129.7,127.9 129.7,129.6 132.2,129.6 132.2,136.9 "/>
<polygon class="st0" points="144.5,129.4 144.5,127.9 139.3,127.9 139.3,136.9 144.5,136.9 144.5,135.4 141.1,135.4 141.1,133.1 
	144.4,133.1 144.4,131.6 141.1,131.6 141.1,129.4 "/>
<path class="st0" d="M153.5,132.7l-3-4.8h-2.5v9h1.8v-4.7c0-0.6,0-1.3-0.1-1.9h0.1c0.3,0.6,0.5,1.2,0.9,1.7l3.1,4.8h2.5v-9h-1.8v4
	c0,0.8,0,1.7,0.1,2.5C154.2,133.9,153.8,133.3,153.5,132.7z"/>
<path class="st0" d="M161.8,135.6c-0.7,0-1.4-0.1-2-0.4l-0.1,1.7c0.6,0.1,1.3,0.2,1.9,0.2c2.3,0,3.9-1.2,3.9-3c0-2.8-4-2.1-4-3.6
	c0-0.7,0.5-1.2,1.7-1.2c0.6,0,1.1,0.1,1.7,0.3l0.1-1.7c-0.5-0.1-1.1-0.1-1.7-0.2c-2.4,0-3.7,1.2-3.7,2.8c0,2.9,4,2.1,4,3.7
	C163.5,135.2,162.7,135.6,161.8,135.6z"/>
<polygon class="st0" points="168.7,127.9 168.7,136.9 170.6,136.9 170.6,132.7 173.9,136.9 176.4,136.9 172.5,132.3 176.2,127.9 
	173.9,127.9 170.6,132 170.6,127.9 "/>
<path class="st0" d="M180.4,135.2h3.8l0.6,1.7h2l-3.4-9h-2.2l-3.4,9h1.9L180.4,135.2z M181.8,131.3c0.1-0.5,0.3-0.9,0.5-1.4
	c0.1,0.5,0.3,0.9,0.5,1.4l0.9,2.5h-2.8L181.8,131.3z"/>
<path class="st0" d="M192.5,127.9h-2.9v9h1.9V134h0.8c2.3,0,3.9-1.3,3.9-3.2C196.1,129,194.8,127.9,192.5,127.9z M192.2,132.5h-0.8
	v-3.1h0.9c1.2,0,1.8,0.6,1.8,1.5C194.1,132,193.4,132.5,192.2,132.5z"/>
<path class="st0" d="M116.3,152.1c2.5,0.1,4.6-1.8,4.7-4.3c0-0.2,0-0.3,0-0.5c0-3-1.8-4.6-4.4-4.6c-2.5-0.1-4.6,1.9-4.7,4.4
	c0,0.1,0,0.2,0,0.3C112,150.2,113.4,152.1,116.3,152.1z M116.5,144.4c1.6,0,2.5,1,2.5,3.1s-1.1,2.9-2.6,2.9c-1.7,0-2.4-1.3-2.4-3
	C114,145.4,115.1,144.4,116.5,144.4L116.5,144.4z"/>
<path class="st0" d="M127.6,152.1c0.8,0,1.7-0.2,2.5-0.4l-0.2-1.6c-0.6,0.3-1.2,0.4-1.9,0.4c-1.4,0.1-2.7-0.9-2.8-2.4
	c0-0.2,0-0.3,0-0.5c0-1.8,1-3.1,2.8-3.1c0.6,0,1.3,0.1,1.9,0.3l0.2-1.7c-0.6-0.2-1.3-0.2-1.9-0.2c-2.5-0.2-4.7,1.6-4.9,4.1
	c0,0.2,0,0.5,0,0.7C123.2,150.3,124.7,152.1,127.6,152.1z"/>
<polygon class="st0" points="140.9,151.9 140.9,142.9 139,142.9 139,146.5 134.8,146.5 134.8,142.9 133,142.9 133,151.9 
	134.8,151.9 134.8,148.1 139,148.1 139,151.9 "/>
<polygon class="st0" points="150.8,147.7 154.1,151.9 156.6,151.9 152.7,147.2 156.4,142.9 154.1,142.9 150.8,146.9 150.8,142.9 
	148.9,142.9 148.9,151.9 150.8,151.9 "/>
<path class="st0" d="M162.2,152.1c2.5,0.1,4.6-1.9,4.7-4.4c0-0.1,0-0.2,0-0.3c0-3-1.8-4.6-4.5-4.6c-2.5,0-4.6,2-4.7,4.5
	c0,0.1,0,0.1,0,0.2C157.8,150.2,159.3,152.1,162.2,152.1z M162.4,144.4c1.5,0,2.5,1,2.5,3.1s-1.2,2.9-2.6,2.9c-1.7,0-2.4-1.3-2.4-3
	C159.8,145.4,161.1,144.4,162.4,144.4L162.4,144.4z"/>
<path class="st0" d="M172.3,147l3.2,4.9h2.4v-9h-1.8v4c0,1.1,0.1,2,0.1,2.5c-0.3-0.6-0.6-1.2-1-1.7l-3-4.8h-2.5v9h1.8v-6.5
	C171.7,145.9,172,146.5,172.3,147z"/>
<path class="st0" d="M183.3,150.6c-0.7,0-1.4-0.1-2-0.4l-0.1,1.7c0.6,0.1,1.3,0.1,1.9,0.2c2.3,0,3.9-1.2,3.9-3c0-2.8-4-2.1-4-3.7
	c0-0.6,0.6-1.1,1.6-1.1c0.6,0,1.2,0.1,1.7,0.3l0.1-1.7c-0.6-0.1-1.2-0.1-1.7-0.1c-2.4,0-3.7,1.2-3.7,2.8c0,2.9,3.9,2.1,3.9,3.7
	C185,150.2,184.2,150.6,183.3,150.6z"/>
<polygon class="st0" points="193.2,151.9 193.2,144.6 195.7,144.6 195.7,142.9 188.8,142.9 188.8,144.6 191.3,144.6 191.3,151.9 "/>
<path class="st0" d="M123.6,117.5l-0.2-0.1c-4.7-0.6-4.8-1.5-4.9-5.4v-6.8l7.9,8.6c3,3.3,4.6,5.1,9,5.1c0.9,0,1.8-0.1,2.8-0.2h0.2
	v-1.1h-0.2c-2.6-0.1-4-1.6-6.9-4.6c-0.4-0.4-0.8-0.8-1.2-1.3l-7.7-8.5l3.1-3.2l0.7-0.7c2.6-2.8,5.5-5.8,9.5-6.2l0.2-0.1v-1h-10.4v1
	l0.2,0.1c1,0.1,1.6,0.3,1.7,0.7c0.3,0.8-0.6,2.4-2.8,4.8l-6.1,6.4v-6.4c0.2-3.9,0.2-4.9,3.9-5.4h0.2v-1.1h-12.6v1.1h0.2
	c4.3,0.6,4.4,1.5,4.5,5.4V112c-0.1,3.9-0.2,4.9-4.5,5.4l-0.2,0.1v1h13.6V117.5z"/>
<path class="st0" d="M158.1,117.5l-0.2-0.1c-4.9-0.6-5.1-1.7-5.1-6.3V93.7h2c4.5,0,6.4,1.4,7.6,5.8l0.1,0.2l1-0.2l-0.6-7.5h-24.1
	l-0.5,7.5l1,0.2v-0.2c1.3-4.3,3.1-5.8,7.6-5.8h2v17.4c0,4.7-0.2,5.8-5.1,6.3l-0.2,0.1v1H158L158.1,117.5z"/>
<path class="st0" d="M197.1,93.2h0.2v-1.1h-13.7v1.1h0.2c4.8,0.7,4.8,1.3,4.8,5.4v5.3h-13.8v-5.3c0-4.1,0-4.7,4.9-5.4h0.2v-1.1
	h-13.7v1.1h0.2c4.3,0.6,4.4,1.5,4.5,5.4V112c-0.1,3.9-0.2,4.9-4.5,5.4l-0.2,0.1v1h13.7v-1l-0.2-0.1c-4.9-0.7-4.9-1.3-4.9-5.4v-6
	h13.8v6c0,4.1,0,4.7-4.8,5.4l-0.2,0.1v1h13.6v-1l-0.2-0.1c-4.4-0.6-4.4-1.5-4.6-5.4V98.6C192.6,94.7,192.6,93.7,197.1,93.2z"/>
<path class="st0" d="M121.4,57.5c-0.5,0.9-0.4,2,0.2,2.9c0.6,0.9,1.7,1.4,2.8,1.2c1.2,1.4,3.2,3.2,4.7,2.8c15.4-6.2,32.6-6.2,47.9,0
	c1.6,0.5,3.5-1.3,4.7-2.8c1.1,0.1,2.1-0.4,2.8-1.3c0.6-0.9,0.6-2,0.1-2.9c0.6-0.9,1.3-1.8,2.1-2.5c0.6-0.6,1-1.4,0.9-2.2
	c0-1.6-1.3-3-2.9-3h-0.4c-0.1-0.1-0.1-0.2-0.1-0.2c1.2-0.6,1.7-2.2,1-3.4c-0.4-0.8-1.3-1.3-2.2-1.3c-0.5,0-0.9,0.1-1.3,0.4
	c-0.1-0.1-0.2-0.2-0.2-0.3c0.4-0.4,0.6-0.9,0.6-1.4c0.1-1.1-0.7-2.1-1.8-2.1c-0.8-0.1-1.5,0.3-1.9,1c-0.1-0.1-0.2-0.2-0.4-0.2
	c0.2-0.3,0.4-0.7,0.4-1.1c0-1-0.9-1.9-1.9-1.9c-0.8,0-1.5,0.5-1.7,1.3c-0.2-0.1-0.4-0.2-0.6-0.2c0.1-0.3,0.2-0.6,0.2-0.9
	c0-0.9-0.7-1.7-1.6-1.7c0,0,0,0,0,0c-0.8,0-1.5,0.6-1.7,1.4c-0.1,0-0.3,0-0.4-0.1c-0.3-1-1.2-1.7-2.3-1.7c-0.2,0-0.5,0-0.7,0.1
	l-0.2-0.2v-0.1c0-1.1-0.9-2-2-2c-0.4,0-0.8,0.1-1.1,0.3c-0.1,0-0.2,0-0.2-0.1l0,0c0-1-0.8-1.8-1.8-1.8c-0.7,0-1.3,0.4-1.6,1
	c-0.1-0.1-0.3-0.1-0.5-0.1V34c0.1-0.9-0.5-1.7-1.4-1.8s-1.7,0.5-1.8,1.4h-0.5c0.2-0.5,0.3-1,0.3-1.5c0-1.5-0.8-2.8-2.1-3.5
	c-0.4-0.2-0.7-0.3-1.1-0.4v-3h1.7c0.1-0.2,0.2-0.5,0.2-0.7c0-0.2,0-0.5-0.2-0.7h-1.7v-1.6c-0.4-0.2-1-0.2-1.4,0v1.6h-1.7
	c-0.1,0.2-0.2,0.5-0.1,0.7c0,0.2,0,0.5,0.1,0.7h1.7v3c-0.4,0.1-0.7,0.2-1.1,0.4c-1.3,0.7-2.1,2-2.1,3.5c0,0.5,0.1,1,0.3,1.5H149
	c-0.2-0.9-1.1-1.4-2-1.2c-0.7,0.2-1.2,0.8-1.2,1.6v0.1c-0.2,0-0.3,0-0.5,0.1c-0.3-0.6-0.9-0.9-1.6-1c-1,0-1.8,0.8-1.8,1.8l0,0
	c-0.1,0.1-0.2,0.1-0.2,0.1c-0.3-0.2-0.7-0.3-1.1-0.3c-1.1,0-2,0.9-2,2v0.1l-0.2,0.2c-0.2-0.1-0.5-0.1-0.7-0.1c-1.1,0-2,0.7-2.3,1.7
	c-0.1,0-0.2,0.1-0.3,0.1c-0.2-0.8-0.9-1.4-1.7-1.4c-0.9,0-1.7,0.8-1.7,1.7c0,0,0,0,0,0c0,0.3,0.1,0.6,0.2,0.9
	c-0.2,0.1-0.4,0.2-0.6,0.2c-0.2-0.8-0.9-1.3-1.7-1.3c-1,0-1.9,0.9-1.9,1.9c0,0.4,0.1,0.8,0.4,1.1c-0.2,0.1-0.2,0.2-0.4,0.2
	c-0.6-0.9-1.8-1.3-2.7-0.7c-0.7,0.4-1,1.1-1,1.9c0,0.5,0.2,1.1,0.6,1.4c-0.1,0.1-0.1,0.2-0.2,0.3c-0.4-0.3-0.8-0.4-1.3-0.4
	c-1.4,0-2.5,1.1-2.5,2.5c0,0.9,0.5,1.8,1.3,2.2c0,0.1,0,0.2-0.1,0.2h-0.3c-1.7,0-3,1.3-3,3c0,0.8,0.4,1.7,1,2.2
	C120.2,55.7,120.9,56.6,121.4,57.5z M124,60.5c-1,0-1.8-0.8-1.8-1.8c0-0.4,0.1-0.7,0.3-1c0.3-0.5,0.9-0.8,1.5-0.8
	c0.6,0,1.2,0.3,1.6,0.8c0.2,0.3,0.3,0.6,0.3,1C125.8,59.7,125,60.5,124,60.5C124,60.5,124,60.5,124,60.5z M153.1,54.5
	c-1,0-1.8-0.8-1.8-1.8c0-1,0.8-1.8,1.8-1.8s1.8,0.8,1.8,1.8c0,0,0,0,0,0C154.9,53.7,154.1,54.5,153.1,54.5
	C153.1,54.5,153.1,54.5,153.1,54.5L153.1,54.5z M153.1,40.3c1,0,1.8,0.8,1.8,1.7c0,0,0,0,0,0.1c0,1-0.8,1.8-1.8,1.8
	c-1,0-1.8-0.8-1.8-1.8C151.2,41.2,152,40.4,153.1,40.3C153,40.3,153,40.3,153.1,40.3L153.1,40.3z M151.6,38.3c0-0.8,0.6-1.4,1.4-1.4
	s1.4,0.6,1.4,1.4c0,0.8-0.6,1.4-1.4,1.4C152.3,39.7,151.6,39.1,151.6,38.3C151.6,38.3,151.6,38.3,151.6,38.3L151.6,38.3z
	 M153.1,44.7c1.2,0,2.2,0.9,2.2,2.1c0,0,0,0.1,0,0.1c0,0.6-0.2,1.1-0.6,1.5c-0.5-0.4-1.1-0.6-1.7-0.5c-0.6,0-1.2,0.2-1.7,0.5
	c-0.4-0.4-0.6-0.9-0.6-1.5C150.8,45.6,151.8,44.7,153.1,44.7C153,44.7,153,44.7,153.1,44.7z M182.1,60.5c-1,0.1-1.8-0.7-1.9-1.7
	c0-0.5,0.2-1,0.6-1.4c0.4-0.4,0.8-0.6,1.3-0.6c0.8,0,1.4,0.5,1.7,1.2c0.1,0.2,0.1,0.4,0.1,0.6C183.9,59.7,183.1,60.5,182.1,60.5z
	 M184.8,50.7c1.1,0,2,0.9,2,2c-0.1,0.8-0.6,1.6-1.3,2c-0.5-0.6-1.3-1-2.1-1h-0.3c-0.2-0.3-0.3-0.6-0.3-1c0-1.1,0.8-2,1.9-2.1
	C184.7,50.7,184.8,50.7,184.8,50.7L184.8,50.7z M183.2,45.7c0.8,0,1.5,0.6,1.5,1.4c0,0,0,0.1,0,0.1c0,0.8-0.7,1.5-1.5,1.5l0,0
	c-0.8,0-1.5-0.7-1.5-1.5C181.7,46.4,182.4,45.8,183.2,45.7L183.2,45.7z M180.3,42.3c0.6-0.1,1.1,0.4,1.2,1c0.1,0.6-0.4,1.1-1,1.2
	c-0.1,0-0.1,0-0.2,0c-0.6-0.1-1-0.6-1-1.2C179.3,42.8,179.7,42.4,180.3,42.3z M176.7,40c0.5,0,0.9,0.4,0.9,0.9s-0.4,0.9-0.9,0.9
	c-0.5,0-0.9-0.4-0.9-0.9C175.8,40.4,176.2,40,176.7,40z M172.9,38.5c0.4,0,0.7,0.3,0.7,0.7c0,0.4-0.3,0.7-0.7,0.7
	c-0.4,0-0.7-0.3-0.7-0.7C172.3,38.8,172.6,38.5,172.9,38.5L172.9,38.5z M170.6,40.5c5.8,1.8,8.8,4.7,10.2,7.4c0.7,1.5,1,3.1,1,4.7
	c0.1,0.5,0.2,0.9,0.3,1.3c-0.8,0.3-1.3,1-1.5,1.8l-0.2-0.2c-1.2-1-3-0.9-4,0.3c-0.7,0.9-0.9,2.1-0.4,3.1c0.7,1.4,2.3,2,3.7,1.4
	c0.1,0.2,0.3,0.4,0.5,0.5c-0.7,1.3-2.3,1.9-3.6,1.3c-1.3-0.5-2.3-1.6-2.7-2.9c-1.1,0.9-2.5,1.3-3.9,1c-1.5-0.3-2.5-1.8-2.2-3.3
	c0.1-0.3,0.1-0.6,0.2-1c0.2,1.1,1,2,2.1,2.2c1.5,0.3,3-0.7,3.3-2.2c0.3-1.5-0.7-2.9-2.2-3.2c-0.2-0.1-0.4,0-0.6,0l0.2-0.3v-0.9
	c1.4-0.4,2.3-1.6,2.4-3.1c0-1.2-0.6-2.3-1.6-2.8c0.8-0.5,1.4-1.3,1.3-2.3c0-1.4-1-2.5-2.4-2.7C170.6,40.6,170.6,40.6,170.6,40.5z
	 M168.6,49.3c-0.2-0.1-0.5-0.1-0.7-0.1c-0.1-0.2-0.1-0.5-0.2-0.7c0-1.2,1-2.2,2.2-2.2c0,0,0.1,0,0.1,0c1.2,0,2.2,0.9,2.2,2.1
	c0,0,0,0.1,0,0.1c0,1-0.7,1.9-1.7,2.1C170.1,50,169.5,49.5,168.6,49.3L168.6,49.3z M171.9,43.4c-0.1,0.9-0.9,1.6-1.8,1.6
	c-0.8-0.1-1.5-0.7-1.6-1.6c0.1-0.9,0.9-1.6,1.8-1.6C171.2,41.9,171.9,42.6,171.9,43.4z M168.6,38.1c0.7,0,1.3,0.6,1.3,1.3
	c0,0,0,0,0,0c0,0.7-0.6,1.3-1.3,1.3c-0.7,0-1.3-0.6-1.3-1.3c0,0,0,0,0,0c0-0.7,0.5-1.3,1.2-1.3C168.5,38,168.5,38,168.6,38.1
	L168.6,38.1z M167.6,52.3c1,0,1.8,0.8,1.8,1.8s-0.8,1.8-1.8,1.8s-1.8-0.8-1.8-1.8c0,0,0,0,0,0C165.8,53.1,166.6,52.3,167.6,52.3
	C167.6,52.3,167.6,52.3,167.6,52.3L167.6,52.3z M165.6,35.8c0.6,0,1,0.4,1,1s-0.4,1-1,1c-0.6,0-1-0.4-1-1S165,35.8,165.6,35.8z
	 M162.4,34.3c0.4,0,0.8,0.3,0.8,0.8c0,0,0,0,0,0c0,0.4-0.4,0.8-0.8,0.8c-0.4,0-0.8-0.3-0.8-0.8C161.6,34.6,161.9,34.3,162.4,34.3
	C162.4,34.3,162.4,34.3,162.4,34.3L162.4,34.3z M158.7,33.4c0.3,0,0.6,0.2,0.6,0.5c0,0,0,0.1,0,0.1c0,0.3-0.3,0.6-0.6,0.6
	c0,0,0,0,0,0c-0.3,0-0.6-0.3-0.6-0.6C158.1,33.7,158.3,33.4,158.7,33.4C158.7,33.4,158.7,33.4,158.7,33.4L158.7,33.4z M165.9,49.2
	l0.4,0.7c-0.5,0.4-0.9,1-1,1.7v0.2c-0.2,0-0.3-0.2-0.5-0.2c-1.5-0.4-3,0.6-3.3,2c-0.4,1.5,0.6,3,2,3.3c0.1,0,0.2,0,0.3,0.1
	c1.1,0.2,2.2-0.3,2.8-1.2c0,0.3-0.1,0.6-0.2,0.9c-0.3,1.5-1.8,2.5-3.3,2.2c-1.4-0.2-2.6-1.1-3.2-2.4c-0.8,1.1-2.1,1.8-3.6,1.8
	c-1.6,0-2.8-1.3-2.8-2.8c0,0,0,0,0,0c0-0.3,0-0.6,0.1-0.9c0.4,1,1.4,1.7,2.5,1.7c1.6,0,2.8-1.2,2.9-2.8c0,0,0,0,0,0
	c0-1.5-1.2-2.8-2.8-2.8c0,0-0.1,0-0.1,0c-0.2,0-0.3,0-0.5,0.1c0-0.1,0-0.2,0.1-0.3c0-0.3-0.1-0.5-0.2-0.8l1-0.6
	c0,0-0.2-9.4-1.9-13.6c0.1,0,0.2,0,0.2-0.1C168.8,36.2,167.6,45.8,165.9,49.2L165.9,49.2z M155.9,31.8c0,0.1,0.1,0.2,0.1,0.2
	c0,0.5-0.2,1.1-0.5,1.5h-0.9c0-0.2,0.1-0.2,0.1-0.4c-0.1-0.6-0.4-1.1-0.9-1.3H155.9z M153.8,29.3c0.8,0.2,1.5,0.8,1.9,1.5h-1.9V29.3
	z M153.1,32.5c0.3,0,0.6,0.3,0.6,0.6c0,0.3-0.3,0.6-0.6,0.6c-0.3,0-0.6-0.3-0.6-0.6C152.4,32.8,152.7,32.6,153.1,32.5z M153.1,34.4
	c0.5,0,0.9,0.5,0.9,1s-0.5,0.9-1,0.9c-0.5,0-0.9-0.4-0.9-0.9c0-0.5,0.3-1,0.8-1C152.9,34.4,153,34.4,153.1,34.4z M152.3,29.3v1.5
	h-1.9C150.8,30.1,151.5,29.5,152.3,29.3z M150.2,31.8h2c-0.4,0.3-0.7,0.8-0.8,1.3c0,0.2,0.1,0.2,0.1,0.4h-0.9
	c-0.3-0.4-0.5-1-0.5-1.5C150.1,32,150.2,31.9,150.2,31.8z M147.4,33.4c0.3,0,0.6,0.3,0.6,0.6c0,0,0,0,0,0c0,0.3-0.3,0.6-0.6,0.6
	c-0.3,0-0.6-0.3-0.6-0.6c0,0,0,0,0,0c0-0.3,0.2-0.6,0.5-0.6C147.3,33.4,147.3,33.4,147.4,33.4z M143.7,34.3c0.4,0,0.8,0.3,0.9,0.7
	c0,0,0,0,0,0c0,0.4-0.4,0.8-0.9,0.8c-0.4,0-0.8-0.4-0.8-0.8C142.9,34.6,143.2,34.3,143.7,34.3C143.7,34.3,143.7,34.3,143.7,34.3z
	 M140.5,35.8c0.6,0,1,0.4,1,1s-0.4,1-1,1c-0.6,0-1-0.4-1-1S140,35.8,140.5,35.8z M151.1,35.5c0,0.1,0.1,0.1,0.2,0.1
	c-1.7,4.3-1.9,13.6-1.9,13.6l1,0.6c-0.1,0.3-0.1,0.5-0.2,0.8c0,0.1,0.1,0.2,0.1,0.3c-0.1-0.1-0.3-0.1-0.5-0.1
	c-1.5,0-2.8,1.2-2.8,2.7c0,0,0,0,0,0.1c0,1.5,1.3,2.8,2.8,2.8c1.1,0,2.1-0.7,2.5-1.8c0.1,0.3,0.1,0.6,0.1,0.9c0,1.6-1.3,2.8-2.8,2.8
	c0,0,0,0,0,0c-1.4,0-2.7-0.7-3.5-1.8c-0.6,1.3-1.8,2.2-3.2,2.4c-1.5,0.3-3-0.7-3.3-2.2c-0.1-0.3-0.1-0.6-0.2-0.9
	c0.6,0.9,1.7,1.4,2.8,1.2c1.5-0.2,2.6-1.6,2.4-3.1c-0.2-1.5-1.6-2.6-3.1-2.4c-0.1,0-0.2,0-0.3,0.1c-0.1,0-0.3,0.2-0.5,0.2v-0.2
	c-0.1-0.6-0.5-1.2-1-1.7l0.4-0.7C138.5,45.8,137.4,36.2,151.1,35.5z M140.3,54.1c0,1-0.8,1.8-1.8,1.8c-1,0.1-1.9-0.7-1.9-1.7
	c-0.1-1,0.7-1.9,1.7-1.9c0.1,0,0.2,0,0.3,0C139.5,52.3,140.3,53.1,140.3,54.1z M135.6,50.7c-1.2-0.3-1.9-1.4-1.7-2.6
	c0.3-1.2,1.4-1.9,2.6-1.7c1,0.2,1.7,1.1,1.7,2.2c0,0.2-0.1,0.5-0.2,0.7c-0.2,0-0.5,0-0.7,0.1C136.7,49.5,136,50,135.6,50.7z
	 M137.5,38.1c0.7,0,1.3,0.5,1.3,1.2c0,0,0,0.1,0,0.1c0,0.7-0.6,1.3-1.3,1.3c0,0,0,0,0,0c-0.7,0-1.3-0.6-1.3-1.3
	C136.2,38.7,136.8,38.1,137.5,38.1C137.5,38.1,137.5,38.1,137.5,38.1z M135.9,41.8c0.9,0,1.6,0.7,1.7,1.7c-0.1,0.9-0.9,1.6-1.8,1.6
	c-0.8-0.1-1.5-0.7-1.6-1.6C134.2,42.5,134.9,41.7,135.9,41.8C135.9,41.8,135.9,41.8,135.9,41.8z M133.2,38.5c0.4,0,0.7,0.3,0.7,0.7
	c0,0.4-0.3,0.7-0.7,0.7c-0.3,0-0.6-0.3-0.6-0.6C132.5,38.8,132.8,38.5,133.2,38.5C133.1,38.5,133.2,38.5,133.2,38.5z M129.4,40
	c0.5,0,0.9,0.4,0.9,0.9c0,0.5-0.4,0.9-0.9,0.9s-0.9-0.4-0.9-0.9C128.5,40.4,128.9,40,129.4,40z M135.5,40.5c0,0.1,0.1,0.1,0.1,0.2
	c-1.4,0.2-2.4,1.3-2.4,2.7c0,1,0.5,1.8,1.3,2.3c-1,0.6-1.7,1.7-1.6,2.8c0,1.4,1,2.7,2.4,3.1v1l0.2,0.3c-0.2,0-0.4-0.1-0.6,0
	c-1.5,0.3-2.5,1.7-2.2,3.2c0.3,1.5,1.8,2.5,3.3,2.2c1.1-0.2,2-1.1,2.2-2.2c0,0.2,0.2,0.8,0.2,1c0.3,1.5-0.7,3-2.2,3.3
	c-1.4,0.3-2.9-0.1-3.9-1c-0.4,1.3-1.4,2.4-2.7,2.9c-1.4,0.6-3-0.1-3.6-1.4c0.2-0.1,0.4-0.3,0.5-0.5c1.4,0.6,3.1,0,3.7-1.4
	c0.7-1.4,0.1-3.1-1.3-3.8c-1-0.5-2.2-0.3-3.1,0.4l-0.2,0.2c-0.2-0.8-0.7-1.5-1.5-1.8c0.1-0.5,0.2-0.9,0.3-1.4
	c-0.1-1.6,0.3-3.3,1-4.7C126.7,45.2,129.7,42.3,135.5,40.5z M125.9,42.3c0.6,0,1.1,0.5,1,1.1s-0.5,1.1-1.1,1c-0.6,0-1-0.5-1-1
	C124.7,42.8,125.2,42.3,125.9,42.3C125.8,42.3,125.8,42.3,125.9,42.3z M121.4,47.3c0-0.8,0.6-1.5,1.4-1.5c0,0,0.1,0,0.1,0
	c0.8,0,1.5,0.7,1.5,1.5c0,0.8-0.7,1.5-1.5,1.5C122.1,48.8,121.4,48.1,121.4,47.3C121.4,47.3,121.4,47.3,121.4,47.3L121.4,47.3z
	 M121.4,50.8c1.1,0,2,0.9,2,2c0,0.3-0.1,0.7-0.3,1h-0.2c-0.8,0-1.6,0.4-2.1,1c-0.7-0.4-1.2-1.2-1.3-2
	C119.4,51.6,120.3,50.7,121.4,50.8C121.4,50.7,121.4,50.7,121.4,50.8L121.4,50.8z"/>
<path class="st0" d="M173.4,72.1c0.3,0,0.5-0.2,0.6-0.4c0.1-0.3-0.1-0.7-0.4-0.9c-6.5-2.4-13.4-3.6-20.3-3.6h-0.5
	c-6.9,0-13.8,1.2-20.3,3.6c-0.3,0.2-0.5,0.5-0.4,0.9c0.2,0.3,0.5,0.5,0.9,0.4c6.4-2.4,13.1-3.5,19.9-3.5h0.5
	c6.8,0,13.5,1.1,19.9,3.5H173.4z"/>
<path class="st0" d="M177.3,68.3l-0.9-2.5l-0.2-0.4l-1.3,0.2c-6.6-2.6-13.7-3.9-20.8-4l-1.1-0.7l-1.2,0.7c-7.1,0.1-14.1,1.5-20.7,4
	l-1.3-0.2l-0.2,0.4l-0.9,2.5l2.8,1.5l0.9-1c6.2-2.3,12.7-3.6,19.2-3.7l1.4,0.8l1.4-0.8c6.6,0.2,13.1,1.4,19.2,3.7l0.9,1L177.3,68.3z
	 M131.3,68.6c-0.4-0.2-0.9-0.4-1.3-0.7c0.2-0.4,0.4-0.9,0.5-1.3l2.2,0.4C132.2,67.5,131.6,68.3,131.3,68.6L131.3,68.6z M142.8,65.3
	l-2.2,0.5c-0.6,0.1-1.1-0.3-1.3-0.9c-0.1-0.6,0.2-1.2,0.8-1.3l2.1-0.5c0.6-0.1,1.2,0.3,1.3,0.9C143.7,64.6,143.3,65.2,142.8,65.3
	L142.8,65.3z M153.1,64.7l-2.3-1.3l2.3-1.3l2.3,1.3L153.1,64.7z M166.9,64.9c-0.1,0.6-0.7,1-1.3,0.9l-2.2-0.5
	c-0.6-0.1-1-0.7-0.9-1.3c0.2-0.6,0.7-0.9,1.3-0.9l2.1,0.5C166.6,63.7,167,64.3,166.9,64.9C166.9,64.9,166.9,64.9,166.9,64.9z
	 M173.4,66.9l2.2-0.4c0.1,0.5,0.3,0.9,0.5,1.3c-0.4,0.3-0.8,0.5-1.3,0.7C174.5,68.3,173.9,67.5,173.4,66.9L173.4,66.9z"/>
</svg>
