<?xml version="1.0" encoding="UTF-8"?>
<svg width="130px" height="52px" viewBox="0 0 130 52" version="1.1" xmlns="http://www.w3.org/2000/svg" xmlns:xlink="http://www.w3.org/1999/xlink">
    <title>mecs-logo-colour</title>
    <g id="Desktop" stroke="none" stroke-width="1" fill="none" fill-rule="evenodd">
        <g id="MECS-2020---Concept-1---Homepage----placeholders" transform="translate(-1351.000000, -3955.000000)">
            <g id="Footer" transform="translate(0.000000, 3842.000000)">
                <g id="mecs-logo-colour" transform="translate(1351.000000, 113.000000)">
                    <path d="M14.7086899,10.8095188 C17.176429,8.88363478 21.3187188,8.51812754 25.2857913,10.1614029 C29.2532406,11.8046783 31.9240812,14.9921275 32.3072986,18.0989391 L34.9950957,19.2120406 C35.1382841,15.1628232 32.3770087,10.9078667 27.8582841,8.45595362 C29.2385449,8.27395362 30.5833855,7.21172174 31.248458,5.60575072 C32.1678783,3.38633043 31.4413855,0.977373913 29.6259072,0.225634783 C27.8108058,-0.526481159 25.5936464,0.663113043 24.6742261,2.88291014 C24.0200812,4.46212754 24.2028348,6.13441739 25.0148638,7.23998261 C19.9746319,5.62534493 14.8466029,6.66308406 12.0205159,9.69604058 L14.7086899,10.8095188 Z" id="Fill-1" fill="#007BA1"></path>
                    <path d="M16.6499478,42.3055043 C13.7481217,41.1317362 11.3606435,37.7272435 10.8003246,33.4696493 C10.239629,29.2120551 11.6647304,25.3056493 14.1633681,23.4204609 L14.1633681,23.4200841 L13.783542,20.5355913 C10.2049623,22.436229 7.90113623,26.9553304 8.03678841,32.094287 C7.18896232,30.990229 5.59693333,30.3568087 3.8733971,30.5836493 C1.49157101,30.8971565 -0.231211594,32.7307217 0.0253971014,34.6788377 C0.282005797,36.6269536 2.42041159,37.9518232 4.80223768,37.6383159 C6.49713623,37.4152435 7.85403478,36.4212145 8.40568696,35.1653014 C9.52745507,40.3374174 12.9899768,44.2596493 17.0297739,45.1903739 L16.6499478,42.3055043 Z" id="Fill-3" fill="#007BA1"></path>
                    <path d="M40.8939681,35.5861623 C44.8124319,32.0290609 46.4779391,27.068713 45.264229,23.1050319 L42.9558812,24.8764232 C43.3899681,27.9764522 41.6351565,31.7464522 38.2284029,34.3603942 C34.8216493,36.9750899 30.7260841,37.6940464 27.8438522,36.4728 L27.8438522,36.4728 L25.5355043,38.2438145 C28.9708957,40.3923942 34.0363739,40.1286261 38.4190696,37.4412058 C37.8870116,38.7276406 38.1342,40.4232928 39.192287,41.8020464 C40.6546928,43.7083362 43.1043449,44.2833507 44.6628377,43.0869739 C46.2220841,41.8905971 46.3000841,39.3761333 44.8376783,37.4702203 C43.7969246,36.1140754 42.2576493,35.4361913 40.8939681,35.5861623" id="Fill-5" fill="#007BA1"></path>
                    <path d="M8.64895652,16.4079594 C4.73049275,19.9654377 3.06498551,24.9254087 4.27869565,28.8894667 L6.58704348,27.1176986 C6.15295652,24.0180464 7.90776812,20.2480464 11.3145217,17.6337275 C14.7212754,15.0194087 18.8168406,14.3004522 21.6990725,15.5216986 L21.6990725,15.5216986 L24.0074203,13.7506841 C20.572029,11.6021043 15.5065507,11.8658725 11.1238551,14.5532928 C11.655913,13.266858 11.4087246,11.5712058 10.3506377,10.1920754 C8.88823188,8.28616232 6.43857971,7.71077101 4.88008696,8.90714783 C3.32084058,10.1035246 3.24284058,12.6179884 4.70524638,14.5239014 C5.746,15.8804232 7.28527536,16.5579304 8.64895652,16.4079594" id="Fill-7" fill="#361163"></path>
                    <path d="M34.8342348,41.1849797 C32.3664957,43.110487 28.2242058,43.4759942 24.2571333,41.8330957 C20.2896841,40.1894435 17.6188435,37.0019942 17.2356261,33.8955594 L14.547829,32.7820812 C14.4046406,36.8312986 17.1659159,41.0862551 21.6846406,43.5385449 C20.3040029,43.7205449 18.9595391,44.7827768 18.2944667,46.3887478 C17.3750464,48.6077913 18.1015391,51.0167478 19.9170174,51.7688638 C21.7321188,52.5206029 23.9492783,51.3310087 24.8686986,49.1115884 C25.5228435,47.532371 25.3400899,45.8600812 24.5280609,44.7545159 C29.5682928,46.3691536 34.6963217,45.3314145 37.5224087,42.298458 L34.8342348,41.1849797 Z" id="Fill-9" fill="#361163"></path>
                    <path d="M49.5175652,17.3155855 C49.2609565,15.3674696 47.1225507,14.0422232 44.7407246,14.3561072 C43.0458261,14.5788029 41.6889275,15.5732087 41.1372754,16.8291217 C40.0155072,11.6570058 36.5529855,7.73477391 32.5131884,6.80404928 L32.8930145,9.68854203 L32.8930145,9.68891884 C35.7948406,10.862687 38.1823188,14.2675565 38.7426377,18.5247739 C39.3033333,22.7823681 37.8782319,26.6887739 35.3795942,28.5739623 L35.3792174,28.5739623 L35.7594203,31.4588319 C39.3376232,29.5578174 41.6418261,25.0390928 41.5061739,19.8997594 C42.354,21.0041942 43.946029,21.6376145 45.6695652,21.4107739 C48.0510145,21.0972667 49.7741739,19.2637014 49.5175652,17.3155855" id="Fill-11" fill="#361163"></path>
                    <polygon id="Fill-13" fill="#361163" points="70.4120319 26.5668 70.4120319 14.2446841 66.373742 22.2617275 63.5830754 22.2617275 59.5153942 14.2446841 59.5153942 26.5668 55.3881768 26.5668 55.3881768 5.42653913 59.455858 5.42653913 64.9787855 16.8574957 70.4711913 5.42653913 74.5388725 5.42653913 74.5388725 26.5668"></polygon>
                    <polygon id="Fill-15" fill="#361163" points="79.4683971 26.5668 79.4683971 5.42653913 93.3934696 5.42653913 93.3934696 9.10836522 83.5956145 9.10836522 83.5956145 14.066829 91.9389768 14.066829 91.9389768 17.7486551 83.5956145 17.7486551 83.5956145 22.8849739 93.3934696 22.8849739 93.3934696 26.5668"></polygon>
                    <path d="M104.528214,26.7447304 C102.093635,26.7447304 100.312446,25.9432522 98.8572,24.5181507 C96.7489391,22.4102667 96.7195478,20.0348464 96.7195478,15.9965565 C96.7195478,11.9586435 96.7489391,9.5836 98.8572,7.47533913 C100.312446,6.05023768 102.093635,5.24838261 104.528214,5.24838261 C108.4772,5.24838261 111.506012,7.50473043 112.277722,11.9288754 L108.061577,11.9288754 C107.645954,10.2068464 106.576939,8.9302087 104.528214,8.9302087 C103.400041,8.9302087 102.47949,9.34583188 101.885635,10.0286145 C101.113548,10.9193971 100.846388,11.9586435 100.846388,15.9965565 C100.846388,20.0348464 101.113548,21.0740928 101.885635,21.9644986 C102.47949,22.6472812 103.400041,23.0632812 104.528214,23.0632812 C106.576939,23.0632812 107.675722,21.7866435 108.091345,20.0642377 L112.277722,20.0642377 C111.506012,24.4883826 108.447432,26.7447304 104.528214,26.7447304" id="Fill-17" fill="#361163"></path>
                    <path d="M121.660971,26.7447304 C118.454304,26.7447304 116.019348,26.0619478 113.941232,23.9540638 L116.613203,21.2817159 C117.949377,22.6178899 119.76071,23.0632812 121.690362,23.0632812 C124.155087,23.0632812 125.461493,22.1129623 125.461493,20.4207014 C125.461493,19.7081507 125.253493,19.1142957 124.808478,18.6689043 C124.392478,18.2826725 123.976855,18.1048174 122.908217,17.9563536 L120.383957,17.5701217 C118.513464,17.3029623 117.236826,16.7388754 116.286507,15.8183246 C115.277406,14.8386145 114.772478,13.4432812 114.772478,11.6617159 C114.772478,7.89096232 117.563522,5.24838261 122.13613,5.24838261 C125.045493,5.24838261 127.153754,5.96093333 128.965087,7.71273043 L126.351899,10.2957739 C125.045493,9.01913623 123.412391,8.84090435 122.017058,8.84090435 C119.81987,8.84090435 118.780623,10.0583826 118.780623,11.5132522 C118.780623,12.0773391 118.929464,12.6120348 119.374855,13.027658 C119.790101,13.413513 120.413725,13.7104406 121.304884,13.8291362 L123.828391,14.2153681 C125.75842,14.4825275 126.945754,14.9870783 127.866681,15.8778609 C128.994855,16.9171072 129.499406,18.431513 129.499406,20.3313971 C129.499406,24.4288464 126.114507,26.7447304 121.660971,26.7447304" id="Fill-19" fill="#361163"></path>
                    <polygon id="Fill-21" fill="#361163" points="61.0458522 35.7988725 61.0458522 31.6742928 59.6083159 34.3579449 58.6139101 34.3579449 57.1658232 31.6742928 57.1658232 35.7988725 55.696258 35.7988725 55.696258 28.7223507 57.1447217 28.7223507 59.1113014 32.5488725 61.0673304 28.7223507 62.5154174 28.7223507 62.5154174 35.7988725"></polygon>
                    <path d="M66.9011275,31.9527565 C66.742113,31.8035391 66.5310986,31.7244087 66.2564029,31.7244087 C65.9918812,31.7244087 65.7804899,31.8035391 65.6214754,31.9527565 C65.3366058,32.2108725 65.3045768,32.6781188 65.3045768,33.2049014 C65.3045768,33.7414812 65.3366058,34.2087275 65.6214754,34.4668435 C65.7804899,34.6160609 65.9918812,34.6955681 66.2564029,34.6955681 C66.5310986,34.6955681 66.742113,34.6160609 66.9011275,34.4668435 C67.1867507,34.2087275 67.2180261,33.7414812 67.2180261,33.2049014 C67.2180261,32.6781188 67.1867507,32.2108725 66.9011275,31.9527565 M67.9686348,35.2223507 C67.6200841,35.5603507 67.0703159,35.8584087 66.2564029,35.8584087 C65.442113,35.8584087 64.9032725,35.5603507 64.5539681,35.2223507 C64.0573304,34.7253362 63.9303449,34.1390174 63.9303449,33.2049014 C63.9303449,32.2707855 64.0573304,31.693887 64.5539681,31.1972493 C64.9032725,30.8596261 65.442113,30.5611913 66.2564029,30.5611913 C67.0703159,30.5611913 67.6200841,30.8494522 67.9686348,31.1972493 C68.4656493,31.693887 68.5926348,32.2707855 68.5926348,33.2049014 C68.5926348,34.1390174 68.4765768,34.7355101 67.9686348,35.2223507" id="Fill-23" fill="#361163"></path>
                    <path d="M71.9744812,31.7242203 C71.1500174,31.7242203 71.0441333,32.3700754 71.0441333,33.2050899 C71.0441333,34.0401043 71.1500174,34.6957565 71.9744812,34.6957565 C72.7993217,34.6957565 72.9157565,34.0401043 72.9157565,33.2050899 C72.9157565,32.3700754 72.7993217,31.7242203 71.9744812,31.7242203 L71.9744812,31.7242203 Z M72.9474087,35.7986841 L72.9474087,35.3118435 C72.5664522,35.7093797 72.164771,35.8585971 71.5837275,35.8585971 C71.0339594,35.8585971 70.5474957,35.6894087 70.240771,35.3909739 C69.7121043,34.8845391 69.6702783,34.0792928 69.6702783,33.2050899 C69.6702783,32.3403072 69.7121043,31.5350609 70.240771,31.0282493 C70.5474957,30.7298145 71.0234087,30.5610029 71.5731768,30.5610029 C72.1334957,30.5610029 72.5562783,30.7004232 72.9157565,31.0779884 L72.9157565,28.7221623 L74.2899884,28.7221623 L74.2899884,35.7986841 L72.9474087,35.7986841 Z" id="Fill-25" fill="#361163"></path>
                    <path d="M78.8766899,32.1709681 C78.7289797,31.863113 78.4222551,31.6343884 77.9572696,31.6343884 C77.4919072,31.6343884 77.1855594,31.863113 77.0370957,32.1709681 C76.9421391,32.3601275 76.9210377,32.499171 76.910487,32.7282725 L79.0036754,32.7282725 C78.9931246,32.499171 78.9720232,32.3601275 78.8766899,32.1709681 L78.8766899,32.1709681 Z M76.910487,33.6122725 C76.910487,34.2882725 77.3332696,34.7653159 78.1155304,34.7653159 C78.7180522,34.7653159 79.0142261,34.5965043 79.3631536,34.2784754 L80.1985449,35.0434029 C79.6378493,35.5803594 79.0990087,35.8584464 78.1049797,35.8584464 C76.8046029,35.8584464 75.5569797,35.3022725 75.5569797,33.2049391 C75.5569797,31.5153159 76.5299072,30.561229 77.9572696,30.561229 C79.4901391,30.561229 80.3568058,31.5948232 80.3568058,33.0658957 L80.3568058,33.6122725 L76.910487,33.6122725 Z" id="Fill-27" fill="#361163"></path>
                    <path d="M84.616058,32.0322261 C84.4046667,31.8336464 84.2249275,31.724371 83.8865507,31.724371 C83.4633913,31.724371 82.9987826,32.022429 82.9987826,32.6780812 L82.9987826,35.7988348 L81.6245507,35.7988348 L81.6245507,30.6210667 L82.9667536,30.6210667 L82.9667536,31.1177043 C83.2312754,30.8196464 83.759942,30.5611536 84.351913,30.5611536 C84.8911304,30.5611536 85.2717101,30.6900232 85.6522899,31.048371 L84.616058,32.0322261 Z" id="Fill-29" fill="#361163"></path>
                    <path d="M89.6371478,35.7988725 L89.6371478,32.6683217 C89.6371478,31.9621768 89.1612348,31.7244087 88.7279014,31.7244087 C88.2945681,31.7244087 87.8081043,31.9621768 87.8081043,32.6683217 L87.8081043,35.7988725 L86.4338725,35.7988725 L86.4338725,30.6211043 L87.7764522,30.6211043 L87.7764522,31.097771 C88.1359304,30.7401768 88.642742,30.5611913 89.1506841,30.5611913 C89.7004522,30.5611913 90.144713,30.7300029 90.4510609,31.0182638 C90.8949449,31.4361478 91.0110029,31.9226116 91.0110029,32.4893362 L91.0110029,35.7988725 L89.6371478,35.7988725 Z" id="Fill-31" fill="#361163"></path>
                    <polygon id="Fill-33" fill="#361163" points="95.0479362 35.7988725 95.0479362 28.7223507 100.0064 28.7223507 100.0064 29.9545246 96.5175014 29.9545246 96.5175014 31.6147565 99.4879072 31.6147565 99.4879072 32.8469304 96.5175014 32.8469304 96.5175014 34.5663217 100.0064 34.5663217 100.0064 35.7988725"></polygon>
                    <path d="M104.540725,35.7988725 L104.540725,32.6683217 C104.540725,31.9621768 104.064812,31.7244087 103.631478,31.7244087 C103.198145,31.7244087 102.711681,31.9621768 102.711681,32.6683217 L102.711681,35.7988725 L101.337449,35.7988725 L101.337449,30.6211043 L102.680029,30.6211043 L102.680029,31.097771 C103.039507,30.7401768 103.546696,30.5611913 104.054261,30.5611913 C104.604029,30.5611913 105.04829,30.7300029 105.354638,31.0182638 C105.798522,31.4361478 105.91458,31.9226116 105.91458,32.4893362 L105.91458,35.7988725 L104.540725,35.7988725 Z" id="Fill-35" fill="#361163"></path>
                    <path d="M110.438316,32.1709681 C110.290229,31.863113 109.983881,31.6343884 109.518896,31.6343884 C109.053533,31.6343884 108.747186,31.863113 108.598722,32.1709681 C108.503765,32.3601275 108.482664,32.499171 108.471736,32.7282725 L110.565301,32.7282725 C110.554751,32.499171 110.533649,32.3601275 110.438316,32.1709681 L110.438316,32.1709681 Z M108.471736,33.6122725 C108.471736,34.2882725 108.894896,34.7653159 109.677157,34.7653159 C110.279678,34.7653159 110.575475,34.5965043 110.92478,34.2784754 L111.760171,35.0434029 C111.199475,35.5803594 110.660635,35.8584464 109.666606,35.8584464 C108.366229,35.8584464 107.118606,35.3022725 107.118606,33.2049391 C107.118606,31.5153159 108.091157,30.561229 109.518896,30.561229 C111.051388,30.561229 111.918432,31.5948232 111.918432,33.0658957 L111.918432,33.6122725 L108.471736,33.6122725 Z" id="Fill-37" fill="#361163"></path>
                    <path d="M116.177722,32.0322261 C115.96633,31.8336464 115.786591,31.724371 115.447838,31.724371 C115.025055,31.724371 114.56007,32.022429 114.56007,32.6780812 L114.56007,35.7988348 L113.186214,35.7988348 L113.186214,30.6210667 L114.528417,30.6210667 L114.528417,31.1177043 C114.792939,30.8196464 115.321606,30.5611536 115.913577,30.5611536 C116.452417,30.5611536 116.832997,30.6900232 117.213577,31.048371 L116.177722,32.0322261 Z" id="Fill-39" fill="#361163"></path>
                    <path d="M119.718771,31.7242203 C118.904481,31.7242203 118.819699,32.3798725 118.819699,33.0660464 C118.819699,33.7514667 118.904481,34.4172928 119.718771,34.4172928 C120.532307,34.4172928 120.627264,33.7514667 120.627264,33.0660464 C120.627264,32.3798725 120.532307,31.7242203 119.718771,31.7242203 M119.580858,37.7569739 C118.73567,37.7569739 118.153872,37.5979594 117.583003,37.0809739 L118.439119,36.2659304 C118.745843,36.5443942 119.052191,36.6630899 119.517554,36.6630899 C120.342017,36.6630899 120.627264,36.116713 120.627264,35.5903072 L120.627264,35.0631478 C120.268539,35.4410899 119.85593,35.5801333 119.316713,35.5801333 C118.777496,35.5801333 118.31251,35.4109449 118.005786,35.1230609 C117.48767,34.6362203 117.445843,33.9700174 117.445843,33.0660464 C117.445843,32.1613217 117.48767,31.5052928 118.005786,31.0184522 C118.31251,30.7298145 118.788046,30.5610029 119.327264,30.5610029 C119.909061,30.5610029 120.289641,30.7102203 120.669843,31.1077565 L120.669843,30.6209159 L122.002249,30.6209159 L122.002249,35.6102783 C122.002249,36.8522493 121.061351,37.7569739 119.580858,37.7569739" id="Fill-41" fill="#361163"></path>
                    <path d="M125.595072,36.6338116 C125.478638,36.9220725 125.352029,37.1406232 125.182841,37.2996377 C124.865565,37.5980725 124.453333,37.6971739 123.998899,37.6971739 L123.459681,37.6971739 L123.459681,36.5343333 L123.776957,36.5343333 C124.168087,36.5343333 124.326725,36.445029 124.464261,36.067087 L124.696377,35.431029 L122.814957,30.621029 L124.263043,30.621029 L125.404783,33.820913 L126.504319,30.621029 L127.952783,30.621029 L125.595072,36.6338116 Z" id="Fill-43" fill="#361163"></path>
                    <path d="M57.9266435,44.9027159 C57.1349623,44.9027159 56.5561797,44.6419623 56.0832812,44.1788609 C55.3982377,43.4938174 55.3884406,42.7213536 55.3884406,41.4089188 C55.3884406,40.0961072 55.3982377,39.3240203 56.0832812,38.6389768 C56.5561797,38.1754986 57.1349623,37.9147449 57.9266435,37.9147449 C59.2104406,37.9147449 60.1946725,38.6483971 60.445629,40.086687 L59.0751652,40.086687 C58.9398899,39.5263681 58.5928464,39.1114986 57.9266435,39.1114986 C57.5600058,39.1114986 57.2608174,39.2467739 57.067513,39.4687159 C56.8169333,39.7584841 56.7298899,40.0961072 56.7298899,41.4089188 C56.7298899,42.7213536 56.8169333,43.0589768 57.067513,43.3487449 C57.2608174,43.570687 57.5600058,43.7055855 57.9266435,43.7055855 C58.5928464,43.7055855 58.9493101,43.2910928 59.0845855,42.7307739 L60.445629,42.7307739 C60.1946725,44.1690638 59.2006435,44.9027159 57.9266435,44.9027159" id="Fill-45" fill="#361163"></path>
                    <path d="M64.0055188,41.109542 C63.8608232,40.9644696 63.6675188,40.8876 63.4169391,40.8876 C63.1754029,40.8876 62.9820986,40.9644696 62.8377797,41.109542 C62.5766493,41.3604986 62.5480116,41.8141797 62.5480116,42.3258899 C62.5480116,42.8462667 62.5766493,43.2999478 62.8377797,43.5512812 C62.9820986,43.6959768 63.1754029,43.7728464 63.4169391,43.7728464 C63.6675188,43.7728464 63.8608232,43.6959768 64.0055188,43.5512812 C64.2658957,43.2999478 64.2949101,42.8462667 64.2949101,42.3258899 C64.2949101,41.8141797 64.2658957,41.3604986 64.0055188,41.109542 M64.9799536,44.2849333 C64.6615478,44.6131362 64.1596348,44.9025275 63.4169391,44.9025275 C62.673113,44.9025275 62.1813739,44.6131362 61.8625913,44.2849333 C61.4089101,43.8022377 61.2936058,43.2328754 61.2936058,42.3258899 C61.2936058,41.4181507 61.4089101,40.8585855 61.8625913,40.3758899 C62.1813739,40.0480638 62.673113,39.7582957 63.4169391,39.7582957 C64.1596348,39.7582957 64.6615478,40.0378899 64.9799536,40.3758899 C65.4336348,40.8585855 65.5496928,41.4181507 65.5496928,42.3258899 C65.5496928,43.2328754 65.4434319,43.811658 64.9799536,44.2849333" id="Fill-47" fill="#361163"></path>
                    <path d="M69.2444435,41.109542 C69.0997478,40.9644696 68.9064435,40.8876 68.6558638,40.8876 C68.4143275,40.8876 68.2210232,40.9644696 68.0767043,41.109542 C67.8159507,41.3604986 67.7869362,41.8141797 67.7869362,42.3258899 C67.7869362,42.8462667 67.8159507,43.2999478 68.0767043,43.5512812 C68.2210232,43.6959768 68.4143275,43.7728464 68.6558638,43.7728464 C68.9064435,43.7728464 69.0997478,43.6959768 69.2444435,43.5512812 C69.5048203,43.2999478 69.5342116,42.8462667 69.5342116,42.3258899 C69.5342116,41.8141797 69.5048203,41.3604986 69.2444435,41.109542 M70.2192551,44.2849333 C69.9008493,44.6131362 69.3985594,44.9025275 68.6558638,44.9025275 C67.9124145,44.9025275 67.4202986,44.6131362 67.1015159,44.2849333 C66.6478348,43.8022377 66.5325304,43.2328754 66.5325304,42.3258899 C66.5325304,41.4181507 66.6478348,40.8585855 67.1015159,40.3758899 C67.4202986,40.0480638 67.9124145,39.7582957 68.6558638,39.7582957 C69.3985594,39.7582957 69.9008493,40.0378899 70.2192551,40.3758899 C70.6729362,40.8585855 70.7889942,41.4181507 70.7889942,42.3258899 C70.7889942,43.2328754 70.6823565,43.811658 70.2192551,44.2849333" id="Fill-49" fill="#361163"></path>
                    <polygon id="Fill-51" fill="#361163" points="75.0048 44.8445739 73.7696116 42.7498783 73.2386841 43.3486319 73.2386841 44.8445739 71.9839014 44.8445739 71.9839014 37.9726609 73.2386841 37.9726609 73.2386841 41.8719072 74.9083362 39.8164 76.4238725 39.8164 74.6283652 41.8432696 76.558771 44.8445739"></polygon>
                    <path d="M77.3771304,44.8447246 L78.631913,44.8447246 L78.631913,39.9612464 L77.3771304,39.9612464 L77.3771304,44.8447246 Z M77.357913,38.9574203 L78.6417101,38.9574203 L78.6417101,37.9343768 L77.357913,37.9343768 L77.357913,38.9574203 Z" id="Fill-53" fill="#361163"></path>
                    <path d="M82.9549971,44.8445739 L82.9549971,41.804458 C82.9549971,41.1190377 82.521287,40.8876754 82.125258,40.8876754 C81.7296058,40.8876754 81.2853449,41.1190377 81.2853449,41.804458 L81.2853449,44.8445739 L80.0305623,44.8445739 L80.0305623,39.8164 L81.2567072,39.8164 L81.2567072,40.2795014 C81.5845333,39.9320812 82.0483884,39.758371 82.511113,39.758371 C83.0130261,39.758371 83.4184754,39.9222841 83.6988232,40.2026319 C84.1038957,40.6077043 84.2101565,41.0806029 84.2101565,41.6307478 L84.2101565,44.8445739 L82.9549971,44.8445739 Z" id="Fill-55" fill="#361163"></path>
                    <path d="M87.4219101,40.8876754 C86.6788377,40.8876754 86.6015913,41.524487 86.6015913,42.1906899 C86.6015913,42.8565159 86.6788377,43.5027478 87.4219101,43.5027478 C88.1653594,43.5027478 88.2520261,42.8565159 88.2520261,42.1906899 C88.2520261,41.524487 88.1653594,40.8876754 87.4219101,40.8876754 M87.2964319,46.7459652 C86.5243449,46.7459652 85.9937942,46.5914725 85.472287,46.0899362 L86.2537942,45.2982551 C86.534142,45.568429 86.814113,45.6841101 87.2387797,45.6841101 C87.9916493,45.6841101 88.2520261,45.1531826 88.2520261,44.6418493 L88.2520261,44.1301391 C87.9242,44.4971536 87.5477652,44.632429 87.0552725,44.632429 C86.5631565,44.632429 86.1384899,44.4681391 85.8588957,44.1881681 C85.3859971,43.7152696 85.3471855,43.0686609 85.3471855,42.1906899 C85.3471855,41.312342 85.3859971,40.6755304 85.8588957,40.2026319 C86.1384899,39.9222841 86.5725768,39.758371 87.0650696,39.758371 C87.5956203,39.758371 87.9434174,39.9030667 88.2908377,40.2892986 L88.2908377,39.8164 L89.5064319,39.8164 L89.5064319,44.6614435 C89.5064319,45.8676174 88.6476783,46.7459652 87.2964319,46.7459652" id="Fill-56" fill="#361163"></path>
                    <path d="M95.1410464,44.9027159 C94.0984087,44.9027159 93.3071043,44.6803971 92.631858,43.9953536 L93.5004087,43.1264261 C93.9348725,43.5608899 94.5234522,43.7055855 95.1504667,43.7055855 C95.9515681,43.7055855 96.3762348,43.3966 96.3762348,42.8464551 C96.3762348,42.6150928 96.3091623,42.4221652 96.1640899,42.2770928 C96.0288145,42.1519913 95.8939159,42.0939623 95.5464957,42.0457304 L94.7258,41.9202522 C94.1176261,41.8332087 93.7027565,41.6497014 93.393771,41.3508899 C93.0659449,41.0324841 92.9020319,40.5788029 92.9020319,39.9992667 C92.9020319,38.7738754 93.8090174,37.9147449 95.2951623,37.9147449 C96.2409594,37.9147449 96.9263797,38.1464841 97.5149594,38.7162232 L96.6660029,39.5557594 C96.2409594,39.140513 95.7104087,39.0828609 95.2567275,39.0828609 C94.5426696,39.0828609 94.2050464,39.478513 94.2050464,39.9514116 C94.2050464,40.134542 94.2529014,40.308629 94.3975971,40.4435275 C94.5328725,40.5690058 94.7355971,40.6654696 95.0249884,40.7039043 L95.8453072,40.8293826 C96.4726986,40.9168029 96.8589304,41.0803391 97.1584957,41.3701072 C97.5247565,41.7077304 97.6890464,42.1998464 97.6890464,42.8178174 C97.6890464,44.1494696 96.5887565,44.9027159 95.1410464,44.9027159" id="Fill-57" fill="#361163"></path>
                    <path d="M101.634414,41.3218754 C101.499516,41.022687 101.219545,40.8007449 100.794501,40.8007449 C100.370212,40.8007449 100.089864,41.022687 99.9549652,41.3218754 C99.8682986,41.5053826 99.8490812,41.640658 99.8392841,41.8626 L101.750472,41.8626 C101.740299,41.640658 101.721081,41.5053826 101.634414,41.3218754 L101.634414,41.3218754 Z M99.8392841,42.7213536 C99.8392841,43.3773826 100.225516,43.8408609 100.939574,43.8408609 C101.489719,43.8408609 101.759893,43.676571 102.078675,43.3679623 L102.840588,44.1110348 C102.329255,44.6321652 101.837139,44.9027159 100.930154,44.9027159 C99.7428203,44.9027159 98.6040957,44.3616145 98.6040957,42.3257014 C98.6040957,40.684687 99.4918638,39.7584841 100.794501,39.7584841 C102.19398,39.7584841 102.985661,40.7623101 102.985661,42.1908029 L102.985661,42.7213536 L99.8392841,42.7213536 Z" id="Fill-58" fill="#361163"></path>
                    <path d="M106.873716,41.1868261 C106.680412,40.9935217 106.516499,40.8876377 106.207513,40.8876377 C105.822035,40.8876377 105.396991,41.177029 105.396991,41.8142174 L105.396991,44.8445362 L104.142209,44.8445362 L104.142209,39.8163623 L105.368354,39.8163623 L105.368354,40.299058 C105.609513,40.0092899 106.092209,39.7583333 106.63218,39.7583333 C107.124672,39.7583333 107.472093,39.8838116 107.819513,40.2316087 L106.873716,41.1868261 Z" id="Fill-59" fill="#361163"></path>
                    <polygon id="Fill-60" fill="#361163" points="110.703629 44.8445739 109.719397 44.8445739 107.866238 39.8164 109.18847 39.8164 110.211513 42.9239652 111.225136 39.8164 112.546991 39.8164"></polygon>
                    <path d="M113.288783,44.8447246 L114.543942,44.8447246 L114.543942,39.9612464 L113.288783,39.9612464 L113.288783,44.8447246 Z M113.269565,38.9574203 L114.553362,38.9574203 L114.553362,37.9343768 L113.269565,37.9343768 L113.269565,38.9574203 Z" id="Fill-61" fill="#361163"></path>
                    <path d="M117.940333,44.9027159 C116.936507,44.9027159 115.691522,44.3616145 115.691522,42.3257014 C115.691522,40.2894116 116.936507,39.7584841 117.940333,39.7584841 C118.635174,39.7584841 119.156681,39.970629 119.600188,40.4341072 L118.750855,41.2834406 C118.490478,41.0030928 118.268536,40.8877884 117.940333,40.8877884 C117.641145,40.8877884 117.409783,40.9936725 117.225899,41.2156145 C117.033348,41.4567739 116.945928,41.7947739 116.945928,42.3257014 C116.945928,42.8562522 117.033348,43.2036725 117.225899,43.4452087 C117.409783,43.6675275 117.641145,43.7730348 117.940333,43.7730348 C118.268536,43.7730348 118.490478,43.6573536 118.750855,43.3773826 L119.600188,44.2176725 C119.156681,44.6803971 118.635174,44.9027159 117.940333,44.9027159" id="Fill-62" fill="#361163"></path>
                    <path d="M123.208348,41.3218754 C123.073072,41.022687 122.793478,40.8007449 122.368435,40.8007449 C121.944145,40.8007449 121.663797,41.022687 121.528899,41.3218754 C121.442232,41.5053826 121.423014,41.640658 121.413217,41.8626 L123.324406,41.8626 C123.314232,41.640658 123.295014,41.5053826 123.208348,41.3218754 L123.208348,41.3218754 Z M121.413217,42.7213536 C121.413217,43.3773826 121.799449,43.8408609 122.513507,43.8408609 C123.063652,43.8408609 123.333826,43.676571 123.652609,43.3679623 L124.414522,44.1110348 C123.903188,44.6321652 123.411072,44.9027159 122.50371,44.9027159 C121.316754,44.9027159 120.178029,44.3616145 120.178029,42.3257014 C120.178029,40.684687 121.065797,39.7584841 122.368435,39.7584841 C123.767913,39.7584841 124.559594,40.7623101 124.559594,42.1908029 L124.559594,42.7213536 L121.413217,42.7213536 Z" id="Fill-63" fill="#361163"></path>
                    <path d="M127.366501,44.9027159 C126.57482,44.9027159 125.870559,44.8156725 125.223951,44.1788609 L126.04427,43.3581652 C126.449719,43.7730348 126.999864,43.8310638 127.386096,43.8310638 C127.820183,43.8310638 128.273864,43.6863681 128.273864,43.3099333 C128.273864,43.0589768 128.148386,42.8852667 127.742936,42.8464551 L126.932414,42.7695855 C126.04427,42.682542 125.484704,42.2872667 125.484704,41.360687 C125.484704,40.308629 126.40111,39.7584841 127.42453,39.7584841 C128.216212,39.7584841 128.86282,39.9028029 129.345139,40.3470638 L128.573052,41.1289478 C128.283661,40.8681942 127.84882,40.7909478 127.405313,40.7909478 C126.9034,40.7909478 126.690878,41.022687 126.690878,41.2732667 C126.690878,41.5246 126.835951,41.6692957 127.212386,41.7077304 L128.00369,41.7849768 C128.997719,41.8818174 129.499255,42.402571 129.499255,43.2617014 C129.499255,44.3717884 128.553835,44.9027159 127.366501,44.9027159" id="Fill-64" fill="#361163"></path>
                </g>
            </g>
        </g>
    </g>
</svg>