<?xml version="1.0" encoding="UTF-8"?><svg id="Layer_1" xmlns="http://www.w3.org/2000/svg" viewBox="0 0 42.32 16.8"><defs><style>.cls-1{fill:#c00;}</style></defs><polygon class="cls-1" points="1.51 2.21 1.53 2.21 3.65 7.87 5.78 7.87 5.78 .13 4.27 .13 4.27 5.49 4.25 5.49 2.19 .13 0 .13 0 7.87 1.51 7.87 1.51 2.21"/><path class="cls-1" d="M9.74,6.84c-.91,0-1.03-.86-1.03-2.84s.12-2.84,1.03-2.84c.48,0,.66.39.66,1.42h1.59c.06-1.66-.6-2.57-2.25-2.57-2.67,0-2.67,1.95-2.67,4s0,4,2.67,4c1.51,0,2.34-.66,2.34-2.73h-1.6c-.02.61.01,1.58-.74,1.58Z"/><path class="cls-1" d="M20.29,5.76c0-2.43-3.26-2.3-3.26-3.77,0-.54.31-.83.84-.83.65,0,.75.59.75,1.17h1.58c.11-1.62-.68-2.33-2.25-2.33-1.97,0-2.55.97-2.55,2.18,0,2.31,3.26,2.39,3.26,3.79,0,.52-.27.88-.81.88-.89,0-.92-.62-.92-1.36h-1.62c-.09,1.34.29,2.52,2.3,2.52,1.23,0,2.7-.23,2.7-2.24Z"/><polygon class="cls-1" points="22.64 7.87 24.26 7.87 24.26 1.42 26.07 1.42 26.07 .13 20.84 .13 20.84 1.42 22.64 1.42 22.64 7.87"/><path class="cls-1" d="M27.73.13l-2.14,7.74h1.6l.44-1.72h2.21l.43,1.72h1.71L29.86.13h-2.13ZM27.94,4.97l.74-3.35h.02l.78,3.35h-1.54Z"/><polygon class="cls-1" points="34.88 7.87 34.88 1.42 36.68 1.42 36.68 .13 31.46 .13 31.46 1.42 33.26 1.42 33.26 7.87 34.88 7.87"/><polygon class="cls-1" points="41.75 6.68 39.06 6.68 39.06 4.42 41.46 4.42 41.46 3.23 39.06 3.23 39.06 1.32 41.66 1.32 41.66 .13 37.44 .13 37.44 7.87 41.75 7.87 41.75 6.68"/><path class="cls-1" d="M3.14,14.33c0,.83,0,2-1.29,2s-1.29-1.18-1.29-2v-3.98h-.56v4.4c0,1.63.86,2.06,1.85,2.06s1.85-.43,1.85-2.06v-4.4h-.56v3.98Z"/><polygon class="cls-1" points="8.81 15.89 8.79 15.91 6.22 10.35 5.36 10.35 5.36 16.68 5.92 16.68 5.92 11.08 5.94 11.06 8.52 16.68 9.37 16.68 9.37 10.35 8.81 10.35 8.81 15.89"/><rect class="cls-1" x="11.13" y="10.35" width=".56" height="6.33"/><polygon class="cls-1" points="14.97 16.01 14.96 16.01 13.46 10.35 12.86 10.35 14.62 16.68 15.33 16.68 17.08 10.35 16.54 10.35 14.97 16.01"/><polygon class="cls-1" points="18.78 13.66 20.99 13.66 20.99 13.19 18.78 13.19 18.78 10.82 21.09 10.82 21.09 10.35 18.22 10.35 18.22 16.68 21.15 16.68 21.15 16.21 18.78 16.21 18.78 13.66"/><path class="cls-1" d="M24.74,13.39v-.02c.85-.19.98-.72.98-1.51,0-1.11-.31-1.52-1.53-1.52h-1.74v6.33h.56v-3.07h1.06c1.22,0,1.03,1.22,1.04,1.49.01.34.04,1.39.09,1.58h.54c-.02-.24-.06-.49-.06-.74,0-2.26-.05-2.37-.94-2.55ZM23.92,13.14h-.91v-2.31h1.15c.66,0,1,.17,1,1.03,0,1.06-.39,1.28-1.24,1.28Z"/><path class="cls-1" d="M28.95,13.16c-.72-.52-1.19-.54-1.19-1.48,0-.75.43-.98,1.11-.98.86,0,1.06.47,1.07,1.25h.57c0-.91-.28-1.73-1.6-1.73-1.03,0-1.73.46-1.72,1.55.01.63.06,1.01,1.29,1.76.91.56,1.48.81,1.48,1.67,0,.73-.36,1.12-1.1,1.12-1.13,0-1.18-.73-1.18-1.43h-.58c-.05,1.24.5,1.9,1.74,1.9,1.11,0,1.68-.55,1.68-1.68,0-1.23-.8-1.4-1.58-1.96Z"/><rect class="cls-1" x="32.11" y="10.35" width=".56" height="6.33"/><polygon class="cls-1" points="33.88 10.82 35.42 10.82 35.42 16.68 35.99 16.68 35.99 10.82 37.53 10.82 37.53 10.35 33.88 10.35 33.88 10.82"/><polygon class="cls-1" points="41.76 10.35 40.24 13.5 38.79 10.35 38.16 10.35 39.95 14.05 39.95 16.68 40.51 16.68 40.51 14.05 42.32 10.35 41.76 10.35"/></svg>