<?xml version="1.0" encoding="UTF-8"?><svg id="Layer_1" xmlns="http://www.w3.org/2000/svg" viewBox="0 0 54 25.87"><defs><style>.cls-1{fill:#c00;}.cls-2{fill:#fff;}</style></defs><rect class="cls-1" width="54" height="25.87"/><polygon class="cls-2" points="7.55 6.74 7.57 6.74 9.68 12.41 11.81 12.41 11.81 4.66 10.3 4.66 10.3 10.02 10.28 10.02 8.22 4.66 6.03 4.66 6.03 12.41 7.55 12.41 7.55 6.74"/><path class="cls-2" d="M15.78,11.38c-.91,0-1.03-.86-1.03-2.84s.12-2.84,1.03-2.84c.48,0,.66.39.66,1.42h1.59c.06-1.66-.6-2.57-2.25-2.57-2.67,0-2.67,1.95-2.67,4s0,4,2.67,4c1.51,0,2.34-.66,2.34-2.73h-1.6c-.02.61.01,1.58-.74,1.58Z"/><path class="cls-2" d="M26.33,10.29c0-2.43-3.26-2.3-3.26-3.77,0-.54.31-.83.84-.83.65,0,.75.59.75,1.17h1.58c.11-1.62-.68-2.33-2.25-2.33-1.97,0-2.55.97-2.55,2.18,0,2.31,3.26,2.39,3.26,3.79,0,.52-.27.88-.81.88-.89,0-.92-.62-.92-1.36h-1.62c-.09,1.34.29,2.52,2.3,2.52,1.23,0,2.7-.23,2.7-2.24Z"/><polygon class="cls-2" points="28.68 12.41 30.3 12.41 30.3 5.95 32.1 5.95 32.1 4.66 26.88 4.66 26.88 5.95 28.68 5.95 28.68 12.41"/><path class="cls-2" d="M33.76,4.66l-2.14,7.74h1.6l.44-1.72h2.21l.43,1.72h1.71l-2.1-7.74h-2.13ZM33.98,9.5l.74-3.35h.02l.78,3.35h-1.54Z"/><polygon class="cls-2" points="40.92 12.41 40.92 5.95 42.72 5.95 42.72 4.66 37.49 4.66 37.49 5.95 39.3 5.95 39.3 12.41 40.92 12.41"/><polygon class="cls-2" points="47.79 11.21 45.09 11.21 45.09 8.95 47.49 8.95 47.49 7.76 45.09 7.76 45.09 5.85 47.7 5.85 47.7 4.66 43.47 4.66 43.47 12.41 47.79 12.41 47.79 11.21"/><path class="cls-2" d="M9.17,18.86c0,.83,0,2-1.29,2s-1.29-1.18-1.29-2v-3.98h-.56v4.4c0,1.63.86,2.06,1.85,2.06s1.85-.43,1.85-2.06v-4.4h-.56v3.98Z"/><polygon class="cls-2" points="14.84 20.42 14.82 20.44 12.25 14.88 11.39 14.88 11.39 21.21 11.96 21.21 11.96 15.61 11.97 15.59 14.55 21.21 15.4 21.21 15.4 14.88 14.84 14.88 14.84 20.42"/><rect class="cls-2" x="17.17" y="14.88" width=".56" height="6.33"/><polygon class="cls-2" points="21.01 20.55 20.99 20.55 19.49 14.88 18.89 14.88 20.66 21.21 21.36 21.21 23.11 14.88 22.57 14.88 21.01 20.55"/><polygon class="cls-2" points="24.81 18.2 27.02 18.2 27.02 17.72 24.81 17.72 24.81 15.35 27.12 15.35 27.12 14.88 24.25 14.88 24.25 21.21 27.18 21.21 27.18 20.74 24.81 20.74 24.81 18.2"/><path class="cls-2" d="M30.77,17.92v-.02c.85-.19.98-.72.98-1.51,0-1.11-.31-1.52-1.53-1.52h-1.74v6.33h.56v-3.07h1.06c1.22,0,1.03,1.22,1.04,1.49.01.34.04,1.39.09,1.58h.54c-.02-.24-.06-.49-.06-.74,0-2.26-.05-2.37-.94-2.55ZM29.96,17.67h-.91v-2.31h1.15c.66,0,1,.17,1,1.03,0,1.06-.39,1.28-1.24,1.28Z"/><path class="cls-2" d="M34.98,17.7c-.72-.52-1.19-.54-1.19-1.48,0-.75.43-.98,1.11-.98.86,0,1.06.47,1.07,1.25h.57c0-.91-.28-1.73-1.6-1.73-1.03,0-1.73.46-1.72,1.55.01.63.06,1.01,1.29,1.76.91.56,1.48.81,1.48,1.67,0,.73-.36,1.12-1.1,1.12-1.13,0-1.18-.73-1.18-1.43h-.58c-.05,1.24.5,1.9,1.74,1.9,1.11,0,1.68-.55,1.68-1.68,0-1.23-.8-1.4-1.58-1.96Z"/><rect class="cls-2" x="38.14" y="14.88" width=".56" height="6.33"/><polygon class="cls-2" points="39.92 15.35 41.46 15.35 41.46 21.21 42.02 21.21 42.02 15.35 43.56 15.35 43.56 14.88 39.92 14.88 39.92 15.35"/><polygon class="cls-2" points="47.79 14.88 46.27 18.03 44.83 14.88 44.19 14.88 45.98 18.58 45.98 21.21 46.55 21.21 46.55 18.58 48.35 14.88 47.79 14.88"/></svg>