<?xml version="1.0" encoding="utf-8"?>
<!-- Generator: Adobe Illustrator 19.0.0, SVG Export Plug-In . SVG Version: 6.00 Build 0)  -->
<svg version="1.1" id="layer" xmlns="http://www.w3.org/2000/svg" xmlns:xlink="http://www.w3.org/1999/xlink" x="0px" y="0px"
	 viewBox="-153 -46 652 652" style="enable-background:new -153 -46 652 652;" xml:space="preserve">
<style type="text/css">
	.st0{fill:#FAB800;}
	.st1{fill:#5E6670;}
</style>
<path class="st0" d="M396.3,244.9c-1.5-4.3-5.9-8.9-6.3-14.6c-5.6-29.7-13.6-56.6-25.2-82c-11.5-25.4-26.3-49.5-46.8-71.7
	c-6-5.8-12-11.4-18.4-16.2c-6.4-4.9-13-9.3-19.9-13c-6.9-3.7-14.2-7-21.8-9.3c-7.6-2.3-15.6-3.7-23.8-3.4c9.1-0.5,18,2.1,27.2,3.5
	c9.3,1.4,18.1,3.9,26.7,7.1c8.6,3.1,17,7.1,25.7,11.8c7.8,4.3,16.4,9.4,24.6,15.6C346.7,79,354.3,86.6,360,95
	c14.4,21.2,22.8,37.3,27.7,46.4c2.6,4.5,4,7.4,4.7,8.3c0.7,1,0.5,0.1-0.8-2.7c1.7,3.7,4.1,6.5,6.6,9.3c2.4,2.8,4.9,5.6,7,9.3
	c7.1,15.2,7.5,30.7,9.3,45.2c1,1.9,2.9,7.8,2.8,10c-0.1,19.3-3.7,36.3-4.2,58.7c-0.7-2-1.4-4-1.4-4c-1,4.1-1.4,6.1-2.4,10.2
	C405.1,273.6,401.7,257.9,396.3,244.9 M63.2,57.6C76.9,46.6,94.3,36.1,107,26.8c-5.2,0.9-7.7,1.4-12.8,2.3c0,0,2.1-1.5,4.2-3.1
	C71.9,35.6,50.9,39.6,28.6,49c-2.5,1-8.9,5.7-10.6,7.7c-4,2.4-8.1,4.6-12.2,7c-4,2.5-8.2,5-12.2,7.8c-3.9,3-8,5.9-11.8,9.4
	c-1.9,1.8-3.7,3.6-5.5,5.5c-1.8,1.9-3.6,3.8-5.2,6.1c-6.1,8.9-7.5,17.4-13.1,26.2c4.2-6.6,2.9-3.5-3.5,8.1c-0.4,0.7-0.8,1.5-1.3,2.3
	c-0.4,0.8-0.8,1.7-1.2,2.6c-0.9,1.8-1.8,3.7-2.8,5.7c-1,2.1-2.2,4.2-3.1,6.6c-1,2.4-2,4.9-3.1,7.6c-0.6,1.3-1.1,2.7-1.7,4.1
	c-0.6,1.4-1,2.9-1.5,4.4c-1,3-2.1,6.1-3.3,9.4c-2,6.3-4.3,13.2-6.6,20.5c-7.8,23.3-10,50.9-9.3,73.2c0.1,6.2,0.7,12.2,1.3,18
	c0.4,2.9,0.9,5.8,1.3,8.7c0.4,2.9,1.1,5.7,1.7,8.5l0.9,4.2l1.1,4.2c0.8,2.8,1.5,5.5,2.4,8.3c1.8,5.5,3.6,11,5.9,16.5
	c4.2,11,7.1,22.5,11.2,33.5c-7.2-20-12.6-39.5-14.9-59.3l-0.5-3.7l-0.2-3.7c-0.1-2.5-0.3-5-0.4-7.5c0.1-5-0.1-10,0.4-15
	c0.2-5,1-10.1,1.6-15.2c0.9-5.1,1.7-10.2,3-15.4c4.7-18.5,10.9-36.2,16.8-53.9c1.5-4.4,3-8.8,4.5-13.2c1.5-4.3,3.1-8.2,4.6-12.3
	c0.7-2.1,1.7-4,2.6-5.9l2.7-5.8c0.8-2,1.9-3.8,2.9-5.7l3.1-5.6c8.6-14.7,19.3-27.9,32-39.9c12.7-11.9,27.4-22.5,43.7-32.2
	c3.3-1.6,5.9-3.9,8.2-6.3C58.8,61.7,61,59.4,63.2,57.6 M393.3,380.4c2.9-10,5.5-20.8,7.6-31.2c2.1-10.4,3.3-20.5,4.3-29.1
	c-2.9,5-4.3,7.6-7.1,12.7c0,0,0.3-2.9,0.6-5.8c-5.4,14.8-11.5,26.9-18.4,37.7c-6.9,10.8-14.1,20.4-22.1,29.9c-0.9,1-2.3,3.4-3.5,5.8
	c-1.3,2.3-2.6,4.7-3.1,5.9c-1.5,1.8-3,3.7-4.5,5.5c-1.5,1.8-3.3,3.5-4.9,5.2c-3.4,3.4-6.6,6.9-10.3,10.1c-7,6.7-14.4,13.1-21.8,20.4
	c-3.6,3.7-6.2,7.6-9,11.3c-3,3.5-6.2,6.9-10.5,10c3.2-2.3,4.3-2.8,3.2-1.7c-1.2,1-4.3,3.9-10.2,7.3c-2.9,1.8-6.4,3.8-10.4,6.2
	c-2,1.2-4.3,2.2-6.7,3.4c-2.4,1.1-4.9,2.5-7.7,3.6c-10.9,4.9-24.4,9.6-40.5,13.1c-12.8,2.6-25.9,5.6-39,7.6
	c-13.1,2.1-26.1,3.1-37.9,2.7c-13.1-0.4-25.6-2.2-37.9-5.1c-12.3-2.9-24.5-6.9-37-12c-12.5-5.1-23.3-13.4-34.5-20.2
	c10.1,6.4,19.9,12.9,30,18.7c10.1,5.8,20.3,11.1,31,15.6c21.3,9,44.3,15.3,69.5,17.2c11.3,1.1,22.6,1.1,33.7,0.3
	c5.6-0.3,11.1-1.1,16.6-1.8c5.4-1,10.9-1.8,16.2-3.2c10.8-2.3,21.2-5.7,31.4-9.4c5-2,10.2-3.9,15.1-6.2l7.4-3.3l7.3-3.8l7.3-3.9
	l3.7-2c1.2-0.7,2.3-1.5,3.5-2.2c4.6-3,9.3-6.1,13.9-9.2c4.4-3.5,8.8-6.9,13.2-10.4l1.6-1.3l1.6-1.4l3.1-2.9c2.1-1.9,4.1-3.9,6.2-5.8
	c16.2-15.9,30.3-34.5,41.9-55.2C390.8,395.8,391.6,387.1,393.3,380.4"/>
<path class="st1" d="M39.6,192.8v-7.1h3.7v7.2c0,3.8,2,6.1,6.2,6.1c4,0,5.8-2.6,5.8-6.1v-2.4c0-3.5-1.2-5.4-4.6-8.6l-4.7-4.6
	c-4.3-4.1-6.2-6.6-6.2-11.3v-1.8c0-5.3,3.4-8.7,9.3-8.7c6.4,0,9.4,3,9.4,9v5h-3.6v-5.1c0-3.9-1.9-5.7-5.8-5.7
	c-3.4,0-5.7,1.9-5.7,5.5v1.6c0,3.3,1.8,5.2,4.9,8.2l4.7,4.6c4.1,4.1,6.1,6.6,6.1,11.5v2.5c0,5.3-3,9.5-9.7,9.5
	C42.7,202.2,39.6,198.3,39.6,192.8 M82.7,155.9v35.8c0,4.1-1.6,7.3-6.2,7.3c-4.7,0-6.2-3.2-6.2-7.3v-35.8h-3.9v35.4
	c0,6.3,2.7,10.8,10.1,10.8c7.2,0,9.9-4.5,9.9-10.8v-35.4H82.7z M93.6,192.8c0,5.5,3.1,9.3,9.8,9.3c6.7,0,9.7-4.1,9.7-9.5v-2.5
	c0-4.9-2-7.4-6.1-11.5l-4.7-4.6c-3.1-3-4.9-4.9-4.9-8.2v-1.6c0-3.6,2.3-5.5,5.7-5.5c3.9,0,5.7,1.8,5.7,5.7v5.1h3.7v-5c0-6-3-9-9.4-9
	c-5.9,0-9.3,3.5-9.3,8.7v1.8c0,4.7,2,7.2,6.2,11.3l4.7,4.6c3.4,3.2,4.6,5.1,4.6,8.6v2.4c0,3.4-1.8,6.1-5.8,6.1
	c-4.2,0-6.2-2.3-6.2-6.1v-7.2h-3.7V192.8 M118.1,159.1h7.5v42.6h3.9v-42.6h7.5v-3.2h-18.9V159.1z M149.9,162L149.9,162l5,25.4h-9.9
	L149.9,162z M142.4,201.8l2.1-11.1h11.1l2.2,11.1h3.9l-9.2-45.8h-4.7l-9.1,45.8H142.4z M168.1,201.8h3.9v-45.8h-3.9V201.8z
	 M195.6,201.8h3.7v-45.8h-3.4v35.7l-12-35.7h-4.1v45.8h3.4v-37.2L195.6,201.8z M217,162L217,162l5,25.4h-9.9L217,162z M209.4,201.8
	l2.1-11.1h11.1l2.2,11.1h3.9l-9.2-45.8h-4.7l-9.1,45.8H209.4z M239,198.6v-18.9h5.5c4.2,0,6,1.8,6,5.3v8.2c0,3.5-2,5.4-5.9,5.4H239z
	 M243.7,159.1c3.9,0,5.8,1.8,5.8,5.4v6.6c0,3.5-1.9,5.4-5.6,5.4H239v-17.4H243.7z M235.2,201.8h9.9c6.4,0,9.3-3.1,9.3-8.6v-7.9
	c0-4.1-2-6.7-6-7.4c3.4-0.8,4.8-3.3,4.8-7.1v-6.3c0-5.6-2.6-8.6-9.1-8.6h-8.9V201.8z M261.5,201.8h15.3v-3.2h-11.5v-42.6h-3.9V201.8
	z M283.5,201.8h16.8v-3.2h-13v-18.5h9.4v-3.2h-9.4v-17.8h13v-3.2h-16.8V201.8z M41.4,291.9h28.1v-5.1H47.9v-29.5h15.7v-5.1H47.9V224
	h21.7v-5.1H41.4V291.9z M110.8,291.9h6.1v-73h-5.6v57l-20.1-57h-6.8v73H90v-59.2L110.8,291.9z M132.4,291.9h28.1v-5.1h-21.7v-29.5
	h15.7v-5.1h-15.7V224h21.7v-5.1h-28.1V291.9z M189.8,224c6.6,0,9.7,2.9,9.7,8.6v11.3c0,5.6-3.2,8.7-9.7,8.7h-8V224H189.8z
	 M201.3,291.9h7.1L190,257.6h0.1c11.2,0,15.9-5.4,15.9-14.1v-10.8c0-8.7-4.8-13.8-15.6-13.8h-15.2v73h6.4v-36.8L201.3,291.9z
	 M238.5,259.9h9.5v15.9c0,6.7-2.7,11.6-10.4,11.6c-7.8,0-10.7-5.6-10.7-12.3v-39.6c0-6.8,3.2-12.3,11-12.3c8.1,0,10.3,4.3,10.3,11.3
	v6.9h6.2v-6.5c0-10.1-3.7-16.8-16.6-16.8c-12.2,0-17.3,8.1-17.3,18.2v37.9c0,10,4.7,18.2,16.4,18.2c7.1,0,10.5-3.3,12.1-7v6.4h5.4
	v-37h-15.8V259.9z M301,218.9h-6.2l-11.1,36.5h-0.1l-11.3-36.5h-6.6l14.5,45.2v27.8h6.4v-27.8L301,218.9z M41.1,394.6h13.4v-35.2
	h13.4v-10.8H54.5v-22.8h18v-10.9H41.1V394.6z M103.8,376.1c0,4.8-2.1,8.2-6.9,8.2c-4.7,0-6.8-3.4-6.8-8.2v-42.8
	c0-4.8,2.1-8.2,6.8-8.2c4.8,0,6.9,3.4,6.9,8.2V376.1 M76.6,374c0,12.4,6.1,21.5,20.2,21.5c14.2,0,20.4-9.2,20.4-21.5v-38.6
	c0-12.5-6.1-21.5-20.4-21.5c-14.1,0-20.2,9.1-20.2,21.5V374 M144.5,325.7c4.6,0,6.6,2.1,6.6,6.5V344c0,4.2-2,6.6-6.6,6.6H140v-24.8
	H144.5z M152.6,394.6h14.1l-12.8-36.2c7.6-1.8,10.7-6.8,10.7-15.4v-10.2c0-11.2-4.9-17.9-18.5-17.9h-19.5v79.8H140V358L152.6,394.6z
	 M203,337.3h0.1l5.3,32h-10.7L203,337.3z M193.6,394.6L196,380h14.2l2.5,14.6h13.8l-15.2-79.8H196l-15.1,79.8H193.6z M233.7,394.6
	h29.4v-10.9h-16v-68.8h-13.4V394.6z M271.1,394.6h29.4v-10.9h-16v-68.8h-13.4V394.6z"/>
</svg>
