<?xml version="1.0" encoding="UTF-8"?><svg id="Layer_1" xmlns="http://www.w3.org/2000/svg" viewBox="0 0 72.85 63.26"><defs><style>.cls-1{fill:#54585a;}.cls-2{fill:#fff;}.cls-3{fill:#a6192e;}</style></defs><path class="cls-3" d="M72.14,36H.14V0h72v36Z"/><path class="cls-2" d="M59.19,17.92c-.56.07-.99.09-1.28.09s-.72-.04-1.3-.11c.09.86.11,1.17.13,1.87v2.27l.02,5.36c0,2.14.07,2.59.58,3.44.32.52.77.99,1.33,1.37,1.06.74,2.21,1.01,4.3,1.01,1.96,0,3.17-.29,4.25-1.06,1.58-1.1,1.91-2.09,1.91-5.74l-.02-3.54c0-.29.02-1.06.04-2.3,0-.94.02-1.62.05-1.98.02-.16.04-.38.07-.7-.52.05-.9.09-1.15.09s-.63-.04-1.12-.09c.09.79.13,1.1.16,1.78.07.9.09,1.98.09,3.17v3.51c0,2.47-.07,3.02-.54,3.71-.18.25-.49.52-.9.76-.76.47-1.6.65-2.72.65-1.6,0-3.08-.59-3.65-1.42-.45-.68-.47-.95-.5-3.29v-4.59c0-.25.02-.68.04-1.24,0-.56.02-.92.02-1.06.04-.79.07-1.13.18-2.01M53.07,20.11c-.04-.47-.07-.83-.07-1.08,0-.32.02-.56.11-1.13-.88.11-1.19.11-1.71.11h-2.3l-2.66-.02-1.53-.05c.09,1.78.11,2.5.16,3.63v6.17c0,1.62-.02,2.68-.04,3.2-.05.45-.09,1.17-.18,2.09.52-.04.9-.07,1.17-.07.32,0,.79.02,1.42.09-.16-1.96-.16-2.3-.16-5v-1.91h2.37c.94,0,1.53.05,2.95.23-.04-.47-.07-.83-.07-1.08,0-.29.02-.56.12-1.15-1.22.18-1.64.2-2.68.2h-2.66v-3.58l.02-.9h2.41c.61,0,1.58.04,2.39.14.2.02.52.04.94.11M40.33,20.51c.11-.49.16-.65.31-1.13.14-.38.18-.49.41-.9-.67-.25-.95-.34-1.46-.45-.72-.16-1.42-.25-2.16-.25-1.6,0-2.68.38-3.53,1.24-.76.76-1.22,1.85-1.22,2.99,0,1.33.49,2.3,1.55,3.04.54.38.97.61,2.12,1.13,1.17.54,1.51.7,2.02,1.06.79.54,1.17,1.17,1.17,1.91,0,1.53-1.24,2.57-3.04,2.57-.79,0-1.6-.18-2.34-.56-.52-.25-.83-.47-1.55-1.08-.18,1.06-.27,1.37-.68,2.25,1.06.52,1.49.65,2.59.81.56.09,1.04.13,1.51.13,2.03,0,3.53-.65,4.5-1.91.65-.88.97-1.78.97-2.74,0-.72-.18-1.44-.52-1.96-.43-.68-1.08-1.17-2.59-1.91-2.11-1.06-2.43-1.22-2.93-1.6-.56-.45-.88-1.06-.88-1.73,0-1.31.92-2.16,2.32-2.16.38,0,.97.11,1.44.25.74.25,1.12.43,1.98,1.01"/><path class="cls-1" d="M3.97,47.08c-.25-1.03-.85-1.52-1.57-1.52s-1.13.47-1.13,1.04c0,.65.37.92,1.51,1.11,1.43.26,2.09.83,2.09,2,0,.68-.43,2.04-2.46,2.04-1.11,0-1.81-.38-2.22-.7v-1.75h.45c.17,1.23.81,1.91,1.78,1.91.88,0,1.35-.5,1.35-1.18,0-.58-.23-.94-1.22-1.15-1.45-.31-2.3-.59-2.3-1.92,0-.69.42-1.91,2.2-1.91.98,0,1.66.31,1.97.56v1.46h-.45Z"/><path class="cls-1" d="M7.92,51.21l.52.03v.44h-2.35v-.44l.55-.03.07-.08v-5.47l-.07-.08-.55-.03v-.44h2.35v.44l-.52.03-.07.08v5.47l.07.08Z"/><path class="cls-1" d="M15.26,46.44l-1.5,4.27h-.99l-1.56-4.33h-.06v4.75l.07.08.54.03v.44h-1.9v-.44l.55-.03.07-.08v-5.47l-.07-.08-.55-.03v-.44h2.13c.21.62,1.29,3.59,1.5,4.21h.04l1.46-4.21h2.01v.44l-.52.03-.07.08v5.47l.07.08.52.03v.44h-2.33v-.44l.56-.03.08-.08v-4.68h-.05Z"/><path class="cls-1" d="M23.46,48.37c0,1.96-.53,3.37-2.62,3.37s-2.53-1.42-2.53-3.33c0-1.71.59-3.34,2.65-3.34s2.5,1.46,2.5,3.31ZM19.59,48.43c0,1.41.08,2.8,1.32,2.8s1.27-1.33,1.27-3.05c0-1.41-.13-2.61-1.27-2.61s-1.32,1.22-1.32,2.86Z"/><path class="cls-1" d="M29.63,49.98v-4.32s-.08-.08-.08-.08l-.57-.03v-.44h1.9v.44l-.52.03-.08.08v6.03h-.92l-3.3-5.17h-.04v4.61l.09.08.5.03v.44h-1.89v-.44l.56-.03.07-.08v-5.47l-.07-.08-.55-.03v-.44h1.73l3.13,4.87h.02Z"/><path class="cls-1" d="M36.55,51.13l.07.08.56.03v.44h-2.4v-.44l.56-.03.07-.08v-5.46l-.07-.08-.56-.03v-.44h4.74v1.54h-.43c-.26-.99-.42-1.03-1.33-1.03h-1.19v2.59h.73c.79,0,.84-.09,1-.87h.42v2.27h-.42c-.16-.77-.25-.89-.99-.89h-.74v2.41Z"/><path class="cls-1" d="M43.57,45.1c1.61,0,2.2.76,2.2,1.8,0,.81-.42,1.51-1.31,1.74l1.38,2.38c.08.14.13.17.3.2l.4.08v.39h-1.64c-.22-.48-1.3-2.43-1.52-2.91h-.72v2.35l.07.08.51.03v.44h-2.35v-.44l.55-.03.08-.08v-5.47l-.08-.08-.55-.03v-.44h2.69ZM43.4,45.6h-.76v2.67h.73c.63,0,1.13-.48,1.13-1.37s-.46-1.3-1.1-1.3Z"/><path class="cls-1" d="M51.22,45.11l2.05,6.02.08.08.43.03v.44h-2.34v-.44l.59-.03.06-.07-.39-1.16h-2.41l-.39,1.14.06.08.6.03v.44h-1.92v-.44l.46-.03.07-.08,2.08-6.02h.96ZM49.47,49.48h2.07l-1.01-3.04h-.04l-1.02,3.04Z"/><path class="cls-1" d="M58.84,47.08c-.25-1.03-.85-1.52-1.57-1.52s-1.13.47-1.13,1.04c0,.65.37.92,1.51,1.11,1.43.26,2.09.83,2.09,2,0,.68-.43,2.04-2.46,2.04-1.11,0-1.81-.38-2.22-.7v-1.75h.45c.17,1.23.81,1.91,1.78,1.91.88,0,1.35-.5,1.35-1.18,0-.58-.23-.94-1.22-1.15-1.46-.31-2.3-.59-2.3-1.92,0-.69.42-1.91,2.2-1.91.98,0,1.66.31,1.97.56v1.46h-.45Z"/><path class="cls-1" d="M64.47,49.41c-.15-.77-.24-.88-.97-.88h-.76v2.64h1.19c.93,0,1.23,0,1.42-1.28h.44v1.79h-4.84v-.44l.56-.03.07-.08v-5.46l-.07-.08-.56-.03v-.44h4.74v1.54h-.43c-.26-.99-.42-1.03-1.33-1.03h-1.19v2.41h.75c.78,0,.83-.11.98-.89h.42v2.27h-.42Z"/><path class="cls-1" d="M69.88,45.1c1.61,0,2.2.76,2.2,1.8,0,.81-.42,1.51-1.31,1.74l1.38,2.38c.08.14.13.17.3.2l.4.08v.39h-1.64c-.22-.48-1.3-2.43-1.52-2.91h-.72v2.35l.07.08.51.03v.44h-2.35v-.44l.55-.03.08-.08v-5.47l-.08-.08-.55-.03v-.44h2.69ZM69.72,45.6h-.77v2.67h.73c.63,0,1.13-.48,1.13-1.37s-.46-1.3-1.1-1.3Z"/><path class="cls-1" d="M4.71,57.07l-.54-.03v-.44h1.84v.44l-.5.03-.08.08v3.66c0,1.63-.78,2.45-2.38,2.45-1.98,0-2.46-1.12-2.46-2.41v-3.69l-.06-.08-.55-.03v-.44h2.34v.44l-.53.03s-.05.08-.06.08v3.74c0,.94.25,1.77,1.52,1.77,1.43,0,1.51-1.02,1.51-1.84v-3.66l-.08-.09Z"/><path class="cls-1" d="M12.24,61.48v-4.32s-.08-.08-.08-.08l-.57-.03v-.44h1.9v.44l-.52.03-.08.08v6.03h-.92l-3.3-5.17h-.04v4.61l.09.08.5.03v.44h-1.89v-.44l.56-.03.07-.08v-5.47l-.07-.08-.55-.03v-.44h1.73l3.13,4.87h.02Z"/><path class="cls-1" d="M16.75,62.71l.52.03v.44h-2.35v-.44l.55-.03.07-.08v-5.47l-.07-.08-.55-.03v-.44h2.35v.44l-.52.03-.07.08v5.47l.07.08Z"/><path class="cls-1" d="M20.98,63.19l-1.92-6.02-.07-.08-.44-.03v-.44h2.35v.44l-.59.03-.07.08,1.45,4.73h.05c.22-.73,1.25-4,1.46-4.73l-.06-.08-.6-.03v-.44h1.9v.44l-.46.03-.07.08-1.94,6.02h-1.01Z"/><path class="cls-1" d="M29.26,60.91c-.15-.77-.24-.88-.97-.88h-.76v2.64h1.19c.93,0,1.23,0,1.42-1.28h.44v1.79h-4.84v-.44l.56-.03.07-.08v-5.46l-.07-.08-.56-.03v-.44h4.74v1.54h-.43c-.26-.99-.42-1.03-1.33-1.03h-1.19v2.41h.75c.78,0,.83-.11.98-.89h.42v2.27h-.42Z"/><path class="cls-1" d="M34.67,56.6c1.61,0,2.2.76,2.2,1.8,0,.81-.42,1.51-1.31,1.74l1.38,2.38c.08.14.13.17.3.2l.4.08v.39h-1.64c-.22-.48-1.3-2.43-1.52-2.91h-.72v2.35l.07.08.51.03v.44h-2.35v-.44l.55-.03.08-.08v-5.47l-.08-.08-.55-.03v-.44h2.69ZM34.51,57.1h-.77v2.67h.73c.63,0,1.13-.48,1.13-1.37s-.46-1.3-1.1-1.3Z"/><path class="cls-1" d="M42.65,58.58c-.25-1.03-.85-1.52-1.57-1.52s-1.13.47-1.13,1.04c0,.65.37.92,1.51,1.11,1.43.25,2.09.83,2.09,2,0,.68-.43,2.04-2.46,2.04-1.11,0-1.81-.38-2.22-.7v-1.75h.45c.17,1.23.81,1.91,1.78,1.91.88,0,1.35-.5,1.35-1.18,0-.58-.23-.93-1.22-1.15-1.45-.31-2.3-.58-2.3-1.92,0-.69.42-1.91,2.2-1.91.98,0,1.66.31,1.97.56v1.46h-.45Z"/><path class="cls-1" d="M46.61,62.71l.52.03v.44h-2.35v-.44l.55-.03.07-.08v-5.47l-.07-.08-.55-.03v-.44h2.35v.44l-.52.03-.07.08v5.47l.07.08Z"/><path class="cls-1" d="M48.84,58.2h-.43v-1.59h5.17v1.59h-.43c-.21-1.02-.4-1.08-1.31-1.08h-.26v5.51l.07.08.52.03v.44h-2.36v-.44l.56-.03.07-.08v-5.51h-.25c-.92,0-1.09.08-1.31,1.08Z"/><path class="cls-1" d="M58.02,60.51v2.12l.07.08.52.03v.44h-2.36v-.44l.56-.03.07-.08v-2.03l-1.62-3.44-.08-.08-.45-.03v-.44h2.38v.44l-.59.03-.07.08,1.22,2.62h.05l1.22-2.62-.06-.08-.6-.03v-.44h1.9v.44l-.45.03-.07.08-1.62,3.35Z"/></svg>