<?xml version="1.0" encoding="UTF-8"?><svg id="Layer_1" xmlns="http://www.w3.org/2000/svg" viewBox="0 0 144 33.81"><defs><style>.cls-1{fill:#54585a;}.cls-2{fill:#fff;}.cls-3{fill:#a6192e;}</style></defs><path class="cls-3" d="M67.6,33.8H0V0h67.6v33.8Z"/><path class="cls-2" d="M55.44,16.83c-.53.06-.93.08-1.21.08s-.68-.04-1.22-.1c.08.8.1,1.1.13,1.75v2.13l.02,5.03c0,2.01.06,2.43.55,3.23.3.49.72.93,1.25,1.29.99.7,2.07.95,4.04.95,1.84,0,2.98-.27,3.99-.99,1.48-1.04,1.8-1.97,1.8-5.39l-.02-3.32c0-.28.02-.99.04-2.16,0-.89.02-1.52.04-1.86.02-.15.04-.36.06-.66-.49.04-.85.08-1.08.08s-.59-.04-1.06-.08c.08.74.13,1.04.15,1.67.06.84.08,1.86.08,2.98v3.3c0,2.32-.06,2.83-.51,3.49-.17.23-.46.49-.85.72-.72.45-1.5.61-2.56.61-1.5,0-2.9-.55-3.42-1.33-.42-.64-.44-.89-.47-3.09v-4.31c0-.23.02-.63.04-1.16,0-.53.02-.87.02-.99.04-.74.06-1.06.17-1.88M49.69,18.88c-.04-.44-.06-.78-.06-1.01,0-.3.02-.53.1-1.06-.82.1-1.12.1-1.61.1h-2.16l-2.49-.02-1.44-.04c.08,1.67.11,2.35.15,3.41v5.79c0,1.52-.02,2.52-.04,3-.04.42-.08,1.1-.17,1.97.49-.04.85-.06,1.1-.06.3,0,.74.02,1.33.09-.15-1.84-.15-2.16-.15-4.69v-1.8h2.22c.89,0,1.44.04,2.77.21-.04-.44-.06-.78-.06-1.02,0-.27.02-.53.11-1.08-1.14.17-1.54.19-2.52.19h-2.49v-3.36l.02-.85h2.26c.57,0,1.48.04,2.24.13.19.02.49.04.89.1M37.73,19.26c.11-.46.15-.61.3-1.06.13-.36.17-.46.38-.84-.63-.23-.89-.32-1.37-.42-.68-.15-1.33-.23-2.03-.23-1.5,0-2.51.36-3.32,1.16-.72.72-1.14,1.73-1.14,2.81,0,1.25.46,2.16,1.46,2.85.51.36.91.57,1.99,1.06,1.1.51,1.42.66,1.9.99.74.5,1.1,1.1,1.1,1.8,0,1.44-1.16,2.41-2.85,2.41-.74,0-1.5-.17-2.2-.53-.49-.23-.78-.44-1.46-1.02-.17.99-.25,1.29-.63,2.12.99.48,1.4.61,2.43.76.53.08.97.13,1.42.13,1.9,0,3.32-.61,4.23-1.8.61-.82.91-1.67.91-2.58,0-.68-.17-1.35-.49-1.84-.4-.64-1.01-1.1-2.43-1.8-1.99-.99-2.28-1.14-2.75-1.5-.53-.42-.83-.99-.83-1.63,0-1.23.87-2.03,2.18-2.03.36,0,.91.1,1.35.23.7.23,1.05.4,1.86.95"/><path class="cls-1" d="M79.33,18.62c-.24-.97-.8-1.43-1.47-1.43s-1.06.44-1.06.98c0,.61.35.86,1.42,1.05,1.34.24,1.96.78,1.96,1.88,0,.64-.41,1.92-2.3,1.92-1.04,0-1.7-.35-2.08-.66v-1.64h.43c.16,1.15.76,1.79,1.67,1.79.83,0,1.27-.47,1.27-1.11,0-.54-.21-.88-1.14-1.08-1.37-.29-2.16-.55-2.16-1.8,0-.65.39-1.79,2.07-1.79.92,0,1.56.29,1.85.52v1.37h-.43Z"/><path class="cls-1" d="M83.04,22.5l.49.03v.42h-2.21v-.42l.51-.03.06-.08v-5.13l-.06-.08-.51-.03v-.42h2.21v.42l-.49.03-.06.08v5.13l.06.08Z"/><path class="cls-1" d="M89.93,18.02l-1.41,4.01h-.93l-1.46-4.07h-.05v4.46l.06.08.51.03v.42h-1.78v-.42l.51-.03.06-.08v-5.13l-.06-.08-.51-.03v-.42h2c.2.58,1.21,3.37,1.41,3.96h.04l1.37-3.96h1.89v.42l-.49.03-.06.08v5.13l.06.08.49.03v.42h-2.19v-.42l.52-.03.07-.08v-4.4h-.04Z"/><path class="cls-1" d="M97.63,19.83c0,1.84-.5,3.17-2.46,3.17s-2.38-1.33-2.38-3.13c0-1.61.55-3.14,2.48-3.14s2.35,1.37,2.35,3.1ZM94,19.88c0,1.32.07,2.62,1.24,2.62s1.19-1.25,1.19-2.86c0-1.32-.12-2.45-1.19-2.45s-1.24,1.14-1.24,2.69Z"/><path class="cls-1" d="M103.42,21.34v-4.05s-.07-.08-.07-.08l-.53-.03v-.42h1.78v.42l-.49.03-.07.08v5.66h-.86l-3.09-4.85h-.04v4.33l.09.08.47.03v.42h-1.77v-.42l.52-.03.06-.08v-5.13l-.06-.08-.51-.03v-.42h1.62l2.93,4.58h.02Z"/><path class="cls-1" d="M109.92,22.42l.06.08.52.03v.42h-2.25v-.42l.52-.03.06-.08v-5.13l-.06-.08-.52-.03v-.42h4.45v1.44h-.41c-.25-.93-.39-.97-1.25-.97h-1.12v2.43h.68c.74,0,.79-.09.94-.82h.39v2.13h-.39c-.15-.73-.23-.83-.93-.83h-.69v2.26Z"/><path class="cls-1" d="M116.51,16.76c1.51,0,2.07.72,2.07,1.69,0,.76-.4,1.42-1.23,1.63l1.29,2.23c.08.13.12.16.28.19l.37.07v.36h-1.54c-.2-.45-1.22-2.28-1.43-2.73h-.67v2.21l.06.08.48.03v.42h-2.21v-.42l.51-.03.07-.08v-5.13l-.07-.08-.51-.03v-.42h2.53ZM116.36,17.23h-.72v2.51h.68c.59,0,1.06-.45,1.06-1.29s-.43-1.22-1.03-1.22Z"/><path class="cls-1" d="M123.69,16.77l1.92,5.65.07.08.41.03v.42h-2.2v-.42l.56-.03.05-.06-.36-1.09h-2.26l-.36,1.07.05.08.57.03v.42h-1.8v-.42l.43-.03.06-.08,1.95-5.65h.9ZM122.05,20.87h1.94l-.95-2.86h-.03l-.96,2.86Z"/><path class="cls-1" d="M130.85,18.62c-.24-.97-.8-1.43-1.47-1.43s-1.06.44-1.06.98c0,.61.35.86,1.42,1.05,1.34.24,1.96.78,1.96,1.88,0,.64-.41,1.92-2.31,1.92-1.04,0-1.7-.35-2.08-.66v-1.64h.43c.16,1.15.76,1.79,1.67,1.79.82,0,1.27-.47,1.27-1.11,0-.54-.21-.88-1.14-1.08-1.37-.29-2.16-.55-2.16-1.8,0-.65.39-1.79,2.07-1.79.92,0,1.56.29,1.85.52v1.37h-.43Z"/><path class="cls-1" d="M136.14,20.81c-.14-.73-.22-.82-.91-.82h-.71v2.48h1.12c.87,0,1.15,0,1.33-1.2h.42v1.68h-4.54v-.42l.52-.03.06-.08v-5.13l-.06-.08-.52-.03v-.42h4.45v1.44h-.41c-.25-.93-.39-.97-1.25-.97h-1.12v2.26h.7c.74,0,.78-.11.92-.83h.39v2.13h-.39Z"/><path class="cls-1" d="M141.22,16.76c1.51,0,2.07.72,2.07,1.69,0,.76-.4,1.42-1.23,1.63l1.29,2.23c.08.13.12.16.28.19l.37.07v.36h-1.54c-.2-.45-1.22-2.28-1.43-2.73h-.67v2.21l.06.08.48.03v.42h-2.21v-.42l.51-.03.07-.08v-5.13l-.07-.08-.51-.03v-.42h2.53ZM141.06,17.23h-.72v2.51h.68c.59,0,1.06-.45,1.06-1.29s-.43-1.22-1.03-1.22Z"/><path class="cls-1" d="M80.03,28l-.51-.03v-.42h1.73v.42l-.47.03-.07.08v3.43c0,1.53-.74,2.3-2.23,2.3-1.86,0-2.31-1.06-2.31-2.26v-3.47l-.05-.08-.51-.03v-.42h2.2v.42l-.5.03s-.04.07-.05.08v3.51c0,.88.24,1.66,1.43,1.66,1.34,0,1.42-.96,1.42-1.73v-3.43l-.07-.09Z"/><path class="cls-1" d="M87.1,32.14v-4.05s-.07-.08-.07-.08l-.53-.03v-.42h1.78v.42l-.49.03-.07.08v5.66h-.86l-3.1-4.85h-.03v4.33l.09.08.47.03v.42h-1.77v-.42l.52-.03.06-.08v-5.13l-.06-.08-.51-.03v-.42h1.62l2.94,4.58h.02Z"/><path class="cls-1" d="M91.33,33.3l.49.03v.42h-2.21v-.42l.51-.03.06-.08v-5.13l-.06-.08-.51-.03v-.42h2.21v.42l-.49.03-.06.08v5.13l.06.08Z"/><path class="cls-1" d="M95.3,33.74l-1.8-5.65-.06-.08-.42-.03v-.42h2.21v.42l-.55.03-.06.08,1.37,4.44h.04c.2-.68,1.17-3.76,1.38-4.44l-.05-.08-.57-.03v-.42h1.78v.42l-.43.03-.06.08-1.82,5.65h-.95Z"/><path class="cls-1" d="M103.07,31.6c-.14-.73-.22-.82-.91-.82h-.71v2.48h1.12c.87,0,1.15,0,1.33-1.2h.42v1.68h-4.54v-.42l.52-.03.06-.08v-5.13l-.06-.08-.52-.03v-.42h4.45v1.45h-.41c-.25-.93-.39-.97-1.25-.97h-1.12v2.26h.7c.74,0,.78-.11.92-.83h.39v2.13h-.39Z"/><path class="cls-1" d="M108.15,27.56c1.51,0,2.07.72,2.07,1.69,0,.76-.4,1.42-1.23,1.63l1.29,2.23c.08.13.12.16.28.19l.37.07v.36h-1.54c-.2-.45-1.22-2.28-1.43-2.73h-.67v2.21l.06.08.48.03v.42h-2.21v-.42l.51-.03.07-.08v-5.13l-.07-.08-.51-.03v-.42h2.53ZM108,28.03h-.72v2.51h.68c.59,0,1.06-.45,1.06-1.29s-.43-1.22-1.03-1.22Z"/><path class="cls-1" d="M115.65,29.41c-.24-.97-.8-1.43-1.47-1.43s-1.06.44-1.06.98c0,.61.35.86,1.42,1.05,1.34.24,1.96.78,1.96,1.88,0,.64-.41,1.92-2.3,1.92-1.04,0-1.7-.35-2.08-.66v-1.64h.43c.16,1.15.76,1.79,1.67,1.79.83,0,1.27-.47,1.27-1.11,0-.54-.21-.88-1.14-1.08-1.37-.29-2.16-.55-2.16-1.8,0-.65.39-1.79,2.07-1.79.92,0,1.56.29,1.85.52v1.37h-.43Z"/><path class="cls-1" d="M119.36,33.3l.49.03v.42h-2.21v-.42l.51-.03.06-.08v-5.13l-.06-.08-.51-.03v-.42h2.21v.42l-.49.03-.06.08v5.13l.06.08Z"/><path class="cls-1" d="M121.46,29.06h-.41v-1.49h4.85v1.49h-.41c-.2-.96-.37-1.01-1.23-1.01h-.25v5.17l.06.08.49.03v.42h-2.22v-.42l.52-.03.06-.08v-5.17h-.24c-.86,0-1.02.08-1.23,1.01Z"/><path class="cls-1" d="M130.07,31.23v1.99l.06.08.49.03v.42h-2.22v-.42l.52-.03.06-.08v-1.91l-1.52-3.23-.07-.08-.43-.03v-.42h2.23v.42l-.55.03-.06.07,1.14,2.46h.04l1.14-2.46-.05-.08-.57-.03v-.42h1.78v.42l-.43.03-.06.08-1.53,3.15Z"/></svg>