<?xml version="1.0" encoding="UTF-8"?><svg id="Layer_1" xmlns="http://www.w3.org/2000/svg" viewBox="0 0 1202.85 355.34"><defs><style>.cls-1{fill:#001c54;}.cls-2{fill:none;stroke:#001c54;stroke-miterlimit:3.86;stroke-width:1.06px;}.cls-3{fill:#fff;}</style></defs><path class="cls-3" d="M148.24,129.57c0-5.5-1.87-9.94-5.9-12.31-2.53-1.48-7.62-1.96-11.83-1.96h-30.68s0,61.94,0,61.94h33.39c7.69,0,13.9,1.74,14.29,8.64h.74v-56.3Z"/><path class="cls-2" d="M148.24,129.57c0-5.5-1.87-9.94-5.9-12.31-2.53-1.48-7.62-1.96-11.83-1.96h-30.68s0,61.94,0,61.94h33.39c7.69,0,13.9,1.74,14.29,8.64h.74v-56.3Z"/><path class="cls-3" d="M148.2,129.57c0-5.5,1.86-9.94,5.91-12.31,2.53-1.48,8.59-1.96,12.8-1.96h30.89s0,61.94,0,61.94h-33.61c-7.69,0-14.87,1.74-15.26,8.64h-.74v-56.3Z"/><path class="cls-2" d="M148.2,129.57c0-5.5,1.86-9.94,5.91-12.31,2.53-1.48,8.59-1.96,12.8-1.96h30.89s0,61.94,0,61.94h-33.61c-7.69,0-14.87,1.74-15.26,8.64h-.74v-56.3Z"/><path class="cls-1" d="M204.22,119.87v65.48h-47.44l-.54,1.35c-.83,2.04-2.31,3.93-7.49,3.93s-6.65-1.89-7.48-3.93l-.55-1.35h-47.35v-65.48h-4.28v1.99l-4.11-1.26c-.47-1.62-1.95-2.81-3.72-2.81-2.15,0-3.9,1.75-3.9,3.9s1.75,3.9,3.9,3.9c.94,0,1.79-.34,2.46-.9l5.37,1.65v5.26l-4.04-.72c-.59-1.39-1.97-2.37-3.58-2.37-2.15,0-3.9,1.75-3.9,3.91s1.75,3.89,3.9,3.89c1.1,0,2.11-.47,2.82-1.22l4.8.86v5.37l-4.21-.19c-.68-1.13-1.92-1.9-3.34-1.9-2.15,0-3.91,1.75-3.91,3.9s1.76,3.9,3.91,3.9c1.3,0,2.44-.64,3.15-1.62l4.4.19v5.83l-4.3.16c-.71-.99-1.87-1.64-3.18-1.64-2.15,0-3.91,1.75-3.91,3.9s1.76,3.9,3.91,3.9c1.41,0,2.64-.76,3.32-1.88l4.16-.15v5.38l-4.71.81c-.71-.76-1.72-1.24-2.84-1.24-2.15,0-3.91,1.75-3.91,3.9s1.76,3.9,3.91,3.9c1.6,0,2.97-.96,3.57-2.34l3.97-.68v5.27l-5.15,1.58c-.67-.56-1.53-.9-2.47-.9-2.15,0-3.9,1.74-3.9,3.9s1.75,3.9,3.9,3.9c1.77,0,3.24-1.19,3.72-2.8l3.9-1.19v5.11l-5.7,2.45c-.61-.41-1.34-.64-2.14-.64-2.15,0-3.9,1.75-3.9,3.9s1.75,3.91,3.9,3.91c1.91,0,3.51-1.39,3.82-3.22l4.01-1.73v4.67h49c1.98,3.46,5.43,5.27,10.66,5.27s8.67-1.8,10.67-5.27h49.08v-69.77h-4.28Z"/><path class="cls-1" d="M116.52,98.02c-9.9,0-17.93,1.54-17.93,3.44s8.03,3.45,17.93,3.45,17.94-1.54,17.94-3.45-8.03-3.44-17.94-3.44Z"/><path class="cls-1" d="M141.21,76.54l-10.35,7.28-.1.73,2.46,1.1c.5.25.5.64.25.87l-6.51,5.49-.62-.06-4.6-6.79c-.32-.44-.21-.88.35-.97l3.09-.51v-.78l-8.02-11.33h-1.31l-8.02,11.33v.78l3.1.51c.54.09.66.53.35.97l-4.62,6.79-.61.06-6.07-5.49c-.25-.24-.24-.62.24-.87l2.46-1.1-.09-.73-10.79-7.28-.87.35,6.33,19.34c3.21-1.44,10.59-2.46,19.24-2.5,8.64.04,16.02,1.06,19.24,2.5l6.33-19.34-.88-.35Z"/><path class="cls-1" d="M148.68,227.74c-9.9,0-17.94,1.54-17.94,3.44s8.04,3.44,17.94,3.44,17.93-1.54,17.93-3.44-8.04-3.44-17.93-3.44Z"/><path class="cls-1" d="M173.38,206.26l-10.35,7.28-.09.74,2.46,1.11c.48.24.48.64.24.87l-6.51,5.49-.62-.05-4.6-6.79c-.32-.43-.2-.87.35-.97l3.09-.5v-.79l-8.01-11.32h-1.32l-8.01,11.32v.79l3.09.5c.56.1.68.53.36.97l-4.61,6.79-.61.05-6.08-5.49c-.25-.23-.25-.63.24-.87l2.46-1.11-.08-.74-10.79-7.28-.87.34,6.33,19.34c3.22-1.44,10.6-2.46,19.24-2.5,8.64.04,16.03,1.06,19.23,2.5l6.34-19.34-.88-.34Z"/><path class="cls-1" d="M180.76,98.02c-9.9,0-17.92,1.54-17.92,3.44s8.02,3.45,17.92,3.45,17.94-1.54,17.94-3.45-8.03-3.44-17.94-3.44Z"/><path class="cls-1" d="M205.46,76.54l-10.35,7.28-.1.73,2.46,1.1c.5.25.5.64.25.87l-6.51,5.49-.61-.06-4.6-6.79c-.33-.44-.21-.88.34-.97l3.09-.51v-.78l-8.01-11.33h-1.31l-8.03,11.33v.78l3.11.51c.54.09.66.53.34.97l-4.6,6.79-.62.06-6.08-5.56c-.25-.23-.24-.62.25-.86l2.46-1.04-.09-.73-10.78-7.28-.88.35,6.33,19.34c3.21-1.44,10.6-2.46,19.24-2.5,8.65.04,16.03,1.06,19.24,2.5l6.33-19.34-.87-.35Z"/><path class="cls-1" d="M108.42,125.11c1.68,0,3.08.33,3.99,1.22.64.61,1.18,1.63,1.18,2.8,0,3.4-2.58,4.86-5.74,4.86h-3.52v-.53c1-.08,1.11-.18,1.11-1.65v-4.51c0-1.47-.11-1.56-1-1.64v-.54h3.99ZM107.75,131.82c0,1.21.3,1.44.96,1.44,1.17,0,2.37-1.29,2.37-3.72,0-2.93-1.49-3.75-2.66-3.75-.32,0-.49.05-.59.1-.06.03-.08.35-.08.69v5.24Z"/><path class="cls-1" d="M123.93,129.44c0,2.92-1.99,4.75-4.62,4.75s-4.54-2.01-4.54-4.53c0-2.21,1.47-4.77,4.74-4.77,2.49,0,4.42,1.84,4.42,4.54ZM117.3,129.21c0,2.47.94,4.28,2.28,4.28,1.17,0,1.81-1.13,1.81-3.61,0-2.74-.98-4.26-2.16-4.26-1.06,0-1.93,1.21-1.93,3.59Z"/><path class="cls-1" d="M135.99,125.11v.54c-1.04.09-1.09.14-1.05,1.58l.13,4.58c.05,1.51.07,1.55,1.05,1.65v.54h-4.28v-.54c1.03-.09,1.07-.14,1.05-1.65l-.04-4.81h-.06l-2.63,6.84h-.74l-2.5-6.36h-.03l-.1,3.03c-.04,1.17-.02,1.83.03,2.25.05.51.35.63,1.23.7v.54h-3.37v-.54c.66-.05.92-.19,1.01-.7.06-.42.14-1.15.21-2.39l.15-2.76c.09-1.72-.01-1.87-1.1-1.96v-.54h3.21l2.4,5.41,2.08-5.41h3.32Z"/><path class="cls-1" d="M140.42,131.8c0,1.48.12,1.57,1.05,1.65v.53h-4.42v-.53c.94-.08,1.05-.17,1.05-1.65v-4.51c0-1.47-.11-1.56-1.05-1.64v-.54h4.42v.54c-.94.08-1.05.18-1.05,1.64v4.51Z"/><path class="cls-1" d="M118.44,150.47h-1.18l-5.05-6.45h-.04v2.51c0,1.44.06,2.19.11,2.61.08.48.45.65,1.34.7v.53h-3.39v-.53c.6-.03.96-.22,1.02-.7.05-.43.11-1.17.11-2.61v-2.51c0-1.01-.03-1.19-.3-1.56-.2-.29-.54-.38-1.03-.43v-.53h3.02l4.54,5.67h.03v-1.83c0-1.43-.05-2.19-.1-2.61-.08-.48-.45-.65-1.34-.7v-.53h3.47v.53c-.68.03-1.03.22-1.1.7-.05.42-.11,1.17-.11,2.61v5.13Z"/><path class="cls-1" d="M123.96,150.47c-.94-2.46-2.22-5.83-2.71-7.12-.45-1.17-.72-1.24-1.38-1.32v-.53h4.41v.53l-.46.05c-.51.06-.51.18-.36.66.25.76,1.33,3.45,1.84,4.79.42-1.16,1.29-3.77,1.52-4.41.29-.84.2-.98-.41-1.05l-.41-.05v-.53h3.31v.53c-.78.1-.97.17-1.51,1.41-.07.19-1.74,4.25-2.76,7.03h-1.06Z"/><path class="cls-1" d="M130.12,147.56c.29.79,1.1,2.31,2.43,2.31.71,0,1.26-.46,1.26-1.35,0-.8-.53-1.25-1.36-1.64l-.21-.09c-1.12-.52-2.39-1.23-2.39-2.69,0-1.54,1.12-2.8,3.26-2.8.42,0,.86.05,1.26.16.31.08.53.13.7.19.06.54.15,1.21.3,2.13l-.6.1c-.3-.91-.77-1.88-1.86-1.88-.7,0-1.19.54-1.19,1.19,0,.69.54,1.08,1.41,1.48l.29.14c1.26.57,2.35,1.26,2.35,2.86,0,1.69-1.35,2.91-3.48,2.91-.54,0-1.1-.11-1.47-.24-.41-.14-.7-.24-.85-.32-.11-.63-.29-1.37-.46-2.29l.6-.17Z"/><path class="cls-1" d="M112.36,164.58c0,1.47.11,1.57,1.05,1.65v.53h-4.42v-.53c.94-.08,1.05-.18,1.05-1.65v-4.51c0-1.47-.11-1.56-1.05-1.64v-.54h4.42v.54c-.94.08-1.05.17-1.05,1.64v4.51Z"/><path class="cls-1" d="M117.77,164.75c0,.71.03,1.05.27,1.17.23.11.53.12.96.12s1.03-.04,1.31-.4c.22-.26.46-.62.67-1.35l.59.1c-.08.51-.37,1.94-.48,2.36h-6.77v-.53c1.03-.08,1.14-.18,1.14-1.65v-4.51c0-1.47-.11-1.56-1.03-1.65v-.53h4.45v.53c-.99.09-1.1.18-1.1,1.65v4.69Z"/><path class="cls-1" d="M125.39,164.75c0,.71.02,1.05.27,1.17.22.11.53.12.95.12s1.03-.04,1.31-.4c.22-.26.45-.62.68-1.35l.59.1c-.09.51-.36,1.94-.5,2.36h-6.77v-.53c1.03-.08,1.15-.18,1.15-1.65v-4.51c0-1.47-.12-1.56-1.03-1.65v-.53h4.44v.53c-.97.09-1.09.18-1.09,1.65v4.69Z"/><path class="cls-1" d="M131.92,166.86c-.94-2.46-2.23-5.83-2.72-7.12-.45-1.17-.72-1.24-1.38-1.32v-.53h4.41v.53l-.47.05c-.5.06-.5.19-.35.66.25.77,1.33,3.46,1.83,4.79.43-1.16,1.3-3.77,1.52-4.41.29-.84.2-.98-.41-1.05l-.41-.04v-.53h3.3v.53c-.78.1-.97.16-1.51,1.41-.08.18-1.74,4.24-2.77,7.03h-1.04Z"/><path class="cls-1" d="M167.09,125.11v.54c-1.03.09-1.09.14-1.05,1.58l.14,4.58c.04,1.51.07,1.55,1.06,1.65v.54h-4.28v-.54c1.02-.09,1.07-.14,1.05-1.65l-.04-4.81h-.06l-2.64,6.84h-.74l-2.5-6.36h-.03l-.1,3.03c-.03,1.17-.02,1.83.03,2.25.05.51.35.63,1.25.7v.54h-3.38v-.54c.65-.05.92-.19,1-.7.07-.42.15-1.15.21-2.39l.16-2.76c.09-1.72-.02-1.87-1.09-1.96v-.54h3.21l2.39,5.41,2.09-5.41h3.32Z"/><path class="cls-1" d="M171.52,131.8c0,1.48.11,1.57,1.05,1.65v.53h-4.42v-.53c.94-.08,1.05-.17,1.05-1.65v-4.51c0-1.47-.12-1.56-1.05-1.64v-.54h4.42v.54c-.94.08-1.05.18-1.05,1.64v4.51Z"/><path class="cls-1" d="M181.69,134.08h-1.18l-5.06-6.45h-.03v2.51c0,1.44.07,2.19.12,2.61.07.49.43.66,1.34.71v.53h-3.4v-.53c.6-.04.96-.22,1.02-.71.07-.42.12-1.17.12-2.61v-2.51c0-1.01-.03-1.18-.31-1.56-.21-.29-.54-.38-1.04-.43v-.54h3.02l4.55,5.67h.03v-1.83c0-1.43-.06-2.19-.11-2.61-.07-.48-.44-.65-1.35-.69v-.54h3.49v.54c-.68.02-1.04.22-1.11.69-.05.42-.1,1.18-.1,2.61v5.14Z"/><path class="cls-1" d="M187.4,133.46l.41-.06c.51-.07.53-.21.35-.7l-.49-1.39h-2.25l-.4,1.3c-.19.59-.19.73.45.8l.4.05v.53h-3.18v-.53c.69-.1.89-.16,1.35-1.3l2.73-7.06.94-.19.92,2.58c.59,1.62,1.18,3.24,1.7,4.62.43,1.19.69,1.26,1.35,1.35v.53h-4.29v-.53ZM185.66,130.49h1.75l-.86-2.61h-.05l-.84,2.61Z"/><path class="cls-1" d="M166.98,148.19c0,1.47.11,1.57,1.26,1.65v.53h-4.78v-.53c1.1-.08,1.2-.17,1.2-1.65v-5.98h-.24c-.9,0-1.28.16-1.49.41-.16.2-.33.56-.51,1.32h-.57c.06-1.15.14-2.1.16-2.78h.42c.21.31.34.34.71.34h5.45c.36,0,.42-.08.65-.34h.42c.02.57.09,1.73.15,2.74l-.6.04c-.21-.82-.36-1.18-.56-1.41-.23-.24-.68-.32-1.33-.32h-.33v5.98Z"/><path class="cls-1" d="M174.13,148.19c0,1.47.11,1.57,1.05,1.65v.53h-4.42v-.53c.94-.08,1.05-.17,1.05-1.65v-4.51c0-1.47-.11-1.56-1.05-1.65v-.53h4.42v.53c-.94.08-1.05.18-1.05,1.65v4.51Z"/><path class="cls-1" d="M185.49,145.83c0,2.93-2,4.76-4.61,4.76-2.76,0-4.56-2.02-4.56-4.53,0-2.21,1.48-4.76,4.73-4.76,2.51,0,4.43,1.83,4.43,4.53ZM178.86,145.59c0,2.47.92,4.28,2.26,4.28,1.18,0,1.82-1.14,1.82-3.61,0-2.74-.99-4.26-2.16-4.26-1.05,0-1.93,1.21-1.93,3.59Z"/><path class="cls-1" d="M171.02,157.88v.54c-1.04.1-1.09.14-1.05,1.58l.13,4.57c.04,1.51.07,1.56,1.05,1.65v.53h-4.28v-.53c1.03-.09,1.07-.14,1.05-1.65l-.04-4.8h-.06l-2.63,6.84h-.73l-2.51-6.36h-.04l-.09,3.03c-.04,1.17-.02,1.83.03,2.25.06.51.35.63,1.24.7v.53h-3.37v-.53c.66-.06.92-.19,1.01-.7.06-.43.14-1.15.21-2.39l.16-2.76c.09-1.72-.02-1.87-1.1-1.96v-.54h3.21l2.39,5.41,2.09-5.41h3.32Z"/><path class="cls-1" d="M173.12,160.07c0-1.48-.11-1.58-1.02-1.65v-.53h6.47c.02.23.08,1.23.16,2.25l-.6.04c-.15-.67-.29-1.05-.51-1.27-.22-.23-.67-.31-1.39-.31h-.23c-.52,0-.55,0-.55.48v2.64h.68c1.17,0,1.22-.08,1.35-1.12h.59v3.22h-.59c-.14-1.2-.18-1.28-1.35-1.28h-.68v2.22c0,.71.03,1.05.28,1.18.21.11.53.12.95.12.55,0,1.15-.08,1.45-.41.22-.25.46-.75.66-1.41l.6.09c-.07.67-.36,2.07-.48,2.43h-6.94v-.53c1.04-.09,1.15-.18,1.15-1.65v-4.51Z"/><path class="cls-1" d="M184.19,166.23l.41-.06c.51-.07.53-.21.35-.7l-.49-1.38h-2.24l-.41,1.31c-.19.59-.19.73.44.79l.4.05v.53h-3.18v-.53c.7-.1.9-.16,1.35-1.3l2.73-7.06.94-.19.92,2.58c.59,1.62,1.18,3.24,1.69,4.63.44,1.19.68,1.26,1.36,1.35v.53h-4.29v-.53ZM182.45,163.27h1.75l-.86-2.61h-.04l-.85,2.61Z"/><path class="cls-1" d="M136.37,276.62c0,1.97-1.6,3.57-3.58,3.57s-3.56-1.6-3.56-3.57,1.59-3.58,3.56-3.58,3.58,1.61,3.58,3.58Z"/><path class="cls-1" d="M172.59,282.56c0,1.97-1.61,3.57-3.57,3.57s-3.57-1.6-3.57-3.57,1.6-3.57,3.57-3.57,3.57,1.6,3.57,3.57Z"/><path class="cls-1" d="M152.11,24.47c0,1.97-1.6,3.57-3.57,3.57s-3.57-1.6-3.57-3.57,1.59-3.57,3.57-3.57,3.57,1.59,3.57,3.57Z"/><path class="cls-1" d="M237.1,57.9c-.09,1.97-1.75,3.5-3.72,3.42-1.98-.08-3.51-1.75-3.42-3.71.08-1.97,1.75-3.5,3.71-3.42,1.97.08,3.5,1.75,3.42,3.72Z"/><path class="cls-1" d="M57.99,211.2c1.37,1.98,2.07,4.09,2.06,6.27,0,2.5-.84,4.52-5.31,7.62l-12.89,9.19-2.37-3.42s13.21-9.41,13.42-9.55c2.28-1.58,3.26-2.73,3.26-4.54,0-1.14-.41-2.38-1.24-3.58-1.29-1.86-2.95-2.45-4.42-2.46-1.32,0-2.74.93-5.29,2.7l-12.12,8.23-2.34-3.36,11.54-7.81c3.21-2.25,5.77-3.8,8.14-3.8,3.47,0,6,2.26,7.55,4.5Z"/><polygon class="cls-1" points="16.79 186.02 41.31 177.42 42.68 181.14 28.64 198.29 46.38 191.26 47.7 194.88 23.45 204.2 22.09 200.48 36.2 183.31 18.1 189.64 16.79 186.02"/><rect class="cls-1" x="13.28" y="164.56" width="25.96" height="4.16" transform="translate(-24.19 5.66) rotate(-8.45)"/><polygon class="cls-1" points="12.35 135.53 12.46 131.22 38.07 141.62 37.9 145.9 11.58 153.75 11.61 149.44 32.95 143.46 12.35 135.53"/><path class="cls-1" d="M35.79,77.44c-3.67.01-5.37,2.11-7.72,6.34l-3.05,5.46,22.88,12.41,1.98-3.57-9.51-5.19.55-1.03c1.61-2.9,2.15-3.33,6.24-2.99l7.4.66,2.12-3.84-8.54-.73c-1.72-.16-3.07-.29-4.17.03-.36.11-.79.33-1.22.63.1-.46.27-.91.28-1.39,0-.73-.1-1.46-.32-2.11-.49-1.52-1.58-2.76-3.22-3.67-1.22-.68-2.45-1.02-3.69-1.02ZM31.17,85.31c1.52-2.77,2.61-3.82,4.22-3.81.59,0,1.35.15,2.11.56.97.55,1.72,1.44,1.99,2.4.11.37.15.75.15,1.12-.01,1.54-.87,3.09-1.78,4.72l-.52.96-7.32-3.93,1.15-2.03Z"/><polygon class="cls-1" points="64.2 40.75 67.51 38.24 83.26 58.87 79.96 61.38 64.2 40.75"/><polygon class="cls-1" points="78.46 30.63 95.25 21.89 96.89 25.04 90.36 28.44 100.71 48.32 97.02 50.24 86.67 30.36 80.09 33.78 78.46 30.63"/><polygon class="cls-1" points="120.35 13.99 124.73 12.78 121.2 30.13 124.06 40 120.1 41.14 117.31 31.35 104.98 18.5 109.25 17.25 118.13 26.5 120.35 13.99"/><polygon class="cls-1" points="199.57 49.48 212.75 27.12 225.15 34.43 223.35 37.49 214.49 32.27 210.85 38.45 219.18 43.36 217.43 46.36 209.08 41.45 203.12 51.58 199.57 49.48"/><polygon class="cls-1" points="266.28 107.32 275.73 96 277.2 100.49 270.16 108.54 280.62 110.89 282.01 115.1 267.71 111.65 257.55 123.82 256.1 119.41 263.77 110.47 252.29 107.87 250.91 103.61 266.28 107.32"/><polygon class="cls-1" points="258.85 132.83 284.73 130.72 285.9 145.07 282.36 145.35 281.52 135.11 274.37 135.69 275.15 145.34 271.69 145.62 270.9 135.97 259.19 136.93 258.85 132.83"/><path class="cls-1" d="M270.3,155.97c-3,0-5.76.81-7.94,2.39-3.92,2.84-4.62,6.91-4.62,9.3,0,8.78,8.24,12.29,14.44,12.29,2.98,0,5.69-.81,7.84-2.36,4.37-3.16,4.61-7.92,4.61-9.46,0-7.66-7.03-12.16-14.32-12.16ZM272.34,175.75c-5.06,0-10.96-2.76-10.96-7.85,0-1.85.64-4.33,2.92-5.98,1.54-1.12,3.54-1.72,5.79-1.72,2.58,0,7.22.73,9.66,4.09.84,1.15,1.27,2.5,1.26,3.93,0,1.99-.81,4.36-2.95,5.9-1.51,1.09-3.49,1.64-5.72,1.64Z"/><path class="cls-1" d="M255.22,69.56c-2.62,0-5.41.83-8.11,2.53-4.99,3.17-6.81,7.7-6.81,11.01,0,2.14.59,4.24,1.81,6.17,2.77,4.37,6.92,5.44,9.73,5.42,2.68,0,5.51-.9,8.18-2.59,3.21-2.04,6.78-5.82,6.78-10.94,0-2.12-.6-4.22-1.83-6.16-2.27-3.58-5.83-5.44-9.75-5.44ZM251.18,90.7c-2.33,0-4.43-.98-5.88-3.27-.74-1.16-1.1-2.43-1.12-3.69,0-2.94,1.85-5.95,5.26-8.11,2.25-1.43,4.46-2.14,6.45-2.12,2.5,0,4.54,1.11,5.89,3.24.81,1.27,1.17,2.62,1.17,3.96,0,2.86-1.81,5.68-5.11,7.76-2.3,1.47-4.62,2.24-6.67,2.24Z"/><path class="cls-1" d="M184.4,16.08c-5.42,0-10.12,3.64-12.03,10.12-.42,1.43-.68,2.86-.68,4.24,0,2.59.44,4.65,1.49,6.59,2.41,4.4,6.8,5.9,10.14,5.9,1.89,0,3.7-.43,5.37-1.35,4.38-2.39,7.27-7.95,7.27-13.27,0-2.31-.45-4.49-1.47-6.35-2.11-3.82-6.02-5.86-10.1-5.86ZM183.06,39.23c-1.88,0-4.59-.92-6.11-3.69-.73-1.34-1.07-2.97-1.07-4.65,0-4.65,3.1-11.17,8.77-11.17,3.17,0,7.16,2.36,7.16,8.23,0,3.74-2.64,11.28-8.75,11.28Z"/><polygon class="cls-1" points="40.6 110.23 44.08 111.22 40.15 125.47 15.03 118.59 19.32 104.17 22.74 105.13 19.58 115.52 26.5 117.42 29.18 107.98 32.52 108.93 29.86 118.34 37.69 120.49 40.6 110.23"/><path class="cls-1" d="M47.18,55.99c3.61-4.04,7.29-3.77,7.29-3.77l.63,3.43s-2.84.08-5.06,2.58c-.97,1.09-1.46,2.22-1.46,3.24,0,.85.33,1.58.99,2.17,1.8,1.6,4.87-.18,6.79-.95,1.48-.61,3.58-1.47,5.69-1.47,1.56,0,3.18.45,4.67,1.77,1.73,1.54,2.6,3.48,2.6,5.51,0,2.2-.86,4.16-2.59,6.1-3.31,3.71-7.77,4.11-7.77,4.11l-.88-3.48c2.63-.61,4.61-1.62,5.81-2.97.95-1.06,1.42-2.25,1.42-3.29,0-.98-.41-1.89-1.21-2.61-.65-.58-1.44-.79-2.3-.77-1.66,0-3.67.95-5.31,1.64-3.16,1.31-6.49,2.36-9.46-.31-1.51-1.35-2.32-3.05-2.32-4.94,0-2,.79-4.12,2.47-6.01Z"/><path class="cls-1" d="M251.96,189.57l9.81,4.44-.48,1.1c-1.33,3.02-1.85,3.51-5.94,3.53h-7.43l-1.77,4.01,8.57-.03c1.74,0,3.08,0,4.14-.41.35-.13.74-.34,1.09-.64-.02.22-.09.43-.1.66-.01.95.17,1.9.52,2.73,1.18,2.74,4.39,4.08,6.72,4.08,4.13,0,5.71-2.48,7.72-7.02.07-.17,2.41-5.56,2.41-5.56l-23.61-10.63-1.64,3.73ZM267.29,204.96c-1.18,0-3.16-.66-3.91-2.61-.19-.49-.27-.99-.26-1.49.02-1.42.69-2.9,1.38-4.45l.44-1,7.49,3.36-.84,2.01c-1.39,3.17-2.31,4.18-4.3,4.18Z"/><path class="cls-1" d="M238.29,214.13c-2.69,3.37-4.74,6.39-4.74,10.28,0,3.31,1.5,7.07,5.3,10.09,2.52,2.02,5.37,3.11,8.3,3.11,3.61,0,6.51-1.08,11-6.72l4.1-5.16-20.28-16.19-3.68,4.6ZM247.54,233.67c-2.07,0-4-.79-6.02-2.4-2.04-1.63-4.21-4.17-4.21-7.41,0-2.26,1.22-4.41,3.11-6.77l1.71-2.16,14.83,11.84-1.13,1.42c-2.75,3.45-4.63,5.49-8.29,5.49Z"/><path class="cls-1" d="M297.45,148.49C297.45,66.61,230.73,0,148.72,0S0,66.61,0,148.49c0,49.12,24.25,94.9,64.89,122.64,4,14.88,17.6,25.89,33.79,25.89,4.37,0,8.62-.83,12.65-2.39,5.44,1.79,11.06,3.28,16.67,4.43-1.58,4.52-3.88,8.79-6.08,12.49,0,0,.05-.02.13-.03-.05.03-.09.05-.13.07l3.09,3.1c.8-.43,1.69-.7,2.65-.7,3.06,0,5.55,2.49,5.55,5.56s-2.49,5.55-5.55,5.55c-2.68,0-5.03-1.71-6.24-3.55,0,0-.73,2.51-.73,5.8-.02,10.67,11.62,22.86,27.77,27.98,16.15-5.01,27.78-17.28,27.78-27.96,0-3.67-.73-5.81-.73-5.81-1.24,1.49-3.25,3.55-6.28,3.55s-5.55-2.5-5.55-5.55,2.49-5.56,5.55-5.56c1.07,0,2.06.32,2.91.85l3.01-3.01c.07.03.11.03.11.03-1.7-4.06-2.95-7.8-3.79-11.4,26.74-3.6,49.31-14.92,67.25-33.78l-.02-.02c37.33-28.36,58.73-71.39,58.73-118.2ZM98.69,292.85c-16.88,0-30.62-13.77-30.62-30.7,0-5.31,1.35-10.3,3.73-14.66,1.57,1.44,3.25,2.91,5.01,4.42-1.49,3.15-2.35,6.64-2.35,10.35,0,9.21,4.64,16.82,13.44,22,5.04,2.97,10.76,5.67,16.81,8.01-1.97.39-3.97.59-6.02.59ZM148.72,248.18c-6.37,0-12.66-.61-18.8-1.79-5.93-11.63-18.1-19.13-31.23-19.13-3.22,0-6.34.48-9.3,1.29-25.26-18.76-40.32-48.6-40.32-80.05,0-54.96,44.7-99.68,99.66-99.68s99.65,44.72,99.65,99.68-44.7,99.68-99.65,99.68ZM170.9,249.94c-2.99,4.27-4.76,10.2-5.3,16.2-9.43-2.43-18-5.7-25.46-9.1,1.41-2.75,5.49-4.7,8.58-4.7,7.61,0,15.02-.85,22.18-2.4ZM139.3,251.91c-1.27.95-2.29,2.07-3.01,3.31-3.76-1.82-8.49-4.18-11.58-5.91,4.38.97,10.1,2.19,14.6,2.6ZM98.69,231.43c10.26,0,19.86,5.26,25.5,13.69-4.94-1.25-9.77-2.88-14.5-4.89l-.02.03-.15-.09c-3.31-1.56-6.84-2.34-10.51-2.34-8.17,0-15.41,4-19.88,10.14-1.88-1.04-3.76-2.14-5.6-3.29,5.53-8,14.74-13.25,25.16-13.25ZM169.24,309.73c-5.49,0-9.99,3.88-9.99,9.84s4.56,9.83,9.99,9.83c.82,0,1.61-.14,2.37-.33-1.13,8.25-10.75,17.48-23.13,21.62-12.28-4.11-21.89-13.42-23.16-21.62.76.2,1.54.33,2.37.33,5.91,0,9.98-4.13,9.98-9.83s-4.26-9.7-9.76-9.81c1.67-3.07,3.28-6.33,4.47-9.84,6.81,1.19,13.54,1.84,19.78,1.84,5.12,0,10.09-.28,14.95-.77.65,2.81,1.6,5.76,2.73,8.8-.2-.02-.39-.05-.58-.05ZM152.14,297.58c-19.94,0-44.84-6.78-61.93-16.87-5.18-3.06-11.36-8.74-11.36-18.46,0-2.62.52-5.13,1.43-7.43,6.39,5.28,12.98,10.23,17.12,12.49.95.52,1.5.78,2.61.78,2.66,0,4.81-2.16,4.81-4.84,0-2.03-1.1-3.68-2.92-4.48-3.54-1.54-10.95-4.6-18.92-8.74,3.69-4.87,9.5-8.03,16.04-8.03,2.99,0,5.86.64,8.55,1.91l5.47,3.19c17.38,10.62,62.08,37.84,116.07,22.87-20.5,18.49-45.73,27.61-76.96,27.61ZM235.87,263.51c-24.16,8.55-46.71,7.97-65.95,3.67.63-8.59,4.19-17.78,9.62-19.49,42.37-13.14,73.24-52.64,73.24-99.2,0-57.27-46.68-103.86-104.06-103.86s-104.05,46.59-104.05,103.86c0,31.86,14.88,62.12,39.92,81.74-5.94,2.61-11.02,6.85-14.69,12.1-1.89-1.29-3.72-2.63-5.42-4.02l-.95.95c1.14,1.37,2.9,3.18,5.01,5.2-3.08,5.19-4.87,11.23-4.87,17.69,0,1,.07,1.99.15,2.98C26.54,237.96,4.39,194.77,4.39,148.49,4.39,68.91,69.14,4.18,148.72,4.18s144.32,64.74,144.32,144.32c0,45.58-20.83,87.46-57.17,115.02Z"/><path class="cls-1" d="M483.51,233.21c0,39.73-30.68,68.57-68.98,68.57s-68.98-29.16-68.98-67.14,30.65-68.61,68.98-68.61,68.98,29.21,68.98,67.18ZM461.61,233.94c0-36.14-17.53-61.34-47.07-61.34-32.13,0-47.09,30.28-47.09,61.34,0,36.09,17.51,61.28,47.09,61.28,32.11,0,47.07-30.25,47.07-61.28Z"/><path class="cls-1" d="M904.67,233.21c0,39.73-30.66,68.57-68.98,68.57s-68.98-29.16-68.98-67.14,30.66-68.61,68.98-68.61,68.98,29.21,68.98,67.18ZM882.78,233.94c0-36.14-17.53-61.34-47.09-61.34-32.1,0-47.07,30.28-47.07,61.34,0,36.09,17.52,61.28,47.07,61.28,32.11,0,47.09-30.25,47.09-61.28Z"/><path class="cls-1" d="M957.95,234.64h16.42c24.82,0,30.3-15.65,30.3-30.65,0-11.31-5.12-21.9-16.79-26.99-6.2-2.57-12.05-2.57-20.07-2.57h-9.86v60.21ZM988.25,255.79c-7.67-10.94-10.6-14.95-20.07-14.95h-10.23v44.53c0,3.65,1.47,5.44,5.49,6.2l14.95,3.29v4.76h-58.75v-4.76l13.51-3.29c4-1.08,5.46-2.55,5.46-6.2v-102.91c0-3.65-1.47-5.12-5.46-6.2l-13.51-3.3v-4.75h57.29c12.05,0,20.44,1.1,27.38,3.64,14.22,5.49,22.25,19.02,22.25,31.76,0,16.08-12.05,29.6-32.12,34.3v.73c4.02,1.85,6.21,4.38,20.44,23.02l17.89,23.7c2.55,3.65,5.84,5.83,9.86,6.58l13.13,2.91v4.76h-31.38c-3.65,0-5.48-1.12-8.76-5.51l-27.38-38.31Z"/><path class="cls-1" d="M730.95,213.11h5.47v43.8h-5.47l-3.29-13.14c-1.09-4.75-4.01-6.57-8.39-6.57h-31.76v48.16c0,3.66,1.46,5.45,5.48,6.2l14.97,3.29v4.76h-58.75v-4.76l13.5-3.29c4.01-1.08,5.48-2.54,5.48-6.2v-102.92c0-3.65-1.46-5.11-5.48-6.18l-13.5-3.3v-4.77h99.26v32.89h-5.48l-6.19-19.73c-1.45-5.09-3.65-6.93-8.03-6.93h-41.25v56.56h31.76c4.37,0,6.93-1.8,8.39-6.57l3.29-11.31Z"/><path class="cls-1" d="M1066.35,299.62v-4.76l13.5-3.29c4.03-1.08,5.49-2.54,5.49-6.2v-102.91c0-3.66-1.46-5.12-5.49-6.19l-13.5-3.3v-4.76h61.69c16.78,0,28.83,2.19,38.68,6.57,24.83,11.32,36.14,35.75,36.14,59.85s-8.77,45.26-31.03,56.93c-10.22,5.5-24.45,8.05-43.06,8.05h-62.41ZM1104.67,174.42v113.13c0,4.77,1.1,5.88,5.85,5.88h16.06c15.32,0,26.64-2.23,34.67-8.06,13.49-9.83,19.7-27.71,19.7-50.35s-6.21-44.15-24.45-54.74c-7.65-4.4-17.52-5.86-32.86-5.86h-18.97Z"/><path class="cls-1" d="M534.97,294.85v4.76h-46.34v-4.76l11.67-2.9c4.4-1.13,7.29-2.55,10.21-5.84l40.16-50.36-40.16-53.29c-2.55-3.66-5.81-5.47-9.86-6.58l-10.95-2.91v-4.76h57.67v4.76l-12.4,2.53c-4.39.76-3.29,2.57-1.11,5.49l29.57,42.34h.72l30.3-42.34c2.18-2.92,2.93-4.01-1.09-5.12l-11.69-2.91v-4.76h46.36v4.76l-11.68,2.91c-4.38,1.11-7.3,2.55-10.22,5.83l-37.96,47.84,42.33,55.81c2.57,3.66,5.85,5.45,9.86,6.59l10.96,2.9v4.76h-57.67v-4.76l12.41-2.53c4.38-.75,3.65-2.18,1.46-5.15l-32.12-45.24h-.72l-32.47,44.93c-2.2,2.91-2.93,3.96,1.08,5.09l11.69,2.9Z"/><path class="cls-1" d="M396.73,106.38c-3.64,3.63-9.08,6.05-16.68,6.05-6.61,0-12.76-2.09-16.91-6.23-5.67-5.67-5.4-12.9-5.4-20.64v-36.54h7.45v39.25c0,4.97-.14,9.8,3.69,13.65,2.67,2.66,6.75,4.1,11.46,4.1s8.3-1.59,10.6-3.89c4.28-4.28,4.02-8.93,4.02-20.18v-32.93h7.32v31c0,11.78.49,20.31-5.55,26.36Z"/><polygon class="cls-1" points="462.85 111.26 432.87 60.24 433.06 111.26 426.21 111.26 426.21 49.02 433.86 49.02 463.95 100.32 463.75 49.02 470.6 49.02 470.6 111.26 462.85 111.26"/><rect class="cls-1" x="496.56" y="49.02" width="7.49" height="62.23"/><polygon class="cls-1" points="550.62 111.26 542.04 111.26 520.57 49.02 528.37 49.02 546.54 103.96 565.23 49.02 572.49 49.02 550.62 111.26"/><polygon class="cls-1" points="589.43 111.26 589.43 49.02 623.26 49.02 623.26 55.23 596.75 55.23 596.75 75.77 621.64 75.77 621.64 81.82 596.75 81.82 596.75 104.86 624 104.86 624 111.26 589.43 111.26"/><path class="cls-1" d="M671.32,58.38c-3.57-3.57-8.18-3.41-13.27-3.41h-6.89v23.26h2.48c6.28,0,13.04.32,17.32-3.96,2.06-2.06,3.21-4.95,3.21-8.1,0-3.51-1.38-6.31-2.85-7.79ZM678.11,111.26l-7.14-16.14c-4.45-9.92-6.45-10.94-15.47-10.94h-4.35v27.09h-7.35v-62.23h13.43c8.31,0,14.58-.06,19.47,4.83,3.11,3.13,4.85,7.26,4.85,12.45,0,4.33-1.25,7.92-3.87,10.7-2.23,2.38-5.95,4.47-9.99,4.91,2.2.12,4,1.31,5.18,2.49,1.7,1.69,2.93,4.26,4.75,8.32l8.27,18.54h-7.8Z"/><rect class="cls-1" x="758.62" y="49.02" width="7.49" height="62.23"/><polygon class="cls-1" points="808.84 55.23 808.84 111.26 801.35 111.26 801.35 55.23 782.87 55.23 782.87 49.02 827.28 49.02 827.28 55.23 808.84 55.23"/><polygon class="cls-1" points="863.11 86.66 863.11 111.26 855.71 111.26 855.71 86.66 835.96 49.02 844.51 49.02 859.85 78.21 874.75 49.02 882.86 49.02 863.11 86.66"/><path class="cls-1" d="M952.68,54.2c-12.2,0-20.12,10.3-20.12,25.83s8.81,25.99,20.51,25.99c13.01,0,20.25-11.07,20.25-26.49s-8.55-25.33-20.65-25.33ZM952.71,112.44c-16.12,0-27.9-13.3-27.9-32.02s11.66-32.58,28.47-32.58,27.8,13.22,27.8,32.01-11.53,32.59-28.37,32.59Z"/><polygon class="cls-1" points="1008.97 55.23 1008.97 75.76 1033.04 75.76 1033.04 81.81 1008.97 81.81 1008.97 111.26 1001.54 111.26 1001.54 49.02 1034.59 49.02 1034.59 55.23 1008.97 55.23"/><path class="cls-1" d="M701,64.21c0-9.57,7.69-16.36,18.93-16.36s16.85,5.87,17.39,6.48l-3.64,4.43c-1.4-1.09-6.38-4.75-13.26-4.75-7.93,0-12.34,4.15-12.34,9.78,0,2.73,1.12,4.69,2.92,6.3,2.13,1.92,5.25,3.34,8.6,4.89,4.17,1.91,9.88,4.07,13.72,8.05,2.66,2.75,4.67,6.32,4.67,11.22,0,10.36-7.19,18.24-20.1,18.24-11.01,0-17.96-6.06-18.61-6.66l3.43-5.06c1.77,1.32,8.68,5.42,15,5.42,9.37,0,12.87-5.14,12.87-11.34,0-2.86-1.3-5.17-3.25-7.02-2.89-2.81-7.3-4.67-11.5-6.6-4.19-1.92-8.21-3.91-11.07-6.92-1.88-1.97-3.75-5.19-3.75-10.08Z"/></svg>