<?xml version="1.0" encoding="utf-8"?>
<!-- Generator: Adobe Illustrator 19.2.1, SVG Export Plug-In . SVG Version: 6.00 Build 0)  -->
<svg version="1.1" id="layer" xmlns="http://www.w3.org/2000/svg" xmlns:xlink="http://www.w3.org/1999/xlink" x="0px" y="0px"
	 viewBox="0 266 652 120" style="enable-background:new 0 0 652 652;" xml:space="preserve">
<style type="text/css">
	.st0{clip-path:url(#SVGID_2_);fill:url(#SVGID_3_);}
	.st1{fill:#00AEEF;}
	.st2{fill:#002F54;}
</style>
<g>
	<defs>
		<path id="SVGID_1_" d="M100,363.9c7.9-0.1,15.3-1.2,21.9-3.5c1.7-0.6,3.2-1.2,4.7-1.8c-1.8,4.5-4.5,8.2-8,11
			c-6.9,5.1-15.1,8.6-24,9.9C96.8,375.7,98.6,370.2,100,363.9 M63,374.8c-0.2-0.1-0.3-0.3-0.5-0.4c-3.1-1.5-4.3-8.4-2.7-18.9
			c5.9,2.7,12.4,4.8,19.2,6.2c5.1,1.1,10.3,1.8,15.3,2c-2.5,10.7-5.6,16.3-7.7,16.3c-0.1,0-0.3,0-0.4,0
			C77.9,380.1,70,378.2,63,374.8 M34.3,340.7c-0.5-1.8-0.8-3.6-0.9-5.5c1.9,2.6,4.1,5.2,6.8,7.7c4.1,3.8,8.9,7.1,14.3,10
			c-1.1,6.2-1.4,11.7-0.7,16.2C44.5,362.1,37.6,352.2,34.3,340.7 M103.5,325.8c0-2.2,0-4.4-0.1-6.5c6.9-0.5,13.3-2.3,18.6-5.3
			c4.9,9.6,7.5,19.8,7.4,29.3c0,2.8-0.2,5.4-0.7,7.9c-2.5,1.5-5.4,2.9-8.6,3.9c-5.7,1.9-12.2,3-19.1,3.2
			C102.7,348.4,103.5,336.9,103.5,325.8 M80.1,356.3c-6.9-1.5-13.4-3.7-19.3-6.4c1.9-8.7,5.5-19.3,11.3-31c0.8-1.7,1.7-3.4,2.5-5
			c4,1.8,8.3,3.2,12.9,4.2c3.5,0.7,6.9,1.1,10.3,1.3c0.1,2.1,0.1,4.2,0.1,6.5c0,13.1-1,24-2.6,32.5C90.4,358,85.3,357.4,80.1,356.3
			 M44,338.8c-4.7-4.4-8-9-9.6-13.6c1.3-5.1,3.9-10.3,7.6-15.3c3.5-4.7,8-8.9,13-12.6c1.5,2.6,3.5,5.2,6.1,7.6
			c2.5,2.3,5.4,4.4,8.6,6.3c-0.9,1.7-1.7,3.4-2.6,5.1c-4.9,10.1-9,21-11.3,30.8C51.4,344.8,47.4,341.9,44,338.8 M99.7,287.1
			c6.3,4.7,12.1,10.8,17,17.9c0.9,1.3,1.8,2.7,2.6,4.1c-4.4,2.6-10.1,4.1-16.1,4.5C102.7,304,101.5,294.8,99.7,287.1 M88.7,312.6
			c-4-0.9-7.9-2.1-11.4-3.6c5.2-9.1,10.9-17,16.5-22.8c1.8,6.9,3.2,16.1,3.8,27.6C94.7,313.6,91.7,313.2,88.7,312.6 M64.9,301
			c-2.3-2.2-4-4.4-5.2-6.7c5.2-3.1,11-5.7,17.1-7.5c3.7-1.1,7.4-1.9,11-2.5c-5.3,6-10.6,13.6-15.5,22.1
			C69.6,304.8,67.1,303,64.9,301 M52.9,283.3c-0.1,0.3-0.2,0.6-0.2,0.9c-0.6,2.6-0.5,5.3,0.2,8c-6,4.1-11.2,9-15.3,14.5
			c-1.3,1.7-2.4,3.4-3.4,5.1C37.2,300.3,43.9,290.4,52.9,283.3 M58.2,285.3c0.6-2.9,2.4-5.5,5-7.6c6.5-1.9,14.1-1.5,22,1.4
			c-3.3,0.6-6.7,1.4-10,2.4c-6.1,1.8-11.9,4.4-17.2,7.4C57.9,287.7,57.9,286.5,58.2,285.3 M103.3,278c1.9-1.2,3.7-2.1,5.1-2.4
			c2.8,1.1,5.6,2.5,8.2,4.4C112.4,278.8,107.9,278.2,103.3,278 M93.9,272c2.3,0.3,4.7,0.6,7.1,1.2c-1.5,0.8-3.2,1.9-4.8,3.1
			C95.6,274.7,94.8,273.3,93.9,272 M87.9,274.2c-2.5-1-5-1.7-7.5-2.2c2-0.2,4-0.3,6-0.3c0.9,0,2.1,1.1,3.3,3.4
			C89.1,274.7,88.5,274.4,87.9,274.2 M26.7,325.9c0,5.7,0.8,11.2,2.3,16.4c0.1,0.3,0.2,0.7,0.3,1c0,0.1,0,0.1,0.1,0.2
			c7.5,24.4,30.3,42.2,57.2,42.2c12.4,0,24-3.8,33.5-10.3c0.1-0.1,0.2-0.1,0.3-0.2c0.6-0.4,1.1-0.8,1.6-1.2
			c11-8.1,19.1-19.9,22.6-33.6c0.2-0.6,0.4-1.3,0.5-1.9c0-0.2,0-0.3,0.1-0.5c0.8-3.9,1.2-8,1.2-12.2c0-8.1-1.6-15.9-4.7-23.3
			c-0.6-1.4-2.2-2.1-3.6-1.5c-1.4,0.6-2.1,2.2-1.5,3.6c2.8,6.7,4.3,13.8,4.3,21.1c0,4.5-0.6,8.8-1.6,13c-0.8,2.6-2.3,5.1-4.3,7.3
			c0-0.9,0.1-1.9,0.1-2.9c0-10.7-2.9-21.9-8.4-32.5c4-3.4,6.6-7.7,7.5-12.5c0.3-1.5-0.7-3-2.2-3.2c-1.5-0.3-3,0.7-3.2,2.2
			c-0.6,3.1-2.2,6-4.8,8.5c-0.8-1.3-1.6-2.6-2.5-3.9c-4.9-7.2-10.7-13.4-17-18.3c8.4,0.6,16.1,2.6,22.4,6.1c1,0.6,2.3,0.5,3.2-0.2
			c1.2-1,1.3-2.7,0.4-3.9c-9-12.5-24.5-19.5-43.7-19.5C53.5,266,26.7,292.9,26.7,325.9"/>
	</defs>
	<clipPath id="SVGID_2_">
		<use xlink:href="#SVGID_1_"  style="overflow:visible;"/>
	</clipPath>
	
		<radialGradient id="SVGID_3_" cx="-285.2915" cy="912.7721" r="1.6313" gradientTransform="matrix(60.7425 0 0 -60.7427 17470.3477 55732.5625)" gradientUnits="userSpaceOnUse">
		<stop  offset="0" style="stop-color:#FFFFFF"/>
		<stop  offset="5.980000e-002" style="stop-color:#E7F6FD"/>
		<stop  offset="0.1829" style="stop-color:#AFE2FA"/>
		<stop  offset="0.3589" style="stop-color:#37C6F4"/>
		<stop  offset="0.544" style="stop-color:#00AEEF"/>
		<stop  offset="1" style="stop-color:#002F54"/>
	</radialGradient>
	<rect x="26.7" y="266" class="st0" width="119.6" height="119.6"/>
</g>
<path class="st1" d="M170.1,362.4V342h4v20.3H170.1z M177.7,362.4V342h7.7c4.2,0,6.6,1.6,6.6,5.4c0,3.6-2.1,4.2-3.2,4.2v0.1
	c1.4,0,4.5,1.2,4.5,5c0,4.2-3.3,5.7-7.1,5.7C186.2,362.4,177.7,362.4,177.7,362.4z M184.9,350.5c2.2,0,2.9-1.1,2.9-2.6
	c0-1.6-1.1-2.6-3.5-2.6h-2.7v5.2C181.7,350.5,184.9,350.5,184.9,350.5z M185.4,359.1c2,0,3.5-0.6,3.5-2.9c0-2.1-1.5-2.9-3.6-2.9
	h-3.6v5.8H185.4z M212.7,362.3c0,0-0.8,0.2-2.1,0.2c-6.2,0-4.5-7.7-8.8-7.7h-2.1v7.6h-4V342h7.1c5,0,7.7,1.8,7.7,6.4
	c0,3-1.9,4.6-3.5,5.2c2.1,1.7,2.2,5.7,4.9,5.7h0.8L212.7,362.3L212.7,362.3z M202.4,351.7c2.4,0,4.2-1.1,4.2-3.2
	c0-2-1.4-3.3-3.9-3.3h-3v6.5H202.4z M214.5,362.4V342h6c5.3,0,10.1,2.9,10.1,10.5c0,7.2-4.3,9.8-9.2,9.8L214.5,362.4L214.5,362.4z
	 M221.2,359.1c3.1,0,5.3-2.3,5.3-6.6c0-4.5-1.9-7.2-6.2-7.2h-1.9v13.8H221.2z M242.4,357.7c-2.1,0-3.7-1.7-3.7-3.8
	c0-2.1,1.7-3.8,3.7-3.8c2.1,0,3.8,1.7,3.8,3.8C246.2,356,244.5,357.7,242.4,357.7z M255.3,362.4V342h4v20.3H255.3z M262.8,362.4V342
	h5.9c5.3,0,10.1,2.9,10.1,10.5c0,7.2-4.3,9.8-9.2,9.8L262.8,362.4L262.8,362.4z M269.6,359.1c3.1,0,5.3-2.3,5.3-6.6
	c0-4.5-1.9-7.2-6.2-7.2h-1.9v13.8H269.6z M292.1,357.3h-7.2l-1.7,5.1H279l7.5-20.3h4.1l7.5,20.3h-4.1L292.1,357.3z M286,354.2h5.1
	l-2.6-7.4L286,354.2z"/>
<path class="st2" d="M159.5,292.7h30.2v6.2h-11.1V330h-8v-31.1h-11.1L159.5,292.7L159.5,292.7z M193.9,330v-37.3h8v14.7h14.1v-14.7
	h8.1V330h-8v-16.4H202V330H193.9z M230.7,292.7h25v6.2h-17v8.7h15.9v6.2h-15.9v10h17.6v6.2h-25.6L230.7,292.7L230.7,292.7z
	 M295.4,292.7h9l6.5,28h0.1l6-28h7.6l-9.5,37.3h-8.9l-6.7-28.4h-0.1l-7.2,28.4h-9.1l-9.1-37.3h8.3l5.7,28h0.1L295.4,292.7z
	 M327.4,311.4c0-11,5.6-19.4,17.9-19.4c12.3,0,17.9,8.4,17.9,19.4s-5.6,19.4-17.9,19.4C333,330.8,327.4,322.3,327.4,311.4z
	 M335.9,311.4c0,6.4,1.5,13.6,9.4,13.6c7.9,0,9.4-7.2,9.4-13.6c0-6.4-1.5-13.6-9.4-13.6C337.4,297.7,335.9,304.9,335.9,311.4z
	 M376.5,330h-8v-37.3h15.8c6.4,0.1,13,2.1,13,9.7c0,4.8-3.1,8.1-7.7,9v0.1c6.1,0.7,6.1,4.4,6.8,9.6c0.4,2.4,0.7,6.8,2.2,8.8h-8.8
	c-0.7-3.3-1-6.7-1.4-10c-0.2-2.1-0.7-4.9-3.4-5h-8.5L376.5,330L376.5,330z M376.5,308.8h6.7c3.5-0.1,5.6-1.8,5.6-5.1
	c0-3.3-2.1-4.7-5.6-4.7h-6.7V308.8z M403.4,330v-37.3h8v31.1h16.2v6.2H403.4z M432,292.7h12.7c11.6-0.1,18.8,5.7,18.8,18.6
	c0,13-7.2,18.7-18.8,18.6H432V292.7L432,292.7z M440,323.8h4.1c9.5,0.1,10.9-6.5,10.9-12.4c0-5.9-1.4-12.5-10.9-12.4H440V323.8z
	 M483.8,330v-37.3h14c6.7-0.4,13.5,2.4,13.5,9.7c0,4.1-2.8,6.9-6.6,8.2v0.1c4.7,1,8.2,4.2,8.2,9.7c0,7.4-9.3,10.1-15,9.7
	C497.9,330,483.8,330,483.8,330z M498,323.8c3.8,0,6.3-0.7,6.3-5c0-4.3-2.6-5-6.3-5h-6.3v9.9L498,323.8L498,323.8z M498,307.7
	c3.4,0,5.2-1.4,5.2-4.4c0-3-1.9-4.4-5.2-4.4h-6.3v8.8L498,307.7L498,307.7z M515.4,330l13.5-37.3h9.5l13,37.3h-8l-2.7-7.9h-14.8
	L523,330C523,330,515.4,330,515.4,330z M538.6,315.9l-5.1-15.9h-0.1l-5.5,15.9H538.6z M577.7,330L563,299l-0.1,0.1V330h-7.5v-37.3
	h11.9l14.2,29.3l0.1-0.1v-29.2h7.5V330H577.7z M603.7,308.8h0.1l12.4-16.1h9.3l-13.7,16.7l14.9,20.6h-10l-13-19h-0.1v19h-8v-37.3h8
	L603.7,308.8L603.7,308.8z"/>
</svg>
