<?xml version="1.0" encoding="UTF-8"?>
<svg id="Layer_1" xmlns="http://www.w3.org/2000/svg" version="1.1" viewBox="0 0 1673 2500">
  <!-- Generator: Adobe Illustrator 29.4.0, SVG Export Plug-In . SVG Version: 2.1.0 Build 152)  -->
  <defs>
    <style>
      .st0 {
        fill: #272728;
      }
    </style>
  </defs>
  <path class="st0" d="M583.9,2043.9c-15.9,0-29.2,8-34.5,21.2l-66.3,172.3-5.3,18.6-5.3-18.6-53-167v-2.6c-5.3-13.3-18.6-23.9-34.5-23.9h-84.8c-18.6,2.6-31.8,15.9-31.8,37.1s2.6,10.6,2.6,15.9l10.6,37.1-39.8,103.4-8,18.6-5.3-18.6-50.4-167v-2.6h-2.6c-2.6-13.3-15.9-23.9-31.8-23.9H59.1c-18.6,2.6-34.5,15.9-34.5,37.1s2.7,10.6,5.3,15.9l124.6,376.4c5.3,15.9,18.6,26.5,34.5,26.5s29.2-10.6,34.5-23.9l87.5-222.7,8-21.2,5.3,21.2,74.2,220c2.6,15.9,18.6,26.5,34.5,26.5s29.2-10.6,34.5-23.9l148.4-381.7c2.6-5.3,2.6-10.6,2.6-15.9,0-18.5-15.9-34.4-34.4-34.4h0ZM1212.2,2043.9c-15.9,0-29.2,8-34.5,21.2l-66.3,172.3-5.3,18.6-5.3-18.6-53-167v-2.6c-5.3-13.3-18.6-23.9-34.4-23.9h-84.8c-18.6,2.6-31.8,15.9-31.8,37.1s0,10.6,2.6,15.9l10.6,37.1-39.8,103.4-8,18.6-5.3-18.6-50.4-167-2.6-2.6c-2.6-13.3-15.9-23.9-31.8-23.9h-84.8c-18.6,2.6-34.5,15.9-34.5,37.1s2.7,10.6,5.3,15.9l124.6,376.4c5.3,15.9,18.6,26.5,34.5,26.5s29.2-10.6,34.4-23.9l87.5-222.7,8-21.2,5.3,21.2,74.2,220c2.6,15.9,18.6,26.5,34.4,26.5s29.2-10.6,34.5-23.9l148.4-381.7c2.6-5.3,2.6-10.6,2.6-15.9,0-18.5-15.9-34.4-34.5-34.4h0ZM1620.4,2043.9h-294.3c-18.6,0-31.8,13.3-31.8,31.8v389.7c2.6,18.6,15.9,31.8,34.4,31.8h82.2c18.6,0,31.8-13.2,31.8-31.8v-182.9h121.9c15.9,0,31.8-15.9,31.8-31.8s-15.9-34.5-31.8-34.5h-121.9v-103.4h177.6c18.6,0,34.5-15.9,34.5-34.5,0-18.6-15.9-34.5-34.4-34.5h0ZM1164.5,798c53,58.3,58.3,238.6,193.5,167,79.5-42.4,79.5-222.7-29.2-288.9-87.5-50.4-135.2,18.6-167,103.4-2.6,8-2.6,13.3,2.7,18.6h0ZM955.1,768.9c-58.3,45.1-95.4,175-198.8,129.9-84.8-42.4-92.8-206.8,53-283.6,100.7-47.7,151.1,45.1,151.1,143.1,0,2.6-2.7,8-5.3,10.6h0ZM1092.9,1094.9c55.7-5.3,42.4-58.3,0-68.9-37.1-13.3-92.8-21.2-135.2-18.6-71.6,0-68.9,55.7-31.8,66.3,29.2,8,47.7,10.6,71.6,42.4,21.2,42.4,10.6-13.3,95.5-21.2h0ZM1355.3,172.5c68.9-116.6,190.9-95.4,251.8-37.1,66.3,63.6,79.5,137.8,53,188.2-34.5,68.9-124.6,151.1-182.9,71.6-26.5-37.1-79.5-79.5-111.3-90.1-45.1-21.2-53-61-10.6-132.5Z"/>
  <path class="st0" d="M1633.7,684.1c-5.3-21.2-15.9-18.6-15.9-2.6,5.3,212.1-121.9,440-392.3,442.7-68.9,0-47.7,108.7-175,53-90.1-61-143.2,61-206.8-68.9-15.9-37.1-37.1-53-63.6-61-267.7-66.3-352.6-434.7-116.6-731.6,45.1,29.2,63.6,34.5,114-13.3,23.9-23.9,68.9-50.4,92.8-58.3,55.7-21.2,87.5-45.1,37.1-153.8-23.2-51.2-54.8-78.5-88.5-90.1h-90c-25.7,7.7-49.7,20.3-70.7,37.1-68.9,55.7-114,143.1-29.2,246.5-238.5,161.7-281,360.5-275.7,535.5,5.3,182.9-39.8,167,18.6,352.6,5.3,15.9-8,15.9-15.9,10.6-249.2-159.1-384.4-646.8,5.3-914.6,8-8,5.3-18.6-26.5,0C-1.9,445.5-33.7,790.1,22,1023.4c26.5,111.3-13.3,132.5,29.2,281,100.7,307.5,185.6,334,307.5,342,220,0,68.9-121.9,79.5-273,0-10.6,10.6-13.3,15.9,5.3,121.9,270.4,206.8,516.9,524.9,493.1,182.9-23.9,82.2-114,68.9-167-135.2-448,193.5-554,100.7-116.6-61,251.8,132.5,225.3,270.4,135.2,140.5-90.1,315.5-702.5,214.8-1039.1h0ZM1098.2,1216.9c-31.8,79.5-188.2,53-193.5-26.5,0-2.6,5.3-2.6,5.3,0,71.6,15.9,137.8,23.9,182.9,23.9s5.3-2.6,5.3,2.6h0Z"/>
  <path class="st0" d="M411.6,1784.2c0,42.4-34.4,76.8-76.9,76.9-45.1,0-79.5-34.5-79.5-76.9s34.5-79.5,79.5-79.5c42.4,0,76.9,37.1,76.9,79.5ZM334.8,1691.4c-53,0-95.4,39.8-95.4,92.8s42.4,92.8,95.4,92.8,92.8-42.4,92.8-92.8-42.4-92.8-92.8-92.8h0Z"/>
  <path class="st0" d="M361.3,1797.4c-2.7,13.3-13.3,21.2-23.9,21.2-18.6,0-31.8-15.9-31.8-34.5s10.6-34.4,29.2-34.4,23.9,8,26.5,18.6h13.3c-2.7-21.2-18.6-31.8-39.8-31.8s-45.1,21.2-45.1,47.7,18.6,47.7,47.7,47.7,31.8-13.2,37.1-34.5h-13.3ZM1639,1906.1c0,42.4-34.4,76.9-76.9,76.9-45.1,0-79.5-34.5-79.5-76.9s34.4-79.5,79.5-79.5,76.9,37.1,76.9,79.5ZM1562.1,1813.3c-53,0-95.4,39.8-95.4,92.8s42.4,92.8,95.4,92.8,92.8-42.4,92.8-92.8-42.4-92.8-92.8-92.8Z"/>
  <path class="st0" d="M1546.2,1911.4h13.2l23.9,39.8h15.9l-26.5-39.8c13.3-2.7,23.9-8,23.9-23.9s-10.6-26.5-31.8-26.5h-31.8v90.1h13.2v-39.8s0,0,0,0ZM1546.2,1900.8v-26.5h15.9c10.6,0,21.2,0,21.2,10.6,0,15.9-10.6,15.9-21.2,15.9h-15.9Z"/>
</svg>